<svg width="270" height="106" viewBox="0 0 270 106" fill="none" xmlns="http://www.w3.org/2000/svg">
<rect x="0.225" y="0.274805" width="269.55" height="105.45" fill="white"/>
<rect x="0.225" y="0.274805" width="269.55" height="105.45" stroke="#C2D1EB" stroke-width="0.45"/>
<rect x="7.2002" y="11.75" width="33.75" height="2.025" rx="1.0125" fill="#5473C8"/>
<path d="M205.087 7.86865H261.45C262.102 7.86886 262.631 8.39724 262.631 9.04932V16.4751C262.631 17.1272 262.102 17.6556 261.45 17.6558H205.087C204.435 17.6556 203.906 17.1272 203.906 16.4751V9.04932C203.906 8.39724 204.435 7.86886 205.087 7.86865Z" fill="white"/>
<path d="M205.087 7.86865H261.45C262.102 7.86886 262.631 8.39724 262.631 9.04932V16.4751C262.631 17.1272 262.102 17.6556 261.45 17.6558H205.087C204.435 17.6556 203.906 17.1272 203.906 16.4751V9.04932C203.906 8.39724 204.435 7.86886 205.087 7.86865Z" stroke="#C2D1EB" stroke-width="0.3375"/>
<rect x="207.788" y="11.75" width="5.0625" height="2.025" rx="1.0125" fill="#90ABDA"/>
<path d="M216.952 10.7833L215.085 15.6467H214.596L216.466 10.7833H216.952Z" fill="#3958AC"/>
<rect x="219.225" y="11.7495" width="5.0625" height="2.025" rx="1.0125" fill="#90ABDA"/>
<path d="M228.389 10.7833L226.522 15.6467H226.033L227.903 10.7833H228.389Z" fill="#3958AC"/>
<rect x="230.662" y="11.7495" width="5.0625" height="2.025" rx="1.0125" fill="#90ABDA"/>
<rect x="7.4252" y="25.6996" width="79.95" height="54.6" rx="1.8" fill="#F2F6FB"/>
<rect x="7.4252" y="25.6996" width="79.95" height="54.6" rx="1.8" stroke="#C2D1EB" stroke-width="0.45"/>
<path d="M15.8999 33.9212V34.2191H13.2685V33.9212H15.8999ZM14.7318 32.6951V35.49H14.4154V32.6951H14.7318ZM17.8089 31.4532V32.152H17.5399V31.4532H17.8089ZM17.801 35.7722V36.4234H17.532V35.7722H17.801ZM18.4971 34.9284C18.4971 34.7983 18.4698 34.6858 18.4153 34.5909C18.3626 34.4942 18.273 34.4072 18.1464 34.3299C18.0216 34.2508 17.8511 34.1734 17.6349 34.0979C17.4134 34.0258 17.2218 33.944 17.0601 33.8526C16.9001 33.7612 16.7762 33.647 16.6883 33.5099C16.6021 33.371 16.5591 33.197 16.5591 32.9878C16.5591 32.7821 16.6039 32.6037 16.6936 32.4525C16.785 32.3014 16.9142 32.1854 17.0812 32.1045C17.2481 32.0219 17.4441 31.9806 17.6691 31.9806C17.8432 31.9806 17.9987 32.0061 18.1358 32.057C18.2747 32.108 18.3916 32.1845 18.4865 32.2864C18.5832 32.3866 18.657 32.5105 18.708 32.6582C18.759 32.8041 18.7845 32.9729 18.7845 33.1645H18.4707C18.4707 33.0344 18.4531 32.9148 18.418 32.8059C18.3846 32.6969 18.3336 32.602 18.265 32.5211C18.1965 32.4385 18.1121 32.3752 18.0119 32.3313C17.9135 32.2855 17.7992 32.2627 17.6691 32.2627C17.4881 32.2627 17.3387 32.2952 17.2209 32.3603C17.1031 32.4253 17.0161 32.5123 16.9599 32.6213C16.9036 32.7303 16.8755 32.8498 16.8755 32.9799C16.8755 33.1082 16.8992 33.2207 16.9467 33.3174C16.9941 33.4141 17.0803 33.502 17.2051 33.5811C17.3299 33.6584 17.5092 33.7366 17.743 33.8157C17.9645 33.8878 18.1543 33.9695 18.3125 34.0609C18.4725 34.1523 18.5955 34.2666 18.6816 34.4037C18.7678 34.5391 18.8108 34.7122 18.8108 34.9231C18.8108 35.1358 18.7625 35.3178 18.6658 35.4689C18.5691 35.6184 18.4338 35.7326 18.2598 35.8117C18.0857 35.8908 17.8827 35.9304 17.6507 35.9304C17.5013 35.9304 17.3536 35.911 17.2077 35.8724C17.0618 35.8319 16.93 35.7669 16.8122 35.6772C16.6944 35.5876 16.6004 35.4689 16.5301 35.3213C16.4598 35.1719 16.4246 34.9882 16.4246 34.7702H16.7384C16.7384 34.9407 16.7656 35.0822 16.8201 35.1947C16.8746 35.3072 16.9458 35.3969 17.0337 35.4637C17.1233 35.5305 17.2218 35.5779 17.329 35.6061C17.4362 35.6342 17.5435 35.6482 17.6507 35.6482C17.83 35.6482 17.982 35.6166 18.1068 35.5533C18.2334 35.4883 18.3301 35.4013 18.3969 35.2923C18.4637 35.1815 18.4971 35.0603 18.4971 34.9284ZM20.1793 33.7814H20.501C20.6979 33.7814 20.8622 33.748 20.994 33.6813C21.1276 33.6127 21.2278 33.5222 21.2946 33.4097C21.3632 33.2972 21.3975 33.1724 21.3975 33.0353C21.3975 32.8806 21.3685 32.7452 21.3104 32.6292C21.2524 32.5114 21.1637 32.42 21.0441 32.355C20.9264 32.2882 20.7752 32.2548 20.5906 32.2548C20.4289 32.2548 20.2848 32.2864 20.1582 32.3497C20.0316 32.413 19.9314 32.5035 19.8576 32.6213C19.7838 32.7391 19.7469 32.8797 19.7469 33.0432H19.4331C19.4331 32.834 19.4832 32.6503 19.5834 32.4921C19.6836 32.3321 19.8216 32.2073 19.9974 32.1177C20.1731 32.028 20.3709 31.9832 20.5906 31.9832C20.8174 31.9832 21.0143 32.0245 21.1813 32.1071C21.35 32.1897 21.4801 32.3102 21.5715 32.4684C21.6646 32.6266 21.7112 32.819 21.7112 33.0458C21.7112 33.1618 21.6857 33.2761 21.6348 33.3886C21.5855 33.5011 21.5117 33.603 21.4133 33.6944C21.3148 33.7841 21.1927 33.8562 21.0468 33.9106C20.9009 33.9651 20.7313 33.9924 20.5379 33.9924H20.1793V33.7814ZM20.1793 34.053V33.8447H20.5379C20.7576 33.8447 20.9457 33.8702 21.1021 33.9212C21.2586 33.9704 21.3869 34.0407 21.4871 34.1321C21.5891 34.2218 21.6638 34.3264 21.7112 34.4459C21.7587 34.5654 21.7824 34.6938 21.7824 34.8309C21.7824 35.0066 21.7534 35.1622 21.6954 35.2976C21.6374 35.4329 21.5548 35.548 21.4476 35.643C21.3421 35.7361 21.2173 35.8073 21.0731 35.8565C20.9308 35.904 20.7743 35.9277 20.6038 35.9277C20.4491 35.9277 20.2979 35.9049 20.1503 35.8592C20.0044 35.8135 19.8726 35.7458 19.7548 35.6562C19.6388 35.5647 19.5465 35.4505 19.4779 35.3134C19.4094 35.1745 19.3751 35.0146 19.3751 34.8335H19.6889C19.6889 34.9952 19.7275 35.1385 19.8049 35.2633C19.8822 35.3863 19.9895 35.483 20.1266 35.5533C20.2654 35.6219 20.4245 35.6562 20.6038 35.6562C20.7849 35.6562 20.9396 35.6254 21.0679 35.5639C21.1979 35.5006 21.2973 35.4083 21.3658 35.287C21.4344 35.1657 21.4687 35.0172 21.4687 34.8414C21.4687 34.6568 21.4273 34.5065 21.3447 34.3905C21.2639 34.2745 21.1505 34.1893 21.0046 34.1348C20.8604 34.0803 20.6926 34.053 20.501 34.053H20.1793ZM24.2873 32.0069H24.3321V32.2838H24.2873C24.0447 32.2838 23.8285 32.3233 23.6387 32.4024C23.4506 32.4815 23.2915 32.5958 23.1614 32.7452C23.0331 32.8929 22.9355 33.0722 22.8688 33.2831C22.802 33.494 22.7686 33.7305 22.7686 33.9924V34.5224C22.7686 34.6999 22.7923 34.859 22.8397 34.9996C22.8872 35.1385 22.9531 35.2571 23.0375 35.3556C23.1219 35.454 23.2203 35.5287 23.3328 35.5797C23.4453 35.6307 23.5666 35.6562 23.6967 35.6562C23.825 35.6562 23.9401 35.6298 24.0421 35.5771C24.144 35.5243 24.2302 35.4505 24.3005 35.3556C24.3726 35.2606 24.4271 35.1517 24.464 35.0286C24.5026 34.9038 24.522 34.7702 24.522 34.6278C24.522 34.4925 24.5044 34.365 24.4692 34.2455C24.4358 34.1242 24.384 34.017 24.3137 33.9238C24.2434 33.8307 24.1555 33.7577 24.05 33.705C23.9445 33.6522 23.8206 33.6259 23.6782 33.6259C23.5165 33.6259 23.3653 33.6628 23.2247 33.7366C23.0841 33.8104 22.9689 33.9089 22.8793 34.0319C22.7914 34.155 22.7448 34.2895 22.7396 34.4354L22.5576 34.4327C22.5699 34.2675 22.6077 34.1189 22.671 33.9871C22.7343 33.8535 22.8178 33.7401 22.9215 33.647C23.027 33.5521 23.1474 33.48 23.2827 33.4308C23.4198 33.3798 23.5675 33.3543 23.7257 33.3543C23.9103 33.3543 24.0711 33.3877 24.2082 33.4545C24.3471 33.5213 24.4622 33.6136 24.5536 33.7313C24.6468 33.8474 24.7162 33.9818 24.7619 34.1348C24.8094 34.2859 24.8331 34.4459 24.8331 34.6146C24.8331 34.7992 24.8067 34.9715 24.754 35.1314C24.703 35.2896 24.6274 35.4285 24.5272 35.548C24.4288 35.6676 24.3093 35.7607 24.1687 35.8275C24.0298 35.8943 23.8725 35.9277 23.6967 35.9277C23.5033 35.9277 23.3302 35.8908 23.1772 35.817C23.0243 35.7432 22.8934 35.6412 22.7844 35.5111C22.6771 35.3811 22.5945 35.2316 22.5365 35.0629C22.4803 34.8924 22.4521 34.7104 22.4521 34.5171V34.1796C22.4521 33.8526 22.4899 33.5564 22.5655 33.291C22.6411 33.0238 22.7545 32.7944 22.9057 32.6028C23.0586 32.4112 23.2493 32.2645 23.4778 32.1625C23.7081 32.0588 23.9779 32.0069 24.2873 32.0069ZM27.8706 35.6034V35.875H25.4686V35.6298L26.7263 34.2033C26.8827 34.0258 27.0075 33.8702 27.1007 33.7366C27.1938 33.6013 27.2606 33.4782 27.3011 33.3675C27.3433 33.255 27.3644 33.146 27.3644 33.0405C27.3644 32.8858 27.3336 32.7496 27.2721 32.6318C27.2123 32.5141 27.1227 32.4218 27.0031 32.355C26.8836 32.2882 26.7359 32.2548 26.5602 32.2548C26.3844 32.2548 26.2314 32.2926 26.1014 32.3682C25.9713 32.4438 25.8711 32.5492 25.8008 32.6846C25.7322 32.8182 25.6979 32.9702 25.6979 33.1407H25.3842C25.3842 32.9298 25.4308 32.7364 25.5239 32.5606C25.6188 32.3849 25.7542 32.2451 25.93 32.1414C26.1058 32.0359 26.3158 31.9832 26.5602 31.9832C26.7922 31.9832 26.9917 32.0245 27.1587 32.1071C27.3257 32.188 27.454 32.3049 27.5437 32.4578C27.6351 32.6107 27.6808 32.7953 27.6808 33.0115C27.6808 33.1275 27.6597 33.2444 27.6175 33.3622C27.5771 33.48 27.5208 33.5978 27.4487 33.7155C27.3784 33.8315 27.2976 33.9467 27.2062 34.0609C27.1165 34.1752 27.0225 34.2877 26.924 34.3984L25.8535 35.6034H27.8706ZM28.8172 35.3767V35.7458C28.8172 35.9075 28.7838 36.0631 28.717 36.2125C28.6502 36.3637 28.5597 36.4911 28.4454 36.5948L28.2608 36.4577C28.3153 36.3839 28.361 36.3101 28.3979 36.2362C28.4349 36.1642 28.4621 36.0886 28.4797 36.0095C28.499 35.9304 28.5087 35.8451 28.5087 35.7537V35.3767H28.8172ZM31.3168 32.0069H31.3616V32.2838H31.3168C31.0742 32.2838 30.858 32.3233 30.6682 32.4024C30.4801 32.4815 30.321 32.5958 30.1909 32.7452C30.0626 32.8929 29.965 33.0722 29.8982 33.2831C29.8314 33.494 29.798 33.7305 29.798 33.9924V34.5224C29.798 34.6999 29.8218 34.859 29.8692 34.9996C29.9167 35.1385 29.9826 35.2571 30.067 35.3556C30.1514 35.454 30.2498 35.5287 30.3623 35.5797C30.4748 35.6307 30.5961 35.6562 30.7262 35.6562C30.8545 35.6562 30.9696 35.6298 31.0716 35.5771C31.1735 35.5243 31.2597 35.4505 31.33 35.3556C31.402 35.2606 31.4565 35.1517 31.4935 35.0286C31.5321 34.9038 31.5515 34.7702 31.5515 34.6278C31.5515 34.4925 31.5339 34.365 31.4987 34.2455C31.4653 34.1242 31.4135 34.017 31.3432 33.9238C31.2729 33.8307 31.185 33.7577 31.0795 33.705C30.974 33.6522 30.8501 33.6259 30.7077 33.6259C30.546 33.6259 30.3948 33.6628 30.2542 33.7366C30.1136 33.8104 29.9984 33.9089 29.9088 34.0319C29.8209 34.155 29.7743 34.2895 29.769 34.4354L29.5871 34.4327C29.5994 34.2675 29.6372 34.1189 29.7005 33.9871C29.7638 33.8535 29.8473 33.7401 29.951 33.647C30.0564 33.5521 30.1769 33.48 30.3122 33.4308C30.4493 33.3798 30.597 33.3543 30.7552 33.3543C30.9397 33.3543 31.1006 33.3877 31.2377 33.4545C31.3766 33.5213 31.4917 33.6136 31.5831 33.7313C31.6763 33.8474 31.7457 33.9818 31.7914 34.1348C31.8389 34.2859 31.8626 34.4459 31.8626 34.6146C31.8626 34.7992 31.8362 34.9715 31.7835 35.1314C31.7325 35.2896 31.6569 35.4285 31.5567 35.548C31.4583 35.6676 31.3388 35.7607 31.1981 35.8275C31.0593 35.8943 30.902 35.9277 30.7262 35.9277C30.5328 35.9277 30.3597 35.8908 30.2067 35.817C30.0538 35.7432 29.9229 35.6412 29.8139 35.5111C29.7066 35.3811 29.624 35.2316 29.566 35.0629C29.5098 34.8924 29.4816 34.7104 29.4816 34.5171V34.1796C29.4816 33.8526 29.5194 33.5564 29.595 33.291C29.6706 33.0238 29.784 32.7944 29.9352 32.6028C30.0881 32.4112 30.2788 32.2645 30.5073 32.1625C30.7376 32.0588 31.0074 32.0069 31.3168 32.0069ZM33.1994 33.7814H33.5211C33.718 33.7814 33.8823 33.748 34.0142 33.6813C34.1478 33.6127 34.2479 33.5222 34.3147 33.4097C34.3833 33.2972 34.4176 33.1724 34.4176 33.0353C34.4176 32.8806 34.3886 32.7452 34.3306 32.6292C34.2726 32.5114 34.1838 32.42 34.0643 32.355C33.9465 32.2882 33.7953 32.2548 33.6107 32.2548C33.449 32.2548 33.3049 32.2864 33.1783 32.3497C33.0518 32.413 32.9516 32.5035 32.8777 32.6213C32.8039 32.7391 32.767 32.8797 32.767 33.0432H32.4532C32.4532 32.834 32.5033 32.6503 32.6035 32.4921C32.7037 32.3321 32.8417 32.2073 33.0175 32.1177C33.1933 32.028 33.391 31.9832 33.6107 31.9832C33.8375 31.9832 34.0344 32.0245 34.2014 32.1071C34.3701 32.1897 34.5002 32.3102 34.5916 32.4684C34.6848 32.6266 34.7313 32.819 34.7313 33.0458C34.7313 33.1618 34.7059 33.2761 34.6549 33.3886C34.6057 33.5011 34.5318 33.603 34.4334 33.6944C34.335 33.7841 34.2128 33.8562 34.0669 33.9106C33.921 33.9651 33.7514 33.9924 33.558 33.9924H33.1994V33.7814ZM33.1994 34.053V33.8447H33.558C33.7777 33.8447 33.9658 33.8702 34.1223 33.9212C34.2787 33.9704 34.407 34.0407 34.5072 34.1321C34.6092 34.2218 34.6839 34.3264 34.7313 34.4459C34.7788 34.5654 34.8025 34.6938 34.8025 34.8309C34.8025 35.0066 34.7735 35.1622 34.7155 35.2976C34.6575 35.4329 34.5749 35.548 34.4677 35.643C34.3622 35.7361 34.2374 35.8073 34.0933 35.8565C33.9509 35.904 33.7944 35.9277 33.6239 35.9277C33.4692 35.9277 33.3181 35.9049 33.1704 35.8592C33.0245 35.8135 32.8927 35.7458 32.7749 35.6562C32.6589 35.5647 32.5666 35.4505 32.498 35.3134C32.4295 35.1745 32.3952 35.0146 32.3952 34.8335H32.709C32.709 34.9952 32.7477 35.1385 32.825 35.2633C32.9023 35.3863 33.0096 35.483 33.1467 35.5533C33.2855 35.6219 33.4446 35.6562 33.6239 35.6562C33.805 35.6562 33.9597 35.6254 34.088 35.5639C34.2181 35.5006 34.3174 35.4083 34.3859 35.287C34.4545 35.1657 34.4888 35.0172 34.4888 34.8414C34.4888 34.6568 34.4475 34.5065 34.3648 34.3905C34.284 34.2745 34.1706 34.1893 34.0247 34.1348C33.8806 34.0803 33.7127 34.053 33.5211 34.053H33.1994Z" fill="#5473C8"/>
<rect x="12.6001" y="38.6748" width="27" height="2.025" rx="1.0125" fill="#C2D1EB"/>
<rect x="68.0248" y="31.1" width="13.95" height="4.95" rx="2.475" fill="#E4ECF6" stroke="#C2D1EB" stroke-width="0.45"/>
<rect x="12.6001" y="50.937" width="40.5" height="2.025" rx="1.0125" fill="#C2D1EB"/>
<rect x="12.6001" y="57.7993" width="27" height="2.025" rx="1.0125" fill="#C2D1EB"/>
<rect x="12.6001" y="70.062" width="20.25" height="2.025" rx="1.0125" fill="#5473C8"/>
<rect x="43.6499" y="70.062" width="20.25" height="2.025" rx="1.0125" fill="#C2D1EB"/>
<rect x="95.0253" y="25.6996" width="79.95" height="54.6" rx="1.8" fill="#F2F6FB"/>
<rect x="95.0253" y="25.6996" width="79.95" height="54.6" rx="1.8" stroke="#C2D1EB" stroke-width="0.45"/>
<path d="M103.5 33.9212V34.2191H100.869V33.9212H103.5ZM102.332 32.6951V35.49H102.016V32.6951H102.332ZM105.409 31.4532V32.152H105.14V31.4532H105.409ZM105.401 35.7722V36.4234H105.132V35.7722H105.401ZM106.097 34.9284C106.097 34.7983 106.07 34.6858 106.015 34.5909C105.963 34.4942 105.873 34.4072 105.746 34.3299C105.622 34.2508 105.451 34.1734 105.235 34.0979C105.013 34.0258 104.822 33.944 104.66 33.8526C104.5 33.7612 104.376 33.647 104.288 33.5099C104.202 33.371 104.159 33.197 104.159 32.9878C104.159 32.7821 104.204 32.6037 104.294 32.4525C104.385 32.3014 104.514 32.1854 104.681 32.1045C104.848 32.0219 105.044 31.9806 105.269 31.9806C105.443 31.9806 105.599 32.0061 105.736 32.057C105.875 32.108 105.992 32.1845 106.087 32.2864C106.183 32.3866 106.257 32.5105 106.308 32.6582C106.359 32.8041 106.385 32.9729 106.385 33.1645H106.071C106.071 33.0344 106.053 32.9148 106.018 32.8059C105.985 32.6969 105.934 32.602 105.865 32.5211C105.797 32.4385 105.712 32.3752 105.612 32.3313C105.514 32.2855 105.399 32.2627 105.269 32.2627C105.088 32.2627 104.939 32.2952 104.821 32.3603C104.703 32.4253 104.616 32.5123 104.56 32.6213C104.504 32.7303 104.476 32.8498 104.476 32.9799C104.476 33.1082 104.499 33.2207 104.547 33.3174C104.594 33.4141 104.68 33.502 104.805 33.5811C104.93 33.6584 105.109 33.7366 105.343 33.8157C105.565 33.8878 105.754 33.9695 105.913 34.0609C106.073 34.1523 106.196 34.2666 106.282 34.4037C106.368 34.5391 106.411 34.7122 106.411 34.9231C106.411 35.1358 106.363 35.3178 106.266 35.4689C106.169 35.6184 106.034 35.7326 105.86 35.8117C105.686 35.8908 105.483 35.9304 105.251 35.9304C105.101 35.9304 104.954 35.911 104.808 35.8724C104.662 35.8319 104.53 35.7669 104.412 35.6772C104.295 35.5876 104.2 35.4689 104.13 35.3213C104.06 35.1719 104.025 34.9882 104.025 34.7702H104.338C104.338 34.9407 104.366 35.0822 104.42 35.1947C104.475 35.3072 104.546 35.3969 104.634 35.4637C104.723 35.5305 104.822 35.5779 104.929 35.6061C105.036 35.6342 105.144 35.6482 105.251 35.6482C105.43 35.6482 105.582 35.6166 105.707 35.5533C105.833 35.4883 105.93 35.4013 105.997 35.2923C106.064 35.1815 106.097 35.0603 106.097 34.9284ZM107.779 33.7814H108.101C108.298 33.7814 108.462 33.748 108.594 33.6813C108.728 33.6127 108.828 33.5222 108.895 33.4097C108.963 33.2972 108.998 33.1724 108.998 33.0353C108.998 32.8806 108.969 32.7452 108.911 32.6292C108.853 32.5114 108.764 32.42 108.644 32.355C108.526 32.2882 108.375 32.2548 108.191 32.2548C108.029 32.2548 107.885 32.2864 107.758 32.3497C107.632 32.413 107.532 32.5035 107.458 32.6213C107.384 32.7391 107.347 32.8797 107.347 33.0432H107.033C107.033 32.834 107.083 32.6503 107.183 32.4921C107.284 32.3321 107.422 32.2073 107.597 32.1177C107.773 32.028 107.971 31.9832 108.191 31.9832C108.417 31.9832 108.614 32.0245 108.781 32.1071C108.95 32.1897 109.08 32.3102 109.172 32.4684C109.265 32.6266 109.311 32.819 109.311 33.0458C109.311 33.1618 109.286 33.2761 109.235 33.3886C109.186 33.5011 109.112 33.603 109.013 33.6944C108.915 33.7841 108.793 33.8562 108.647 33.9106C108.501 33.9651 108.331 33.9924 108.138 33.9924H107.779V33.7814ZM107.779 34.053V33.8447H108.138C108.358 33.8447 108.546 33.8702 108.702 33.9212C108.859 33.9704 108.987 34.0407 109.087 34.1321C109.189 34.2218 109.264 34.3264 109.311 34.4459C109.359 34.5654 109.383 34.6938 109.383 34.8309C109.383 35.0066 109.354 35.1622 109.296 35.2976C109.238 35.4329 109.155 35.548 109.048 35.643C108.942 35.7361 108.817 35.8073 108.673 35.8565C108.531 35.904 108.374 35.9277 108.204 35.9277C108.049 35.9277 107.898 35.9049 107.75 35.8592C107.604 35.8135 107.473 35.7458 107.355 35.6562C107.239 35.5647 107.147 35.4505 107.078 35.3134C107.009 35.1745 106.975 35.0146 106.975 34.8335H107.289C107.289 34.9952 107.328 35.1385 107.405 35.2633C107.482 35.3863 107.59 35.483 107.727 35.5533C107.866 35.6219 108.025 35.6562 108.204 35.6562C108.385 35.6562 108.54 35.6254 108.668 35.5639C108.798 35.5006 108.897 35.4083 108.966 35.287C109.034 35.1657 109.069 35.0172 109.069 34.8414C109.069 34.6568 109.027 34.5065 108.945 34.3905C108.864 34.2745 108.751 34.1893 108.605 34.1348C108.461 34.0803 108.293 34.053 108.101 34.053H107.779ZM111.887 32.0069H111.932V32.2838H111.887C111.645 32.2838 111.429 32.3233 111.239 32.4024C111.051 32.4815 110.892 32.5958 110.762 32.7452C110.633 32.8929 110.536 33.0722 110.469 33.2831C110.402 33.494 110.369 33.7305 110.369 33.9924V34.5224C110.369 34.6999 110.392 34.859 110.44 34.9996C110.487 35.1385 110.553 35.2571 110.638 35.3556C110.722 35.454 110.82 35.5287 110.933 35.5797C111.045 35.6307 111.167 35.6562 111.297 35.6562C111.425 35.6562 111.54 35.6298 111.642 35.5771C111.744 35.5243 111.83 35.4505 111.901 35.3556C111.973 35.2606 112.027 35.1517 112.064 35.0286C112.103 34.9038 112.122 34.7702 112.122 34.6278C112.122 34.4925 112.104 34.365 112.069 34.2455C112.036 34.1242 111.984 34.017 111.914 33.9238C111.843 33.8307 111.756 33.7577 111.65 33.705C111.545 33.6522 111.421 33.6259 111.278 33.6259C111.117 33.6259 110.965 33.6628 110.825 33.7366C110.684 33.8104 110.569 33.9089 110.479 34.0319C110.392 34.155 110.345 34.2895 110.34 34.4354L110.158 34.4327C110.17 34.2675 110.208 34.1189 110.271 33.9871C110.334 33.8535 110.418 33.7401 110.522 33.647C110.627 33.5521 110.747 33.48 110.883 33.4308C111.02 33.3798 111.168 33.3543 111.326 33.3543C111.51 33.3543 111.671 33.3877 111.808 33.4545C111.947 33.5213 112.062 33.6136 112.154 33.7313C112.247 33.8474 112.316 33.9818 112.362 34.1348C112.409 34.2859 112.433 34.4459 112.433 34.6146C112.433 34.7992 112.407 34.9715 112.354 35.1314C112.303 35.2896 112.228 35.4285 112.127 35.548C112.029 35.6676 111.909 35.7607 111.769 35.8275C111.63 35.8943 111.473 35.9277 111.297 35.9277C111.103 35.9277 110.93 35.8908 110.777 35.817C110.624 35.7432 110.493 35.6412 110.384 35.5111C110.277 35.3811 110.195 35.2316 110.137 35.0629C110.08 34.8924 110.052 34.7104 110.052 34.5171V34.1796C110.052 33.8526 110.09 33.5564 110.166 33.291C110.241 33.0238 110.355 32.7944 110.506 32.6028C110.659 32.4112 110.849 32.2645 111.078 32.1625C111.308 32.0588 111.578 32.0069 111.887 32.0069ZM115.471 35.6034V35.875H113.069V35.6298L114.326 34.2033C114.483 34.0258 114.608 33.8702 114.701 33.7366C114.794 33.6013 114.861 33.4782 114.901 33.3675C114.943 33.255 114.964 33.146 114.964 33.0405C114.964 32.8858 114.934 32.7496 114.872 32.6318C114.812 32.5141 114.723 32.4218 114.603 32.355C114.484 32.2882 114.336 32.2548 114.16 32.2548C113.984 32.2548 113.832 32.2926 113.701 32.3682C113.571 32.4438 113.471 32.5492 113.401 32.6846C113.332 32.8182 113.298 32.9702 113.298 33.1407H112.984C112.984 32.9298 113.031 32.7364 113.124 32.5606C113.219 32.3849 113.354 32.2451 113.53 32.1414C113.706 32.0359 113.916 31.9832 114.16 31.9832C114.392 31.9832 114.592 32.0245 114.759 32.1071C114.926 32.188 115.054 32.3049 115.144 32.4578C115.235 32.6107 115.281 32.7953 115.281 33.0115C115.281 33.1275 115.26 33.2444 115.218 33.3622C115.177 33.48 115.121 33.5978 115.049 33.7155C114.979 33.8315 114.898 33.9467 114.806 34.0609C114.717 34.1752 114.623 34.2877 114.524 34.3984L113.454 35.6034H115.471ZM116.417 35.3767V35.7458C116.417 35.9075 116.384 36.0631 116.317 36.2125C116.25 36.3637 116.16 36.4911 116.046 36.5948L115.861 36.4577C115.915 36.3839 115.961 36.3101 115.998 36.2362C116.035 36.1642 116.062 36.0886 116.08 36.0095C116.099 35.9304 116.109 35.8451 116.109 35.7537V35.3767H116.417ZM118.917 32.0069H118.962V32.2838H118.917C118.674 32.2838 118.458 32.3233 118.268 32.4024C118.08 32.4815 117.921 32.5958 117.791 32.7452C117.663 32.8929 117.565 33.0722 117.498 33.2831C117.432 33.494 117.398 33.7305 117.398 33.9924V34.5224C117.398 34.6999 117.422 34.859 117.469 34.9996C117.517 35.1385 117.583 35.2571 117.667 35.3556C117.751 35.454 117.85 35.5287 117.962 35.5797C118.075 35.6307 118.196 35.6562 118.326 35.6562C118.455 35.6562 118.57 35.6298 118.672 35.5771C118.774 35.5243 118.86 35.4505 118.93 35.3556C119.002 35.2606 119.057 35.1517 119.094 35.0286C119.132 34.9038 119.152 34.7702 119.152 34.6278C119.152 34.4925 119.134 34.365 119.099 34.2455C119.065 34.1242 119.014 34.017 118.943 33.9238C118.873 33.8307 118.785 33.7577 118.68 33.705C118.574 33.6522 118.45 33.6259 118.308 33.6259C118.146 33.6259 117.995 33.6628 117.854 33.7366C117.714 33.8104 117.599 33.9089 117.509 34.0319C117.421 34.155 117.374 34.2895 117.369 34.4354L117.187 34.4327C117.2 34.2675 117.237 34.1189 117.301 33.9871C117.364 33.8535 117.447 33.7401 117.551 33.647C117.657 33.5521 117.777 33.48 117.912 33.4308C118.049 33.3798 118.197 33.3543 118.355 33.3543C118.54 33.3543 118.701 33.3877 118.838 33.4545C118.977 33.5213 119.092 33.6136 119.183 33.7313C119.276 33.8474 119.346 33.9818 119.392 34.1348C119.439 34.2859 119.463 34.4459 119.463 34.6146C119.463 34.7992 119.436 34.9715 119.384 35.1314C119.333 35.2896 119.257 35.4285 119.157 35.548C119.058 35.6676 118.939 35.7607 118.798 35.8275C118.659 35.8943 118.502 35.9277 118.326 35.9277C118.133 35.9277 117.96 35.8908 117.807 35.817C117.654 35.7432 117.523 35.6412 117.414 35.5111C117.307 35.3811 117.224 35.2316 117.166 35.0629C117.11 34.8924 117.082 34.7104 117.082 34.5171V34.1796C117.082 33.8526 117.12 33.5564 117.195 33.291C117.271 33.0238 117.384 32.7944 117.535 32.6028C117.688 32.4112 117.879 32.2645 118.107 32.1625C118.338 32.0588 118.608 32.0069 118.917 32.0069ZM120.8 33.7814H121.121C121.318 33.7814 121.482 33.748 121.614 33.6813C121.748 33.6127 121.848 33.5222 121.915 33.4097C121.983 33.2972 122.018 33.1724 122.018 33.0353C122.018 32.8806 121.989 32.7452 121.931 32.6292C121.873 32.5114 121.784 32.42 121.664 32.355C121.547 32.2882 121.395 32.2548 121.211 32.2548C121.049 32.2548 120.905 32.2864 120.778 32.3497C120.652 32.413 120.552 32.5035 120.478 32.6213C120.404 32.7391 120.367 32.8797 120.367 33.0432H120.053C120.053 32.834 120.103 32.6503 120.204 32.4921C120.304 32.3321 120.442 32.2073 120.618 32.1177C120.793 32.028 120.991 31.9832 121.211 31.9832C121.438 31.9832 121.634 32.0245 121.801 32.1071C121.97 32.1897 122.1 32.3102 122.192 32.4684C122.285 32.6266 122.331 32.819 122.331 33.0458C122.331 33.1618 122.306 33.2761 122.255 33.3886C122.206 33.5011 122.132 33.603 122.033 33.6944C121.935 33.7841 121.813 33.8562 121.667 33.9106C121.521 33.9651 121.351 33.9924 121.158 33.9924H120.8V33.7814ZM120.8 34.053V33.8447H121.158C121.378 33.8447 121.566 33.8702 121.722 33.9212C121.879 33.9704 122.007 34.0407 122.107 34.1321C122.209 34.2218 122.284 34.3264 122.331 34.4459C122.379 34.5654 122.403 34.6938 122.403 34.8309C122.403 35.0066 122.374 35.1622 122.316 35.2976C122.258 35.4329 122.175 35.548 122.068 35.643C121.962 35.7361 121.837 35.8073 121.693 35.8565C121.551 35.904 121.395 35.9277 121.224 35.9277C121.069 35.9277 120.918 35.9049 120.771 35.8592C120.625 35.8135 120.493 35.7458 120.375 35.6562C120.259 35.5647 120.167 35.4505 120.098 35.3134C120.03 35.1745 119.995 35.0146 119.995 34.8335H120.309C120.309 34.9952 120.348 35.1385 120.425 35.2633C120.502 35.3863 120.61 35.483 120.747 35.5533C120.886 35.6219 121.045 35.6562 121.224 35.6562C121.405 35.6562 121.56 35.6254 121.688 35.5639C121.818 35.5006 121.917 35.4083 121.986 35.287C122.055 35.1657 122.089 35.0172 122.089 34.8414C122.089 34.6568 122.048 34.5065 121.965 34.3905C121.884 34.2745 121.771 34.1893 121.625 34.1348C121.481 34.0803 121.313 34.053 121.121 34.053H120.8Z" fill="#5473C8"/>
<rect x="100.2" y="38.6748" width="27" height="2.025" rx="1.0125" fill="#C2D1EB"/>
<rect x="155.625" y="31.1" width="13.95" height="4.95" rx="2.475" fill="#E4ECF6" stroke="#C2D1EB" stroke-width="0.45"/>
<rect x="100.2" y="50.937" width="40.5" height="2.025" rx="1.0125" fill="#C2D1EB"/>
<rect x="100.2" y="57.7993" width="27" height="2.025" rx="1.0125" fill="#C2D1EB"/>
<rect x="100.2" y="70.062" width="20.25" height="2.025" rx="1.0125" fill="#5473C8"/>
<rect x="131.25" y="70.062" width="20.25" height="2.025" rx="1.0125" fill="#C2D1EB"/>
<rect x="182.625" y="25.6996" width="79.95" height="54.6" rx="1.8" fill="#F2F6FB"/>
<rect x="182.625" y="25.6996" width="79.95" height="54.6" rx="1.8" stroke="#C2D1EB" stroke-width="0.45"/>
<path d="M191.1 33.9212V34.2191H188.469V33.9212H191.1ZM189.932 32.6951V35.49H189.616V32.6951H189.932ZM193.009 31.4532V32.152H192.74V31.4532H193.009ZM193.001 35.7722V36.4234H192.732V35.7722H193.001ZM193.697 34.9284C193.697 34.7983 193.67 34.6858 193.616 34.5909C193.563 34.4942 193.473 34.4072 193.347 34.3299C193.222 34.2508 193.051 34.1734 192.835 34.0979C192.614 34.0258 192.422 33.944 192.26 33.8526C192.1 33.7612 191.976 33.647 191.888 33.5099C191.802 33.371 191.759 33.197 191.759 32.9878C191.759 32.7821 191.804 32.6037 191.894 32.4525C191.985 32.3014 192.114 32.1854 192.281 32.1045C192.448 32.0219 192.644 31.9806 192.869 31.9806C193.043 31.9806 193.199 32.0061 193.336 32.057C193.475 32.108 193.592 32.1845 193.687 32.2864C193.783 32.3866 193.857 32.5105 193.908 32.6582C193.959 32.8041 193.985 32.9729 193.985 33.1645H193.671C193.671 33.0344 193.653 32.9148 193.618 32.8059C193.585 32.6969 193.534 32.602 193.465 32.5211C193.397 32.4385 193.312 32.3752 193.212 32.3313C193.114 32.2855 192.999 32.2627 192.869 32.2627C192.688 32.2627 192.539 32.2952 192.421 32.3603C192.303 32.4253 192.216 32.5123 192.16 32.6213C192.104 32.7303 192.076 32.8498 192.076 32.9799C192.076 33.1082 192.099 33.2207 192.147 33.3174C192.194 33.4141 192.28 33.502 192.405 33.5811C192.53 33.6584 192.709 33.7366 192.943 33.8157C193.165 33.8878 193.354 33.9695 193.513 34.0609C193.673 34.1523 193.796 34.2666 193.882 34.4037C193.968 34.5391 194.011 34.7122 194.011 34.9231C194.011 35.1358 193.963 35.3178 193.866 35.4689C193.769 35.6184 193.634 35.7326 193.46 35.8117C193.286 35.8908 193.083 35.9304 192.851 35.9304C192.701 35.9304 192.554 35.911 192.408 35.8724C192.262 35.8319 192.13 35.7669 192.012 35.6772C191.895 35.5876 191.801 35.4689 191.73 35.3213C191.66 35.1719 191.625 34.9882 191.625 34.7702H191.939C191.939 34.9407 191.966 35.0822 192.02 35.1947C192.075 35.3072 192.146 35.3969 192.234 35.4637C192.324 35.5305 192.422 35.5779 192.529 35.6061C192.636 35.6342 192.744 35.6482 192.851 35.6482C193.03 35.6482 193.182 35.6166 193.307 35.5533C193.434 35.4883 193.53 35.4013 193.597 35.2923C193.664 35.1815 193.697 35.0603 193.697 34.9284ZM195.379 33.7814H195.701C195.898 33.7814 196.062 33.748 196.194 33.6813C196.328 33.6127 196.428 33.5222 196.495 33.4097C196.563 33.2972 196.598 33.1724 196.598 33.0353C196.598 32.8806 196.569 32.7452 196.511 32.6292C196.453 32.5114 196.364 32.42 196.244 32.355C196.127 32.2882 195.975 32.2548 195.791 32.2548C195.629 32.2548 195.485 32.2864 195.358 32.3497C195.232 32.413 195.132 32.5035 195.058 32.6213C194.984 32.7391 194.947 32.8797 194.947 33.0432H194.633C194.633 32.834 194.683 32.6503 194.784 32.4921C194.884 32.3321 195.022 32.2073 195.198 32.1177C195.373 32.028 195.571 31.9832 195.791 31.9832C196.018 31.9832 196.214 32.0245 196.381 32.1071C196.55 32.1897 196.68 32.3102 196.772 32.4684C196.865 32.6266 196.911 32.819 196.911 33.0458C196.911 33.1618 196.886 33.2761 196.835 33.3886C196.786 33.5011 196.712 33.603 196.613 33.6944C196.515 33.7841 196.393 33.8562 196.247 33.9106C196.101 33.9651 195.931 33.9924 195.738 33.9924H195.379V33.7814ZM195.379 34.053V33.8447H195.738C195.958 33.8447 196.146 33.8702 196.302 33.9212C196.459 33.9704 196.587 34.0407 196.687 34.1321C196.789 34.2218 196.864 34.3264 196.911 34.4459C196.959 34.5654 196.983 34.6938 196.983 34.8309C196.983 35.0066 196.954 35.1622 196.896 35.2976C196.838 35.4329 196.755 35.548 196.648 35.643C196.542 35.7361 196.417 35.8073 196.273 35.8565C196.131 35.904 195.975 35.9277 195.804 35.9277C195.649 35.9277 195.498 35.9049 195.35 35.8592C195.205 35.8135 195.073 35.7458 194.955 35.6562C194.839 35.5647 194.747 35.4505 194.678 35.3134C194.61 35.1745 194.575 35.0146 194.575 34.8335H194.889C194.889 34.9952 194.928 35.1385 195.005 35.2633C195.082 35.3863 195.19 35.483 195.327 35.5533C195.466 35.6219 195.625 35.6562 195.804 35.6562C195.985 35.6562 196.14 35.6254 196.268 35.5639C196.398 35.5006 196.497 35.4083 196.566 35.287C196.635 35.1657 196.669 35.0172 196.669 34.8414C196.669 34.6568 196.628 34.5065 196.545 34.3905C196.464 34.2745 196.351 34.1893 196.205 34.1348C196.061 34.0803 195.893 34.053 195.701 34.053H195.379ZM199.488 32.0069H199.532V32.2838H199.488C199.245 32.2838 199.029 32.3233 198.839 32.4024C198.651 32.4815 198.492 32.5958 198.362 32.7452C198.233 32.8929 198.136 33.0722 198.069 33.2831C198.002 33.494 197.969 33.7305 197.969 33.9924V34.5224C197.969 34.6999 197.992 34.859 198.04 34.9996C198.087 35.1385 198.153 35.2571 198.238 35.3556C198.322 35.454 198.421 35.5287 198.533 35.5797C198.646 35.6307 198.767 35.6562 198.897 35.6562C199.025 35.6562 199.14 35.6298 199.242 35.5771C199.344 35.5243 199.43 35.4505 199.501 35.3556C199.573 35.2606 199.627 35.1517 199.664 35.0286C199.703 34.9038 199.722 34.7702 199.722 34.6278C199.722 34.4925 199.705 34.365 199.669 34.2455C199.636 34.1242 199.584 34.017 199.514 33.9238C199.444 33.8307 199.356 33.7577 199.25 33.705C199.145 33.6522 199.021 33.6259 198.878 33.6259C198.717 33.6259 198.566 33.6628 198.425 33.7366C198.284 33.8104 198.169 33.9089 198.079 34.0319C197.992 34.155 197.945 34.2895 197.94 34.4354L197.758 34.4327C197.77 34.2675 197.808 34.1189 197.871 33.9871C197.934 33.8535 198.018 33.7401 198.122 33.647C198.227 33.5521 198.348 33.48 198.483 33.4308C198.62 33.3798 198.768 33.3543 198.926 33.3543C199.11 33.3543 199.271 33.3877 199.408 33.4545C199.547 33.5213 199.662 33.6136 199.754 33.7313C199.847 33.8474 199.916 33.9818 199.962 34.1348C200.01 34.2859 200.033 34.4459 200.033 34.6146C200.033 34.7992 200.007 34.9715 199.954 35.1314C199.903 35.2896 199.828 35.4285 199.727 35.548C199.629 35.6676 199.509 35.7607 199.369 35.8275C199.23 35.8943 199.073 35.9277 198.897 35.9277C198.704 35.9277 198.53 35.8908 198.377 35.817C198.225 35.7432 198.094 35.6412 197.985 35.5111C197.877 35.3811 197.795 35.2316 197.737 35.0629C197.68 34.8924 197.652 34.7104 197.652 34.5171V34.1796C197.652 33.8526 197.69 33.5564 197.766 33.291C197.841 33.0238 197.955 32.7944 198.106 32.6028C198.259 32.4112 198.45 32.2645 198.678 32.1625C198.908 32.0588 199.178 32.0069 199.488 32.0069ZM203.071 35.6034V35.875H200.669V35.6298L201.926 34.2033C202.083 34.0258 202.208 33.8702 202.301 33.7366C202.394 33.6013 202.461 33.4782 202.501 33.3675C202.543 33.255 202.565 33.146 202.565 33.0405C202.565 32.8858 202.534 32.7496 202.472 32.6318C202.413 32.5141 202.323 32.4218 202.203 32.355C202.084 32.2882 201.936 32.2548 201.76 32.2548C201.585 32.2548 201.432 32.2926 201.302 32.3682C201.171 32.4438 201.071 32.5492 201.001 32.6846C200.932 32.8182 200.898 32.9702 200.898 33.1407H200.584C200.584 32.9298 200.631 32.7364 200.724 32.5606C200.819 32.3849 200.954 32.2451 201.13 32.1414C201.306 32.0359 201.516 31.9832 201.76 31.9832C201.992 31.9832 202.192 32.0245 202.359 32.1071C202.526 32.188 202.654 32.3049 202.744 32.4578C202.835 32.6107 202.881 32.7953 202.881 33.0115C202.881 33.1275 202.86 33.2444 202.818 33.3622C202.777 33.48 202.721 33.5978 202.649 33.7155C202.579 33.8315 202.498 33.9467 202.406 34.0609C202.317 34.1752 202.223 34.2877 202.124 34.3984L201.054 35.6034H203.071ZM204.017 35.3767V35.7458C204.017 35.9075 203.984 36.0631 203.917 36.2125C203.85 36.3637 203.76 36.4911 203.646 36.5948L203.461 36.4577C203.516 36.3839 203.561 36.3101 203.598 36.2362C203.635 36.1642 203.662 36.0886 203.68 36.0095C203.699 35.9304 203.709 35.8451 203.709 35.7537V35.3767H204.017ZM206.517 32.0069H206.562V32.2838H206.517C206.274 32.2838 206.058 32.3233 205.868 32.4024C205.68 32.4815 205.521 32.5958 205.391 32.7452C205.263 32.8929 205.165 33.0722 205.098 33.2831C205.032 33.494 204.998 33.7305 204.998 33.9924V34.5224C204.998 34.6999 205.022 34.859 205.069 34.9996C205.117 35.1385 205.183 35.2571 205.267 35.3556C205.352 35.454 205.45 35.5287 205.562 35.5797C205.675 35.6307 205.796 35.6562 205.926 35.6562C206.055 35.6562 206.17 35.6298 206.272 35.5771C206.374 35.5243 206.46 35.4505 206.53 35.3556C206.602 35.2606 206.657 35.1517 206.694 35.0286C206.732 34.9038 206.752 34.7702 206.752 34.6278C206.752 34.4925 206.734 34.365 206.699 34.2455C206.666 34.1242 206.614 34.017 206.543 33.9238C206.473 33.8307 206.385 33.7577 206.28 33.705C206.174 33.6522 206.05 33.6259 205.908 33.6259C205.746 33.6259 205.595 33.6628 205.454 33.7366C205.314 33.8104 205.199 33.9089 205.109 34.0319C205.021 34.155 204.975 34.2895 204.969 34.4354L204.787 34.4327C204.8 34.2675 204.837 34.1189 204.901 33.9871C204.964 33.8535 205.047 33.7401 205.151 33.647C205.257 33.5521 205.377 33.48 205.512 33.4308C205.65 33.3798 205.797 33.3543 205.955 33.3543C206.14 33.3543 206.301 33.3877 206.438 33.4545C206.577 33.5213 206.692 33.6136 206.783 33.7313C206.876 33.8474 206.946 33.9818 206.992 34.1348C207.039 34.2859 207.063 34.4459 207.063 34.6146C207.063 34.7992 207.036 34.9715 206.984 35.1314C206.933 35.2896 206.857 35.4285 206.757 35.548C206.658 35.6676 206.539 35.7607 206.398 35.8275C206.259 35.8943 206.102 35.9277 205.926 35.9277C205.733 35.9277 205.56 35.8908 205.407 35.817C205.254 35.7432 205.123 35.6412 205.014 35.5111C204.907 35.3811 204.824 35.2316 204.766 35.0629C204.71 34.8924 204.682 34.7104 204.682 34.5171V34.1796C204.682 33.8526 204.72 33.5564 204.795 33.291C204.871 33.0238 204.984 32.7944 205.135 32.6028C205.288 32.4112 205.479 32.2645 205.708 32.1625C205.938 32.0588 206.208 32.0069 206.517 32.0069ZM208.4 33.7814H208.721C208.918 33.7814 209.083 33.748 209.214 33.6813C209.348 33.6127 209.448 33.5222 209.515 33.4097C209.583 33.2972 209.618 33.1724 209.618 33.0353C209.618 32.8806 209.589 32.7452 209.531 32.6292C209.473 32.5114 209.384 32.42 209.264 32.355C209.147 32.2882 208.996 32.2548 208.811 32.2548C208.649 32.2548 208.505 32.2864 208.379 32.3497C208.252 32.413 208.152 32.5035 208.078 32.6213C208.004 32.7391 207.967 32.8797 207.967 33.0432H207.653C207.653 32.834 207.704 32.6503 207.804 32.4921C207.904 32.3321 208.042 32.2073 208.218 32.1177C208.393 32.028 208.591 31.9832 208.811 31.9832C209.038 31.9832 209.235 32.0245 209.402 32.1071C209.57 32.1897 209.7 32.3102 209.792 32.4684C209.885 32.6266 209.932 32.819 209.932 33.0458C209.932 33.1618 209.906 33.2761 209.855 33.3886C209.806 33.5011 209.732 33.603 209.634 33.6944C209.535 33.7841 209.413 33.8562 209.267 33.9106C209.121 33.9651 208.952 33.9924 208.758 33.9924H208.4V33.7814ZM208.4 34.053V33.8447H208.758C208.978 33.8447 209.166 33.8702 209.322 33.9212C209.479 33.9704 209.607 34.0407 209.707 34.1321C209.809 34.2218 209.884 34.3264 209.932 34.4459C209.979 34.5654 210.003 34.6938 210.003 34.8309C210.003 35.0066 209.974 35.1622 209.916 35.2976C209.858 35.4329 209.775 35.548 209.668 35.643C209.562 35.7361 209.438 35.8073 209.293 35.8565C209.151 35.904 208.995 35.9277 208.824 35.9277C208.669 35.9277 208.518 35.9049 208.371 35.8592C208.225 35.8135 208.093 35.7458 207.975 35.6562C207.859 35.5647 207.767 35.4505 207.698 35.3134C207.63 35.1745 207.595 35.0146 207.595 34.8335H207.909C207.909 34.9952 207.948 35.1385 208.025 35.2633C208.103 35.3863 208.21 35.483 208.347 35.5533C208.486 35.6219 208.645 35.6562 208.824 35.6562C209.005 35.6562 209.16 35.6254 209.288 35.5639C209.418 35.5006 209.518 35.4083 209.586 35.287C209.655 35.1657 209.689 35.0172 209.689 34.8414C209.689 34.6568 209.648 34.5065 209.565 34.3905C209.484 34.2745 209.371 34.1893 209.225 34.1348C209.081 34.0803 208.913 34.053 208.721 34.053H208.4Z" fill="#5473C8"/>
<rect x="187.8" y="38.6748" width="27" height="2.025" rx="1.0125" fill="#C2D1EB"/>
<rect x="243.225" y="31.1" width="13.95" height="4.95" rx="2.475" fill="#E4ECF6" stroke="#C2D1EB" stroke-width="0.45"/>
<rect x="187.8" y="50.937" width="40.5" height="2.025" rx="1.0125" fill="#C2D1EB"/>
<rect x="187.8" y="57.7993" width="27" height="2.025" rx="1.0125" fill="#C2D1EB"/>
<rect x="187.8" y="70.062" width="20.25" height="2.025" rx="1.0125" fill="#5473C8"/>
<rect x="218.85" y="70.062" width="20.25" height="2.025" rx="1.0125" fill="#C2D1EB"/>
<rect x="7.2002" y="92.2246" width="40.5" height="2.025" rx="1.0125" fill="#90ABDA"/>
</svg>
