<svg width="270" height="144" viewBox="0 0 270 144" fill="none" xmlns="http://www.w3.org/2000/svg">
<g clip-path="url(#clip0_13118_16657)">
<rect y="0.674805" width="270" height="142.65" fill="white"/>
<g filter="url(#filter0_d_13118_16657)">
<rect width="270" height="20.7" transform="translate(0 0.674805)" fill="white"/>
<rect x="7.2002" y="9.6748" width="29.7" height="2.7" rx="1.35" fill="#5473C8"/>
<rect x="53.1001" y="9.6748" width="16.2" height="2.7" rx="1.35" fill="#C2D1EB"/>
<rect x="80.1001" y="9.6748" width="16.2" height="2.7" rx="1.35" fill="#C2D1EB"/>
<rect x="107.1" y="9.6748" width="16.2" height="2.7" rx="1.35" fill="#C2D1EB"/>
<path d="M205.968 11.925H206.287L207.9 13.538L207.263 14.175L205.65 12.562V12.2428L205.275 11.8673C204.887 12.1852 204.39 12.375 203.85 12.375C202.607 12.375 201.6 11.3681 201.6 10.125C201.6 8.88187 202.607 7.875 203.85 7.875C205.093 7.875 206.1 8.88187 206.1 10.125C206.1 10.665 205.91 11.1614 205.592 11.5495L205.968 11.925ZM203.85 8.325C202.856 8.325 202.05 9.13078 202.05 10.125C202.05 11.1192 202.856 11.925 203.85 11.925C204.844 11.925 205.65 11.1192 205.65 10.125C205.65 9.13078 204.844 8.325 203.85 8.325Z" fill="#90ABDA"/>
<path d="M221.85 10.575C222.595 10.575 223.2 9.97031 223.2 9.225C223.2 8.47969 222.595 7.875 221.85 7.875C221.105 7.875 220.5 8.47969 220.5 9.225C220.5 9.97031 221.105 10.575 221.85 10.575Z" fill="#90ABDA"/>
<path d="M219.15 13.725C219.15 12.2344 220.359 11.025 221.85 11.025C223.341 11.025 224.55 12.2344 224.55 13.725C224.55 13.9739 224.349 14.175 224.1 14.175H219.6C219.351 14.175 219.15 13.9739 219.15 13.725Z" fill="#90ABDA"/>
<path d="M239.411 8.78609C240.026 8.17156 241.024 8.17156 241.639 8.78609C242.253 9.40062 242.253 10.4216 241.639 11.0361L238.95 13.7248L236.261 11.0361C235.647 10.4216 235.647 9.40062 236.261 8.78609C236.876 8.17156 237.874 8.17156 238.489 8.78609L238.95 9.24734L239.411 8.78609ZM238.95 13.0878L241.321 10.7183C241.533 10.5059 241.65 10.2191 241.65 9.9111C241.65 9.60313 241.533 9.31625 241.321 9.10391C241.109 8.89156 240.826 8.77485 240.525 8.77485C240.224 8.77485 239.941 8.89156 239.729 9.10391L238.95 9.88297L238.171 9.10391C237.959 8.89156 237.676 8.77485 237.375 8.77485C237.074 8.77485 236.791 8.89156 236.579 9.10391C236.367 9.31625 236.25 9.60313 236.25 9.9111C236.25 10.2191 236.367 10.5059 236.579 10.7183L238.95 13.0878Z" fill="#90ABDA"/>
<path d="M255.149 12.6002C255.149 12.973 254.847 13.2752 254.474 13.2752C254.102 13.2752 253.799 12.973 253.799 12.6002C253.799 12.2274 254.102 11.9252 254.474 11.9252C254.847 11.9252 255.149 12.2274 255.149 12.6002Z" fill="#90ABDA"/>
<path d="M257.174 11.9252C256.802 11.9252 256.499 12.2274 256.499 12.6002C256.499 12.973 256.802 13.2752 257.174 13.2752C257.547 13.2752 257.849 12.973 257.849 12.6002C257.849 12.2274 257.547 11.9252 257.174 11.9252Z" fill="#90ABDA"/>
<path d="M254.249 8.3252H252.899V8.7752H253.799V11.4752H257.849V11.0252H254.249V8.3252Z" fill="#90ABDA"/>
<path d="M254.699 10.5752H258.299V10.1252H254.699V10.5752Z" fill="#90ABDA"/>
<path d="M254.699 9.2252V9.6752H258.749V9.2252H254.699Z" fill="#90ABDA"/>
</g>
<rect x="14.4004" y="45.2246" width="95.85" height="2.7" rx="1.35" fill="#5473C8"/>
<rect x="14.4004" y="59.624" width="62.1" height="2.7" rx="1.35" fill="#5473C8"/>
<rect x="14.4004" y="76.2744" width="109.8" height="2.7" rx="1.35" fill="#C2D1EB"/>
<rect x="14.4004" y="84.374" width="109.8" height="2.7" rx="1.35" fill="#C2D1EB"/>
<rect x="14.4004" y="92.4746" width="72.45" height="2.7" rx="1.35" fill="#C2D1EB"/>
<rect x="14.3999" y="106.875" width="27" height="13.5" rx="1.8" fill="#5473C8"/>
<rect x="19.7998" y="112.274" width="16.2" height="2.7" rx="1.35" fill="white"/>
<rect x="45.225" y="107.1" width="26.55" height="13.05" rx="1.575" stroke="#5473C8" stroke-width="0.45"/>
<rect x="50.3999" y="112.274" width="16.2" height="2.7" rx="1.35" fill="#5473C8"/>
<rect width="124.2" height="114.75" transform="translate(138.6 21.375)" fill="#E4ECF6"/>
<path d="M202.725 74.6994C203.843 74.6994 204.75 75.6064 204.75 76.7244C204.75 77.8424 203.843 78.7494 202.725 78.7494C201.607 78.7494 200.7 77.8424 200.7 76.7244C200.7 75.6064 201.607 74.6994 202.725 74.6994Z" fill="#C2D1EB"/>
<path d="M192.6 70.6494H208.8C209.543 70.6494 210.15 71.2569 210.15 71.9994V85.4994C210.15 86.2419 209.543 86.8494 208.8 86.8494H192.6C191.858 86.8494 191.25 86.2419 191.25 85.4994V71.9994C191.25 71.2569 191.858 70.6494 192.6 70.6494ZM206.1 79.4244L208.8 82.1244L208.804 72.0036L208.8 71.9994H192.604L192.6 72.0036V82.1244L197.325 77.3994L202.725 82.7994L206.1 79.4244Z" fill="#C2D1EB"/>
</g>
<rect x="0.225" y="0.899805" width="269.55" height="142.2" stroke="#C2D1EB" stroke-width="0.45"/>
<defs>
<filter id="filter0_d_13118_16657" x="-0.45" y="0.674805" width="270.9" height="21.6002" filterUnits="userSpaceOnUse" color-interpolation-filters="sRGB">
<feFlood flood-opacity="0" result="BackgroundImageFix"/>
<feColorMatrix in="SourceAlpha" type="matrix" values="0 0 0 0 0 0 0 0 0 0 0 0 0 0 0 0 0 0 127 0" result="hardAlpha"/>
<feOffset dy="0.45"/>
<feGaussianBlur stdDeviation="0.225"/>
<feColorMatrix type="matrix" values="0 0 0 0 0.329412 0 0 0 0 0.45098 0 0 0 0 0.784314 0 0 0 0.32 0"/>
<feBlend mode="normal" in2="BackgroundImageFix" result="effect1_dropShadow_13118_16657"/>
<feBlend mode="normal" in="SourceGraphic" in2="effect1_dropShadow_13118_16657" result="shape"/>
</filter>
<clipPath id="clip0_13118_16657">
<rect y="0.674805" width="270" height="142.65" fill="white"/>
</clipPath>
</defs>
</svg>
