<svg width="270" height="152" viewBox="0 0 270 152" fill="none" xmlns="http://www.w3.org/2000/svg">
<rect x="0.225" y="1.0751" width="269.55" height="149.85" fill="#E4ECF6"/>
<rect x="0.225" y="1.0751" width="269.55" height="149.85" stroke="#C2D1EB" stroke-width="0.45"/>
<rect width="124.2" height="123.3" transform="translate(72.8999 14.3501)" fill="white"/>
<rect x="118.125" y="26.5" width="33.75" height="2.7" rx="1.35" fill="#5473C8"/>
<path d="M83.6997 39.7749H186.3C187.17 39.7751 187.874 40.4805 187.875 41.3501V51.2505C187.874 52.1201 187.17 52.8255 186.3 52.8257H83.6997C82.83 52.8256 82.1246 52.1202 82.1245 51.2505V41.3501C82.1246 40.4804 82.83 39.775 83.6997 39.7749Z" fill="white"/>
<path d="M83.6997 39.7749H186.3C187.17 39.7751 187.874 40.4805 187.875 41.3501V51.2505C187.874 52.1201 187.17 52.8255 186.3 52.8257H83.6997C82.83 52.8256 82.1246 52.1202 82.1245 51.2505V41.3501C82.1246 40.4804 82.83 39.775 83.6997 39.7749Z" stroke="#C2D1EB" stroke-width="0.45"/>
<rect x="87.2998" y="44.9502" width="33.75" height="2.7" rx="1.35" fill="#90ABDA"/>
<path d="M83.6997 60.4746H186.3C187.17 60.4748 187.874 61.1802 187.875 62.0498V71.9502C187.874 72.8198 187.17 73.5252 186.3 73.5254H83.6997C82.83 73.5253 82.1246 72.8199 82.1245 71.9502V62.0498C82.1246 61.1801 82.83 60.4747 83.6997 60.4746Z" fill="white"/>
<path d="M83.6997 60.4746H186.3C187.17 60.4748 187.874 61.1802 187.875 62.0498V71.9502C187.874 72.8198 187.17 73.5252 186.3 73.5254H83.6997C82.83 73.5253 82.1246 72.8199 82.1245 71.9502V62.0498C82.1246 61.1801 82.83 60.4747 83.6997 60.4746Z" stroke="#C2D1EB" stroke-width="0.45"/>
<rect x="87.2998" y="65.6499" width="33.75" height="2.7" rx="1.35" fill="#90ABDA"/>
<path d="M179.1 67.0002C179.722 65.9244 180.917 65.2002 182.25 65.2002C183.583 65.2002 184.779 65.9244 185.4 67.0002C184.779 68.076 183.582 68.8002 182.25 68.8002C180.918 68.8002 179.723 68.076 179.1 67.0002ZM182.25 66.5502C182.25 66.3013 182.049 66.1002 181.8 66.1002C181.551 66.1002 181.35 66.3013 181.35 66.5502C181.35 66.7991 181.551 67.0002 181.8 67.0002C182.049 67.0002 182.25 66.7991 182.25 66.5502ZM179.632 67.0002C179.89 67.3714 180.262 67.685 180.653 67.9157C180.824 68.0169 181.006 68.1013 181.193 68.1674C180.875 67.8791 180.675 67.4629 180.675 67.0002C180.675 66.5375 180.875 66.1213 181.193 65.833C181.006 65.8991 180.824 65.9835 180.653 66.0847C180.262 66.3154 179.89 66.6289 179.632 67.0002ZM183.308 68.1674C183.495 68.1013 183.676 68.0169 183.848 67.9157C184.239 67.685 184.608 67.3714 184.869 67.0002C184.61 66.6289 184.239 66.3154 183.848 66.0847C183.676 65.9835 183.495 65.8991 183.308 65.833C183.625 66.1213 183.825 66.5375 183.825 67.0002C183.825 67.4629 183.625 67.8791 183.308 68.1674Z" fill="#90ABDA"/>
<rect x="82.1249" y="81.1752" width="6.75" height="6.75" rx="0.675" fill="#90ABDA"/>
<rect x="82.1249" y="81.1752" width="6.75" height="6.75" rx="0.675" stroke="#90ABDA" stroke-width="0.45"/>
<path d="M87.3849 82.7222L87.8627 83.1999L84.8252 86.2374L83.1377 84.5499L83.6155 84.0722L84.8252 85.2829L87.3849 82.7222Z" fill="white"/>
<rect x="94.5" y="83.2002" width="18.9" height="2.7" rx="1.35" fill="#90ABDA"/>
<rect x="161.1" y="83.2002" width="27" height="2.7" rx="1.35" fill="#C2D1EB"/>
<rect x="81.8999" y="102.55" width="106.2" height="13.5" rx="1.8" fill="#5473C8"/>
<rect x="118.125" y="107.95" width="33.75" height="2.7" rx="1.35" fill="white"/>
<rect x="108" y="122.8" width="54" height="2.7" rx="1.35" fill="#C2D1EB"/>
</svg>
