<svg width="270" height="88" viewBox="0 0 270 88" fill="none" xmlns="http://www.w3.org/2000/svg">
<rect x="0.225" y="0.800195" width="269.55" height="86.4" fill="#E4ECF6"/>
<rect x="0.225" y="0.800195" width="269.55" height="86.4" stroke="#C2D1EB" stroke-width="0.45"/>
<rect x="123.3" y="19.0254" width="23.4" height="2.7" rx="1.35" fill="#5473C8"/>
<rect x="99" y="30.2754" width="72" height="2.7" rx="1.35" fill="#C2D1EB"/>
<path d="M37.9703 54.3474H39.0962C39.7853 54.3474 40.3605 54.2305 40.8219 53.9967C41.2895 53.7567 41.6402 53.4399 41.874 53.0461C42.1139 52.6524 42.2339 52.2156 42.2339 51.7357C42.2339 51.1943 42.1324 50.7206 41.9293 50.3145C41.7263 49.9023 41.4156 49.5824 40.9973 49.3547C40.5851 49.1209 40.056 49.0041 39.41 49.0041C38.8439 49.0041 38.3395 49.1148 37.8965 49.3363C37.4535 49.5578 37.1028 49.8746 36.8444 50.2868C36.586 50.699 36.4568 51.1912 36.4568 51.7634H35.3586C35.3586 51.0313 35.534 50.3883 35.8847 49.8346C36.2354 49.2748 36.7183 48.8379 37.3335 48.5242C37.9488 48.2104 38.6409 48.0535 39.41 48.0535C40.2036 48.0535 40.8927 48.1981 41.4771 48.4873C42.0678 48.7764 42.523 49.1979 42.843 49.7516C43.169 50.3053 43.3321 50.979 43.3321 51.7726C43.3321 52.1787 43.2429 52.5786 43.0645 52.9723C42.8922 53.3661 42.6338 53.7229 42.2893 54.0428C41.9447 54.3566 41.5171 54.6088 41.0065 54.7996C40.4959 54.9903 39.9021 55.0856 39.2254 55.0856H37.9703V54.3474ZM37.9703 55.2979V54.5688H39.2254C39.9944 54.5688 40.6527 54.6581 41.2003 54.8365C41.7479 55.0087 42.197 55.2548 42.5477 55.5748C42.9045 55.8885 43.166 56.2546 43.3321 56.6729C43.4982 57.0913 43.5813 57.5404 43.5813 58.0203C43.5813 58.6355 43.4797 59.18 43.2767 59.6538C43.0737 60.1275 42.7845 60.5305 42.4092 60.8627C42.0401 61.1888 41.6033 61.4379 41.0988 61.6102C40.6004 61.7763 40.0529 61.8594 39.4561 61.8594C38.9147 61.8594 38.3856 61.7794 37.8688 61.6194C37.3582 61.4595 36.8967 61.2226 36.4845 60.9088C36.0785 60.5889 35.7555 60.189 35.5155 59.7091C35.2756 59.2231 35.1556 58.6632 35.1556 58.0295H36.2538C36.2538 58.5956 36.3892 59.097 36.6599 59.5338C36.9306 59.9645 37.3059 60.3028 37.7857 60.5489C38.2718 60.7889 38.8286 60.9088 39.4561 60.9088C40.0898 60.9088 40.6312 60.8012 41.0803 60.5858C41.5356 60.3644 41.8832 60.0414 42.1231 59.6168C42.3631 59.1923 42.4831 58.6725 42.4831 58.0572C42.4831 57.4112 42.3385 56.8852 42.0493 56.4792C41.7663 56.0731 41.3695 55.7747 40.8588 55.584C40.3543 55.3933 39.7668 55.2979 39.0962 55.2979H37.9703ZM47.6141 55.0303L46.7466 54.7811L47.4019 48.2381H54.1202V49.2717H48.3432L47.8725 53.7937C48.1063 53.6275 48.4447 53.4645 48.8876 53.3045C49.3368 53.1384 49.8413 53.0554 50.4011 53.0554C50.9979 53.0554 51.5393 53.1569 52.0253 53.3599C52.5175 53.5568 52.939 53.8459 53.2896 54.2274C53.6403 54.6027 53.911 55.058 54.1018 55.5932C54.2925 56.1223 54.3878 56.7222 54.3878 57.3928C54.3878 58.0388 54.3079 58.6325 54.1479 59.1739C53.9879 59.7153 53.7449 60.189 53.4188 60.5951C53.0928 60.995 52.6775 61.3057 52.173 61.5271C51.6685 61.7486 51.0687 61.8594 50.3734 61.8594C49.8382 61.8594 49.3337 61.7855 48.86 61.6379C48.3924 61.4841 47.974 61.2534 47.6049 60.9458C47.2357 60.6381 46.9343 60.2505 46.7005 59.783C46.4729 59.3154 46.3313 58.7678 46.276 58.1403H47.3373C47.4111 58.7432 47.5741 59.2508 47.8264 59.663C48.0786 60.0752 48.417 60.3859 48.8415 60.5951C49.2722 60.8042 49.7828 60.9088 50.3734 60.9088C50.8533 60.9088 51.2717 60.8319 51.6285 60.6781C51.9915 60.5243 52.293 60.2998 52.5329 60.0044C52.779 59.703 52.9636 59.3369 53.0866 58.9063C53.2158 58.4694 53.2804 57.9711 53.2804 57.4112C53.2804 56.9313 53.2127 56.4915 53.0774 56.0916C52.942 55.6855 52.7421 55.3317 52.4775 55.0303C52.2191 54.7227 51.8992 54.4858 51.5178 54.3197C51.1363 54.1536 50.6995 54.0705 50.2073 54.0705C49.5675 54.0705 49.0568 54.1566 48.6754 54.3289C48.3001 54.5012 47.9463 54.735 47.6141 55.0303ZM62.8319 48.1366H62.9888V49.1056H62.8319C61.9829 49.1056 61.2262 49.244 60.5617 49.5208C59.9034 49.7977 59.3466 50.1976 58.8914 50.7206C58.4422 51.2374 58.1008 51.8649 57.867 52.6032C57.6332 53.3415 57.5163 54.1689 57.5163 55.0856V56.9406C57.5163 57.562 57.5994 58.1188 57.7655 58.6109C57.9316 59.097 58.1623 59.5123 58.4576 59.8568C58.7529 60.2013 59.0975 60.4628 59.4912 60.6412C59.885 60.8196 60.3095 60.9088 60.7647 60.9088C61.2139 60.9088 61.6168 60.8166 61.9737 60.632C62.3305 60.4474 62.632 60.189 62.8781 59.8568C63.1303 59.5246 63.321 59.1431 63.4502 58.7125C63.5856 58.2756 63.6533 57.8081 63.6533 57.3097C63.6533 56.836 63.5917 56.3899 63.4687 55.9716C63.3518 55.5471 63.1703 55.1718 62.9242 54.8457C62.6781 54.5196 62.3705 54.2643 62.0014 54.0797C61.6322 53.8952 61.1985 53.8029 60.7001 53.8029C60.1341 53.8029 59.605 53.9321 59.1128 54.1905C58.6207 54.4489 58.2177 54.7934 57.9039 55.2241C57.5963 55.6547 57.4333 56.1254 57.4148 56.636L56.778 56.6268C56.8211 56.0485 56.9534 55.5286 57.1749 55.0672C57.3963 54.5996 57.6886 54.2028 58.0516 53.8767C58.4207 53.5445 58.8421 53.2922 59.3159 53.12C59.7958 52.9416 60.3125 52.8523 60.8663 52.8523C61.5123 52.8523 62.0752 52.9692 62.5551 53.203C63.0411 53.4368 63.4441 53.7598 63.764 54.172C64.0901 54.5781 64.3331 55.0487 64.4931 55.584C64.6592 56.1131 64.7422 56.6729 64.7422 57.2636C64.7422 57.9096 64.65 58.5125 64.4654 59.0724C64.287 59.6261 64.0224 60.1121 63.6717 60.5305C63.3272 60.9488 62.9088 61.2749 62.4167 61.5087C61.9306 61.7425 61.38 61.8594 60.7647 61.8594C60.088 61.8594 59.482 61.7302 58.9467 61.4718C58.4115 61.2134 57.9531 60.8565 57.5717 60.4013C57.1964 59.946 56.9072 59.423 56.7042 58.8324C56.5073 58.2356 56.4089 57.5989 56.4089 56.9221V55.7409C56.4089 54.5965 56.5412 53.5599 56.8057 52.6309C57.0703 51.6957 57.4671 50.8928 57.9962 50.2222C58.5314 49.5516 59.199 49.0379 59.9988 48.6811C60.8047 48.3181 61.7491 48.1366 62.8319 48.1366ZM68.2398 47.4998V61.6748H67.1417V47.4998H68.2398ZM74.506 51.6896L69.8364 56.3223L67.8522 58.2418L67.6861 57.1621L69.2827 55.4363L73.1125 51.6896H74.506ZM73.5462 61.6748L69.375 56.4884L69.984 55.5378L74.8751 61.6748H73.5462Z" fill="#5473C8"/>
<rect x="34.5752" y="68.4746" width="40.05" height="2.7" rx="1.35" fill="#C2D1EB"/>
<path d="M123.621 60.7243V61.6748H115.214V60.8166L119.616 55.8239C120.164 55.2025 120.6 54.6581 120.927 54.1905C121.253 53.7167 121.486 53.2861 121.628 52.8985C121.776 52.5047 121.849 52.1233 121.849 51.7542C121.849 51.2127 121.742 50.7359 121.526 50.3237C121.317 49.9115 121.003 49.5885 120.585 49.3547C120.167 49.1209 119.65 49.0041 119.035 49.0041C118.419 49.0041 117.884 49.1363 117.429 49.4009C116.974 49.6654 116.623 50.0346 116.377 50.5083C116.137 50.9759 116.017 51.5081 116.017 52.1048H114.919C114.919 51.3666 115.082 50.6898 115.408 50.0746C115.74 49.4593 116.214 48.9702 116.829 48.6072C117.444 48.2381 118.179 48.0535 119.035 48.0535C119.847 48.0535 120.545 48.1981 121.13 48.4873C121.714 48.7703 122.163 49.1794 122.477 49.7146C122.797 50.2499 122.957 50.8959 122.957 51.6526C122.957 52.0587 122.883 52.4678 122.735 52.88C122.594 53.2922 122.397 53.7044 122.145 54.1167C121.899 54.5227 121.616 54.9257 121.296 55.3256C120.982 55.7255 120.653 56.1192 120.308 56.5068L116.561 60.7243H123.621ZM134.566 57.3374V58.2787H125.052V57.6419L131.262 48.2381H132.185L130.875 50.5175L126.399 57.3374H134.566ZM132.471 48.2381V61.6748H131.373V48.2381H132.471ZM144.275 53.8029V56.0639C144.275 57.0482 144.182 57.9065 143.998 58.6386C143.813 59.3646 143.543 59.9675 143.186 60.4474C142.835 60.9211 142.404 61.2749 141.894 61.5087C141.389 61.7425 140.811 61.8594 140.159 61.8594C139.642 61.8594 139.168 61.7855 138.738 61.6379C138.307 61.4902 137.922 61.2657 137.584 60.9642C137.252 60.6566 136.969 60.2721 136.735 59.8106C136.501 59.3492 136.323 58.8078 136.2 58.1864C136.077 57.5589 136.015 56.8514 136.015 56.0639V53.8029C136.015 52.8124 136.107 51.9572 136.292 51.2374C136.483 50.5175 136.753 49.9208 137.104 49.447C137.461 48.9733 137.895 48.6226 138.405 48.395C138.916 48.1612 139.494 48.0443 140.14 48.0443C140.657 48.0443 141.131 48.1212 141.561 48.275C141.998 48.4227 142.383 48.6441 142.715 48.9395C143.053 49.2348 143.336 49.6131 143.564 50.0746C143.798 50.5298 143.973 51.0682 144.09 51.6896C144.213 52.3109 144.275 53.0154 144.275 53.8029ZM143.176 56.1931V53.6645C143.176 53.0554 143.133 52.5017 143.047 52.0033C142.967 51.505 142.847 51.0682 142.687 50.6929C142.527 50.3176 142.324 50.0038 142.078 49.7516C141.838 49.4993 141.555 49.3117 141.229 49.1886C140.909 49.0594 140.546 48.9948 140.14 48.9948C139.642 48.9948 139.202 49.0963 138.821 49.2994C138.445 49.4962 138.132 49.7916 137.879 50.1853C137.627 50.5729 137.436 51.0589 137.307 51.6434C137.184 52.2279 137.123 52.9016 137.123 53.6645V56.1931C137.123 56.796 137.163 57.3466 137.243 57.845C137.323 58.3372 137.446 58.774 137.612 59.1554C137.778 59.5369 137.981 59.8599 138.221 60.1244C138.467 60.3828 138.75 60.5797 139.07 60.715C139.396 60.8442 139.759 60.9088 140.159 60.9088C140.669 60.9088 141.112 60.8073 141.488 60.6043C141.863 60.3951 142.177 60.0906 142.429 59.6907C142.681 59.2846 142.869 58.7894 142.992 58.2049C143.115 57.6143 143.176 56.9437 143.176 56.1931ZM155.294 54.8365V55.8793H146.083V54.8365H155.294ZM151.205 50.5452V60.3274H150.098V50.5452H151.205Z" fill="#5473C8"/>
<rect x="114.975" y="68.4746" width="40.05" height="2.7" rx="1.35" fill="#C2D1EB"/>
<path d="M200.718 60.8073H200.958C201.936 60.8073 202.754 60.6658 203.413 60.3828C204.071 60.0937 204.597 59.6968 204.991 59.1923C205.391 58.6817 205.677 58.0849 205.849 57.402C206.021 56.7191 206.107 55.9777 206.107 55.1779V53.3045C206.107 52.597 206.03 51.9756 205.877 51.4404C205.723 50.9051 205.504 50.4591 205.221 50.1022C204.938 49.7393 204.603 49.4655 204.215 49.2809C203.834 49.0963 203.409 49.0041 202.942 49.0041C202.48 49.0041 202.062 49.1025 201.687 49.2994C201.318 49.4962 201.004 49.77 200.746 50.1207C200.493 50.4652 200.296 50.8621 200.155 51.3112C200.02 51.7542 199.952 52.2248 199.952 52.7231C199.952 53.1784 200.013 53.6214 200.136 54.0521C200.266 54.4766 200.453 54.8611 200.699 55.2056C200.945 55.544 201.247 55.8147 201.604 56.0177C201.967 56.2146 202.385 56.313 202.859 56.313C203.394 56.313 203.868 56.2115 204.28 56.0085C204.698 55.8055 205.052 55.544 205.341 55.2241C205.637 54.898 205.861 54.5473 206.015 54.172C206.175 53.7906 206.261 53.4214 206.273 53.0646L206.827 53.0554C206.827 53.6152 206.723 54.1505 206.513 54.6611C206.31 55.1656 206.021 55.6147 205.646 56.0085C205.277 56.3961 204.843 56.7037 204.345 56.9313C203.846 57.159 203.308 57.2728 202.73 57.2728C202.102 57.2728 201.545 57.1498 201.059 56.9037C200.579 56.6514 200.176 56.313 199.85 55.8885C199.53 55.4579 199.287 54.9749 199.121 54.4396C198.955 53.9044 198.872 53.3476 198.872 52.7693C198.872 52.1233 198.961 51.5173 199.14 50.9513C199.324 50.3791 199.592 49.8777 199.943 49.447C200.293 49.0102 200.718 48.6688 201.216 48.4227C201.721 48.1766 202.29 48.0535 202.923 48.0535C203.643 48.0535 204.271 48.1858 204.806 48.4503C205.341 48.7087 205.784 49.0779 206.135 49.5578C206.492 50.0376 206.756 50.6037 206.929 51.2558C207.107 51.908 207.196 52.6278 207.196 53.4153V54.4766C207.196 55.2702 207.135 56.03 207.012 56.756C206.889 57.482 206.683 58.1526 206.393 58.7678C206.11 59.3769 205.729 59.906 205.249 60.3551C204.769 60.8042 204.175 61.1549 203.468 61.4072C202.76 61.6533 201.924 61.7763 200.958 61.7763H200.709L200.718 60.8073ZM211.201 60.8073H211.441C212.42 60.8073 213.238 60.6658 213.896 60.3828C214.554 60.0937 215.08 59.6968 215.474 59.1923C215.874 58.6817 216.16 58.0849 216.332 57.402C216.505 56.7191 216.591 55.9777 216.591 55.1779V53.3045C216.591 52.597 216.514 51.9756 216.36 51.4404C216.206 50.9051 215.988 50.4591 215.705 50.1022C215.422 49.7393 215.087 49.4655 214.699 49.2809C214.318 49.0963 213.893 49.0041 213.425 49.0041C212.964 49.0041 212.546 49.1025 212.17 49.2994C211.801 49.4962 211.488 49.77 211.229 50.1207C210.977 50.4652 210.78 50.8621 210.638 51.3112C210.503 51.7542 210.435 52.2248 210.435 52.7231C210.435 53.1784 210.497 53.6214 210.62 54.0521C210.749 54.4766 210.937 54.8611 211.183 55.2056C211.429 55.544 211.731 55.8147 212.087 56.0177C212.45 56.2146 212.869 56.313 213.342 56.313C213.878 56.313 214.351 56.2115 214.764 56.0085C215.182 55.8055 215.536 55.544 215.825 55.2241C216.12 54.898 216.345 54.5473 216.499 54.172C216.659 53.7906 216.745 53.4214 216.757 53.0646L217.311 53.0554C217.311 53.6152 217.206 54.1505 216.997 54.6611C216.794 55.1656 216.505 55.6147 216.129 56.0085C215.76 56.3961 215.327 56.7037 214.828 56.9313C214.33 57.159 213.792 57.2728 213.213 57.2728C212.586 57.2728 212.029 57.1498 211.543 56.9037C211.063 56.6514 210.66 56.313 210.334 55.8885C210.014 55.4579 209.771 54.9749 209.605 54.4396C209.439 53.9044 209.356 53.3476 209.356 52.7693C209.356 52.1233 209.445 51.5173 209.623 50.9513C209.808 50.3791 210.076 49.8777 210.426 49.447C210.777 49.0102 211.201 48.6688 211.7 48.4227C212.204 48.1766 212.773 48.0535 213.407 48.0535C214.127 48.0535 214.754 48.1858 215.29 48.4503C215.825 48.7087 216.268 49.0779 216.619 49.5578C216.975 50.0376 217.24 50.6037 217.412 51.2558C217.591 51.908 217.68 52.6278 217.68 53.4153V54.4766C217.68 55.2702 217.618 56.03 217.495 56.756C217.372 57.482 217.166 58.1526 216.877 58.7678C216.594 59.3769 216.213 59.906 215.733 60.3551C215.253 60.8042 214.659 61.1549 213.952 61.4072C213.244 61.6533 212.407 61.7763 211.441 61.7763H211.192L211.201 60.8073ZM219.913 51.5327V50.8221C219.913 50.3114 220.021 49.8469 220.236 49.4286C220.451 49.0102 220.756 48.6749 221.15 48.4227C221.544 48.1704 222.005 48.0443 222.534 48.0443C223.075 48.0443 223.54 48.1704 223.928 48.4227C224.321 48.6749 224.626 49.0102 224.841 49.4286C225.056 49.8469 225.164 50.3114 225.164 50.8221V51.5327C225.164 52.031 225.056 52.4894 224.841 52.9077C224.632 53.3261 224.331 53.6614 223.937 53.9136C223.549 54.1659 223.088 54.292 222.552 54.292C222.017 54.292 221.55 54.1659 221.15 53.9136C220.756 53.6614 220.451 53.3261 220.236 52.9077C220.021 52.4894 219.913 52.031 219.913 51.5327ZM220.799 50.8221V51.5327C220.799 51.8587 220.861 52.1725 220.984 52.474C221.113 52.7693 221.307 53.0123 221.565 53.203C221.83 53.3938 222.159 53.4891 222.552 53.4891C222.946 53.4891 223.269 53.3968 223.521 53.2123C223.774 53.0215 223.961 52.7785 224.084 52.4832C224.214 52.1817 224.278 51.8649 224.278 51.5327V50.8221C224.278 50.4837 224.214 50.1668 224.084 49.8715C223.961 49.5701 223.771 49.324 223.512 49.1333C223.254 48.9425 222.928 48.8472 222.534 48.8472C222.153 48.8472 221.833 48.9425 221.574 49.1333C221.316 49.324 221.122 49.5701 220.993 49.8715C220.864 50.1668 220.799 50.4837 220.799 50.8221ZM226.668 59.1V58.3802C226.668 57.8757 226.776 57.4143 226.991 56.9959C227.207 56.5776 227.511 56.2423 227.905 55.99C228.299 55.7378 228.763 55.6117 229.299 55.6117C229.84 55.6117 230.304 55.7378 230.692 55.99C231.086 56.2423 231.39 56.5776 231.606 56.9959C231.821 57.4143 231.929 57.8757 231.929 58.3802V59.1C231.929 59.6045 231.821 60.066 231.606 60.4843C231.396 60.9027 231.095 61.238 230.701 61.4902C230.314 61.7425 229.852 61.8686 229.317 61.8686C228.776 61.8686 228.308 61.7425 227.914 61.4902C227.521 61.238 227.213 60.9027 226.991 60.4843C226.776 60.066 226.668 59.6045 226.668 59.1ZM227.564 58.3802V59.1C227.564 59.4323 227.625 59.7491 227.748 60.0506C227.877 60.3459 228.071 60.5889 228.33 60.7796C228.594 60.9704 228.923 61.0657 229.317 61.0657C229.705 61.0657 230.025 60.9734 230.277 60.7889C230.535 60.5981 230.726 60.3521 230.849 60.0506C230.978 59.7491 231.043 59.4323 231.043 59.1V58.3802C231.043 58.0295 230.978 57.7065 230.849 57.4112C230.726 57.1098 230.535 56.8698 230.277 56.6914C230.018 56.5068 229.692 56.4146 229.299 56.4146C228.917 56.4146 228.594 56.5068 228.33 56.6914C228.071 56.8698 227.877 57.1098 227.748 57.4112C227.625 57.7065 227.564 58.0295 227.564 58.3802ZM229.465 50.0561L222.903 60.5582L222.22 60.1152L228.782 49.6131L229.465 50.0561Z" fill="#5473C8"/>
<rect x="195.375" y="68.4746" width="40.05" height="2.7" rx="1.35" fill="#C2D1EB"/>
</svg>
