<svg width="272" height="23" viewBox="0 0 272 23" fill="none" xmlns="http://www.w3.org/2000/svg">
<g filter="url(#filter0_d_13323_45990)">
<g clip-path="url(#clip0_13323_45990)">
<rect width="270" height="20.7" transform="translate(1 0.649902)" fill="#C2D1EB"/>
<rect x="8.2002" y="9.6499" width="29.7" height="2.7" rx="1.35" fill="#5473C8"/>
<rect x="54.1001" y="9.6499" width="16.2" height="2.7" rx="1.35" fill="#90ABDA"/>
<rect x="81.1001" y="9.6499" width="16.2" height="2.7" rx="1.35" fill="#90ABDA"/>
<rect x="108.1" y="9.6499" width="16.2" height="2.7" rx="1.35" fill="#90ABDA"/>
<path d="M206.968 11.9001H207.287L208.9 13.5131L208.263 14.1501L206.65 12.5371V12.2179L206.275 11.8424C205.887 12.1603 205.39 12.3501 204.85 12.3501C203.607 12.3501 202.6 11.3432 202.6 10.1001C202.6 8.85697 203.607 7.8501 204.85 7.8501C206.093 7.8501 207.1 8.85697 207.1 10.1001C207.1 10.6401 206.91 11.1365 206.592 11.5246L206.968 11.9001ZM204.85 8.3001C203.856 8.3001 203.05 9.10588 203.05 10.1001C203.05 11.0943 203.856 11.9001 204.85 11.9001C205.844 11.9001 206.65 11.0943 206.65 10.1001C206.65 9.10588 205.844 8.3001 204.85 8.3001Z" fill="#5473C8"/>
<path d="M222.85 10.5501C223.595 10.5501 224.2 9.94541 224.2 9.2001C224.2 8.45479 223.595 7.8501 222.85 7.8501C222.105 7.8501 221.5 8.45479 221.5 9.2001C221.5 9.94541 222.105 10.5501 222.85 10.5501Z" fill="#5473C8"/>
<path d="M220.15 13.7001C220.15 12.2095 221.359 11.0001 222.85 11.0001C224.341 11.0001 225.55 12.2095 225.55 13.7001C225.55 13.949 225.349 14.1501 225.1 14.1501H220.6C220.351 14.1501 220.15 13.949 220.15 13.7001Z" fill="#5473C8"/>
<path d="M240.411 8.76119C241.026 8.14666 242.024 8.14666 242.639 8.76119C243.253 9.37572 243.253 10.3967 242.639 11.0112L239.95 13.6999L237.261 11.0112C236.647 10.3967 236.647 9.37572 237.261 8.76119C237.876 8.14666 238.874 8.14666 239.489 8.76119L239.95 9.22244L240.411 8.76119ZM239.95 13.0629L242.321 10.6934C242.533 10.481 242.65 10.1942 242.65 9.88619C242.65 9.57822 242.533 9.29135 242.321 9.07901C242.109 8.86666 241.826 8.74994 241.525 8.74994C241.224 8.74994 240.941 8.86666 240.729 9.07901L239.95 9.85807L239.171 9.07901C238.959 8.86666 238.676 8.74994 238.375 8.74994C238.074 8.74994 237.791 8.86666 237.579 9.07901C237.367 9.29135 237.25 9.57822 237.25 9.88619C237.25 10.1942 237.367 10.481 237.579 10.6934L239.95 13.0629Z" fill="#5473C8"/>
<path d="M256.15 12.5748C256.15 12.9476 255.848 13.2498 255.475 13.2498C255.102 13.2498 254.8 12.9476 254.8 12.5748C254.8 12.202 255.102 11.8998 255.475 11.8998C255.848 11.8998 256.15 12.202 256.15 12.5748Z" fill="#5473C8"/>
<path d="M258.175 11.8998C257.802 11.8998 257.5 12.202 257.5 12.5748C257.5 12.9476 257.802 13.2498 258.175 13.2498C258.548 13.2498 258.85 12.9476 258.85 12.5748C258.85 12.202 258.548 11.8998 258.175 11.8998Z" fill="#5473C8"/>
<path d="M255.25 8.2998H253.9V8.7498H254.8V11.4498H258.85V10.9998H255.25V8.2998Z" fill="#5473C8"/>
<path d="M255.7 10.5498H259.3V10.0998H255.7V10.5498Z" fill="#5473C8"/>
<path d="M255.7 9.1998V9.6498H259.75V9.1998H255.7Z" fill="#5473C8"/>
</g>
<path d="M270.775 0.874512V21.1245H1.22461V0.874512H270.775Z" stroke="#C2D1EB" stroke-width="0.45"/>
</g>
<defs>
<filter id="filter0_d_13323_45990" x="0.55" y="0.649902" width="270.9" height="21.6002" filterUnits="userSpaceOnUse" color-interpolation-filters="sRGB">
<feFlood flood-opacity="0" result="BackgroundImageFix"/>
<feColorMatrix in="SourceAlpha" type="matrix" values="0 0 0 0 0 0 0 0 0 0 0 0 0 0 0 0 0 0 127 0" result="hardAlpha"/>
<feOffset dy="0.45"/>
<feGaussianBlur stdDeviation="0.225"/>
<feColorMatrix type="matrix" values="0 0 0 0 0.329412 0 0 0 0 0.45098 0 0 0 0 0.784314 0 0 0 0.32 0"/>
<feBlend mode="normal" in2="BackgroundImageFix" result="effect1_dropShadow_13323_45990"/>
<feBlend mode="normal" in="SourceGraphic" in2="effect1_dropShadow_13323_45990" result="shape"/>
</filter>
<clipPath id="clip0_13323_45990">
<path d="M1 0.649902H271V21.3499H1V0.649902Z" fill="white"/>
</clipPath>
</defs>
</svg>
