<svg width="270" height="144" viewBox="0 0 270 144" fill="none" xmlns="http://www.w3.org/2000/svg">
<rect x="0.225" y="0.899805" width="269.55" height="142.2" fill="#E4ECF6"/>
<rect x="0.225" y="0.899805" width="269.55" height="142.2" stroke="#C2D1EB" stroke-width="0.45"/>
<rect x="100.8" y="32.625" width="68.4" height="2.7" rx="1.35" fill="#5473C8"/>
<rect x="113.85" y="40.2749" width="42.3" height="2.7" rx="1.35" fill="#C2D1EB"/>
<path d="M74.6997 51.2993H195.3C196.17 51.2995 196.874 52.0049 196.875 52.8745V87.5249C196.874 88.3945 196.17 89.0999 195.3 89.1001H74.6997C73.83 89.1 73.1246 88.3946 73.1245 87.5249V52.8745C73.1246 52.0048 73.83 51.2994 74.6997 51.2993Z" fill="white"/>
<path d="M74.6997 51.2993H195.3C196.17 51.2995 196.874 52.0049 196.875 52.8745V87.5249C196.874 88.3945 196.17 89.0999 195.3 89.1001H74.6997C73.83 89.1 73.1246 88.3946 73.1245 87.5249V52.8745C73.1246 52.0048 73.83 51.2994 74.6997 51.2993Z" stroke="#C2D1EB" stroke-width="0.45"/>
<rect x="80.5498" y="59.625" width="38.7" height="2.7" rx="1.35" fill="#C2D1EB"/>
<g clip-path="url(#clip0_14195_22842)">
<rect width="116.1" height="0.45" transform="translate(76.9502 73.125)" fill="black" fill-opacity="0.08"/>
</g>
<path d="M80.9995 75.5996C84.106 75.5996 86.6243 78.1182 86.6245 81.2246C86.6245 84.3312 84.1061 86.8496 80.9995 86.8496C77.8931 86.8494 75.3745 84.3311 75.3745 81.2246C75.3747 78.1183 77.8932 75.5998 80.9995 75.5996Z" stroke="white" stroke-opacity="0.01" stroke-width="0.45"/>
<path d="M82.8002 79.425V83.025H82.3502V79.425C82.3502 78.6811 81.7441 78.075 81.0002 78.075C80.2563 78.075 79.6502 78.6811 79.6502 79.425V83.475C79.6502 83.9714 80.0538 84.375 80.5502 84.375C81.0466 84.375 81.4502 83.9714 81.4502 83.475V79.425C81.4502 79.1775 81.2477 78.975 81.0002 78.975C80.7527 78.975 80.5502 79.1775 80.5502 79.425V83.025H80.1002V79.425C80.1002 78.9286 80.5038 78.525 81.0002 78.525C81.4966 78.525 81.9002 78.9286 81.9002 79.425V83.475C81.9002 84.2189 81.2941 84.825 80.5502 84.825C79.8063 84.825 79.2002 84.2189 79.2002 83.475V79.425C79.2002 78.4322 80.0074 77.625 81.0002 77.625C81.993 77.625 82.8002 78.4322 82.8002 79.425Z" fill="#3958AC"/>
<path d="M94.4995 75.5996C97.606 75.5996 100.124 78.1182 100.125 81.2246C100.125 84.3312 97.6061 86.8496 94.4995 86.8496C91.3931 86.8494 88.8745 84.3311 88.8745 81.2246C88.8747 78.1183 91.3932 75.5998 94.4995 75.5996Z" stroke="white" stroke-opacity="0.01" stroke-width="0.45"/>
<path d="M94.9499 78.255V77.625C96.6894 77.625 98.0999 79.2366 98.0999 81.225C98.0999 83.2134 96.6894 84.825 94.9499 84.825V84.195C95.5855 84.195 96.1902 83.9039 96.6543 83.3737C97.1521 82.8056 97.4249 82.0434 97.4249 81.225C97.4249 80.4066 97.1521 79.6444 96.6543 79.0762C96.1916 78.5475 95.5855 78.255 94.9499 78.255ZM90.8999 82.575H92.2499L94.0499 84.375V78.075L92.2499 79.875H90.8999V82.575ZM94.9499 79.4812C95.7262 79.6809 96.2999 80.3855 96.2999 81.225C96.2999 82.0645 95.7262 82.7691 94.9499 82.9688V79.4812Z" fill="#3958AC"/>
<path d="M189 75.5996C192.106 75.5996 194.624 78.1182 194.625 81.2246C194.625 84.3312 192.106 86.8496 189 86.8496C185.893 86.8494 183.375 84.3311 183.375 81.2246C183.375 78.1183 185.893 75.5998 189 75.5996Z" stroke="white" stroke-opacity="0.01" stroke-width="0.45"/>
<path d="M192.006 81.4482L186.164 83.9071C185.979 83.9849 185.795 83.794 185.866 83.5982L186.545 81.7222C186.575 81.6383 186.647 81.5792 186.732 81.5689C189.794 81.2249 188.773 81.3351 189.794 81.2249C188.773 81.1147 189.794 81.2249 186.732 80.8809C186.647 80.8706 186.575 80.8115 186.545 80.7276L185.866 78.8516C185.795 78.6558 185.979 78.4649 186.164 78.5427L192.006 81.0016C192.198 81.0822 192.198 81.3676 192.006 81.4482Z" fill="#3958AC"/>
<rect x="72.8999" y="93.8247" width="69.3" height="2.7" rx="1.35" fill="#C2D1EB"/>
<rect x="75.6001" y="104.625" width="27" height="10.8" rx="5.4" fill="#C2D1EB"/>
<rect x="81" y="108.675" width="16.2" height="2.7" rx="1.35" fill="#5473C8"/>
<rect x="106.2" y="104.625" width="27" height="10.8" rx="5.4" fill="#C2D1EB"/>
<rect x="111.6" y="108.675" width="16.2" height="2.7" rx="1.35" fill="#5473C8"/>
<rect x="136.8" y="104.625" width="27" height="10.8" rx="5.4" fill="#C2D1EB"/>
<rect x="142.2" y="108.675" width="16.2" height="2.7" rx="1.35" fill="#5473C8"/>
<rect x="167.4" y="104.625" width="27" height="10.8" rx="5.4" fill="#C2D1EB"/>
<rect x="172.8" y="108.675" width="16.2" height="2.7" rx="1.35" fill="#5473C8"/>
<defs>
<clipPath id="clip0_14195_22842">
<rect width="123.3" height="0.45" fill="white" transform="translate(73.3501 73.125)"/>
</clipPath>
</defs>
</svg>
