<svg style="width: 100%; height: 100%;" viewBox="0 0 858 400" xmlns="http://www.w3.org/2000/svg" xmlns:xlink="http://www.w3.org/1999/xlink" version="1.1"><defs><clipPath id="kdef1"><path d="M34.5 49.5 L 838.5 49.5 838.5 348.5 34.5 348.5Z" stroke="#000" stroke-linejoin="miter" fill="none"></path></clipPath><clipPath id="kdef2"><path d="M0 0 L 850 0 850 400 0 400Z" stroke="#000" stroke-linejoin="miter" fill="none"></path></clipPath></defs><g><path d="M0 0 L 850 0 850 400 0 400Z" stroke="none" fill="rgb(255, 255, 255)"></path><path d="M34 48.5 L 837.5 48.5 837.5 348 34 348Z" stroke="none" fill="#fff" fill-opacity="0"></path><g><g><path d="M168.5 49.5 L 168.5 348.5" stroke="rgba(0, 0, 0, 0.08)" stroke-width="1" fill="none"></path><path d="M302.5 49.5 L 302.5 348.5" stroke="rgba(0, 0, 0, 0.08)" stroke-width="1" fill="none"></path><path d="M436.5 49.5 L 436.5 348.5" stroke="rgba(0, 0, 0, 0.08)" stroke-width="1" fill="none"></path><path d="M570.5 49.5 L 570.5 348.5" stroke="rgba(0, 0, 0, 0.08)" stroke-width="1" fill="none"></path><path d="M704.5 49.5 L 704.5 348.5" stroke="rgba(0, 0, 0, 0.08)" stroke-width="1" fill="none"></path><path d="M838.5 49.5 L 838.5 348.5" stroke="rgba(0, 0, 0, 0.08)" stroke-width="1" fill="none"></path></g><g><path d="M34.5 305.5 L 838.5 305.5" stroke="rgba(0, 0, 0, 0.08)" stroke-width="1" fill="none"></path><path d="M34.5 262.5 L 838.5 262.5" stroke="rgba(0, 0, 0, 0.08)" stroke-width="1" fill="none"></path><path d="M34.5 220.5 L 838.5 220.5" stroke="rgba(0, 0, 0, 0.08)" stroke-width="1" fill="none"></path><path d="M34.5 177.5 L 838.5 177.5" stroke="rgba(0, 0, 0, 0.08)" stroke-width="1" fill="none"></path><path d="M34.5 134.5 L 838.5 134.5" stroke="rgba(0, 0, 0, 0.08)" stroke-width="1" fill="none"></path><path d="M34.5 91.5 L 838.5 91.5" stroke="rgba(0, 0, 0, 0.08)" stroke-width="1" fill="none"></path><path d="M34.5 49.5 L 838.5 49.5" stroke="rgba(0, 0, 0, 0.08)" stroke-width="1" fill="none"></path></g><g><g><g><path d="M34.5 348.5 L 838.5 348.5" stroke="rgba(0, 0, 0, 0.08)" stroke-width="1" fill="none"></path><path d="M34.5 348.5 L 34.5 352.5" stroke="rgba(0, 0, 0, 0.08)" stroke-width="1" fill="none"></path><path d="M168.5 348.5 L 168.5 352.5" stroke="rgba(0, 0, 0, 0.08)" stroke-width="1" fill="none"></path><path d="M302.5 348.5 L 302.5 352.5" stroke="rgba(0, 0, 0, 0.08)" stroke-width="1" fill="none"></path><path d="M436.5 348.5 L 436.5 352.5" stroke="rgba(0, 0, 0, 0.08)" stroke-width="1" fill="none"></path><path d="M570.5 348.5 L 570.5 352.5" stroke="rgba(0, 0, 0, 0.08)" stroke-width="1" fill="none"></path><path d="M704.5 348.5 L 704.5 352.5" stroke="rgba(0, 0, 0, 0.08)" stroke-width="1" fill="none"></path><path d="M838.5 348.5 L 838.5 352.5" stroke="rgba(0, 0, 0, 0.08)" stroke-width="1" fill="none"></path></g></g></g><g clip-path="url(https://nsrwuj--run.stackblitz.io/#kdef1)"><g clip-path="url(https://nsrwuj--run.stackblitz.io/#kdef2)"><g opacity="1"><path d="M34 242.747 L 167.917 111.823 301.833 82.729 435.75 166.589 569.667 142.629 703.583 214.509 837.5 264.14 837.5 348 34 348" stroke="none" fill="rgb(255, 99, 88)" fill-opacity="0.6"></path></g><g opacity="1"><path d="M34 206.807 L 167.917 168.3 301.833 102.41 435.75 224.777 569.667 185.414 703.583 205.096 837.5 166.589 837.5 348 34 348" stroke="none" fill="rgb(255, 225, 98)" fill-opacity="0.6"></path></g><g opacity="1"><path d="M34 300.08 L 167.917 228.2 301.833 181.136 435.75 308.637 569.667 242.747 703.583 281.254 837.5 266.707 837.5 348 34 348" stroke="none" fill="rgb(76, 209, 128)" fill-opacity="0.6"></path></g></g><circle cx="167.917" cy="228.2" r="5" stroke="#fff" stroke-width="2" stroke-opacity="1" fill="rgb(76, 209, 128)" fill-opacity="1" style="display: none;"></circle><circle cx="34" cy="300.08" r="5" stroke="#fff" stroke-width="2" stroke-opacity="1" fill="rgb(76, 209, 128)" fill-opacity="1" style="display: none;"></circle><circle cx="34" cy="206.807" r="5" stroke="#fff" stroke-width="2" stroke-opacity="1" fill="rgb(255, 225, 98)" fill-opacity="1" style="display: none;"></circle><circle cx="167.917" cy="111.823" r="5" stroke="#fff" stroke-width="2" stroke-opacity="1" fill="rgb(255, 99, 88)" fill-opacity="1" style="display: none;"></circle><circle cx="167.917" cy="168.3" r="5" stroke="#fff" stroke-width="2" stroke-opacity="1" fill="rgb(255, 225, 98)" fill-opacity="1" style="display: none;"></circle><circle cx="435.75" cy="308.637" r="5" stroke="#fff" stroke-width="2" stroke-opacity="1" fill="rgb(76, 209, 128)" fill-opacity="1" style="display: none;"></circle></g><g><text style="font:400 14px &quot;RobotoRegular&quot;, Helvetica, Arial, sans-serif;white-space:pre;" x="413.25" y="386" stroke="none" fill="rgb(66, 66, 66)" fill-opacity="1">Months</text></g><g><text style="font:400 11.998px &quot;RobotoRegular&quot;, Helvetica, Arial, sans-serif;white-space:pre;" x="24.5" y="367" stroke="none" fill="rgb(66, 66, 66)" fill-opacity="1">Jan</text></g><g><text style="font:400 11.998px &quot;RobotoRegular&quot;, Helvetica, Arial, sans-serif;white-space:pre;" x="157.417" y="367" stroke="none" fill="rgb(66, 66, 66)" fill-opacity="1">Feb</text></g><g><text style="font:400 11.998px &quot;RobotoRegular&quot;, Helvetica, Arial, sans-serif;white-space:pre;" x="291.333" y="367" stroke="none" fill="rgb(66, 66, 66)" fill-opacity="1">Mar</text></g><g><text style="font:400 11.998px &quot;RobotoRegular&quot;, Helvetica, Arial, sans-serif;white-space:pre;" x="426.25" y="367" stroke="none" fill="rgb(66, 66, 66)" fill-opacity="1">Apr</text></g><g><text style="font:400 11.998px &quot;RobotoRegular&quot;, Helvetica, Arial, sans-serif;white-space:pre;" x="558.167" y="367" stroke="none" fill="rgb(66, 66, 66)" fill-opacity="1">May</text></g><g><text style="font:400 11.998px &quot;RobotoRegular&quot;, Helvetica, Arial, sans-serif;white-space:pre;" x="694.083" y="367" stroke="none" fill="rgb(66, 66, 66)" fill-opacity="1">Jun</text></g><g><text style="font:400 11.998px &quot;RobotoRegular&quot;, Helvetica, Arial, sans-serif;white-space:pre;" x="830" y="367" stroke="none" fill="rgb(66, 66, 66)" fill-opacity="1">Jul</text></g><g><g><path d="M34.5 49.5 L 34.5 348.5" stroke="rgba(0, 0, 0, 0.08)" stroke-width="1" fill="none"></path><path d="M30.5 348.5 L 34.5 348.5" stroke="rgba(0, 0, 0, 0.08)" stroke-width="1" fill="none"></path><path d="M30.5 305.5 L 34.5 305.5" stroke="rgba(0, 0, 0, 0.08)" stroke-width="1" fill="none"></path><path d="M30.5 262.5 L 34.5 262.5" stroke="rgba(0, 0, 0, 0.08)" stroke-width="1" fill="none"></path><path d="M30.5 220.5 L 34.5 220.5" stroke="rgba(0, 0, 0, 0.08)" stroke-width="1" fill="none"></path><path d="M30.5 177.5 L 34.5 177.5" stroke="rgba(0, 0, 0, 0.08)" stroke-width="1" fill="none"></path><path d="M30.5 134.5 L 34.5 134.5" stroke="rgba(0, 0, 0, 0.08)" stroke-width="1" fill="none"></path><path d="M30.5 91.5 L 34.5 91.5" stroke="rgba(0, 0, 0, 0.08)" stroke-width="1" fill="none"></path><path d="M30.5 49.5 L 34.5 49.5" stroke="rgba(0, 0, 0, 0.08)" stroke-width="1" fill="none"></path></g></g><g><text style="font:400 11.998px &quot;RobotoRegular&quot;, Helvetica, Arial, sans-serif;white-space:pre;" x="18" y="351.5" stroke="none" fill="rgb(66, 66, 66)" fill-opacity="1">0</text></g><g><text style="font:400 11.998px &quot;RobotoRegular&quot;, Helvetica, Arial, sans-serif;white-space:pre;" x="12" y="308.714" stroke="none" fill="rgb(66, 66, 66)" fill-opacity="1">50</text></g><g><text style="font:400 11.998px &quot;RobotoRegular&quot;, Helvetica, Arial, sans-serif;white-space:pre;" x="5" y="265.929" stroke="none" fill="rgb(66, 66, 66)" fill-opacity="1">100</text></g><g><text style="font:400 11.998px &quot;RobotoRegular&quot;, Helvetica, Arial, sans-serif;white-space:pre;" x="5" y="223.143" stroke="none" fill="rgb(66, 66, 66)" fill-opacity="1">150</text></g><g><text style="font:400 11.998px &quot;RobotoRegular&quot;, Helvetica, Arial, sans-serif;white-space:pre;" x="5" y="180.357" stroke="none" fill="rgb(66, 66, 66)" fill-opacity="1">200</text></g><g><text style="font:400 11.998px &quot;RobotoRegular&quot;, Helvetica, Arial, sans-serif;white-space:pre;" x="5" y="137.571" stroke="none" fill="rgb(66, 66, 66)" fill-opacity="1">250</text></g><g><text style="font:400 11.998px &quot;RobotoRegular&quot;, Helvetica, Arial, sans-serif;white-space:pre;" x="5" y="94.786" stroke="none" fill="rgb(66, 66, 66)" fill-opacity="1">300</text></g><g><text style="font:400 11.998px &quot;RobotoRegular&quot;, Helvetica, Arial, sans-serif;white-space:pre;" x="5" y="52" stroke="none" fill="rgb(66, 66, 66)" fill-opacity="1">350</text></g></g><g><g><text style="font:400 16.002px &quot;RobotoRegular&quot;, Helvetica, Arial, sans-serif;white-space:pre;" x="390" y="28" stroke="none" fill="rgb(66, 66, 66)" fill-opacity="1">Units sold</text></g></g><g></g></g></svg>
