<svg style="width: 100%; height: 100%;" viewBox="0 0 858 400" xmlns="http://www.w3.org/2000/svg" xmlns:xlink="http://www.w3.org/1999/xlink" version="1.1"><defs><clipPath id="kdef1"><path d="M30.5 42.5 L 835.5 42.5 835.5 373.5 30.5 373.5Z" stroke="#000" stroke-linejoin="miter" fill="none"></path></clipPath></defs><g><path d="M0 0 L 850 0 850 400 0 400Z" stroke="none" fill="rgb(255, 255, 255)"></path><path d="M30 42 L 835 42 835 373 30 373Z" stroke="none" fill="#fff" fill-opacity="0"></path><g><g><path d="M30.5 42.5 L 835.5 42.5" stroke="rgba(0, 0, 0, 0.08)" stroke-width="1" fill="none"></path><path d="M30.5 125.5 L 835.5 125.5" stroke="rgba(0, 0, 0, 0.08)" stroke-width="1" fill="none"></path><path d="M30.5 208.5 L 835.5 208.5" stroke="rgba(0, 0, 0, 0.08)" stroke-width="1" fill="none"></path><path d="M30.5 290.5 L 835.5 290.5" stroke="rgba(0, 0, 0, 0.08)" stroke-width="1" fill="none"></path></g><g><path d="M131.5 42.5 L 131.5 373.5" stroke="rgba(0, 0, 0, 0.08)" stroke-width="1" fill="none"></path><path d="M231.5 42.5 L 231.5 373.5" stroke="rgba(0, 0, 0, 0.08)" stroke-width="1" fill="none"></path><path d="M332.5 42.5 L 332.5 373.5" stroke="rgba(0, 0, 0, 0.08)" stroke-width="1" fill="none"></path><path d="M433.5 42.5 L 433.5 373.5" stroke="rgba(0, 0, 0, 0.08)" stroke-width="1" fill="none"></path><path d="M533.5 42.5 L 533.5 373.5" stroke="rgba(0, 0, 0, 0.08)" stroke-width="1" fill="none"></path><path d="M634.5 42.5 L 634.5 373.5" stroke="rgba(0, 0, 0, 0.08)" stroke-width="1" fill="none"></path><path d="M734.5 42.5 L 734.5 373.5" stroke="rgba(0, 0, 0, 0.08)" stroke-width="1" fill="none"></path><path d="M835.5 42.5 L 835.5 373.5" stroke="rgba(0, 0, 0, 0.08)" stroke-width="1" fill="none"></path></g><g><g><g><path d="M30.5 42.5 L 30.5 373.5" stroke="rgba(0, 0, 0, 0.08)" stroke-width="1" fill="none"></path><path d="M26.5 42.5 L 30.5 42.5" stroke="rgba(0, 0, 0, 0.08)" stroke-width="1" fill="none"></path><path d="M26.5 125.5 L 30.5 125.5" stroke="rgba(0, 0, 0, 0.08)" stroke-width="1" fill="none"></path><path d="M26.5 208.5 L 30.5 208.5" stroke="rgba(0, 0, 0, 0.08)" stroke-width="1" fill="none"></path><path d="M26.5 290.5 L 30.5 290.5" stroke="rgba(0, 0, 0, 0.08)" stroke-width="1" fill="none"></path><path d="M26.5 373.5 L 30.5 373.5" stroke="rgba(0, 0, 0, 0.08)" stroke-width="1" fill="none"></path></g></g></g><g clip-path="url(https://qwuyqb--run.stackblitz.io/#kdef1)"><g><g><g><path d="M30.5 54.5 L 231.5 54.5 231.5 67.5 30.5 67.5Z" stroke="#cc4f46" stroke-width="1" stroke-opacity="1" fill="rgb(255, 99, 88)" fill-opacity="1"></path></g><g><path d="M30.5 70.5 L 272.5 70.5 272.5 82.5 30.5 82.5Z" stroke="#ccb44e" stroke-width="1" stroke-opacity="1" fill="rgb(255, 225, 98)" fill-opacity="1"></path></g><g><path d="M30.5 85.5 L 121.5 85.5 121.5 97.5 30.5 97.5Z" stroke="#3da766" stroke-width="1" stroke-opacity="1" fill="rgb(76, 209, 128)" fill-opacity="1"></path></g><g><path d="M30.5 100.5 L 205.5 100.5 205.5 112.5 30.5 112.5Z" stroke="#3c4cc8" stroke-width="1" stroke-opacity="1" fill="rgb(75, 95, 250)" fill-opacity="1"></path></g></g><g><g><path d="M30.5 137.5 L 278.5 137.5 278.5 149.5 30.5 149.5Z" stroke="#cc4f46" stroke-width="1" stroke-opacity="1" fill="rgb(255, 99, 88)" fill-opacity="1"></path></g><g><path d="M30.5 152.5 L 165.5 152.5 165.5 165.5 30.5 165.5Z" stroke="#ccb44e" stroke-width="1" stroke-opacity="1" fill="rgb(255, 225, 98)" fill-opacity="1"></path></g><g><path d="M30.5 168.5 L 280.5 168.5 280.5 180.5 30.5 180.5Z" stroke="#3da766" stroke-width="1" stroke-opacity="1" fill="rgb(76, 209, 128)" fill-opacity="1"></path></g><g><path d="M30.5 183.5 L 340.5 183.5 340.5 195.5 30.5 195.5Z" stroke="#3c4cc8" stroke-width="1" stroke-opacity="1" fill="rgb(75, 95, 250)" fill-opacity="1"></path></g></g><g><g><path d="M30.5 220.5 L 501.5 220.5 501.5 232.5 30.5 232.5Z" stroke="#cc4f46" stroke-width="1" stroke-opacity="1" fill="rgb(255, 99, 88)" fill-opacity="1"></path></g><g><path d="M30.5 235.5 L 495.5 235.5 495.5 247.5 30.5 247.5Z" stroke="#ccb44e" stroke-width="1" stroke-opacity="1" fill="rgb(255, 225, 98)" fill-opacity="1"></path></g><g><path d="M30.5 250.5 L 410.5 250.5 410.5 263.5 30.5 263.5Z" stroke="#3da766" stroke-width="1" stroke-opacity="1" fill="rgb(76, 209, 128)" fill-opacity="1"></path><path d="M30.5 250.5 L 410.5 250.5 410.5 263.5 30.5 263.5Z" stroke="#fff" stroke-width="1" stroke-opacity="0.2" fill="#fff" fill-opacity="0.2" style="display: none;"></path></g><g><path d="M30.5 266.5 L 453.5 266.5 453.5 278.5 30.5 278.5Z" stroke="#3c4cc8" stroke-width="1" stroke-opacity="1" fill="rgb(75, 95, 250)" fill-opacity="1"></path><path d="M30.5 266.5 L 453.5 266.5 453.5 278.5 30.5 278.5Z" stroke="#fff" stroke-width="1" stroke-opacity="0.2" fill="#fff" fill-opacity="0.2" style="display: none;"></path></g></g><g><g><path d="M30.5 303.5 L 720.5 303.5 720.5 315.5 30.5 315.5Z" stroke="#cc4f46" stroke-width="1" stroke-opacity="1" fill="rgb(255, 99, 88)" fill-opacity="1"></path><path d="M30.5 303.5 L 720.5 303.5 720.5 315.5 30.5 315.5Z" stroke="#fff" stroke-width="1" stroke-opacity="0.2" fill="#fff" fill-opacity="0.2" style="display: none;"></path></g><g><path d="M30.5 318.5 L 424.5 318.5 424.5 330.5 30.5 330.5Z" stroke="#ccb44e" stroke-width="1" stroke-opacity="1" fill="rgb(255, 225, 98)" fill-opacity="1"></path><path d="M30.5 318.5 L 424.5 318.5 424.5 330.5 30.5 330.5Z" stroke="#fff" stroke-width="1" stroke-opacity="0.2" fill="#fff" fill-opacity="0.2" style="display: none;"></path></g><g><path d="M30.5 333.5 L 318.5 333.5 318.5 345.5 30.5 345.5Z" stroke="#3da766" stroke-width="1" stroke-opacity="1" fill="rgb(76, 209, 128)" fill-opacity="1"></path></g><g><path d="M30.5 348.5 L 463.5 348.5 463.5 361.5 30.5 361.5Z" stroke="#3c4cc8" stroke-width="1" stroke-opacity="1" fill="rgb(75, 95, 250)" fill-opacity="1"></path><path d="M30.5 348.5 L 463.5 348.5 463.5 361.5 30.5 361.5Z" stroke="#fff" stroke-width="1" stroke-opacity="0.2" fill="#fff" fill-opacity="0.2" style="display: none;"></path></g></g></g></g><g><text style="font:400 11.998px &quot;RobotoRegular&quot;, Helvetica, Arial, sans-serif;white-space:pre;" x="5" y="86.875" stroke="none" fill="rgb(66, 66, 66)" fill-opacity="1">Q1</text></g><g><text style="font:400 11.998px &quot;RobotoRegular&quot;, Helvetica, Arial, sans-serif;white-space:pre;" x="5" y="169.625" stroke="none" fill="rgb(66, 66, 66)" fill-opacity="1">Q2</text></g><g><text style="font:400 11.998px &quot;RobotoRegular&quot;, Helvetica, Arial, sans-serif;white-space:pre;" x="5" y="252.375" stroke="none" fill="rgb(66, 66, 66)" fill-opacity="1">Q3</text></g><g><text style="font:400 11.998px &quot;RobotoRegular&quot;, Helvetica, Arial, sans-serif;white-space:pre;" x="5" y="335.125" stroke="none" fill="rgb(66, 66, 66)" fill-opacity="1">Q4</text></g><g><g><path d="M30.5 373.5 L 835.5 373.5" stroke="rgba(0, 0, 0, 0.08)" stroke-width="1" fill="none"></path><path d="M30.5 373.5 L 30.5 377.5" stroke="rgba(0, 0, 0, 0.08)" stroke-width="1" fill="none"></path><path d="M131.5 373.5 L 131.5 377.5" stroke="rgba(0, 0, 0, 0.08)" stroke-width="1" fill="none"></path><path d="M231.5 373.5 L 231.5 377.5" stroke="rgba(0, 0, 0, 0.08)" stroke-width="1" fill="none"></path><path d="M332.5 373.5 L 332.5 377.5" stroke="rgba(0, 0, 0, 0.08)" stroke-width="1" fill="none"></path><path d="M433.5 373.5 L 433.5 377.5" stroke="rgba(0, 0, 0, 0.08)" stroke-width="1" fill="none"></path><path d="M533.5 373.5 L 533.5 377.5" stroke="rgba(0, 0, 0, 0.08)" stroke-width="1" fill="none"></path><path d="M634.5 373.5 L 634.5 377.5" stroke="rgba(0, 0, 0, 0.08)" stroke-width="1" fill="none"></path><path d="M734.5 373.5 L 734.5 377.5" stroke="rgba(0, 0, 0, 0.08)" stroke-width="1" fill="none"></path><path d="M835.5 373.5 L 835.5 377.5" stroke="rgba(0, 0, 0, 0.08)" stroke-width="1" fill="none"></path></g></g><g><text style="font:400 11.998px &quot;RobotoRegular&quot;, Helvetica, Arial, sans-serif;white-space:pre;" x="26.5" y="392" stroke="none" fill="rgb(66, 66, 66)" fill-opacity="1">0</text></g><g><text style="font:400 11.998px &quot;RobotoRegular&quot;, Helvetica, Arial, sans-serif;white-space:pre;" x="124.125" y="392" stroke="none" fill="rgb(66, 66, 66)" fill-opacity="1">50</text></g><g><text style="font:400 11.998px &quot;RobotoRegular&quot;, Helvetica, Arial, sans-serif;white-space:pre;" x="221.25" y="392" stroke="none" fill="rgb(66, 66, 66)" fill-opacity="1">100</text></g><g><text style="font:400 11.998px &quot;RobotoRegular&quot;, Helvetica, Arial, sans-serif;white-space:pre;" x="321.875" y="392" stroke="none" fill="rgb(66, 66, 66)" fill-opacity="1">150</text></g><g><text style="font:400 11.998px &quot;RobotoRegular&quot;, Helvetica, Arial, sans-serif;white-space:pre;" x="422.5" y="392" stroke="none" fill="rgb(66, 66, 66)" fill-opacity="1">200</text></g><g><text style="font:400 11.998px &quot;RobotoRegular&quot;, Helvetica, Arial, sans-serif;white-space:pre;" x="523.125" y="392" stroke="none" fill="rgb(66, 66, 66)" fill-opacity="1">250</text></g><g><text style="font:400 11.998px &quot;RobotoRegular&quot;, Helvetica, Arial, sans-serif;white-space:pre;" x="623.75" y="392" stroke="none" fill="rgb(66, 66, 66)" fill-opacity="1">300</text></g><g><text style="font:400 11.998px &quot;RobotoRegular&quot;, Helvetica, Arial, sans-serif;white-space:pre;" x="724.375" y="392" stroke="none" fill="rgb(66, 66, 66)" fill-opacity="1">350</text></g><g><text style="font:400 11.998px &quot;RobotoRegular&quot;, Helvetica, Arial, sans-serif;white-space:pre;" x="825" y="392" stroke="none" fill="rgb(66, 66, 66)" fill-opacity="1">400</text></g></g><g><g><text style="font:400 16.002px &quot;RobotoRegular&quot;, Helvetica, Arial, sans-serif;white-space:pre;" x="390" y="28" stroke="none" fill="rgb(66, 66, 66)" fill-opacity="1">Units sold</text></g></g><g></g></g></svg>
