<svg style="width:100%;height:100%" viewBox="0 0 858 400" xmlns="http://www.w3.org/2000/svg" overflow="hidden"><defs><clipPath id="a"><path d="M27.5 50.5h810v322h-810z" stroke="#000" fill="none"></path></clipPath><clipPath id="b"><path d="M0 0h843v400H0z" stroke="#000" fill="none"></path></clipPath></defs><path d="M0 0h843v400H0z" fill="#FFF"></path><path d="M27 50h810v322H27z" fill="none"></path><g stroke="rgba(0, 0, 0, 0.08)" fill="none"><path d="M72.5 50.5v322M117.5 50.5v322M162.5 50.5v322M207.5 50.5v322M252.5 50.5v322M297.5 50.5v322M342.5 50.5v322M387.5 50.5v322M432.5 50.5v322M477.5 50.5v322M522.5 50.5v322M567.5 50.5v322M612.5 50.5v322M657.5 50.5v322M702.5 50.5v322M747.5 50.5v322M792.5 50.5v322M837.5 50.5v322"></path></g><g stroke="rgba(0, 0, 0, 0.08)" fill="none"><path d="M27.5 318.5h810M27.5 265.5h810M27.5 211.5h810M27.5 157.5h810M27.5 104.5h810M27.5 50.5h810"></path></g><g stroke="rgba(0, 0, 0, 0.08)" fill="none"><path d="M27.5 372.5h810M27.5 372.5v4M72.5 372.5v4M117.5 372.5v4M162.5 372.5v4M207.5 372.5v4M252.5 372.5v4M297.5 372.5v4M342.5 372.5v4M387.5 372.5v4M432.5 372.5v4M477.5 372.5v4M522.5 372.5v4M567.5 372.5v4M612.5 372.5v4M657.5 372.5v4M702.5 372.5v4M747.5 372.5v4M792.5 372.5v4M837.5 372.5v4"></path></g><g clip-path="url(#a)"><g clip-path="url(#b)"><path d="M38.5 272.5h23v42h-23z" stroke="#FF6358" fill="#FF6358"></path><path d="M45 246h10-5v26M45 337h10-5v-23" stroke="#FF6358" stroke-width="2" fill="none"></path><path d="M38 293h23" stroke="#F6F6F6" stroke-width="2" fill="none"></path><path d="M38 294h23" stroke="#F6F6F6" stroke-width="2" stroke-dasharray="8 7" fill="none"></path><path d="M45.5 341.167l8 8m-8 0l8-8" stroke="#FF6358" stroke-width="2" fill="none"></path><circle cx="49.5" cy="130.5" r="4" stroke="#FF6358" stroke-width="2" fill="none"></circle><path d="M38.25 130.5h22.5v214.667h-22.5z" fill="none"></path><path d="M83.5 200.5h23v69h-23z" stroke="#FF6358" fill="#FF6358"></path><path d="M90 152h10-5v48M90 318h10-5v-49" stroke="#FF6358" stroke-width="2" fill="none"></path><path d="M83 226h23" stroke="#F6F6F6" stroke-width="2" fill="none"></path><path d="M83 232h23" stroke="#F6F6F6" stroke-width="2" stroke-dasharray="8 7" fill="none"></path><path d="M90.5 327.75l8 8m-8 0l8-8M90.5 314.333l8 8m-8 0l8-8M90.5 129.183l8 8m-8 0l8-8" stroke="#FF6358" stroke-width="2" fill="none"></path><path d="M83.25 133.183h22.5V331.75h-22.5z" fill="none"></path><path d="M128.5 218.5h23v27h-23z" stroke="#FF6358" fill="#FF6358"></path><path d="M135 139h10-5v79M135 270h10-5v-25" stroke="#FF6358" stroke-width="2" fill="none"></path><path d="M128 223h23" stroke="#F6F6F6" stroke-width="2" fill="none"></path><path d="M128 224h23" stroke="#F6F6F6" stroke-width="2" stroke-dasharray="8 7" fill="none"></path><path d="M128.25 138.55h22.5v131.483h-22.5z" fill="none"></path><g><path d="M173.5 215.5h23v40h-23z" stroke="#FF6358" fill="#FF6358"></path><path d="M180 157h10-5v58M180 292h10-5v-37" stroke="#FF6358" stroke-width="2" fill="none"></path><path d="M173 239h23" stroke="#F6F6F6" stroke-width="2" fill="none"></path><path d="M173 232h23" stroke="#F6F6F6" stroke-width="2" stroke-dasharray="8 7" fill="none"></path><path d="M180.5 287.5l8 8m-8 0l8-8M180.5 113.083l8 8m-8 0l8-8" stroke="#FF6358" stroke-width="2" fill="none"></path><path d="M173.25 117.083h22.5V291.5h-22.5z" fill="none"></path></g><g><path d="M218.5 253.5h23v14h-23z" stroke="#FF6358" fill="#FF6358"></path><path d="M225 235h10-5v18M225 305h10-5v-38" stroke="#FF6358" stroke-width="2" fill="none"></path><path d="M218 261h23" stroke="#F6F6F6" stroke-width="2" fill="none"></path><path d="M218 262h23" stroke="#F6F6F6" stroke-width="2" stroke-dasharray="8 7" fill="none"></path><path d="M218.25 235.15h22.5v69.767h-22.5z" fill="none"></path></g><g><path d="M263.5 215.5h23v57h-23z" stroke="#FF6358" fill="#FF6358"></path><path d="M270 165h10-5v50M270 308h10-5v-36" stroke="#FF6358" stroke-width="2" fill="none"></path><path d="M263 239h23" stroke="#F6F6F6" stroke-width="2" fill="none"></path><path d="M263 241h23" stroke="#F6F6F6" stroke-width="2" stroke-dasharray="8 7" fill="none"></path><path d="M270.5 311.65l8 8m-8 0l8-8M270.5 145.283l8 8m-8 0l8-8M270.5 105.033l8 8m-8 0l8-8" stroke="#FF6358" stroke-width="2" fill="none"></path><path d="M263.25 109.033h22.5V315.65h-22.5z" fill="none"></path></g><g><path d="M308.5 238.5h23v72h-23z" stroke="#FF6358" fill="#FF6358"></path><path d="M315 224h10-5v14M315 326h10-5v-16" stroke="#FF6358" stroke-width="2" fill="none"></path><path d="M308 267h23" stroke="#F6F6F6" stroke-width="2" fill="none"></path><path d="M308 273h23" stroke="#F6F6F6" stroke-width="2" stroke-dasharray="8 7" fill="none"></path><path d="M315.5 338.483l8 8m-8 0l8-8M315.5 123.817l8 8m-8 0l8-8" stroke="#FF6358" stroke-width="2" fill="none"></path><path d="M308.25 127.817h22.5v214.666h-22.5z" fill="none"></path></g><g><path d="M353.5 265.5h23v40h-23z" stroke="#FF6358" fill="#FF6358"></path><path d="M360 257h10-5v8M360 313h10-5v-8" stroke="#FF6358" stroke-width="2" fill="none"></path><path d="M353 289h23" stroke="#F6F6F6" stroke-width="2" fill="none"></path><path d="M353 286h23" stroke="#F6F6F6" stroke-width="2" stroke-dasharray="8 7" fill="none"></path><path d="M360.5 325.067l8 8m-8 0l8-8M360.5 319.7l8 8m-8 0l8-8" stroke="#FF6358" stroke-width="2" fill="none"></path><circle cx="364.5" cy="109.033" r="4" stroke="#FF6358" stroke-width="2" fill="none"></circle><path d="M353.25 109.033h22.5v220.034h-22.5z" fill="none"></path></g><g><path d="M398.5 249.5h23v51h-23z" stroke="#FF6358" fill="#FF6358"></path><path d="M405 219h10-5v30M405 321h10-5v-21" stroke="#FF6358" stroke-width="2" fill="none"></path><path d="M398 282h23" stroke="#F6F6F6" stroke-width="2" fill="none"></path><path d="M398 275h23" stroke="#F6F6F6" stroke-width="2" stroke-dasharray="8 7" fill="none"></path><path d="M405.5 338.483l8 8m-8 0l8-8M405.5 145.283l8 8m-8 0l8-8" stroke="#FF6358" stroke-width="2" fill="none"></path><path d="M398.25 149.283h22.5v193.2h-22.5z" fill="none"></path></g><g><path d="M443.5 263.5h23v38h-23z" stroke="#FF6358" fill="#FF6358"></path><path d="M450 238h10-5v25M450 326h10-5v-25" stroke="#FF6358" stroke-width="2" fill="none"></path><path d="M443 283h23" stroke="#F6F6F6" stroke-width="2" fill="none"></path><path d="M443 281h23" stroke="#F6F6F6" stroke-width="2" stroke-dasharray="8 7" fill="none"></path><path d="M443.25 237.833h22.5v88.55h-22.5z" fill="none"></path></g><g><path d="M488.5 247.5h23v65h-23z" stroke="#FF6358" fill="#FF6358"></path><path d="M495 219h10-5v28M495 334h10-5v-22" stroke="#FF6358" stroke-width="2" fill="none"></path><path d="M488 283h23" stroke="#F6F6F6" stroke-width="2" fill="none"></path><path d="M488 281h23" stroke="#F6F6F6" stroke-width="2" stroke-dasharray="8 7" fill="none"></path><path d="M488.25 219.05h22.5v115.383h-22.5z" fill="none"></path></g><g><path d="M533.5 253.5h23v43h-23z" stroke="#FF6358" fill="#FF6358"></path><path d="M540 208h10-5v45M540 321h10-5v-25" stroke="#FF6358" stroke-width="2" fill="none"></path><path d="M533 265h23" stroke="#F6F6F6" stroke-width="2" fill="none"></path><path d="M533 267h23" stroke="#F6F6F6" stroke-width="2" stroke-dasharray="8 7" fill="none"></path><path d="M540.5 341.167l8 8m-8 0l8-8M540.5 335.8l8 8m-8 0l8-8" stroke="#FF6358" stroke-width="2" fill="none"></path><path d="M533.25 208.317h22.5v136.85h-22.5z" fill="none"></path></g><g><path d="M578.5 232.5h23v77h-23z" stroke="#FF6358" fill="#FF6358"></path><path d="M585 219h10-5v13M585 332h10-5v-23" stroke="#FF6358" stroke-width="2" fill="none"></path><path d="M578 262h23" stroke="#F6F6F6" stroke-width="2" fill="none"></path><path d="M578 267h23" stroke="#F6F6F6" stroke-width="2" stroke-dasharray="8 7" fill="none"></path><path d="M585.5 126.5l8 8m-8 0l8-8M585.5 113.083l8 8m-8 0l8-8" stroke="#FF6358" stroke-width="2" fill="none"></path><path d="M578.25 117.083h22.5V331.75h-22.5z" fill="none"></path></g><g><path d="M623.5 265.5h23v45h-23z" stroke="#FF6358" fill="#FF6358"></path><path d="M630 227h10-5v38M630 324h10-5v-14" stroke="#FF6358" stroke-width="2" fill="none"></path><path d="M623 282h23" stroke="#F6F6F6" stroke-width="2" fill="none"></path><path d="M623 283h23" stroke="#F6F6F6" stroke-width="2" stroke-dasharray="8 7" fill="none"></path><path d="M630.5 341.167l8 8m-8 0l8-8M630.5 207l8 8m-8 0l8-8" stroke="#FF6358" stroke-width="2" fill="none"></path><path d="M623.25 211h22.5v134.167h-22.5z" fill="none"></path></g><g><path d="M668.5 269.5h23v29h-23z" stroke="#FF6358" fill="#FF6358"></path><path d="M675 241h10-5v28M675 324h10-5v-26" stroke="#FF6358" stroke-width="2" fill="none"></path><path d="M668 282h23" stroke="#F6F6F6" stroke-width="2" fill="none"></path><path d="M668 281h23" stroke="#F6F6F6" stroke-width="2" stroke-dasharray="8 7" fill="none"></path><path d="M668.25 240.517h22.5V323.7h-22.5z" fill="none"></path></g><g><path d="M713.5 269.5h23v42h-23z" stroke="#FF6358" fill="#FF6358"></path><path d="M720 224h10-5v45M720 326h10-5v-15" stroke="#FF6358" stroke-width="2" fill="none"></path><path d="M713 286h23" stroke="#F6F6F6" stroke-width="2" fill="none"></path><path d="M713 286h23" stroke="#F6F6F6" stroke-width="2" stroke-dasharray="8 7" fill="none"></path><path d="M720.5 354.583l8 8m-8 0l8-8M720.5 188.217l8 8m-8 0l8-8" stroke="#FF6358" stroke-width="2" fill="none"></path><path d="M713.25 192.217h22.5v166.366h-22.5z" fill="none"></path></g><g><path d="M758.5 289.5h23v31h-23z" stroke="#FF6358" fill="#FF6358"></path><path d="M765 278h10-5v11M765 340h10-5v-20" stroke="#FF6358" stroke-width="2" fill="none"></path><path d="M758 306h23" stroke="#F6F6F6" stroke-width="2" fill="none"></path><path d="M758 305h23" stroke="#F6F6F6" stroke-width="2" stroke-dasharray="8 7" fill="none"></path><path d="M758.25 278.083h22.5V339.8h-22.5z" fill="none"></path></g><g><path d="M803.5 280.5h23v41h-23z" stroke="#FF6358" fill="#FF6358"></path><path d="M810 265h10-5v15M810 337h10-5v-16" stroke="#FF6358" stroke-width="2" fill="none"></path><path d="M803 290h23" stroke="#F6F6F6" stroke-width="2" fill="none"></path><path d="M803 300h23" stroke="#F6F6F6" stroke-width="2" stroke-dasharray="8 7" fill="none"></path><path d="M810.5 180.167l8 8m-8 0l8-8" stroke="#FF6358" stroke-width="2" fill="none"></path><circle cx="814.5" cy="143.917" r="4" stroke="#FF6358" stroke-width="2" fill="none"></circle><path d="M803.25 143.917h22.5v193.2h-22.5z" fill="none"></path></g></g></g><text style="font:11.998px RobotoRegular,Helvetica,Arial,sans-serif;white-space:pre" x="36" y="392" fill="#656565">1996</text><text style="font:11.998px RobotoRegular,Helvetica,Arial,sans-serif;white-space:pre" x="81" y="392" fill="#656565">1997</text><text style="font:11.998px RobotoRegular,Helvetica,Arial,sans-serif;white-space:pre" x="126" y="392" fill="#656565">1998</text><text style="font:11.998px RobotoRegular,Helvetica,Arial,sans-serif;white-space:pre" x="171" y="392" fill="#656565">1999</text><text style="font:11.998px RobotoRegular,Helvetica,Arial,sans-serif;white-space:pre" x="216" y="392" fill="#656565">2000</text><text style="font:11.998px RobotoRegular,Helvetica,Arial,sans-serif;white-space:pre" x="261" y="392" fill="#656565">2001</text><text style="font:11.998px RobotoRegular,Helvetica,Arial,sans-serif;white-space:pre" x="306" y="392" fill="#656565">2002</text><text style="font:11.998px RobotoRegular,Helvetica,Arial,sans-serif;white-space:pre" x="351" y="392" fill="#656565">2003</text><text style="font:11.998px RobotoRegular,Helvetica,Arial,sans-serif;white-space:pre" x="396" y="392" fill="#656565">2004</text><text style="font:11.998px RobotoRegular,Helvetica,Arial,sans-serif;white-space:pre" x="441" y="392" fill="#656565">2005</text><text style="font:11.998px RobotoRegular,Helvetica,Arial,sans-serif;white-space:pre" x="486" y="392" fill="#656565">2006</text><text style="font:11.998px RobotoRegular,Helvetica,Arial,sans-serif;white-space:pre" x="531" y="392" fill="#656565">2007</text><text style="font:11.998px RobotoRegular,Helvetica,Arial,sans-serif;white-space:pre" x="576" y="392" fill="#656565">2008</text><text style="font:11.998px RobotoRegular,Helvetica,Arial,sans-serif;white-space:pre" x="621" y="392" fill="#656565">2009</text><text style="font:11.998px RobotoRegular,Helvetica,Arial,sans-serif;white-space:pre" x="666" y="392" fill="#656565">2010</text><text style="font:11.998px RobotoRegular,Helvetica,Arial,sans-serif;white-space:pre" x="711.5" y="392" fill="#656565">2011</text><text style="font:11.998px RobotoRegular,Helvetica,Arial,sans-serif;white-space:pre" x="756" y="392" fill="#656565">2012</text><text style="font:11.998px RobotoRegular,Helvetica,Arial,sans-serif;white-space:pre" x="801" y="392" fill="#656565">2013</text><g stroke="rgba(0, 0, 0, 0.08)" fill="none"><path d="M27.5 50.5v322M23.5 372.5h4M23.5 318.5h4M23.5 265.5h4M23.5 211.5h4M23.5 157.5h4M23.5 104.5h4M23.5 50.5h4"></path></g><text style="font:11.998px RobotoRegular,Helvetica,Arial,sans-serif;white-space:pre" x="11" y="376" fill="#656565">0</text><text style="font:11.998px RobotoRegular,Helvetica,Arial,sans-serif;white-space:pre" x="11" y="322.333" fill="#656565">2</text><text style="font:11.998px RobotoRegular,Helvetica,Arial,sans-serif;white-space:pre" x="11" y="268.667" fill="#656565">4</text><text style="font:11.998px RobotoRegular,Helvetica,Arial,sans-serif;white-space:pre" x="11" y="215" fill="#656565">6</text><text style="font:11.998px RobotoRegular,Helvetica,Arial,sans-serif;white-space:pre" x="11" y="161.333" fill="#656565">8</text><text style="font:11.998px RobotoRegular,Helvetica,Arial,sans-serif;white-space:pre" x="5" y="107.667" fill="#656565">10</text><text style="font:11.998px RobotoRegular,Helvetica,Arial,sans-serif;white-space:pre" x="5" y="54" fill="#656565">12</text><g><text style="font:16.002px RobotoRegular,Helvetica,Arial,sans-serif;white-space:pre" x="304.5" y="29" fill="#656565">Monthly Mean Temperatures (°F)</text></g></svg>