<svg style="width:100%;height:100%" viewBox="0 0 858 400" xmlns="http://www.w3.org/2000/svg" overflow="hidden"><defs><clipPath id="a"><path d="M57.5 50.5h766v322h-766z" stroke="#000" fill="none"></path></clipPath></defs><path d="M0 0h843v400H0z" fill="#FFF"></path><path d="M57 50h766v322H57z" fill="none"></path><g stroke="rgba(0, 0, 0, 0.08)" fill="none"><path d="M185.5 50.5v322M312.5 50.5v322M440.5 50.5v322M568.5 50.5v322M695.5 50.5v322M823.5 50.5v322"></path></g><g stroke="rgba(0, 0, 0, 0.08)" fill="none"><path d="M57.5 332.5h766M57.5 292.5h766M57.5 251.5h766M57.5 211.5h766M57.5 171.5h766M57.5 131.5h766M57.5 90.5h766M57.5 50.5h766"></path></g><path d="M57 50h255.333v322H57z" fill="#00f" fill-opacity=".05"></path><g clip-path="url(#a)" fill="#FF6358" fill-opacity=".6"><circle cx="344.25" cy="150.625" r="35.2"></circle><circle cx="503.833" cy="261.313" r="12.991"></circle><circle cx="759.167" cy="333.763" r="11.697"></circle><circle cx="401.7" cy="70.125" r="11.697"></circle><circle cx="152.75" cy="271.375" r="10.241"></circle><circle cx="497.45" cy="291.5" r="9.843"></circle><circle cx="484.683" cy="303.575" r="9.429"></circle><circle cx="465.533" cy="311.625" r="8.539"></circle><circle cx="468.725" cy="303.575" r="6.275"></circle></g><g stroke="rgba(0, 0, 0, 0.08)" fill="none"><path d="M57.5 372.5h766M57.5 372.5v4M185.5 372.5v4M312.5 372.5v4M440.5 372.5v4M568.5 372.5v4M695.5 372.5v4M823.5 372.5v4"></path></g><text style="font:11.998px RobotoRegular,Helvetica,Arial,sans-serif;white-space:pre" x="167.667" y="392" fill="#656565">-2,000</text><text style="font:11.998px RobotoRegular,Helvetica,Arial,sans-serif;white-space:pre" x="308.833" y="392" fill="#656565">0</text><text style="font:11.998px RobotoRegular,Helvetica,Arial,sans-serif;white-space:pre" x="425" y="392" fill="#656565">2,000</text><text style="font:11.998px RobotoRegular,Helvetica,Arial,sans-serif;white-space:pre" x="552.667" y="392" fill="#656565">4,000</text><text style="font:11.998px RobotoRegular,Helvetica,Arial,sans-serif;white-space:pre" x="680.333" y="392" fill="#656565">6,000</text><text style="font:11.998px RobotoRegular,Helvetica,Arial,sans-serif;white-space:pre" x="808" y="392" fill="#656565">8,000</text><g stroke="rgba(0, 0, 0, 0.08)" fill="none"><path d="M57.5 50.5v322M53.5 372.5h4M53.5 332.5h4M53.5 292.5h4M53.5 251.5h4M53.5 211.5h4M53.5 171.5h4M53.5 131.5h4M53.5 90.5h4M53.5 50.5h4"></path></g><text style="font:11.998px RobotoRegular,Helvetica,Arial,sans-serif;white-space:pre" x="41" y="376" fill="#656565">0</text><text style="font:11.998px RobotoRegular,Helvetica,Arial,sans-serif;white-space:pre" x="11" y="335.75" fill="#656565">20,000</text><text style="font:11.998px RobotoRegular,Helvetica,Arial,sans-serif;white-space:pre" x="11" y="295.5" fill="#656565">40,000</text><text style="font:11.998px RobotoRegular,Helvetica,Arial,sans-serif;white-space:pre" x="11" y="255.25" fill="#656565">60,000</text><text style="font:11.998px RobotoRegular,Helvetica,Arial,sans-serif;white-space:pre" x="11" y="215" fill="#656565">80,000</text><text style="font:11.998px RobotoRegular,Helvetica,Arial,sans-serif;white-space:pre" x="5" y="174.75" fill="#656565">100,000</text><text style="font:11.998px RobotoRegular,Helvetica,Arial,sans-serif;white-space:pre" x="5" y="134.5" fill="#656565">120,000</text><text style="font:11.998px RobotoRegular,Helvetica,Arial,sans-serif;white-space:pre" x="5" y="94.25" fill="#656565">140,000</text><text style="font:11.998px RobotoRegular,Helvetica,Arial,sans-serif;white-space:pre" x="5" y="54" fill="#656565">160,000</text><g><text style="font:16.002px RobotoRegular,Helvetica,Arial,sans-serif;white-space:pre" x="380.5" y="29" fill="#656565">Job Growth</text></g></svg>