<svg style="width:100%;height:100%" viewBox="0 0 858 133" xmlns="http://www.w3.org/2000/svg" overflow="hidden"><defs><clipPath id="a"><path d="M15.5 43.5h828v49h-828z" stroke="#000" fill="none"></path></clipPath></defs><path d="M0 0h858v120H0z" fill="#FFF"></path><path d="M15 43h828v49H15z" fill="none"></path><g fill="#ccc"><path d="M15 43h382.95v49H15z" fill-opacity=".6"></path><path d="M397.95 43h207v49h-207z" fill-opacity=".3"></path></g><g stroke="rgba(0, 0, 0, 0.08)" fill="none"><path d="M15.5 43.5v49M11.5 43.5h4M11.5 92.5h4"></path></g><g clip-path="url(#a)"><path d="M-7384.5 58.5h7762v19h-7762z" stroke="#111" fill="#111"></path><path d="M499.45 43h2v49h-2z" fill="#656565"></path></g><g stroke="rgba(0, 0, 0, 0.08)" fill="none"><path d="M15.5 92.5h828M15.5 92.5v4M119.5 92.5v4M222.5 92.5v4M326.5 92.5v4M429.5 92.5v4M533.5 92.5v4M636.5 92.5v4M740.5 92.5v4M843.5 92.5v4"></path></g><text style="font:11.998px RobotoRegular,Helvetica,Arial,sans-serif;white-space:pre" x="5" y="112" fill="#656565">715</text><text style="font:11.998px RobotoRegular,Helvetica,Arial,sans-serif;white-space:pre" x="108.5" y="112" fill="#656565">725</text><text style="font:11.998px RobotoRegular,Helvetica,Arial,sans-serif;white-space:pre" x="212" y="112" fill="#656565">735</text><text style="font:11.998px RobotoRegular,Helvetica,Arial,sans-serif;white-space:pre" x="315.5" y="112" fill="#656565">745</text><text style="font:11.998px RobotoRegular,Helvetica,Arial,sans-serif;white-space:pre" x="419" y="112" fill="#656565">755</text><text style="font:11.998px RobotoRegular,Helvetica,Arial,sans-serif;white-space:pre" x="522.5" y="112" fill="#656565">765</text><text style="font:11.998px RobotoRegular,Helvetica,Arial,sans-serif;white-space:pre" x="626" y="112" fill="#656565">775</text><text style="font:11.998px RobotoRegular,Helvetica,Arial,sans-serif;white-space:pre" x="729.5" y="112" fill="#656565">785</text><text style="font:11.998px RobotoRegular,Helvetica,Arial,sans-serif;white-space:pre" x="833" y="112" fill="#656565">795</text><g><text style="font:16.002px RobotoRegular,Helvetica,Arial,sans-serif;white-space:pre" x="321" y="29" fill="#656565">Atmospheric pressure [mmHg]</text></g></svg>