<svg style="width:100%;height:100%" viewBox="0 0 858 133" xmlns="http://www.w3.org/2000/svg" overflow="hidden"><defs><clipPath id="a"><path d="M14.5 43.5h838v49h-838z" stroke="#000" fill="none"></path></clipPath></defs><path d="M0 0h858v120H0z" fill="#FFF"></path><path d="M13.5 43H852v49H13.5z" fill="none"></path><path d="M623.318 43H852v49H623.318z" fill="#e62325"></path><path d="M394.636 43h228.682v49H394.636z" fill="#ffc000"></path><path d="M165.955 43h228.681v49H165.955z" fill="#37b400"></path><path d="M13.5 43h152.455v49H13.5z" fill="#5392ff"></path><g stroke="rgba(0, 0, 0, 0.08)" fill="none"><path d="M166.5 43.5v49M162.5 43.5h4M162.5 92.5h4"></path></g><g clip-path="url(#a)"><path d="M166.5 58.5h381v19h-381z" stroke="#fff" fill="#fff"></path><path d="M499.355 43h2v49h-2z" fill="#656565"></path></g><g stroke="rgba(0, 0, 0, 0.08)" fill="none"><path d="M14.5 92.5h838M14.5 92.5v4M166.5 92.5v4M318.5 92.5v4M471.5 92.5v4M623.5 92.5v4M776.5 92.5v4"></path></g><text style="font:11.998px RobotoRegular,Helvetica,Arial,sans-serif;white-space:pre" x="5" y="112" fill="#656565">-10</text><text style="font:11.998px RobotoRegular,Helvetica,Arial,sans-serif;white-space:pre" x="162.455" y="112" fill="#656565">0</text><text style="font:11.998px RobotoRegular,Helvetica,Arial,sans-serif;white-space:pre" x="311.909" y="112" fill="#656565">10</text><g><text style="font:11.998px RobotoRegular,Helvetica,Arial,sans-serif;white-space:pre" x="464.364" y="112" fill="#656565">20</text></g><g><text style="font:11.998px RobotoRegular,Helvetica,Arial,sans-serif;white-space:pre" x="616.818" y="112" fill="#656565">30</text></g><g><text style="font:11.998px RobotoRegular,Helvetica,Arial,sans-serif;white-space:pre" x="769.273" y="112" fill="#656565">40</text></g><g><text style="font:16.002px RobotoRegular,Helvetica,Arial,sans-serif;white-space:pre" x="368.5" y="29" fill="#656565">Temperature [°C]</text></g></svg>