<svg style="width:100%;height:100%" viewBox="0 0 858 133" xmlns="http://www.w3.org/2000/svg" overflow="hidden"><defs><clipPath id="a"><path d="M14.5 43.5h829v49h-829z" stroke="#000" fill="none"></path></clipPath></defs><path d="M0 0h858v120H0z" fill="#FFF"></path><path d="M14 43h829v49H14z" fill="none"></path><g fill="#ccc"><path d="M14 43h273.57v49H14z" fill-opacity=".6"></path><path d="M287.57 43h273.57v49H287.57z" fill-opacity=".3"></path></g><g stroke="rgba(0, 0, 0, 0.08)" fill="none"><path d="M14.5 43.5v49M10.5 43.5h4M10.5 92.5h4"></path></g><g clip-path="url(#a)"><path d="M14.5 58.5h373v19h-373z" stroke="#0058e9" fill="#0058e9"></path><path d="M509.4 43h2v49h-2z" fill="#656565"></path></g><g stroke="rgba(0, 0, 0, 0.08)" fill="none"><path d="M14.5 92.5h829M14.5 92.5v4M180.5 92.5v4M346.5 92.5v4M511.5 92.5v4M677.5 92.5v4M843.5 92.5v4"></path></g><text style="font:11.998px RobotoRegular,Helvetica,Arial,sans-serif;white-space:pre" x="10.5" y="112" fill="#656565">0</text><text style="font:11.998px RobotoRegular,Helvetica,Arial,sans-serif;white-space:pre" x="173.3" y="112" fill="#656565">20</text><text style="font:11.998px RobotoRegular,Helvetica,Arial,sans-serif;white-space:pre" x="339.1" y="112" fill="#656565">40</text><text style="font:11.998px RobotoRegular,Helvetica,Arial,sans-serif;white-space:pre" x="504.9" y="112" fill="#656565">60</text><text style="font:11.998px RobotoRegular,Helvetica,Arial,sans-serif;white-space:pre" x="670.7" y="112" fill="#656565">80</text><text style="font:11.998px RobotoRegular,Helvetica,Arial,sans-serif;white-space:pre" x="833" y="112" fill="#656565">100</text><g><text style="font:16.002px RobotoRegular,Helvetica,Arial,sans-serif;white-space:pre" x="384" y="29" fill="#656565">Humidity [%]</text></g></svg>
