<svg style="width:100%;height:100%" viewBox="0 0 858 400" xmlns="http://www.w3.org/2000/svg" overflow="hidden"><path d="M0 0h843v400H0z" fill="#FFF"></path><path d="M0 0z" fill="none"></path><path d="M421.5 63.5c25.015 0 49.992 7.044 71.321 20.115 21.329 13.07 38.945 32.127 50.301 54.415l-69.498 35.412c-4.867-9.553-12.417-17.72-21.558-23.321-9.141-5.602-19.845-8.621-30.566-8.621z" fill="#FF6358"></path><path d="M437.444 109.368h70v14h-70z" fill="none"></path><text style="font:11.998px RobotoRegular,Helvetica,Arial,sans-serif;white-space:pre" x="437.444" y="120.368" fill="#fff">Hydroelectric</text><path d="M543.122 138.03c15.445 30.313 18.981 66.499 9.695 99.228-9.286 32.728-31.299 61.667-60.362 79.351l-40.546-66.634c12.456-7.579 21.89-19.981 25.87-34.007 3.979-14.027 2.464-29.535-4.155-42.526z" fill="#FFD246"></path><path d="M494.798 219.113h41v14h-41z" fill="none"></path><text style="font:11.998px RobotoRegular,Helvetica,Arial,sans-serif;white-space:pre" x="494.798" y="230.113" fill="#fff">Nuclear</text><path d="M492.455 316.609c-28.818 17.536-64.278 23.839-97.375 17.31l15.097-76.525c14.185 2.798 29.382.097 41.732-7.419z" fill="#78D237"></path><path d="M426.065 288.495h25v14h-25z" fill="none"></path><text style="font:11.998px RobotoRegular,Helvetica,Arial,sans-serif;white-space:pre" x="426.065" y="299.495" fill="#fff">Coal</text><path d="M395.08 333.919a136.8 136.8 0 01-41.582-15.564l38.858-67.631a58.628 58.628 0 0017.821 6.67z" fill="#28B4C8"></path><path d="M373.323 283.814h28v14h-28z" fill="none"></path><text style="font:11.998px RobotoRegular,Helvetica,Arial,sans-serif;white-space:pre" x="373.323" y="294.814" fill="#fff">Solar</text><g><path d="M353.498 318.355c-27.887-16.023-49.773-42.226-60.573-72.521-10.799-30.295-10.424-64.434 1.039-94.484l72.878 27.8c-4.913 12.878-5.074 27.51-.446 40.493 4.629 12.984 14.009 24.214 25.96 31.081z" fill="#2D73F5"></path></g><g><path d="M316.161 225.239h27v14h-27z" fill="none"></path><text style="font:11.998px RobotoRegular,Helvetica,Arial,sans-serif;white-space:pre" x="316.161" y="236.239" fill="#fff">Wind</text></g><g><path d="M293.964 151.35c9.782-25.643 27.502-48.194 50.104-63.762C366.67 72.019 394.055 63.5 421.5 63.5v78c-11.762 0-23.499 3.651-33.185 10.323-9.687 6.673-17.281 16.337-21.473 27.327z" fill="#AA46BE"></path></g><g><path d="M351.191 112.206h30v14h-30z" fill="none"></path><text style="font:11.998px RobotoRegular,Helvetica,Arial,sans-serif;white-space:pre" x="351.191" y="123.206" fill="#fff">Other</text></g></svg>