<svg style="width:100%;height:100%" viewBox="-280 0 858 400" xmlns="http://www.w3.org/2000/svg" overflow="hidden"><path d="M0 0h300v400H0z" fill="#FFF"></path><path d="M0 0z" fill="none"></path><text style="font:16.002px RobotoRegular,Helvetica,Arial,sans-serif;white-space:pre" x="106" y="29" fill="#656565">Sales funnel</text><path d="M5 43h290l-31.925 110.714H36.925z" fill="#0e5a7e"></path><path d="M36.925 153.714h226.15l-26.2 90.861H63.125z" fill="#166f99"></path><path d="M63.125 244.575h173.75l-20.559 71.298H83.684z" fill="#2185b4"></path><path d="M83.684 315.873h132.632l-13.977 48.473H97.661z" fill="#319fd2"></path><path d="M97.661 364.346h104.678L193.5 395h-87z" fill="#3eaee2"></path><path d="M121.5 86.357h57v24h-57z" fill="none"></path><text style="font:11.998px RobotoRegular,Helvetica,Arial,sans-serif;white-space:pre" x="128.5" y="102.357" fill="#fff">434,823</text><g><path d="M121.5 187.144h57v24h-57z" fill="none"></path><text style="font:11.998px RobotoRegular,Helvetica,Arial,sans-serif;white-space:pre" x="128.5" y="203.144" fill="#fff">356,854</text></g><g><path d="M121.5 268.224h57v24h-57z" fill="none"></path><text style="font:11.998px RobotoRegular,Helvetica,Arial,sans-serif;white-space:pre" x="128.5" y="284.224" fill="#fff">280,022</text></g><g><path d="M121.5 328.11h57v24h-57z" fill="none"></path><text style="font:11.998px RobotoRegular,Helvetica,Arial,sans-serif;white-space:pre" x="128.5" y="344.11" fill="#fff">190,374</text></g><g><path d="M121.5 367.673h57v24h-57z" fill="none"></path><text style="font:11.998px RobotoRegular,Helvetica,Arial,sans-serif;white-space:pre" x="128.5" y="383.673" fill="#fff">120,392</text></g></svg>