<svg style="width: 100%; height: 100%; overflow: hidden;" viewBox="-75 0 572 266" xmlns="http://www.w3.org/2000/svg" xmlns:xlink="http://www.w3.org/1999/xlink" version="1.1"><defs><clipPath id="kdef1"><path d="M39.5 44.5 L 395.5 44.5 395.5 214.5 39.5 214.5Z" stroke="#000" stroke-linejoin="miter" fill="none"></path></clipPath></defs><g><path d="M0 0 L 400 0 400 220 0 220Z" stroke="none" fill="rgb(255, 255, 255)"></path><path d="M39 44 L 395 44 395 214 39 214Z" stroke="none" fill="#fff" fill-opacity="0"></path><g><g></g><g></g><g><g></g></g><g clip-path="url(#kdef1)"><g><g><path d="M44.5 45.5 L 58.233 45.5 C 59.281 45.5 60.321 45.931 61.062 46.672 61.802 47.412 62.233 48.453 62.233 49.5 L 62.233 63.786 C 62.233 64.833 61.802 65.874 61.062 66.614 60.321 67.355 59.281 67.786 58.233 67.786 L 44.5 67.786 C 43.453 67.786 42.412 67.355 41.672 66.614 40.931 65.874 40.5 64.833 40.5 63.786 L 40.5 49.5 C 40.5 48.453 40.931 47.412 41.672 46.672 42.412 45.931 43.453 45.5 44.5 45.5" stroke="none" fill="#f1fbf4" fill-opacity="1"></path></g><g><path d="M44.5 69.786 L 58.233 69.786 C 59.281 69.786 60.321 70.217 61.062 70.957 61.802 71.698 62.233 72.739 62.233 73.786 L 62.233 88.071 C 62.233 89.119 61.802 90.159 61.062 90.9 60.321 91.64 59.281 92.071 58.233 92.071 L 44.5 92.071 C 43.453 92.071 42.412 91.64 41.672 90.9 40.931 90.159 40.5 89.119 40.5 88.071 L 40.5 73.786 C 40.5 72.739 40.931 71.698 41.672 70.957 42.412 70.217 43.453 69.786 44.5 69.786" stroke="none" fill="#a0e3b5" fill-opacity="1"></path></g><g><path d="M44.5 94.071 L 58.233 94.071 C 59.281 94.071 60.321 94.503 61.062 95.243 61.802 95.983 62.233 97.024 62.233 98.071 L 62.233 112.357 C 62.233 113.404 61.802 114.445 61.062 115.186 60.321 115.926 59.281 116.357 58.233 116.357 L 44.5 116.357 C 43.453 116.357 42.412 115.926 41.672 115.186 40.931 114.445 40.5 113.404 40.5 112.357 L 40.5 98.071 C 40.5 97.024 40.931 95.983 41.672 95.243 42.412 94.503 43.453 94.071 44.5 94.071" stroke="none" fill="#64d086" fill-opacity="1"></path></g><g><path d="M44.5 118.357 L 58.233 118.357 C 59.281 118.357 60.321 118.788 61.062 119.529 61.802 120.269 62.233 121.31 62.233 122.357 L 62.233 136.643 C 62.233 137.69 61.802 138.731 61.062 139.471 60.321 140.212 59.281 140.643 58.233 140.643 L 44.5 140.643 C 43.453 140.643 42.412 140.212 41.672 139.471 40.931 138.731 40.5 137.69 40.5 136.643 L 40.5 122.357 C 40.5 121.31 40.931 120.269 41.672 119.529 42.412 118.788 43.453 118.357 44.5 118.357" stroke="none" fill="#1d6032" fill-opacity="1"></path></g><g><path d="M44.5 142.643 L 58.233 142.643 C 59.281 142.643 60.321 143.074 61.062 143.814 61.802 144.555 62.233 145.596 62.233 146.643 L 62.233 160.929 C 62.233 161.976 61.802 163.017 61.062 163.757 60.321 164.497 59.281 164.929 58.233 164.929 L 44.5 164.929 C 43.453 164.929 42.412 164.497 41.672 163.757 40.931 163.017 40.5 161.976 40.5 160.929 L 40.5 146.643 C 40.5 145.596 40.931 144.555 41.672 143.814 42.412 143.074 43.453 142.643 44.5 142.643" stroke="none" fill="#35b15b" fill-opacity="1"></path></g><g><path d="M44.5 166.929 L 58.233 166.929 C 59.281 166.929 60.321 167.36 61.062 168.1 61.802 168.841 62.233 169.881 62.233 170.929 L 62.233 185.214 C 62.233 186.261 61.802 187.302 61.062 188.043 60.321 188.783 59.281 189.214 58.233 189.214 L 44.5 189.214 C 43.453 189.214 42.412 188.783 41.672 188.043 40.931 187.302 40.5 186.261 40.5 185.214 L 40.5 170.929 C 40.5 169.881 40.931 168.841 41.672 168.1 42.412 167.36 43.453 166.929 44.5 166.929" stroke="none" fill="#50ca76" fill-opacity="1"></path></g><g><path d="M44.5 191.214 L 58.233 191.214 C 59.281 191.214 60.321 191.645 61.062 192.386 61.802 193.126 62.233 194.167 62.233 195.214 L 62.233 209.5 C 62.233 210.547 61.802 211.588 61.062 212.328 60.321 213.069 59.281 213.5 58.233 213.5 L 44.5 213.5 C 43.453 213.5 42.412 213.069 41.672 212.328 40.931 211.588 40.5 210.547 40.5 209.5 L 40.5 195.214 C 40.5 194.167 40.931 193.126 41.672 192.386 42.412 191.645 43.453 191.214 44.5 191.214" stroke="none" fill="#f1fbf4" fill-opacity="1"></path></g><g><path d="M68.233 45.5 L 81.967 45.5 C 83.014 45.5 84.055 45.931 84.795 46.672 85.536 47.412 85.967 48.453 85.967 49.5 L 85.967 63.786 C 85.967 64.833 85.536 65.874 84.795 66.614 84.055 67.355 83.014 67.786 81.967 67.786 L 68.233 67.786 C 67.186 67.786 66.145 67.355 65.405 66.614 64.664 65.874 64.233 64.833 64.233 63.786 L 64.233 49.5 C 64.233 48.453 64.664 47.412 65.405 46.672 66.145 45.931 67.186 45.5 68.233 45.5" stroke="none" fill="#f1fbf4" fill-opacity="1"></path></g><g><path d="M68.233 69.786 L 81.967 69.786 C 83.014 69.786 84.055 70.217 84.795 70.957 85.536 71.698 85.967 72.739 85.967 73.786 L 85.967 88.071 C 85.967 89.119 85.536 90.159 84.795 90.9 84.055 91.64 83.014 92.071 81.967 92.071 L 68.233 92.071 C 67.186 92.071 66.145 91.64 65.405 90.9 64.664 90.159 64.233 89.119 64.233 88.071 L 64.233 73.786 C 64.233 72.739 64.664 71.698 65.405 70.957 66.145 70.217 67.186 69.786 68.233 69.786" stroke="none" fill="#78d695" fill-opacity="1"></path></g><g><path d="M68.233 94.071 L 81.967 94.071 C 83.014 94.071 84.055 94.503 84.795 95.243 85.536 95.983 85.967 97.024 85.967 98.071 L 85.967 112.357 C 85.967 113.404 85.536 114.445 84.795 115.186 84.055 115.926 83.014 116.357 81.967 116.357 L 68.233 116.357 C 67.186 116.357 66.145 115.926 65.405 115.186 64.664 114.445 64.233 113.404 64.233 112.357 L 64.233 98.071 C 64.233 97.024 64.664 95.983 65.405 95.243 66.145 94.503 67.186 94.071 68.233 94.071" stroke="none" fill="#3bc466" fill-opacity="1"></path></g><g><path d="M68.233 118.357 L 81.967 118.357 C 83.014 118.357 84.055 118.788 84.795 119.529 85.536 120.269 85.967 121.31 85.967 122.357 L 85.967 136.643 C 85.967 137.69 85.536 138.731 84.795 139.471 84.055 140.212 83.014 140.643 81.967 140.643 L 68.233 140.643 C 67.186 140.643 66.145 140.212 65.405 139.471 64.664 138.731 64.233 137.69 64.233 136.643 L 64.233 122.357 C 64.233 121.31 64.664 120.269 65.405 119.529 66.145 118.788 67.186 118.357 68.233 118.357" stroke="none" fill="#298847" fill-opacity="1"></path></g><g><path d="M68.233 142.643 L 81.967 142.643 C 83.014 142.643 84.055 143.074 84.795 143.814 85.536 144.555 85.967 145.596 85.967 146.643 L 85.967 160.929 C 85.967 161.976 85.536 163.017 84.795 163.757 84.055 164.497 83.014 164.929 81.967 164.929 L 68.233 164.929 C 67.186 164.929 66.145 164.497 65.405 163.757 64.664 163.017 64.233 161.976 64.233 160.929 L 64.233 146.643 C 64.233 145.596 64.664 144.555 65.405 143.814 66.145 143.074 67.186 142.643 68.233 142.643" stroke="none" fill="#298847" fill-opacity="1"></path></g><g><path d="M68.233 166.929 L 81.967 166.929 C 83.014 166.929 84.055 167.36 84.795 168.1 85.536 168.841 85.967 169.881 85.967 170.929 L 85.967 185.214 C 85.967 186.261 85.536 187.302 84.795 188.043 84.055 188.783 83.014 189.214 81.967 189.214 L 68.233 189.214 C 67.186 189.214 66.145 188.783 65.405 188.043 64.664 187.302 64.233 186.261 64.233 185.214 L 64.233 170.929 C 64.233 169.881 64.664 168.841 65.405 168.1 66.145 167.36 67.186 166.929 68.233 166.929" stroke="none" fill="#78d695" fill-opacity="1"></path></g><g><path d="M68.233 191.214 L 81.967 191.214 C 83.014 191.214 84.055 191.645 84.795 192.386 85.536 193.126 85.967 194.167 85.967 195.214 L 85.967 209.5 C 85.967 210.547 85.536 211.588 84.795 212.328 84.055 213.069 83.014 213.5 81.967 213.5 L 68.233 213.5 C 67.186 213.5 66.145 213.069 65.405 212.328 64.664 211.588 64.233 210.547 64.233 209.5 L 64.233 195.214 C 64.233 194.167 64.664 193.126 65.405 192.386 66.145 191.645 67.186 191.214 68.233 191.214" stroke="none" fill="#f1fbf4" fill-opacity="1"></path></g><g><path d="M91.967 45.5 L 105.7 45.5 C 106.747 45.5 107.788 45.931 108.528 46.672 109.269 47.412 109.7 48.453 109.7 49.5 L 109.7 63.786 C 109.7 64.833 109.269 65.874 108.528 66.614 107.788 67.355 106.747 67.786 105.7 67.786 L 91.967 67.786 C 90.919 67.786 89.879 67.355 89.138 66.614 88.398 65.874 87.967 64.833 87.967 63.786 L 87.967 49.5 C 87.967 48.453 88.398 47.412 89.138 46.672 89.879 45.931 90.919 45.5 91.967 45.5" stroke="none" fill="#f1fbf4" fill-opacity="1"></path></g><g><path d="M91.967 69.786 L 105.7 69.786 C 106.747 69.786 107.788 70.217 108.528 70.957 109.269 71.698 109.7 72.739 109.7 73.786 L 109.7 88.071 C 109.7 89.119 109.269 90.159 108.528 90.9 107.788 91.64 106.747 92.071 105.7 92.071 L 91.967 92.071 C 90.919 92.071 89.879 91.64 89.138 90.9 88.398 90.159 87.967 89.119 87.967 88.071 L 87.967 73.786 C 87.967 72.739 88.398 71.698 89.138 70.957 89.879 70.217 90.919 69.786 91.967 69.786" stroke="none" fill="#8cdda5" fill-opacity="1"></path></g><g><path d="M91.967 94.071 L 105.7 94.071 C 106.747 94.071 107.788 94.503 108.528 95.243 109.269 95.983 109.7 97.024 109.7 98.071 L 109.7 112.357 C 109.7 113.404 109.269 114.445 108.528 115.186 107.788 115.926 106.747 116.357 105.7 116.357 L 91.967 116.357 C 90.919 116.357 89.879 115.926 89.138 115.186 88.398 114.445 87.967 113.404 87.967 112.357 L 87.967 98.071 C 87.967 97.024 88.398 95.983 89.138 95.243 89.879 94.503 90.919 94.071 91.967 94.071" stroke="none" fill="#50ca76" fill-opacity="1"></path></g><g><path d="M91.967 118.357 L 105.7 118.357 C 106.747 118.357 107.788 118.788 108.528 119.529 109.269 120.269 109.7 121.31 109.7 122.357 L 109.7 136.643 C 109.7 137.69 109.269 138.731 108.528 139.471 107.788 140.212 106.747 140.643 105.7 140.643 L 91.967 140.643 C 90.919 140.643 89.879 140.212 89.138 139.471 88.398 138.731 87.967 137.69 87.967 136.643 L 87.967 122.357 C 87.967 121.31 88.398 120.269 89.138 119.529 89.879 118.788 90.919 118.357 91.967 118.357" stroke="none" fill="#2f9c51" fill-opacity="1"></path></g><g><path d="M91.967 142.643 L 105.7 142.643 C 106.747 142.643 107.788 143.074 108.528 143.814 109.269 144.555 109.7 145.596 109.7 146.643 L 109.7 160.929 C 109.7 161.976 109.269 163.017 108.528 163.757 107.788 164.497 106.747 164.929 105.7 164.929 L 91.967 164.929 C 90.919 164.929 89.879 164.497 89.138 163.757 88.398 163.017 87.967 161.976 87.967 160.929 L 87.967 146.643 C 87.967 145.596 88.398 144.555 89.138 143.814 89.879 143.074 90.919 142.643 91.967 142.643" stroke="none" fill="#f1fbf4" fill-opacity="1"></path></g><g><path d="M91.967 166.929 L 105.7 166.929 C 106.747 166.929 107.788 167.36 108.528 168.1 109.269 168.841 109.7 169.881 109.7 170.929 L 109.7 185.214 C 109.7 186.261 109.269 187.302 108.528 188.043 107.788 188.783 106.747 189.214 105.7 189.214 L 91.967 189.214 C 90.919 189.214 89.879 188.783 89.138 188.043 88.398 187.302 87.967 186.261 87.967 185.214 L 87.967 170.929 C 87.967 169.881 88.398 168.841 89.138 168.1 89.879 167.36 90.919 166.929 91.967 166.929" stroke="none" fill="#8cdda5" fill-opacity="1"></path></g><g><path d="M91.967 191.214 L 105.7 191.214 C 106.747 191.214 107.788 191.645 108.528 192.386 109.269 193.126 109.7 194.167 109.7 195.214 L 109.7 209.5 C 109.7 210.547 109.269 211.588 108.528 212.328 107.788 213.069 106.747 213.5 105.7 213.5 L 91.967 213.5 C 90.919 213.5 89.879 213.069 89.138 212.328 88.398 211.588 87.967 210.547 87.967 209.5 L 87.967 195.214 C 87.967 194.167 88.398 193.126 89.138 192.386 89.879 191.645 90.919 191.214 91.967 191.214" stroke="none" fill="#f1fbf4" fill-opacity="1"></path></g><g><path d="M115.7 45.5 L 129.433 45.5 C 130.481 45.5 131.521 45.931 132.262 46.672 133.002 47.412 133.433 48.453 133.433 49.5 L 133.433 63.786 C 133.433 64.833 133.002 65.874 132.262 66.614 131.521 67.355 130.481 67.786 129.433 67.786 L 115.7 67.786 C 114.653 67.786 113.612 67.355 112.872 66.614 112.131 65.874 111.7 64.833 111.7 63.786 L 111.7 49.5 C 111.7 48.453 112.131 47.412 112.872 46.672 113.612 45.931 114.653 45.5 115.7 45.5" stroke="none" fill="#f1fbf4" fill-opacity="1"></path></g><g><path d="M115.7 69.786 L 129.433 69.786 C 130.481 69.786 131.521 70.217 132.262 70.957 133.002 71.698 133.433 72.739 133.433 73.786 L 133.433 88.071 C 133.433 89.119 133.002 90.159 132.262 90.9 131.521 91.64 130.481 92.071 129.433 92.071 L 115.7 92.071 C 114.653 92.071 113.612 91.64 112.872 90.9 112.131 90.159 111.7 89.119 111.7 88.071 L 111.7 73.786 C 111.7 72.739 112.131 71.698 112.872 70.957 113.612 70.217 114.653 69.786 115.7 69.786" stroke="none" fill="#f1fbf4" fill-opacity="1"></path></g><g><path d="M115.7 94.071 L 129.433 94.071 C 130.481 94.071 131.521 94.503 132.262 95.243 133.002 95.983 133.433 97.024 133.433 98.071 L 133.433 112.357 C 133.433 113.404 133.002 114.445 132.262 115.186 131.521 115.926 130.481 116.357 129.433 116.357 L 115.7 116.357 C 114.653 116.357 113.612 115.926 112.872 115.186 112.131 114.445 111.7 113.404 111.7 112.357 L 111.7 98.071 C 111.7 97.024 112.131 95.983 112.872 95.243 113.612 94.503 114.653 94.071 115.7 94.071" stroke="none" fill="#f1fbf4" fill-opacity="1"></path></g><g><path d="M115.7 118.357 L 129.433 118.357 C 130.481 118.357 131.521 118.788 132.262 119.529 133.002 120.269 133.433 121.31 133.433 122.357 L 133.433 136.643 C 133.433 137.69 133.002 138.731 132.262 139.471 131.521 140.212 130.481 140.643 129.433 140.643 L 115.7 140.643 C 114.653 140.643 113.612 140.212 112.872 139.471 112.131 138.731 111.7 137.69 111.7 136.643 L 111.7 122.357 C 111.7 121.31 112.131 120.269 112.872 119.529 113.612 118.788 114.653 118.357 115.7 118.357" stroke="none" fill="#f1fbf4" fill-opacity="1"></path></g><g><path d="M115.7 142.643 L 129.433 142.643 C 130.481 142.643 131.521 143.074 132.262 143.814 133.002 144.555 133.433 145.596 133.433 146.643 L 133.433 160.929 C 133.433 161.976 133.002 163.017 132.262 163.757 131.521 164.497 130.481 164.929 129.433 164.929 L 115.7 164.929 C 114.653 164.929 113.612 164.497 112.872 163.757 112.131 163.017 111.7 161.976 111.7 160.929 L 111.7 146.643 C 111.7 145.596 112.131 144.555 112.872 143.814 113.612 143.074 114.653 142.643 115.7 142.643" stroke="none" fill="#f1fbf4" fill-opacity="1"></path></g><g><path d="M115.7 166.929 L 129.433 166.929 C 130.481 166.929 131.521 167.36 132.262 168.1 133.002 168.841 133.433 169.881 133.433 170.929 L 133.433 185.214 C 133.433 186.261 133.002 187.302 132.262 188.043 131.521 188.783 130.481 189.214 129.433 189.214 L 115.7 189.214 C 114.653 189.214 113.612 188.783 112.872 188.043 112.131 187.302 111.7 186.261 111.7 185.214 L 111.7 170.929 C 111.7 169.881 112.131 168.841 112.872 168.1 113.612 167.36 114.653 166.929 115.7 166.929" stroke="none" fill="#f1fbf4" fill-opacity="1"></path></g><g><path d="M115.7 191.214 L 129.433 191.214 C 130.481 191.214 131.521 191.645 132.262 192.386 133.002 193.126 133.433 194.167 133.433 195.214 L 133.433 209.5 C 133.433 210.547 133.002 211.588 132.262 212.328 131.521 213.069 130.481 213.5 129.433 213.5 L 115.7 213.5 C 114.653 213.5 113.612 213.069 112.872 212.328 112.131 211.588 111.7 210.547 111.7 209.5 L 111.7 195.214 C 111.7 194.167 112.131 193.126 112.872 192.386 113.612 191.645 114.653 191.214 115.7 191.214" stroke="none" fill="#f1fbf4" fill-opacity="1"></path></g><g><path d="M139.433 45.5 L 153.167 45.5 C 154.214 45.5 155.255 45.931 155.995 46.672 156.736 47.412 157.167 48.453 157.167 49.5 L 157.167 63.786 C 157.167 64.833 156.736 65.874 155.995 66.614 155.255 67.355 154.214 67.786 153.167 67.786 L 139.433 67.786 C 138.386 67.786 137.345 67.355 136.605 66.614 135.864 65.874 135.433 64.833 135.433 63.786 L 135.433 49.5 C 135.433 48.453 135.864 47.412 136.605 46.672 137.345 45.931 138.386 45.5 139.433 45.5" stroke="none" fill="#f1fbf4" fill-opacity="1"></path></g><g><path d="M139.433 69.786 L 153.167 69.786 C 154.214 69.786 155.255 70.217 155.995 70.957 156.736 71.698 157.167 72.739 157.167 73.786 L 157.167 88.071 C 157.167 89.119 156.736 90.159 155.995 90.9 155.255 91.64 154.214 92.071 153.167 92.071 L 139.433 92.071 C 138.386 92.071 137.345 91.64 136.605 90.9 135.864 90.159 135.433 89.119 135.433 88.071 L 135.433 73.786 C 135.433 72.739 135.864 71.698 136.605 70.957 137.345 70.217 138.386 69.786 139.433 69.786" stroke="none" fill="#f1fbf4" fill-opacity="1"></path></g><g><path d="M139.433 94.071 L 153.167 94.071 C 154.214 94.071 155.255 94.503 155.995 95.243 156.736 95.983 157.167 97.024 157.167 98.071 L 157.167 112.357 C 157.167 113.404 156.736 114.445 155.995 115.186 155.255 115.926 154.214 116.357 153.167 116.357 L 139.433 116.357 C 138.386 116.357 137.345 115.926 136.605 115.186 135.864 114.445 135.433 113.404 135.433 112.357 L 135.433 98.071 C 135.433 97.024 135.864 95.983 136.605 95.243 137.345 94.503 138.386 94.071 139.433 94.071" stroke="none" fill="#f1fbf4" fill-opacity="1"></path></g><g><path d="M139.433 118.357 L 153.167 118.357 C 154.214 118.357 155.255 118.788 155.995 119.529 156.736 120.269 157.167 121.31 157.167 122.357 L 157.167 136.643 C 157.167 137.69 156.736 138.731 155.995 139.471 155.255 140.212 154.214 140.643 153.167 140.643 L 139.433 140.643 C 138.386 140.643 137.345 140.212 136.605 139.471 135.864 138.731 135.433 137.69 135.433 136.643 L 135.433 122.357 C 135.433 121.31 135.864 120.269 136.605 119.529 137.345 118.788 138.386 118.357 139.433 118.357" stroke="none" fill="#f1fbf4" fill-opacity="1"></path></g><g><path d="M139.433 142.643 L 153.167 142.643 C 154.214 142.643 155.255 143.074 155.995 143.814 156.736 144.555 157.167 145.596 157.167 146.643 L 157.167 160.929 C 157.167 161.976 156.736 163.017 155.995 163.757 155.255 164.497 154.214 164.929 153.167 164.929 L 139.433 164.929 C 138.386 164.929 137.345 164.497 136.605 163.757 135.864 163.017 135.433 161.976 135.433 160.929 L 135.433 146.643 C 135.433 145.596 135.864 144.555 136.605 143.814 137.345 143.074 138.386 142.643 139.433 142.643" stroke="none" fill="#f1fbf4" fill-opacity="1"></path></g><g><path d="M139.433 166.929 L 153.167 166.929 C 154.214 166.929 155.255 167.36 155.995 168.1 156.736 168.841 157.167 169.881 157.167 170.929 L 157.167 185.214 C 157.167 186.261 156.736 187.302 155.995 188.043 155.255 188.783 154.214 189.214 153.167 189.214 L 139.433 189.214 C 138.386 189.214 137.345 188.783 136.605 188.043 135.864 187.302 135.433 186.261 135.433 185.214 L 135.433 170.929 C 135.433 169.881 135.864 168.841 136.605 168.1 137.345 167.36 138.386 166.929 139.433 166.929" stroke="none" fill="#f1fbf4" fill-opacity="1"></path></g><g><path d="M139.433 191.214 L 153.167 191.214 C 154.214 191.214 155.255 191.645 155.995 192.386 156.736 193.126 157.167 194.167 157.167 195.214 L 157.167 209.5 C 157.167 210.547 156.736 211.588 155.995 212.328 155.255 213.069 154.214 213.5 153.167 213.5 L 139.433 213.5 C 138.386 213.5 137.345 213.069 136.605 212.328 135.864 211.588 135.433 210.547 135.433 209.5 L 135.433 195.214 C 135.433 194.167 135.864 193.126 136.605 192.386 137.345 191.645 138.386 191.214 139.433 191.214" stroke="none" fill="#f1fbf4" fill-opacity="1"></path></g><g><path d="M163.167 45.5 L 176.9 45.5 C 177.947 45.5 178.988 45.931 179.728 46.672 180.469 47.412 180.9 48.453 180.9 49.5 L 180.9 63.786 C 180.9 64.833 180.469 65.874 179.728 66.614 178.988 67.355 177.947 67.786 176.9 67.786 L 163.167 67.786 C 162.119 67.786 161.079 67.355 160.338 66.614 159.598 65.874 159.167 64.833 159.167 63.786 L 159.167 49.5 C 159.167 48.453 159.598 47.412 160.338 46.672 161.079 45.931 162.119 45.5 163.167 45.5" stroke="none" fill="#f1fbf4" fill-opacity="1"></path></g><g><path d="M163.167 69.786 L 176.9 69.786 C 177.947 69.786 178.988 70.217 179.728 70.957 180.469 71.698 180.9 72.739 180.9 73.786 L 180.9 88.071 C 180.9 89.119 180.469 90.159 179.728 90.9 178.988 91.64 177.947 92.071 176.9 92.071 L 163.167 92.071 C 162.119 92.071 161.079 91.64 160.338 90.9 159.598 90.159 159.167 89.119 159.167 88.071 L 159.167 73.786 C 159.167 72.739 159.598 71.698 160.338 70.957 161.079 70.217 162.119 69.786 163.167 69.786" stroke="none" fill="#a0e3b5" fill-opacity="1"></path></g><g><path d="M163.167 94.071 L 176.9 94.071 C 177.947 94.071 178.988 94.503 179.728 95.243 180.469 95.983 180.9 97.024 180.9 98.071 L 180.9 112.357 C 180.9 113.404 180.469 114.445 179.728 115.186 178.988 115.926 177.947 116.357 176.9 116.357 L 163.167 116.357 C 162.119 116.357 161.079 115.926 160.338 115.186 159.598 114.445 159.167 113.404 159.167 112.357 L 159.167 98.071 C 159.167 97.024 159.598 95.983 160.338 95.243 161.079 94.503 162.119 94.071 163.167 94.071" stroke="none" fill="#64d086" fill-opacity="1"></path></g><g><path d="M163.167 118.357 L 176.9 118.357 C 177.947 118.357 178.988 118.788 179.728 119.529 180.469 120.269 180.9 121.31 180.9 122.357 L 180.9 136.643 C 180.9 137.69 180.469 138.731 179.728 139.471 178.988 140.212 177.947 140.643 176.9 140.643 L 163.167 140.643 C 162.119 140.643 161.079 140.212 160.338 139.471 159.598 138.731 159.167 137.69 159.167 136.643 L 159.167 122.357 C 159.167 121.31 159.598 120.269 160.338 119.529 161.079 118.788 162.119 118.357 163.167 118.357" stroke="none" fill="#1d6032" fill-opacity="1"></path></g><g><path d="M163.167 142.643 L 176.9 142.643 C 177.947 142.643 178.988 143.074 179.728 143.814 180.469 144.555 180.9 145.596 180.9 146.643 L 180.9 160.929 C 180.9 161.976 180.469 163.017 179.728 163.757 178.988 164.497 177.947 164.929 176.9 164.929 L 163.167 164.929 C 162.119 164.929 161.079 164.497 160.338 163.757 159.598 163.017 159.167 161.976 159.167 160.929 L 159.167 146.643 C 159.167 145.596 159.598 144.555 160.338 143.814 161.079 143.074 162.119 142.643 163.167 142.643" stroke="none" fill="#35b15b" fill-opacity="1"></path></g><g><path d="M163.167 166.929 L 176.9 166.929 C 177.947 166.929 178.988 167.36 179.728 168.1 180.469 168.841 180.9 169.881 180.9 170.929 L 180.9 185.214 C 180.9 186.261 180.469 187.302 179.728 188.043 178.988 188.783 177.947 189.214 176.9 189.214 L 163.167 189.214 C 162.119 189.214 161.079 188.783 160.338 188.043 159.598 187.302 159.167 186.261 159.167 185.214 L 159.167 170.929 C 159.167 169.881 159.598 168.841 160.338 168.1 161.079 167.36 162.119 166.929 163.167 166.929" stroke="none" fill="#50ca76" fill-opacity="1"></path></g><g><path d="M163.167 191.214 L 176.9 191.214 C 177.947 191.214 178.988 191.645 179.728 192.386 180.469 193.126 180.9 194.167 180.9 195.214 L 180.9 209.5 C 180.9 210.547 180.469 211.588 179.728 212.328 178.988 213.069 177.947 213.5 176.9 213.5 L 163.167 213.5 C 162.119 213.5 161.079 213.069 160.338 212.328 159.598 211.588 159.167 210.547 159.167 209.5 L 159.167 195.214 C 159.167 194.167 159.598 193.126 160.338 192.386 161.079 191.645 162.119 191.214 163.167 191.214" stroke="none" fill="#f1fbf4" fill-opacity="1"></path></g><g><path d="M186.9 45.5 L 200.633 45.5 C 201.681 45.5 202.721 45.931 203.462 46.672 204.202 47.412 204.633 48.453 204.633 49.5 L 204.633 63.786 C 204.633 64.833 204.202 65.874 203.462 66.614 202.721 67.355 201.681 67.786 200.633 67.786 L 186.9 67.786 C 185.853 67.786 184.812 67.355 184.072 66.614 183.331 65.874 182.9 64.833 182.9 63.786 L 182.9 49.5 C 182.9 48.453 183.331 47.412 184.072 46.672 184.812 45.931 185.853 45.5 186.9 45.5" stroke="none" fill="#f1fbf4" fill-opacity="1"></path></g><g><path d="M186.9 69.786 L 200.633 69.786 C 201.681 69.786 202.721 70.217 203.462 70.957 204.202 71.698 204.633 72.739 204.633 73.786 L 204.633 88.071 C 204.633 89.119 204.202 90.159 203.462 90.9 202.721 91.64 201.681 92.071 200.633 92.071 L 186.9 92.071 C 185.853 92.071 184.812 91.64 184.072 90.9 183.331 90.159 182.9 89.119 182.9 88.071 L 182.9 73.786 C 182.9 72.739 183.331 71.698 184.072 70.957 184.812 70.217 185.853 69.786 186.9 69.786" stroke="none" fill="#78d695" fill-opacity="1"></path></g><g><path d="M186.9 94.071 L 200.633 94.071 C 201.681 94.071 202.721 94.503 203.462 95.243 204.202 95.983 204.633 97.024 204.633 98.071 L 204.633 112.357 C 204.633 113.404 204.202 114.445 203.462 115.186 202.721 115.926 201.681 116.357 200.633 116.357 L 186.9 116.357 C 185.853 116.357 184.812 115.926 184.072 115.186 183.331 114.445 182.9 113.404 182.9 112.357 L 182.9 98.071 C 182.9 97.024 183.331 95.983 184.072 95.243 184.812 94.503 185.853 94.071 186.9 94.071" stroke="none" fill="#3bc466" fill-opacity="1"></path></g><g><path d="M186.9 118.357 L 200.633 118.357 C 201.681 118.357 202.721 118.788 203.462 119.529 204.202 120.269 204.633 121.31 204.633 122.357 L 204.633 136.643 C 204.633 137.69 204.202 138.731 203.462 139.471 202.721 140.212 201.681 140.643 200.633 140.643 L 186.9 140.643 C 185.853 140.643 184.812 140.212 184.072 139.471 183.331 138.731 182.9 137.69 182.9 136.643 L 182.9 122.357 C 182.9 121.31 183.331 120.269 184.072 119.529 184.812 118.788 185.853 118.357 186.9 118.357" stroke="none" fill="#c9efd4" fill-opacity="1"></path><path d="M186.9 118.357 L 200.633 118.357 C 201.681 118.357 202.721 118.788 203.462 119.529 204.202 120.269 204.633 121.31 204.633 122.357 L 204.633 136.643 C 204.633 137.69 204.202 138.731 203.462 139.471 202.721 140.212 201.681 140.643 200.633 140.643 L 186.9 140.643 C 185.853 140.643 184.812 140.212 184.072 139.471 183.331 138.731 182.9 137.69 182.9 136.643 L 182.9 122.357 C 182.9 121.31 183.331 120.269 184.072 119.529 184.812 118.788 185.853 118.357 186.9 118.357" stroke="#fff" stroke-width="1" stroke-opacity="0.2" fill="#fff" fill-opacity="0.2" style="display: none;"></path></g><g><path d="M186.9 142.643 L 200.633 142.643 C 201.681 142.643 202.721 143.074 203.462 143.814 204.202 144.555 204.633 145.596 204.633 146.643 L 204.633 160.929 C 204.633 161.976 204.202 163.017 203.462 163.757 202.721 164.497 201.681 164.929 200.633 164.929 L 186.9 164.929 C 185.853 164.929 184.812 164.497 184.072 163.757 183.331 163.017 182.9 161.976 182.9 160.929 L 182.9 146.643 C 182.9 145.596 183.331 144.555 184.072 143.814 184.812 143.074 185.853 142.643 186.9 142.643" stroke="none" fill="#a0e3b5" fill-opacity="1"></path></g><g><path d="M186.9 166.929 L 200.633 166.929 C 201.681 166.929 202.721 167.36 203.462 168.1 204.202 168.841 204.633 169.881 204.633 170.929 L 204.633 185.214 C 204.633 186.261 204.202 187.302 203.462 188.043 202.721 188.783 201.681 189.214 200.633 189.214 L 186.9 189.214 C 185.853 189.214 184.812 188.783 184.072 188.043 183.331 187.302 182.9 186.261 182.9 185.214 L 182.9 170.929 C 182.9 169.881 183.331 168.841 184.072 168.1 184.812 167.36 185.853 166.929 186.9 166.929" stroke="none" fill="#78d695" fill-opacity="1"></path></g><g><path d="M186.9 191.214 L 200.633 191.214 C 201.681 191.214 202.721 191.645 203.462 192.386 204.202 193.126 204.633 194.167 204.633 195.214 L 204.633 209.5 C 204.633 210.547 204.202 211.588 203.462 212.328 202.721 213.069 201.681 213.5 200.633 213.5 L 186.9 213.5 C 185.853 213.5 184.812 213.069 184.072 212.328 183.331 211.588 182.9 210.547 182.9 209.5 L 182.9 195.214 C 182.9 194.167 183.331 193.126 184.072 192.386 184.812 191.645 185.853 191.214 186.9 191.214" stroke="none" fill="#f1fbf4" fill-opacity="1"></path></g><g><path d="M210.633 45.5 L 224.367 45.5 C 225.414 45.5 226.455 45.931 227.195 46.672 227.936 47.412 228.367 48.453 228.367 49.5 L 228.367 63.786 C 228.367 64.833 227.936 65.874 227.195 66.614 226.455 67.355 225.414 67.786 224.367 67.786 L 210.633 67.786 C 209.586 67.786 208.545 67.355 207.805 66.614 207.064 65.874 206.633 64.833 206.633 63.786 L 206.633 49.5 C 206.633 48.453 207.064 47.412 207.805 46.672 208.545 45.931 209.586 45.5 210.633 45.5" stroke="none" fill="#f1fbf4" fill-opacity="1"></path></g><g><path d="M210.633 69.786 L 224.367 69.786 C 225.414 69.786 226.455 70.217 227.195 70.957 227.936 71.698 228.367 72.739 228.367 73.786 L 228.367 88.071 C 228.367 89.119 227.936 90.159 227.195 90.9 226.455 91.64 225.414 92.071 224.367 92.071 L 210.633 92.071 C 209.586 92.071 208.545 91.64 207.805 90.9 207.064 90.159 206.633 89.119 206.633 88.071 L 206.633 73.786 C 206.633 72.739 207.064 71.698 207.805 70.957 208.545 70.217 209.586 69.786 210.633 69.786" stroke="none" fill="#a0e3b5" fill-opacity="1"></path></g><g><path d="M210.633 94.071 L 224.367 94.071 C 225.414 94.071 226.455 94.503 227.195 95.243 227.936 95.983 228.367 97.024 228.367 98.071 L 228.367 112.357 C 228.367 113.404 227.936 114.445 227.195 115.186 226.455 115.926 225.414 116.357 224.367 116.357 L 210.633 116.357 C 209.586 116.357 208.545 115.926 207.805 115.186 207.064 114.445 206.633 113.404 206.633 112.357 L 206.633 98.071 C 206.633 97.024 207.064 95.983 207.805 95.243 208.545 94.503 209.586 94.071 210.633 94.071" stroke="none" fill="#64d086" fill-opacity="1"></path></g><g><path d="M210.633 118.357 L 224.367 118.357 C 225.414 118.357 226.455 118.788 227.195 119.529 227.936 120.269 228.367 121.31 228.367 122.357 L 228.367 136.643 C 228.367 137.69 227.936 138.731 227.195 139.471 226.455 140.212 225.414 140.643 224.367 140.643 L 210.633 140.643 C 209.586 140.643 208.545 140.212 207.805 139.471 207.064 138.731 206.633 137.69 206.633 136.643 L 206.633 122.357 C 206.633 121.31 207.064 120.269 207.805 119.529 208.545 118.788 209.586 118.357 210.633 118.357" stroke="none" fill="#1d6032" fill-opacity="1"></path><path d="M210.633 118.357 L 224.367 118.357 C 225.414 118.357 226.455 118.788 227.195 119.529 227.936 120.269 228.367 121.31 228.367 122.357 L 228.367 136.643 C 228.367 137.69 227.936 138.731 227.195 139.471 226.455 140.212 225.414 140.643 224.367 140.643 L 210.633 140.643 C 209.586 140.643 208.545 140.212 207.805 139.471 207.064 138.731 206.633 137.69 206.633 136.643 L 206.633 122.357 C 206.633 121.31 207.064 120.269 207.805 119.529 208.545 118.788 209.586 118.357 210.633 118.357" stroke="#fff" stroke-width="1" stroke-opacity="0.2" fill="#fff" fill-opacity="0.2" style="display: none;"></path></g><g><path d="M210.633 142.643 L 224.367 142.643 C 225.414 142.643 226.455 143.074 227.195 143.814 227.936 144.555 228.367 145.596 228.367 146.643 L 228.367 160.929 C 228.367 161.976 227.936 163.017 227.195 163.757 226.455 164.497 225.414 164.929 224.367 164.929 L 210.633 164.929 C 209.586 164.929 208.545 164.497 207.805 163.757 207.064 163.017 206.633 161.976 206.633 160.929 L 206.633 146.643 C 206.633 145.596 207.064 144.555 207.805 143.814 208.545 143.074 209.586 142.643 210.633 142.643" stroke="none" fill="#35b15b" fill-opacity="1"></path><path d="M210.633 142.643 L 224.367 142.643 C 225.414 142.643 226.455 143.074 227.195 143.814 227.936 144.555 228.367 145.596 228.367 146.643 L 228.367 160.929 C 228.367 161.976 227.936 163.017 227.195 163.757 226.455 164.497 225.414 164.929 224.367 164.929 L 210.633 164.929 C 209.586 164.929 208.545 164.497 207.805 163.757 207.064 163.017 206.633 161.976 206.633 160.929 L 206.633 146.643 C 206.633 145.596 207.064 144.555 207.805 143.814 208.545 143.074 209.586 142.643 210.633 142.643" stroke="#fff" stroke-width="1" stroke-opacity="0.2" fill="#fff" fill-opacity="0.2" style="display: none;"></path></g><g><path d="M210.633 166.929 L 224.367 166.929 C 225.414 166.929 226.455 167.36 227.195 168.1 227.936 168.841 228.367 169.881 228.367 170.929 L 228.367 185.214 C 228.367 186.261 227.936 187.302 227.195 188.043 226.455 188.783 225.414 189.214 224.367 189.214 L 210.633 189.214 C 209.586 189.214 208.545 188.783 207.805 188.043 207.064 187.302 206.633 186.261 206.633 185.214 L 206.633 170.929 C 206.633 169.881 207.064 168.841 207.805 168.1 208.545 167.36 209.586 166.929 210.633 166.929" stroke="none" fill="#50ca76" fill-opacity="1"></path><path d="M210.633 166.929 L 224.367 166.929 C 225.414 166.929 226.455 167.36 227.195 168.1 227.936 168.841 228.367 169.881 228.367 170.929 L 228.367 185.214 C 228.367 186.261 227.936 187.302 227.195 188.043 226.455 188.783 225.414 189.214 224.367 189.214 L 210.633 189.214 C 209.586 189.214 208.545 188.783 207.805 188.043 207.064 187.302 206.633 186.261 206.633 185.214 L 206.633 170.929 C 206.633 169.881 207.064 168.841 207.805 168.1 208.545 167.36 209.586 166.929 210.633 166.929" stroke="#fff" stroke-width="1" stroke-opacity="0.2" fill="#fff" fill-opacity="0.2" style="display: none;"></path></g><g><path d="M210.633 191.214 L 224.367 191.214 C 225.414 191.214 226.455 191.645 227.195 192.386 227.936 193.126 228.367 194.167 228.367 195.214 L 228.367 209.5 C 228.367 210.547 227.936 211.588 227.195 212.328 226.455 213.069 225.414 213.5 224.367 213.5 L 210.633 213.5 C 209.586 213.5 208.545 213.069 207.805 212.328 207.064 211.588 206.633 210.547 206.633 209.5 L 206.633 195.214 C 206.633 194.167 207.064 193.126 207.805 192.386 208.545 191.645 209.586 191.214 210.633 191.214" stroke="none" fill="#f1fbf4" fill-opacity="1"></path></g><g><path d="M234.367 45.5 L 248.1 45.5 C 249.147 45.5 250.188 45.931 250.928 46.672 251.669 47.412 252.1 48.453 252.1 49.5 L 252.1 63.786 C 252.1 64.833 251.669 65.874 250.928 66.614 250.188 67.355 249.147 67.786 248.1 67.786 L 234.367 67.786 C 233.319 67.786 232.279 67.355 231.538 66.614 230.798 65.874 230.367 64.833 230.367 63.786 L 230.367 49.5 C 230.367 48.453 230.798 47.412 231.538 46.672 232.279 45.931 233.319 45.5 234.367 45.5" stroke="none" fill="#f1fbf4" fill-opacity="1"></path></g><g><path d="M234.367 69.786 L 248.1 69.786 C 249.147 69.786 250.188 70.217 250.928 70.957 251.669 71.698 252.1 72.739 252.1 73.786 L 252.1 88.071 C 252.1 89.119 251.669 90.159 250.928 90.9 250.188 91.64 249.147 92.071 248.1 92.071 L 234.367 92.071 C 233.319 92.071 232.279 91.64 231.538 90.9 230.798 90.159 230.367 89.119 230.367 88.071 L 230.367 73.786 C 230.367 72.739 230.798 71.698 231.538 70.957 232.279 70.217 233.319 69.786 234.367 69.786" stroke="none" fill="#a0e3b5" fill-opacity="1"></path></g><g><path d="M234.367 94.071 L 248.1 94.071 C 249.147 94.071 250.188 94.503 250.928 95.243 251.669 95.983 252.1 97.024 252.1 98.071 L 252.1 112.357 C 252.1 113.404 251.669 114.445 250.928 115.186 250.188 115.926 249.147 116.357 248.1 116.357 L 234.367 116.357 C 233.319 116.357 232.279 115.926 231.538 115.186 230.798 114.445 230.367 113.404 230.367 112.357 L 230.367 98.071 C 230.367 97.024 230.798 95.983 231.538 95.243 232.279 94.503 233.319 94.071 234.367 94.071" stroke="none" fill="#64d086" fill-opacity="1"></path></g><g><path d="M234.367 118.357 L 248.1 118.357 C 249.147 118.357 250.188 118.788 250.928 119.529 251.669 120.269 252.1 121.31 252.1 122.357 L 252.1 136.643 C 252.1 137.69 251.669 138.731 250.928 139.471 250.188 140.212 249.147 140.643 248.1 140.643 L 234.367 140.643 C 233.319 140.643 232.279 140.212 231.538 139.471 230.798 138.731 230.367 137.69 230.367 136.643 L 230.367 122.357 C 230.367 121.31 230.798 120.269 231.538 119.529 232.279 118.788 233.319 118.357 234.367 118.357" stroke="none" fill="#a0e3b5" fill-opacity="1"></path></g><g><path d="M234.367 142.643 L 248.1 142.643 C 249.147 142.643 250.188 143.074 250.928 143.814 251.669 144.555 252.1 145.596 252.1 146.643 L 252.1 160.929 C 252.1 161.976 251.669 163.017 250.928 163.757 250.188 164.497 249.147 164.929 248.1 164.929 L 234.367 164.929 C 233.319 164.929 232.279 164.497 231.538 163.757 230.798 163.017 230.367 161.976 230.367 160.929 L 230.367 146.643 C 230.367 145.596 230.798 144.555 231.538 143.814 232.279 143.074 233.319 142.643 234.367 142.643" stroke="none" fill="#ddf5e4" fill-opacity="1"></path></g><g><path d="M234.367 166.929 L 248.1 166.929 C 249.147 166.929 250.188 167.36 250.928 168.1 251.669 168.841 252.1 169.881 252.1 170.929 L 252.1 185.214 C 252.1 186.261 251.669 187.302 250.928 188.043 250.188 188.783 249.147 189.214 248.1 189.214 L 234.367 189.214 C 233.319 189.214 232.279 188.783 231.538 188.043 230.798 187.302 230.367 186.261 230.367 185.214 L 230.367 170.929 C 230.367 169.881 230.798 168.841 231.538 168.1 232.279 167.36 233.319 166.929 234.367 166.929" stroke="none" fill="#50ca76" fill-opacity="1"></path></g><g><path d="M234.367 191.214 L 248.1 191.214 C 249.147 191.214 250.188 191.645 250.928 192.386 251.669 193.126 252.1 194.167 252.1 195.214 L 252.1 209.5 C 252.1 210.547 251.669 211.588 250.928 212.328 250.188 213.069 249.147 213.5 248.1 213.5 L 234.367 213.5 C 233.319 213.5 232.279 213.069 231.538 212.328 230.798 211.588 230.367 210.547 230.367 209.5 L 230.367 195.214 C 230.367 194.167 230.798 193.126 231.538 192.386 232.279 191.645 233.319 191.214 234.367 191.214" stroke="none" fill="#f1fbf4" fill-opacity="1"></path></g><g><path d="M258.1 45.5 L 271.833 45.5 C 272.881 45.5 273.921 45.931 274.662 46.672 275.402 47.412 275.833 48.453 275.833 49.5 L 275.833 63.786 C 275.833 64.833 275.402 65.874 274.662 66.614 273.921 67.355 272.881 67.786 271.833 67.786 L 258.1 67.786 C 257.053 67.786 256.012 67.355 255.272 66.614 254.531 65.874 254.1 64.833 254.1 63.786 L 254.1 49.5 C 254.1 48.453 254.531 47.412 255.272 46.672 256.012 45.931 257.053 45.5 258.1 45.5" stroke="none" fill="#f1fbf4" fill-opacity="1"></path></g><g><path d="M258.1 69.786 L 271.833 69.786 C 272.881 69.786 273.921 70.217 274.662 70.957 275.402 71.698 275.833 72.739 275.833 73.786 L 275.833 88.071 C 275.833 89.119 275.402 90.159 274.662 90.9 273.921 91.64 272.881 92.071 271.833 92.071 L 258.1 92.071 C 257.053 92.071 256.012 91.64 255.272 90.9 254.531 90.159 254.1 89.119 254.1 88.071 L 254.1 73.786 C 254.1 72.739 254.531 71.698 255.272 70.957 256.012 70.217 257.053 69.786 258.1 69.786" stroke="none" fill="#78d695" fill-opacity="1"></path></g><g><path d="M258.1 94.071 L 271.833 94.071 C 272.881 94.071 273.921 94.503 274.662 95.243 275.402 95.983 275.833 97.024 275.833 98.071 L 275.833 112.357 C 275.833 113.404 275.402 114.445 274.662 115.186 273.921 115.926 272.881 116.357 271.833 116.357 L 258.1 116.357 C 257.053 116.357 256.012 115.926 255.272 115.186 254.531 114.445 254.1 113.404 254.1 112.357 L 254.1 98.071 C 254.1 97.024 254.531 95.983 255.272 95.243 256.012 94.503 257.053 94.071 258.1 94.071" stroke="none" fill="#3bc466" fill-opacity="1"></path></g><g><path d="M258.1 118.357 L 271.833 118.357 C 272.881 118.357 273.921 118.788 274.662 119.529 275.402 120.269 275.833 121.31 275.833 122.357 L 275.833 136.643 C 275.833 137.69 275.402 138.731 274.662 139.471 273.921 140.212 272.881 140.643 271.833 140.643 L 258.1 140.643 C 257.053 140.643 256.012 140.212 255.272 139.471 254.531 138.731 254.1 137.69 254.1 136.643 L 254.1 122.357 C 254.1 121.31 254.531 120.269 255.272 119.529 256.012 118.788 257.053 118.357 258.1 118.357" stroke="none" fill="#298847" fill-opacity="1"></path></g><g><path d="M258.1 142.643 L 271.833 142.643 C 272.881 142.643 273.921 143.074 274.662 143.814 275.402 144.555 275.833 145.596 275.833 146.643 L 275.833 160.929 C 275.833 161.976 275.402 163.017 274.662 163.757 273.921 164.497 272.881 164.929 271.833 164.929 L 258.1 164.929 C 257.053 164.929 256.012 164.497 255.272 163.757 254.531 163.017 254.1 161.976 254.1 160.929 L 254.1 146.643 C 254.1 145.596 254.531 144.555 255.272 143.814 256.012 143.074 257.053 142.643 258.1 142.643" stroke="none" fill="#298847" fill-opacity="1"></path></g><g><path d="M258.1 166.929 L 271.833 166.929 C 272.881 166.929 273.921 167.36 274.662 168.1 275.402 168.841 275.833 169.881 275.833 170.929 L 275.833 185.214 C 275.833 186.261 275.402 187.302 274.662 188.043 273.921 188.783 272.881 189.214 271.833 189.214 L 258.1 189.214 C 257.053 189.214 256.012 188.783 255.272 188.043 254.531 187.302 254.1 186.261 254.1 185.214 L 254.1 170.929 C 254.1 169.881 254.531 168.841 255.272 168.1 256.012 167.36 257.053 166.929 258.1 166.929" stroke="none" fill="#78d695" fill-opacity="1"></path></g><g><path d="M258.1 191.214 L 271.833 191.214 C 272.881 191.214 273.921 191.645 274.662 192.386 275.402 193.126 275.833 194.167 275.833 195.214 L 275.833 209.5 C 275.833 210.547 275.402 211.588 274.662 212.328 273.921 213.069 272.881 213.5 271.833 213.5 L 258.1 213.5 C 257.053 213.5 256.012 213.069 255.272 212.328 254.531 211.588 254.1 210.547 254.1 209.5 L 254.1 195.214 C 254.1 194.167 254.531 193.126 255.272 192.386 256.012 191.645 257.053 191.214 258.1 191.214" stroke="none" fill="#f1fbf4" fill-opacity="1"></path></g><g><path d="M281.833 45.5 L 295.567 45.5 C 296.614 45.5 297.655 45.931 298.395 46.672 299.136 47.412 299.567 48.453 299.567 49.5 L 299.567 63.786 C 299.567 64.833 299.136 65.874 298.395 66.614 297.655 67.355 296.614 67.786 295.567 67.786 L 281.833 67.786 C 280.786 67.786 279.745 67.355 279.005 66.614 278.264 65.874 277.833 64.833 277.833 63.786 L 277.833 49.5 C 277.833 48.453 278.264 47.412 279.005 46.672 279.745 45.931 280.786 45.5 281.833 45.5" stroke="none" fill="#f1fbf4" fill-opacity="1"></path></g><g><path d="M281.833 69.786 L 295.567 69.786 C 296.614 69.786 297.655 70.217 298.395 70.957 299.136 71.698 299.567 72.739 299.567 73.786 L 299.567 88.071 C 299.567 89.119 299.136 90.159 298.395 90.9 297.655 91.64 296.614 92.071 295.567 92.071 L 281.833 92.071 C 280.786 92.071 279.745 91.64 279.005 90.9 278.264 90.159 277.833 89.119 277.833 88.071 L 277.833 73.786 C 277.833 72.739 278.264 71.698 279.005 70.957 279.745 70.217 280.786 69.786 281.833 69.786" stroke="none" fill="#a0e3b5" fill-opacity="1"></path></g><g><path d="M281.833 94.071 L 295.567 94.071 C 296.614 94.071 297.655 94.503 298.395 95.243 299.136 95.983 299.567 97.024 299.567 98.071 L 299.567 112.357 C 299.567 113.404 299.136 114.445 298.395 115.186 297.655 115.926 296.614 116.357 295.567 116.357 L 281.833 116.357 C 280.786 116.357 279.745 115.926 279.005 115.186 278.264 114.445 277.833 113.404 277.833 112.357 L 277.833 98.071 C 277.833 97.024 278.264 95.983 279.005 95.243 279.745 94.503 280.786 94.071 281.833 94.071" stroke="none" fill="#64d086" fill-opacity="1"></path></g><g><path d="M281.833 118.357 L 295.567 118.357 C 296.614 118.357 297.655 118.788 298.395 119.529 299.136 120.269 299.567 121.31 299.567 122.357 L 299.567 136.643 C 299.567 137.69 299.136 138.731 298.395 139.471 297.655 140.212 296.614 140.643 295.567 140.643 L 281.833 140.643 C 280.786 140.643 279.745 140.212 279.005 139.471 278.264 138.731 277.833 137.69 277.833 136.643 L 277.833 122.357 C 277.833 121.31 278.264 120.269 279.005 119.529 279.745 118.788 280.786 118.357 281.833 118.357" stroke="none" fill="#35b15b" fill-opacity="1"></path></g><g><path d="M281.833 142.643 L 295.567 142.643 C 296.614 142.643 297.655 143.074 298.395 143.814 299.136 144.555 299.567 145.596 299.567 146.643 L 299.567 160.929 C 299.567 161.976 299.136 163.017 298.395 163.757 297.655 164.497 296.614 164.929 295.567 164.929 L 281.833 164.929 C 280.786 164.929 279.745 164.497 279.005 163.757 278.264 163.017 277.833 161.976 277.833 160.929 L 277.833 146.643 C 277.833 145.596 278.264 144.555 279.005 143.814 279.745 143.074 280.786 142.643 281.833 142.643" stroke="none" fill="#35b15b" fill-opacity="1"></path></g><g><path d="M281.833 166.929 L 295.567 166.929 C 296.614 166.929 297.655 167.36 298.395 168.1 299.136 168.841 299.567 169.881 299.567 170.929 L 299.567 185.214 C 299.567 186.261 299.136 187.302 298.395 188.043 297.655 188.783 296.614 189.214 295.567 189.214 L 281.833 189.214 C 280.786 189.214 279.745 188.783 279.005 188.043 278.264 187.302 277.833 186.261 277.833 185.214 L 277.833 170.929 C 277.833 169.881 278.264 168.841 279.005 168.1 279.745 167.36 280.786 166.929 281.833 166.929" stroke="none" fill="#50ca76" fill-opacity="1"></path></g><g><path d="M281.833 191.214 L 295.567 191.214 C 296.614 191.214 297.655 191.645 298.395 192.386 299.136 193.126 299.567 194.167 299.567 195.214 L 299.567 209.5 C 299.567 210.547 299.136 211.588 298.395 212.328 297.655 213.069 296.614 213.5 295.567 213.5 L 281.833 213.5 C 280.786 213.5 279.745 213.069 279.005 212.328 278.264 211.588 277.833 210.547 277.833 209.5 L 277.833 195.214 C 277.833 194.167 278.264 193.126 279.005 192.386 279.745 191.645 280.786 191.214 281.833 191.214" stroke="none" fill="#f1fbf4" fill-opacity="1"></path></g><g><path d="M305.567 45.5 L 319.3 45.5 C 320.347 45.5 321.388 45.931 322.128 46.672 322.869 47.412 323.3 48.453 323.3 49.5 L 323.3 63.786 C 323.3 64.833 322.869 65.874 322.128 66.614 321.388 67.355 320.347 67.786 319.3 67.786 L 305.567 67.786 C 304.519 67.786 303.479 67.355 302.738 66.614 301.998 65.874 301.567 64.833 301.567 63.786 L 301.567 49.5 C 301.567 48.453 301.998 47.412 302.738 46.672 303.479 45.931 304.519 45.5 305.567 45.5" stroke="none" fill="#f1fbf4" fill-opacity="1"></path></g><g><path d="M305.567 69.786 L 319.3 69.786 C 320.347 69.786 321.388 70.217 322.128 70.957 322.869 71.698 323.3 72.739 323.3 73.786 L 323.3 88.071 C 323.3 89.119 322.869 90.159 322.128 90.9 321.388 91.64 320.347 92.071 319.3 92.071 L 305.567 92.071 C 304.519 92.071 303.479 91.64 302.738 90.9 301.998 90.159 301.567 89.119 301.567 88.071 L 301.567 73.786 C 301.567 72.739 301.998 71.698 302.738 70.957 303.479 70.217 304.519 69.786 305.567 69.786" stroke="none" fill="#a0e3b5" fill-opacity="1"></path></g><g><path d="M305.567 94.071 L 319.3 94.071 C 320.347 94.071 321.388 94.503 322.128 95.243 322.869 95.983 323.3 97.024 323.3 98.071 L 323.3 112.357 C 323.3 113.404 322.869 114.445 322.128 115.186 321.388 115.926 320.347 116.357 319.3 116.357 L 305.567 116.357 C 304.519 116.357 303.479 115.926 302.738 115.186 301.998 114.445 301.567 113.404 301.567 112.357 L 301.567 98.071 C 301.567 97.024 301.998 95.983 302.738 95.243 303.479 94.503 304.519 94.071 305.567 94.071" stroke="none" fill="#64d086" fill-opacity="1"></path></g><g><path d="M305.567 118.357 L 319.3 118.357 C 320.347 118.357 321.388 118.788 322.128 119.529 322.869 120.269 323.3 121.31 323.3 122.357 L 323.3 136.643 C 323.3 137.69 322.869 138.731 322.128 139.471 321.388 140.212 320.347 140.643 319.3 140.643 L 305.567 140.643 C 304.519 140.643 303.479 140.212 302.738 139.471 301.998 138.731 301.567 137.69 301.567 136.643 L 301.567 122.357 C 301.567 121.31 301.998 120.269 302.738 119.529 303.479 118.788 304.519 118.357 305.567 118.357" stroke="none" fill="#50ca76" fill-opacity="1"></path></g><g><path d="M305.567 142.643 L 319.3 142.643 C 320.347 142.643 321.388 143.074 322.128 143.814 322.869 144.555 323.3 145.596 323.3 146.643 L 323.3 160.929 C 323.3 161.976 322.869 163.017 322.128 163.757 321.388 164.497 320.347 164.929 319.3 164.929 L 305.567 164.929 C 304.519 164.929 303.479 164.497 302.738 163.757 301.998 163.017 301.567 161.976 301.567 160.929 L 301.567 146.643 C 301.567 145.596 301.998 144.555 302.738 143.814 303.479 143.074 304.519 142.643 305.567 142.643" stroke="none" fill="#35b15b" fill-opacity="1"></path></g><g><path d="M305.567 166.929 L 319.3 166.929 C 320.347 166.929 321.388 167.36 322.128 168.1 322.869 168.841 323.3 169.881 323.3 170.929 L 323.3 185.214 C 323.3 186.261 322.869 187.302 322.128 188.043 321.388 188.783 320.347 189.214 319.3 189.214 L 305.567 189.214 C 304.519 189.214 303.479 188.783 302.738 188.043 301.998 187.302 301.567 186.261 301.567 185.214 L 301.567 170.929 C 301.567 169.881 301.998 168.841 302.738 168.1 303.479 167.36 304.519 166.929 305.567 166.929" stroke="none" fill="#a0e3b5" fill-opacity="1"></path></g><g><path d="M305.567 191.214 L 319.3 191.214 C 320.347 191.214 321.388 191.645 322.128 192.386 322.869 193.126 323.3 194.167 323.3 195.214 L 323.3 209.5 C 323.3 210.547 322.869 211.588 322.128 212.328 321.388 213.069 320.347 213.5 319.3 213.5 L 305.567 213.5 C 304.519 213.5 303.479 213.069 302.738 212.328 301.998 211.588 301.567 210.547 301.567 209.5 L 301.567 195.214 C 301.567 194.167 301.998 193.126 302.738 192.386 303.479 191.645 304.519 191.214 305.567 191.214" stroke="none" fill="#f1fbf4" fill-opacity="1"></path></g><g><path d="M329.3 45.5 L 343.033 45.5 C 344.081 45.5 345.121 45.931 345.862 46.672 346.602 47.412 347.033 48.453 347.033 49.5 L 347.033 63.786 C 347.033 64.833 346.602 65.874 345.862 66.614 345.121 67.355 344.081 67.786 343.033 67.786 L 329.3 67.786 C 328.253 67.786 327.212 67.355 326.472 66.614 325.731 65.874 325.3 64.833 325.3 63.786 L 325.3 49.5 C 325.3 48.453 325.731 47.412 326.472 46.672 327.212 45.931 328.253 45.5 329.3 45.5" stroke="none" fill="#f1fbf4" fill-opacity="1"></path></g><g><path d="M329.3 69.786 L 343.033 69.786 C 344.081 69.786 345.121 70.217 345.862 70.957 346.602 71.698 347.033 72.739 347.033 73.786 L 347.033 88.071 C 347.033 89.119 346.602 90.159 345.862 90.9 345.121 91.64 344.081 92.071 343.033 92.071 L 329.3 92.071 C 328.253 92.071 327.212 91.64 326.472 90.9 325.731 90.159 325.3 89.119 325.3 88.071 L 325.3 73.786 C 325.3 72.739 325.731 71.698 326.472 70.957 327.212 70.217 328.253 69.786 329.3 69.786" stroke="none" fill="#a0e3b5" fill-opacity="1"></path></g><g><path d="M329.3 94.071 L 343.033 94.071 C 344.081 94.071 345.121 94.503 345.862 95.243 346.602 95.983 347.033 97.024 347.033 98.071 L 347.033 112.357 C 347.033 113.404 346.602 114.445 345.862 115.186 345.121 115.926 344.081 116.357 343.033 116.357 L 329.3 116.357 C 328.253 116.357 327.212 115.926 326.472 115.186 325.731 114.445 325.3 113.404 325.3 112.357 L 325.3 98.071 C 325.3 97.024 325.731 95.983 326.472 95.243 327.212 94.503 328.253 94.071 329.3 94.071" stroke="none" fill="#64d086" fill-opacity="1"></path></g><g><path d="M329.3 118.357 L 343.033 118.357 C 344.081 118.357 345.121 118.788 345.862 119.529 346.602 120.269 347.033 121.31 347.033 122.357 L 347.033 136.643 C 347.033 137.69 346.602 138.731 345.862 139.471 345.121 140.212 344.081 140.643 343.033 140.643 L 329.3 140.643 C 328.253 140.643 327.212 140.212 326.472 139.471 325.731 138.731 325.3 137.69 325.3 136.643 L 325.3 122.357 C 325.3 121.31 325.731 120.269 326.472 119.529 327.212 118.788 328.253 118.357 329.3 118.357" stroke="none" fill="#2f9c51" fill-opacity="1"></path></g><g><path d="M329.3 142.643 L 343.033 142.643 C 344.081 142.643 345.121 143.074 345.862 143.814 346.602 144.555 347.033 145.596 347.033 146.643 L 347.033 160.929 C 347.033 161.976 346.602 163.017 345.862 163.757 345.121 164.497 344.081 164.929 343.033 164.929 L 329.3 164.929 C 328.253 164.929 327.212 164.497 326.472 163.757 325.731 163.017 325.3 161.976 325.3 160.929 L 325.3 146.643 C 325.3 145.596 325.731 144.555 326.472 143.814 327.212 143.074 328.253 142.643 329.3 142.643" stroke="none" fill="#f1fbf4" fill-opacity="1"></path></g><g><path d="M329.3 166.929 L 343.033 166.929 C 344.081 166.929 345.121 167.36 345.862 168.1 346.602 168.841 347.033 169.881 347.033 170.929 L 347.033 185.214 C 347.033 186.261 346.602 187.302 345.862 188.043 345.121 188.783 344.081 189.214 343.033 189.214 L 329.3 189.214 C 328.253 189.214 327.212 188.783 326.472 188.043 325.731 187.302 325.3 186.261 325.3 185.214 L 325.3 170.929 C 325.3 169.881 325.731 168.841 326.472 168.1 327.212 167.36 328.253 166.929 329.3 166.929" stroke="none" fill="#50ca76" fill-opacity="1"></path></g><g><path d="M329.3 191.214 L 343.033 191.214 C 344.081 191.214 345.121 191.645 345.862 192.386 346.602 193.126 347.033 194.167 347.033 195.214 L 347.033 209.5 C 347.033 210.547 346.602 211.588 345.862 212.328 345.121 213.069 344.081 213.5 343.033 213.5 L 329.3 213.5 C 328.253 213.5 327.212 213.069 326.472 212.328 325.731 211.588 325.3 210.547 325.3 209.5 L 325.3 195.214 C 325.3 194.167 325.731 193.126 326.472 192.386 327.212 191.645 328.253 191.214 329.3 191.214" stroke="none" fill="#f1fbf4" fill-opacity="1"></path></g><g><path d="M353.033 45.5 L 366.767 45.5 C 367.814 45.5 368.855 45.931 369.595 46.672 370.336 47.412 370.767 48.453 370.767 49.5 L 370.767 63.786 C 370.767 64.833 370.336 65.874 369.595 66.614 368.855 67.355 367.814 67.786 366.767 67.786 L 353.033 67.786 C 351.986 67.786 350.945 67.355 350.205 66.614 349.464 65.874 349.033 64.833 349.033 63.786 L 349.033 49.5 C 349.033 48.453 349.464 47.412 350.205 46.672 350.945 45.931 351.986 45.5 353.033 45.5" stroke="none" fill="#f1fbf4" fill-opacity="1"></path></g><g><path d="M353.033 69.786 L 366.767 69.786 C 367.814 69.786 368.855 70.217 369.595 70.957 370.336 71.698 370.767 72.739 370.767 73.786 L 370.767 88.071 C 370.767 89.119 370.336 90.159 369.595 90.9 368.855 91.64 367.814 92.071 366.767 92.071 L 353.033 92.071 C 351.986 92.071 350.945 91.64 350.205 90.9 349.464 90.159 349.033 89.119 349.033 88.071 L 349.033 73.786 C 349.033 72.739 349.464 71.698 350.205 70.957 350.945 70.217 351.986 69.786 353.033 69.786" stroke="none" fill="#78d695" fill-opacity="1"></path></g><g><path d="M353.033 94.071 L 366.767 94.071 C 367.814 94.071 368.855 94.503 369.595 95.243 370.336 95.983 370.767 97.024 370.767 98.071 L 370.767 112.357 C 370.767 113.404 370.336 114.445 369.595 115.186 368.855 115.926 367.814 116.357 366.767 116.357 L 353.033 116.357 C 351.986 116.357 350.945 115.926 350.205 115.186 349.464 114.445 349.033 113.404 349.033 112.357 L 349.033 98.071 C 349.033 97.024 349.464 95.983 350.205 95.243 350.945 94.503 351.986 94.071 353.033 94.071" stroke="none" fill="#3bc466" fill-opacity="1"></path></g><g><path d="M353.033 118.357 L 366.767 118.357 C 367.814 118.357 368.855 118.788 369.595 119.529 370.336 120.269 370.767 121.31 370.767 122.357 L 370.767 136.643 C 370.767 137.69 370.336 138.731 369.595 139.471 368.855 140.212 367.814 140.643 366.767 140.643 L 353.033 140.643 C 351.986 140.643 350.945 140.212 350.205 139.471 349.464 138.731 349.033 137.69 349.033 136.643 L 349.033 122.357 C 349.033 121.31 349.464 120.269 350.205 119.529 350.945 118.788 351.986 118.357 353.033 118.357" stroke="none" fill="#78d695" fill-opacity="1"></path></g><g><path d="M353.033 142.643 L 366.767 142.643 C 367.814 142.643 368.855 143.074 369.595 143.814 370.336 144.555 370.767 145.596 370.767 146.643 L 370.767 160.929 C 370.767 161.976 370.336 163.017 369.595 163.757 368.855 164.497 367.814 164.929 366.767 164.929 L 353.033 164.929 C 351.986 164.929 350.945 164.497 350.205 163.757 349.464 163.017 349.033 161.976 349.033 160.929 L 349.033 146.643 C 349.033 145.596 349.464 144.555 350.205 143.814 350.945 143.074 351.986 142.643 353.033 142.643" stroke="none" fill="#50ca76" fill-opacity="1"></path></g><g><path d="M353.033 166.929 L 366.767 166.929 C 367.814 166.929 368.855 167.36 369.595 168.1 370.336 168.841 370.767 169.881 370.767 170.929 L 370.767 185.214 C 370.767 186.261 370.336 187.302 369.595 188.043 368.855 188.783 367.814 189.214 366.767 189.214 L 353.033 189.214 C 351.986 189.214 350.945 188.783 350.205 188.043 349.464 187.302 349.033 186.261 349.033 185.214 L 349.033 170.929 C 349.033 169.881 349.464 168.841 350.205 168.1 350.945 167.36 351.986 166.929 353.033 166.929" stroke="none" fill="#78d695" fill-opacity="1"></path></g><g><path d="M353.033 191.214 L 366.767 191.214 C 367.814 191.214 368.855 191.645 369.595 192.386 370.336 193.126 370.767 194.167 370.767 195.214 L 370.767 209.5 C 370.767 210.547 370.336 211.588 369.595 212.328 368.855 213.069 367.814 213.5 366.767 213.5 L 353.033 213.5 C 351.986 213.5 350.945 213.069 350.205 212.328 349.464 211.588 349.033 210.547 349.033 209.5 L 349.033 195.214 C 349.033 194.167 349.464 193.126 350.205 192.386 350.945 191.645 351.986 191.214 353.033 191.214" stroke="none" fill="#f1fbf4" fill-opacity="1"></path></g><g><path d="M376.767 45.5 L 390.5 45.5 C 391.547 45.5 392.588 45.931 393.328 46.672 394.069 47.412 394.5 48.453 394.5 49.5 L 394.5 63.786 C 394.5 64.833 394.069 65.874 393.328 66.614 392.588 67.355 391.547 67.786 390.5 67.786 L 376.767 67.786 C 375.719 67.786 374.679 67.355 373.938 66.614 373.198 65.874 372.767 64.833 372.767 63.786 L 372.767 49.5 C 372.767 48.453 373.198 47.412 373.938 46.672 374.679 45.931 375.719 45.5 376.767 45.5" stroke="none" fill="#f1fbf4" fill-opacity="1"></path></g><g><path d="M376.767 69.786 L 390.5 69.786 C 391.547 69.786 392.588 70.217 393.328 70.957 394.069 71.698 394.5 72.739 394.5 73.786 L 394.5 88.071 C 394.5 89.119 394.069 90.159 393.328 90.9 392.588 91.64 391.547 92.071 390.5 92.071 L 376.767 92.071 C 375.719 92.071 374.679 91.64 373.938 90.9 373.198 90.159 372.767 89.119 372.767 88.071 L 372.767 73.786 C 372.767 72.739 373.198 71.698 373.938 70.957 374.679 70.217 375.719 69.786 376.767 69.786" stroke="none" fill="#a0e3b5" fill-opacity="1"></path></g><g><path d="M376.767 94.071 L 390.5 94.071 C 391.547 94.071 392.588 94.503 393.328 95.243 394.069 95.983 394.5 97.024 394.5 98.071 L 394.5 112.357 C 394.5 113.404 394.069 114.445 393.328 115.186 392.588 115.926 391.547 116.357 390.5 116.357 L 376.767 116.357 C 375.719 116.357 374.679 115.926 373.938 115.186 373.198 114.445 372.767 113.404 372.767 112.357 L 372.767 98.071 C 372.767 97.024 373.198 95.983 373.938 95.243 374.679 94.503 375.719 94.071 376.767 94.071" stroke="none" fill="#64d086" fill-opacity="1"></path></g><g><path d="M376.767 118.357 L 390.5 118.357 C 391.547 118.357 392.588 118.788 393.328 119.529 394.069 120.269 394.5 121.31 394.5 122.357 L 394.5 136.643 C 394.5 137.69 394.069 138.731 393.328 139.471 392.588 140.212 391.547 140.643 390.5 140.643 L 376.767 140.643 C 375.719 140.643 374.679 140.212 373.938 139.471 373.198 138.731 372.767 137.69 372.767 136.643 L 372.767 122.357 C 372.767 121.31 373.198 120.269 373.938 119.529 374.679 118.788 375.719 118.357 376.767 118.357" stroke="none" fill="#64d086" fill-opacity="1"></path></g><g><path d="M376.767 142.643 L 390.5 142.643 C 391.547 142.643 392.588 143.074 393.328 143.814 394.069 144.555 394.5 145.596 394.5 146.643 L 394.5 160.929 C 394.5 161.976 394.069 163.017 393.328 163.757 392.588 164.497 391.547 164.929 390.5 164.929 L 376.767 164.929 C 375.719 164.929 374.679 164.497 373.938 163.757 373.198 163.017 372.767 161.976 372.767 160.929 L 372.767 146.643 C 372.767 145.596 373.198 144.555 373.938 143.814 374.679 143.074 375.719 142.643 376.767 142.643" stroke="none" fill="#35b15b" fill-opacity="1"></path></g><g><path d="M376.767 166.929 L 390.5 166.929 C 391.547 166.929 392.588 167.36 393.328 168.1 394.069 168.841 394.5 169.881 394.5 170.929 L 394.5 185.214 C 394.5 186.261 394.069 187.302 393.328 188.043 392.588 188.783 391.547 189.214 390.5 189.214 L 376.767 189.214 C 375.719 189.214 374.679 188.783 373.938 188.043 373.198 187.302 372.767 186.261 372.767 185.214 L 372.767 170.929 C 372.767 169.881 373.198 168.841 373.938 168.1 374.679 167.36 375.719 166.929 376.767 166.929" stroke="none" fill="#50ca76" fill-opacity="1"></path></g><g><path d="M376.767 191.214 L 390.5 191.214 C 391.547 191.214 392.588 191.645 393.328 192.386 394.069 193.126 394.5 194.167 394.5 195.214 L 394.5 209.5 C 394.5 210.547 394.069 211.588 393.328 212.328 392.588 213.069 391.547 213.5 390.5 213.5 L 376.767 213.5 C 375.719 213.5 374.679 213.069 373.938 212.328 373.198 211.588 372.767 210.547 372.767 209.5 L 372.767 195.214 C 372.767 194.167 373.198 193.126 373.938 192.386 374.679 191.645 375.719 191.214 376.767 191.214" stroke="none" fill="#f1fbf4" fill-opacity="1"></path></g></g></g><g><text style="font:400 11.998px -apple-system, BlinkMacSystemFont, &quot;Segoe UI&quot;, Roboto, &quot;Helvetica Neue&quot;, Arial, sans-serif, &quot;Apple Color Emoji&quot;, &quot;Segoe UI Emoji&quot;, &quot;Segoe UI Symbol&quot;, &quot;Noto Color Emoji&quot;;white-space:pre;" x="30" y="56.143" stroke="none" fill="rgb(66, 66, 66)" fill-opacity="1"></text></g><g><text style="font:400 11.998px -apple-system, BlinkMacSystemFont, &quot;Segoe UI&quot;, Roboto, &quot;Helvetica Neue&quot;, Arial, sans-serif, &quot;Apple Color Emoji&quot;, &quot;Segoe UI Emoji&quot;, &quot;Segoe UI Symbol&quot;, &quot;Noto Color Emoji&quot;;white-space:pre;" x="5" y="85.4285" stroke="none" fill="rgb(66, 66, 66)" fill-opacity="1">Mon</text></g><g><text style="font:400 11.998px -apple-system, BlinkMacSystemFont, &quot;Segoe UI&quot;, Roboto, &quot;Helvetica Neue&quot;, Arial, sans-serif, &quot;Apple Color Emoji&quot;, &quot;Segoe UI Emoji&quot;, &quot;Segoe UI Symbol&quot;, &quot;Noto Color Emoji&quot;;white-space:pre;" x="30" y="104.714" stroke="none" fill="rgb(66, 66, 66)" fill-opacity="1"></text></g><g><text style="font:400 11.998px -apple-system, BlinkMacSystemFont, &quot;Segoe UI&quot;, Roboto, &quot;Helvetica Neue&quot;, Arial, sans-serif, &quot;Apple Color Emoji&quot;, &quot;Segoe UI Emoji&quot;, &quot;Segoe UI Symbol&quot;, &quot;Noto Color Emoji&quot;;white-space:pre;" x="5" y="134" stroke="none" fill="rgb(66, 66, 66)" fill-opacity="1">Wed</text></g><g><text style="font:400 11.998px -apple-system, BlinkMacSystemFont, &quot;Segoe UI&quot;, Roboto, &quot;Helvetica Neue&quot;, Arial, sans-serif, &quot;Apple Color Emoji&quot;, &quot;Segoe UI Emoji&quot;, &quot;Segoe UI Symbol&quot;, &quot;Noto Color Emoji&quot;;white-space:pre;" x="30" y="153.286" stroke="none" fill="rgb(66, 66, 66)" fill-opacity="1"></text></g><g><text style="font:400 11.998px -apple-system, BlinkMacSystemFont, &quot;Segoe UI&quot;, Roboto, &quot;Helvetica Neue&quot;, Arial, sans-serif, &quot;Apple Color Emoji&quot;, &quot;Segoe UI Emoji&quot;, &quot;Segoe UI Symbol&quot;, &quot;Noto Color Emoji&quot;;white-space:pre;" x="16" y="182.57150000000001" stroke="none" fill="rgb(66, 66, 66)" fill-opacity="1">Fri</text></g><g><text style="font:400 11.998px -apple-system, BlinkMacSystemFont, &quot;Segoe UI&quot;, Roboto, &quot;Helvetica Neue&quot;, Arial, sans-serif, &quot;Apple Color Emoji&quot;, &quot;Segoe UI Emoji&quot;, &quot;Segoe UI Symbol&quot;, &quot;Noto Color Emoji&quot;;white-space:pre;" x="30" y="201.857" stroke="none" fill="rgb(66, 66, 66)" fill-opacity="1"></text></g></g><g><g><text style="font:400 16.002px -apple-system, BlinkMacSystemFont, &quot;Segoe UI&quot;, Roboto, &quot;Helvetica Neue&quot;, Arial, sans-serif, &quot;Apple Color Emoji&quot;, &quot;Segoe UI Emoji&quot;, &quot;Segoe UI Symbol&quot;, &quot;Noto Color Emoji&quot;;white-space:pre;" x="138.5" y="31" stroke="none" fill="rgb(66, 66, 66)" fill-opacity="1">Contributions per day</text></g></g><g></g></g></svg>