<svg style="width:100%;height:100%" viewBox="0 0 858 400" xmlns="http://www.w3.org/2000/svg" overflow="hidden"><defs><clipPath id="a"><path d="M34.5 50.5h818v296h-818z" stroke="#000" fill="none"></path></clipPath><clipPath id="b"><path d="M0 0h858v400H0z" stroke="#000" fill="none"></path></clipPath></defs><path d="M0 0h858v400H0z" fill="#FFF"></path><path d="M34 50h818v296H34z" fill="none"></path><g stroke="rgba(0, 0, 0, 0.08)" fill="none"><path d="M151.5 50.5v296M268.5 50.5v296M385.5 50.5v296M501.5 50.5v296M618.5 50.5v296M735.5 50.5v296M852.5 50.5v296"></path></g><g stroke="rgba(0, 0, 0, 0.08)" fill="none"><path d="M34.5 304.5h818M34.5 261.5h818M34.5 219.5h818M34.5 177.5h818M34.5 135.5h818M34.5 92.5h818M34.5 50.5h818"></path></g><g stroke="rgba(0, 0, 0, 0.08)" fill="none"><path d="M34.5 346.5h818M34.5 346.5v4M151.5 346.5v4M268.5 346.5v4M385.5 346.5v4M501.5 346.5v4M618.5 346.5v4M735.5 346.5v4M852.5 346.5v4"></path></g><g clip-path="url(#a)"><g clip-path="url(#b)" stroke-width="2"><path d="M92.429 241.977l116.857-129.394 116.857-28.754L443 166.709l116.857-23.68 116.857 71.04 116.857 49.051" stroke="#FF6358" fill="none"></path><path d="M92.429 206.457L209.286 168.4l116.857-65.12L443 224.217l116.857-38.903 116.857 19.452 116.857-38.057" stroke="#FFD246" fill="none"></path><path d="M92.429 298.64l116.857-71.04 116.857-46.514L443 307.097l116.857-65.12 116.857 38.057 116.857-14.377" stroke="#78D237" fill="none"></path><circle cx="92.429" cy="241.977" r="4" stroke="#FF6358" fill="#fff"></circle><circle cx="92.429" cy="206.457" r="4" stroke="#FFD246" fill="#fff"></circle><circle cx="92.429" cy="298.64" r="4" stroke="#78D237" fill="#fff"></circle><circle cx="209.286" cy="112.583" r="4" stroke="#FF6358" fill="#fff"></circle><circle cx="209.286" cy="168.4" r="4" stroke="#FFD246" fill="#fff"></circle><circle cx="209.286" cy="227.6" r="4" stroke="#78D237" fill="#fff"></circle><circle cx="326.143" cy="83.829" r="4" stroke="#FF6358" fill="#fff"></circle><circle cx="326.143" cy="103.28" r="4" stroke="#FFD246" fill="#fff"></circle><circle cx="326.143" cy="181.086" r="4" stroke="#78D237" fill="#fff"></circle><circle cx="443" cy="166.709" r="4" stroke="#FF6358" fill="#fff"></circle><circle cx="443" cy="224.217" r="4" stroke="#FFD246" fill="#fff"></circle><circle cx="443" cy="307.097" r="4" stroke="#78D237" fill="#fff"></circle><circle cx="559.857" cy="143.029" r="4" stroke="#FF6358" fill="#fff"></circle><circle cx="559.857" cy="185.314" r="4" stroke="#FFD246" fill="#fff"></circle><circle cx="559.857" cy="241.977" r="4" stroke="#78D237" fill="#fff"></circle><circle cx="676.714" cy="214.069" r="4" stroke="#FF6358" fill="#fff"></circle><circle cx="676.714" cy="204.766" r="4" stroke="#FFD246" fill="#fff"></circle><circle cx="676.714" cy="280.034" r="4" stroke="#78D237" fill="#fff"></circle><circle cx="793.571" cy="263.12" r="4" stroke="#FF6358" fill="#fff"></circle><circle cx="793.571" cy="166.709" r="4" stroke="#FFD246" fill="#fff"></circle><circle cx="793.571" cy="265.657" r="4" stroke="#78D237" fill="#fff"></circle></g></g><text style="font:14px RobotoRegular,Helvetica,Arial,sans-serif;white-space:pre" x="420.5" y="387" fill="#656565">Months</text><text style="font:11.998px RobotoRegular,Helvetica,Arial,sans-serif;white-space:pre" x="82.928" y="366" fill="#656565">Jan</text><text style="font:11.998px RobotoRegular,Helvetica,Arial,sans-serif;white-space:pre" x="198.786" y="366" fill="#656565">Feb</text><text style="font:11.998px RobotoRegular,Helvetica,Arial,sans-serif;white-space:pre" x="315.643" y="366" fill="#656565">Mar</text><text style="font:11.998px RobotoRegular,Helvetica,Arial,sans-serif;white-space:pre" x="433.5" y="366" fill="#656565">Apr</text><text style="font:11.998px RobotoRegular,Helvetica,Arial,sans-serif;white-space:pre" x="548.357" y="366" fill="#656565">May</text><text style="font:11.998px RobotoRegular,Helvetica,Arial,sans-serif;white-space:pre" x="667.215" y="366" fill="#656565">Jun</text><text style="font:11.998px RobotoRegular,Helvetica,Arial,sans-serif;white-space:pre" x="786.072" y="366" fill="#656565">Jul</text><g stroke="rgba(0, 0, 0, 0.08)" fill="none"><path d="M34.5 50.5v296M30.5 346.5h4M30.5 304.5h4M30.5 261.5h4M30.5 219.5h4M30.5 177.5h4M30.5 135.5h4M30.5 92.5h4M30.5 50.5h4"></path></g><text style="font:11.998px RobotoRegular,Helvetica,Arial,sans-serif;white-space:pre" x="18" y="350" fill="#656565">0</text><text style="font:11.998px RobotoRegular,Helvetica,Arial,sans-serif;white-space:pre" x="12" y="307.714" fill="#656565">50</text><text style="font:11.998px RobotoRegular,Helvetica,Arial,sans-serif;white-space:pre" x="5" y="265.429" fill="#656565">100</text><text style="font:11.998px RobotoRegular,Helvetica,Arial,sans-serif;white-space:pre" x="5" y="223.143" fill="#656565">150</text><text style="font:11.998px RobotoRegular,Helvetica,Arial,sans-serif;white-space:pre" x="5" y="180.857" fill="#656565">200</text><text style="font:11.998px RobotoRegular,Helvetica,Arial,sans-serif;white-space:pre" x="5" y="138.571" fill="#656565">250</text><text style="font:11.998px RobotoRegular,Helvetica,Arial,sans-serif;white-space:pre" x="5" y="96.286" fill="#656565">300</text><text style="font:11.998px RobotoRegular,Helvetica,Arial,sans-serif;white-space:pre" x="5" y="54" fill="#656565">350</text><g><text style="font:16.002px RobotoRegular,Helvetica,Arial,sans-serif;white-space:pre" x="394" y="29" fill="#656565">Units sold</text></g></svg>