<svg style="width:100%;height:100%" viewBox="0 0 858 400" xmlns="http://www.w3.org/2000/svg" overflow="hidden"><path d="M0 0h858v400H0z" fill="#FFF"></path><path d="M0 0z" fill="none"></path><path d="M356 21.5h15v3h-15z" fill="orange"></path><text style="font:14px RobotoRegular,Helvetica,Arial,sans-serif;white-space:pre" x="21" y="13" fill="#656565" transform="translate(356 15)">Eaten</text><path d="M356 15h58v16h-58z" fill="none" cursor="pointer"></path><g><path d="M420 21.5h15v3h-15z" fill="#ffe"></path><text style="font:14px RobotoRegular,Helvetica,Arial,sans-serif;white-space:pre" x="21" y="13" fill="#656565" transform="translate(420 15)">Not eaten</text><path d="M420 15h82v16h-82z" fill="none" cursor="pointer"></path></g><g><path d="M429 94.1c27.247 0 54.41 9.3 75.939 26 21.53 16.7 37.292 40.696 44.068 67.087 6.777 26.391 4.524 55.014-6.297 80.02-10.821 25.006-30.144 46.241-54.021 59.367L429 218z" fill="orange"></path><path d="M488.689 326.574c-26.378 14.502-58.141 18.921-87.476 12.17-29.335-6.751-55.972-24.61-73.357-49.183-17.386-24.573-25.362-55.635-21.964-85.544 3.397-29.909 18.135-58.391 40.589-78.439C368.935 105.53 398.899 94.1 429 94.1V218z" fill="#ffe"></path></g></svg>