<svg style="width:100%;height:100%" viewBox="0 0 858 400" xmlns="http://www.w3.org/2000/svg" overflow="hidden"><defs><clipPath id="a"><path d="M0 0h858v400H0z" stroke="#000" fill="none"></path></clipPath></defs><path d="M0 0h858v400H0z" fill="#FFF"></path><path d="M57.8 95.8h742.4V219H57.8z" fill="none"></path><g stroke="rgba(0, 0, 0, 0.08)" fill="none"><path d="M429 219v123.2M429 219l61.6 106.694M429 219l106.694 61.6M429 219h123.2M429 219l106.694-61.6M429 219l61.6-106.694M429 219l-61.6-106.694M429 219l-106.694-61.6M429 219H305.8M429 219l-106.694 61.6M429 219l-61.6 106.694"></path></g><g stroke="rgba(0, 0, 0, 0.08)" fill="none"><circle cx="429" cy="219" r="20.533"></circle><circle cx="429" cy="219" r="41.067"></circle><circle cx="429" cy="219" r="61.6"></circle><circle cx="429" cy="219" r="82.133"></circle><circle cx="429" cy="219" r="102.667"></circle><circle cx="429" cy="219" r="123.2"></circle></g><g stroke="rgba(0, 0, 0, 0.08)" fill="none"><path d="M429.5 96.5v123M425.5 219.5h4M425.5 198.5h4M425.5 178.5h4M425.5 157.5h4M425.5 137.5h4M425.5 116.5h4M425.5 96.5h4"></path></g><text style="font:11.998px RobotoRegular,Helvetica,Arial,sans-serif;white-space:pre" x="425.5" y="363.2" fill="#656565">0</text><text style="font:11.998px RobotoRegular,Helvetica,Arial,sans-serif;white-space:pre" x="500.6" y="346.694" fill="#656565">30</text><text style="font:11.998px RobotoRegular,Helvetica,Arial,sans-serif;white-space:pre" x="545.694" y="301.6" fill="#656565">60</text><text style="font:11.998px RobotoRegular,Helvetica,Arial,sans-serif;white-space:pre" x="562.2" y="223" fill="#656565">90</text><text style="font:11.998px RobotoRegular,Helvetica,Arial,sans-serif;white-space:pre" x="545.694" y="144.4" fill="#656565">120</text><text style="font:11.998px RobotoRegular,Helvetica,Arial,sans-serif;white-space:pre" x="500.6" y="99.306" fill="#656565">150</text><text style="font:11.998px RobotoRegular,Helvetica,Arial,sans-serif;white-space:pre" x="419" y="82.8" fill="#656565">180</text><text style="font:11.998px RobotoRegular,Helvetica,Arial,sans-serif;white-space:pre" x="337.4" y="99.306" fill="#656565">210</text><text style="font:11.998px RobotoRegular,Helvetica,Arial,sans-serif;white-space:pre" x="292.306" y="144.4" fill="#656565">240</text><text style="font:11.998px RobotoRegular,Helvetica,Arial,sans-serif;white-space:pre" x="275.8" y="223" fill="#656565">270</text><text style="font:11.998px RobotoRegular,Helvetica,Arial,sans-serif;white-space:pre" x="292.306" y="301.6" fill="#656565">300</text><text style="font:11.998px RobotoRegular,Helvetica,Arial,sans-serif;white-space:pre" x="337.4" y="346.694" fill="#656565">330</text><g><g clip-path="url(#a)"><path d="M439.05 218.526c8.482-2.056 16.99-2.586 25.472-6.174 7.548-3.192 15.118-6.613 22.666-14.186 5.045-5.062 15.15-15.845 15.15-23.756 0-11.348-1.17-32.929-1.755-34.079-11.145-21.935-22.323-30.373-33.468-35.244-13.581-5.934-40.527-5.934-60.76-5.934-14.515 0-29.073 12.2-43.587 30.666-2.976 3.786-8.937 24.116-8.937 36.155 0 8.929 7.719 21.704 11.573 26.813 7.042 9.337 14.105 12.806 21.147 16.569 8.411 4.495 16.848 5.49 25.259 8.231" stroke="#FF6358" stroke-width="2" fill="none"></path><path d="M425.05 227.526h28v22h-28z" fill="#FFF" fill-opacity=".8"></path><text style="font:11.998px RobotoRegular,Helvetica,Arial,sans-serif;white-space:pre" x="429.05" y="242.526" fill="#656565">08h</text><path d="M450.522 221.352h28v22h-28z" fill="#FFF" fill-opacity=".8"></path><text style="font:11.998px RobotoRegular,Helvetica,Arial,sans-serif;white-space:pre" x="454.522" y="236.352" fill="#656565">09h</text><path d="M473.188 207.166h28v22h-28z" fill="#FFF" fill-opacity=".8"></path><text style="font:11.998px RobotoRegular,Helvetica,Arial,sans-serif;white-space:pre" x="477.188" y="222.166" fill="#656565">10h</text><path d="M488.838 183.41h27v22h-27z" fill="#FFF" fill-opacity=".8"></path><text style="font:11.998px RobotoRegular,Helvetica,Arial,sans-serif;white-space:pre" x="492.838" y="198.41" fill="#656565">11h</text><path d="M486.583 149.331h28v22h-28z" fill="#FFF" fill-opacity=".8"></path><text style="font:11.998px RobotoRegular,Helvetica,Arial,sans-serif;white-space:pre" x="490.583" y="164.331" fill="#656565">12h</text><path d="M453.115 114.087h28v22h-28z" fill="#FFF" fill-opacity=".8"></path><text style="font:11.998px RobotoRegular,Helvetica,Arial,sans-serif;white-space:pre" x="457.115" y="129.087" fill="#656565">13h</text><g><path d="M392.355 108.153h28v22h-28z" fill="#FFF" fill-opacity=".8"></path><text style="font:11.998px RobotoRegular,Helvetica,Arial,sans-serif;white-space:pre" x="396.355" y="123.153" fill="#656565">14h</text></g><g><path d="M348.768 138.819h28v22h-28z" fill="#FFF" fill-opacity=".8"></path><text style="font:11.998px RobotoRegular,Helvetica,Arial,sans-serif;white-space:pre" x="352.768" y="153.819" fill="#656565">15h</text></g><g><path d="M339.831 174.974h28v22h-28z" fill="#FFF" fill-opacity=".8"></path><text style="font:11.998px RobotoRegular,Helvetica,Arial,sans-serif;white-space:pre" x="343.831" y="189.974" fill="#656565">16h</text></g><g><path d="M351.404 201.787h28v22h-28z" fill="#FFF" fill-opacity=".8"></path><text style="font:11.998px RobotoRegular,Helvetica,Arial,sans-serif;white-space:pre" x="355.404" y="216.787" fill="#656565">17h</text></g><g><path d="M372.551 218.356h28v22h-28z" fill="#FFF" fill-opacity=".8"></path><text style="font:11.998px RobotoRegular,Helvetica,Arial,sans-serif;white-space:pre" x="376.551" y="233.356" fill="#656565">18h</text></g><g><path d="M397.81 226.587h28v22h-28z" fill="#FFF" fill-opacity=".8"></path><text style="font:11.998px RobotoRegular,Helvetica,Arial,sans-serif;white-space:pre" x="401.81" y="241.587" fill="#656565">19h</text></g></g></g><g><text style="font:16.002px RobotoRegular,Helvetica,Arial,sans-serif;white-space:pre" x="346" y="29" fill="#656565">Sun position at equinox</text></g></svg>