<svg style="width:100%;height:100%" viewBox="0 0 858 400" xmlns="http://www.w3.org/2000/svg" overflow="hidden"><defs><clipPath id="a"><path d="M0 0h858v400H0z" stroke="#000" fill="none"></path></clipPath></defs><path d="M0 0h858v400H0z" fill="#FFF"></path><path d="M52.4 90.4h753.2V201H52.4z" fill="none"></path><g stroke="rgba(0, 0, 0, 0.08)" fill="none"><path d="M429 201l47.987-99.647M429 201l86.471-68.957M429 201l107.827-24.611M429 201l107.827 24.611M429 201l86.471 68.957M429 201l47.987 99.647M429 201v110.6M429 201l-47.987 99.647M429 201l-86.471 68.957M429 201l-107.827 24.611M429 201l-107.827-24.611M429 201l-86.471-68.957M429 201l-47.987-99.647"></path></g><g stroke="rgba(0, 0, 0, 0.08)" fill="none"><path d="M429 182.567l7.998 1.825 6.414 5.115 3.559 7.391v8.204l-3.559 7.391-6.414 5.115-7.998 1.825-7.998-1.825-6.414-5.115-3.559-7.391v-8.204l3.559-7.391 6.414-5.115z"></path><path d="M429 164.133l15.996 3.651 12.828 10.23 7.119 14.782v16.408l-7.119 14.782-12.828 10.23L429 237.867l-15.996-3.651-12.828-10.23-7.119-14.782v-16.408l7.119-14.782 12.828-10.23z"></path><path d="M429 145.7l23.994 5.476 19.242 15.345 10.678 22.174v24.61l-10.678 22.174-19.242 15.345L429 256.3l-23.994-5.476-19.242-15.345-10.678-22.174v-24.61l10.678-22.174 19.242-15.345z"></path><path d="M429 127.267l31.991 7.302 25.656 20.46 14.237 29.564v32.814l-14.237 29.564-25.656 20.46L429 274.733l-31.991-7.302-25.656-20.46-14.237-29.564v-32.814l14.237-29.564 25.656-20.46z"></path><path d="M429 108.833l39.989 9.127 32.07 25.575 17.797 36.956v41.018l-17.797 36.956-32.07 25.575L429 293.167l-39.989-9.127-32.07-25.575-17.797-36.956v-41.018l17.797-36.956 32.07-25.575z"></path><path d="M429 90.4l47.987 10.953 38.484 30.69 21.356 44.346v49.222l-21.356 44.346-38.484 30.69L429 311.6l-47.987-10.953-38.484-30.69-21.356-44.346v-49.222l21.356-44.346 38.484-30.69z"></path></g><g stroke="rgba(0, 0, 0, 0.08)" fill="none"><path d="M429.5 90.5v111M425.5 201.5h4M425.5 183.5h4M425.5 164.5h4M425.5 146.5h4M425.5 127.5h4M425.5 109.5h4M425.5 90.5h4"></path></g><text style="font:11.998px RobotoRegular,Helvetica,Arial,sans-serif;white-space:pre" x="407" y="205" fill="#656565">$0</text><text style="font:11.998px RobotoRegular,Helvetica,Arial,sans-serif;white-space:pre" x="400" y="186.567" fill="#656565">$50</text><text style="font:11.998px RobotoRegular,Helvetica,Arial,sans-serif;white-space:pre" x="393" y="168.133" fill="#656565">$100</text><text style="font:11.998px RobotoRegular,Helvetica,Arial,sans-serif;white-space:pre" x="393" y="149.7" fill="#656565">$150</text><text style="font:11.998px RobotoRegular,Helvetica,Arial,sans-serif;white-space:pre" x="393" y="131.267" fill="#656565">$200</text><text style="font:11.998px RobotoRegular,Helvetica,Arial,sans-serif;white-space:pre" x="393" y="112.833" fill="#656565">$250</text><text style="font:11.998px RobotoRegular,Helvetica,Arial,sans-serif;white-space:pre" x="393" y="94.4" fill="#656565">$300</text><g clip-path="url(#a)" stroke-width="2" fill="none"><path d="M429 158.235l26.393-12.041 35.578 5.387-35.014 43.266 8.985 14.357-21.818 3.059-1.327 15.31L429 243.765l-17.275-6.892-8.666-15.186 1.86-15.191-3.235-11.731 1.086-14.682-14.559-63.783z" stroke="#FF6358"></path><path d="M429 177.405l13.596-4.638 14.363 5.937-18.255 20.081-3.953 3.528 1.743 4.663-1.896 5.65-5.598.171-4.159-3.161-.741-4.728 1.306-3.088 1.078-1.394-2.961-3.793 4.677 2.706z" stroke="#FFD246"></path></g><text style="font:11.998px RobotoRegular,Helvetica,Arial,sans-serif;white-space:pre" x="400" y="77.4" fill="#656565">JP Morgan</text><text style="font:11.998px RobotoRegular,Helvetica,Arial,sans-serif;white-space:pre" x="460.487" y="88.353" fill="#656565">HSBC</text><text style="font:11.998px RobotoRegular,Helvetica,Arial,sans-serif;white-space:pre" x="525.471" y="119.043" fill="#656565">Credit Suisse</text><text style="font:11.998px RobotoRegular,Helvetica,Arial,sans-serif;white-space:pre" x="546.827" y="180.389" fill="#656565">Goldman Sachs</text><text style="font:11.998px RobotoRegular,Helvetica,Arial,sans-serif;white-space:pre" x="546.827" y="229.611" fill="#656565">Morgan Stanley</text><text style="font:11.998px RobotoRegular,Helvetica,Arial,sans-serif;white-space:pre" x="525.471" y="290.957" fill="#656565">Societe Generale</text><text style="font:11.998px RobotoRegular,Helvetica,Arial,sans-serif;white-space:pre" x="464.487" y="321.647" fill="#656565">UBS</text><text style="font:11.998px RobotoRegular,Helvetica,Arial,sans-serif;white-space:pre" x="394.5" y="332.6" fill="#656565">BNP Paribas</text><text style="font:11.998px RobotoRegular,Helvetica,Arial,sans-serif;white-space:pre" x="357.513" y="321.647" fill="#656565">Unicredit</text><text style="font:11.998px RobotoRegular,Helvetica,Arial,sans-serif;white-space:pre" x="253.529" y="290.957" fill="#656565">Credit Agricole</text><text style="font:11.998px RobotoRegular,Helvetica,Arial,sans-serif;white-space:pre" x="230.173" y="229.611" fill="#656565">Deutsche Bank</text><text style="font:11.998px RobotoRegular,Helvetica,Arial,sans-serif;white-space:pre" x="265.173" y="180.389" fill="#656565">Barclays</text><text style="font:11.998px RobotoRegular,Helvetica,Arial,sans-serif;white-space:pre" x="284.529" y="119.043" fill="#656565">Citigroup</text><text style="font:11.998px RobotoRegular,Helvetica,Arial,sans-serif;white-space:pre" x="368.513" y="88.353" fill="#656565">RBS</text><g><text style="font:16.002px RobotoRegular,Helvetica,Arial,sans-serif;white-space:pre" x="309.5" y="29" fill="#656565">Market Value of Major Banks /bln/</text></g><g><path d="M256 375.5h15v3h-15z" fill="#FF6358"></path><text style="font:14px RobotoRegular,Helvetica,Arial,sans-serif;white-space:pre" x="21" y="13" fill="#656565" transform="translate(256 369)">Market value as of 2007</text><path d="M256 369h170v16H256z" fill="none" cursor="pointer"></path><g><path d="M432 375.5h15v3h-15z" fill="#FFD246"></path><text style="font:14px RobotoRegular,Helvetica,Arial,sans-serif;white-space:pre" x="21" y="13" fill="#656565" transform="translate(432 369)">Market value as of 2009</text><path d="M432 369h170v16H432z" fill="none" cursor="pointer"></path></g></g></svg>