<svg style="width:100%;height:100%" viewBox="0 0 858 400" xmlns="http://www.w3.org/2000/svg" overflow="hidden"><defs><clipPath id="a"><path d="M27.5 50.5h825v322h-825z" stroke="#000" fill="none"></path></clipPath></defs><path d="M0 0h858v400H0z" fill="#FFF"></path><path d="M27 50h825v322H27z" fill="none"></path><g stroke="rgba(0, 0, 0, 0.08)" fill="none"><path d="M96.5 50.5v322M165.5 50.5v322M233.5 50.5v322M302.5 50.5v322M371.5 50.5v322M440.5 50.5v322M508.5 50.5v322M577.5 50.5v322M646.5 50.5v322M715.5 50.5v322M783.5 50.5v322M852.5 50.5v322"></path></g><g stroke="rgba(0, 0, 0, 0.08)" fill="none"><path d="M27.5 326.5h825M27.5 280.5h825M27.5 234.5h825M27.5 188.5h825M27.5 142.5h825M27.5 96.5h825M27.5 50.5h825"></path></g><g stroke="rgba(0, 0, 0, 0.08)" fill="none"><path d="M27.5 372.5h825M27.5 372.5v4M96.5 372.5v4M165.5 372.5v4M233.5 372.5v4M302.5 372.5v4M371.5 372.5v4M440.5 372.5v4M508.5 372.5v4M577.5 372.5v4M646.5 372.5v4M715.5 372.5v4M783.5 372.5v4M852.5 372.5v4"></path></g><g clip-path="url(#a)"><path d="M48.5 271.5h28v55h-28zM116.5 252.5h28v74h-28zM185.5 234.5h28v74h-28zM254.5 197.5h28v83h-28zM323.5 160.5h28v92h-28zM391.5 114.5h28v102h-28zM460.5 96.5h28v92h-28zM529.5 96.5h28v92h-28zM598.5 133.5h28v83h-28zM666.5 170.5h28v82h-28zM735.5 225.5h28v64h-28zM804.5 252.5h28v65h-28z" stroke="#cc4f46" fill="#FF6358"></path><path d="M47.625 330h27.5v22h-27.5z" fill="#FFF" fill-opacity=".8"></path><text style="font:11.998px RobotoRegular,Helvetica,Arial,sans-serif;white-space:pre" x="49.875" y="345" fill="#656565">5 °C</text><path d="M47.625 244.8h27.5v22h-27.5z" fill="#FFF" fill-opacity=".8"></path><text style="font:11.998px RobotoRegular,Helvetica,Arial,sans-serif;white-space:pre" x="46.875" y="259.8" fill="#656565">11 °C</text><path d="M116.375 330h27.5v22h-27.5z" fill="#FFF" fill-opacity=".8"></path><text style="font:11.998px RobotoRegular,Helvetica,Arial,sans-serif;white-space:pre" x="118.625" y="345" fill="#656565">5 °C</text><path d="M116.375 226.4h27.5v22h-27.5z" fill="#FFF" fill-opacity=".8"></path><text style="font:11.998px RobotoRegular,Helvetica,Arial,sans-serif;white-space:pre" x="115.125" y="241.4" fill="#656565">13 °C</text><path d="M185.125 311.6h27.5v22h-27.5z" fill="#FFF" fill-opacity=".8"></path><text style="font:11.998px RobotoRegular,Helvetica,Arial,sans-serif;white-space:pre" x="187.375" y="326.6" fill="#656565">7 °C</text><path d="M185.125 208h27.5v22h-27.5z" fill="#FFF" fill-opacity=".8"></path><text style="font:11.998px RobotoRegular,Helvetica,Arial,sans-serif;white-space:pre" x="183.875" y="223" fill="#656565">15 °C</text><path d="M253.875 284h27.5v22h-27.5z" fill="#FFF" fill-opacity=".8"></path><text style="font:11.998px RobotoRegular,Helvetica,Arial,sans-serif;white-space:pre" x="252.625" y="299" fill="#656565">10 °C</text><g><path d="M253.875 171.2h27.5v22h-27.5z" fill="#FFF" fill-opacity=".8"></path><text style="font:11.998px RobotoRegular,Helvetica,Arial,sans-serif;white-space:pre" x="252.625" y="186.2" fill="#656565">19 °C</text></g><g><path d="M322.625 256.4h27.5v22h-27.5z" fill="#FFF" fill-opacity=".8"></path><text style="font:11.998px RobotoRegular,Helvetica,Arial,sans-serif;white-space:pre" x="321.375" y="271.4" fill="#656565">13 °C</text></g><g><path d="M322.625 134.4h27.5v22h-27.5z" fill="#FFF" fill-opacity=".8"></path><text style="font:11.998px RobotoRegular,Helvetica,Arial,sans-serif;white-space:pre" x="321.375" y="149.4" fill="#656565">23 °C</text></g><g><path d="M391.375 219.6h27.5v22h-27.5z" fill="#FFF" fill-opacity=".8"></path><text style="font:11.998px RobotoRegular,Helvetica,Arial,sans-serif;white-space:pre" x="390.125" y="234.6" fill="#656565">17 °C</text></g><g><path d="M391.375 88.4h27.5v22h-27.5z" fill="#FFF" fill-opacity=".8"></path><text style="font:11.998px RobotoRegular,Helvetica,Arial,sans-serif;white-space:pre" x="390.125" y="103.4" fill="#656565">28 °C</text></g><g><path d="M460.125 192h27.5v22h-27.5z" fill="#FFF" fill-opacity=".8"></path><text style="font:11.998px RobotoRegular,Helvetica,Arial,sans-serif;white-space:pre" x="458.875" y="207" fill="#656565">20 °C</text></g><g><path d="M460.125 70h27.5v22h-27.5z" fill="#FFF" fill-opacity=".8"></path><text style="font:11.998px RobotoRegular,Helvetica,Arial,sans-serif;white-space:pre" x="458.875" y="85" fill="#656565">30 °C</text></g><g><path d="M528.875 192h27.5v22h-27.5z" fill="#FFF" fill-opacity=".8"></path><text style="font:11.998px RobotoRegular,Helvetica,Arial,sans-serif;white-space:pre" x="527.625" y="207" fill="#656565">20 °C</text></g><g><path d="M528.875 70h27.5v22h-27.5z" fill="#FFF" fill-opacity=".8"></path><text style="font:11.998px RobotoRegular,Helvetica,Arial,sans-serif;white-space:pre" x="527.625" y="85" fill="#656565">30 °C</text></g><g><path d="M597.625 219.6h27.5v22h-27.5z" fill="#FFF" fill-opacity=".8"></path><text style="font:11.998px RobotoRegular,Helvetica,Arial,sans-serif;white-space:pre" x="596.375" y="234.6" fill="#656565">17 °C</text></g><g><path d="M597.625 106.8h27.5v22h-27.5z" fill="#FFF" fill-opacity=".8"></path><text style="font:11.998px RobotoRegular,Helvetica,Arial,sans-serif;white-space:pre" x="596.375" y="121.8" fill="#656565">26 °C</text></g><g><path d="M666.375 256.4h27.5v22h-27.5z" fill="#FFF" fill-opacity=".8"></path><text style="font:11.998px RobotoRegular,Helvetica,Arial,sans-serif;white-space:pre" x="665.125" y="271.4" fill="#656565">13 °C</text></g><g><path d="M666.375 143.6h27.5v22h-27.5z" fill="#FFF" fill-opacity=".8"></path><text style="font:11.998px RobotoRegular,Helvetica,Arial,sans-serif;white-space:pre" x="665.125" y="158.6" fill="#656565">22 °C</text></g><g><path d="M735.125 293.2h27.5v22h-27.5z" fill="#FFF" fill-opacity=".8"></path><text style="font:11.998px RobotoRegular,Helvetica,Arial,sans-serif;white-space:pre" x="737.375" y="308.2" fill="#656565">9 °C</text></g><g><path d="M735.125 198.8h27.5v22h-27.5z" fill="#FFF" fill-opacity=".8"></path><text style="font:11.998px RobotoRegular,Helvetica,Arial,sans-serif;white-space:pre" x="733.875" y="213.8" fill="#656565">16 °C</text></g><g><path d="M803.875 320.8h27.5v22h-27.5z" fill="#FFF" fill-opacity=".8"></path><text style="font:11.998px RobotoRegular,Helvetica,Arial,sans-serif;white-space:pre" x="806.125" y="335.8" fill="#656565">6 °C</text></g><g><path d="M803.875 226.4h27.5v22h-27.5z" fill="#FFF" fill-opacity=".8"></path><text style="font:11.998px RobotoRegular,Helvetica,Arial,sans-serif;white-space:pre" x="802.625" y="241.4" fill="#656565">13 °C</text></g></g><text style="font:11.998px RobotoRegular,Helvetica,Arial,sans-serif;white-space:pre" x="39.875" y="392" fill="#656565">January</text><text style="font:11.998px RobotoRegular,Helvetica,Arial,sans-serif;white-space:pre" x="106.125" y="392" fill="#656565">February</text><text style="font:11.998px RobotoRegular,Helvetica,Arial,sans-serif;white-space:pre" x="182.375" y="392" fill="#656565">March</text><text style="font:11.998px RobotoRegular,Helvetica,Arial,sans-serif;white-space:pre" x="255.625" y="392" fill="#656565">April</text><text style="font:11.998px RobotoRegular,Helvetica,Arial,sans-serif;white-space:pre" x="324.875" y="392" fill="#656565">May</text><text style="font:11.998px RobotoRegular,Helvetica,Arial,sans-serif;white-space:pre" x="392.125" y="392" fill="#656565">June</text><text style="font:11.998px RobotoRegular,Helvetica,Arial,sans-serif;white-space:pre" x="463.375" y="392" fill="#656565">July</text><text style="font:11.998px RobotoRegular,Helvetica,Arial,sans-serif;white-space:pre" x="524.125" y="392" fill="#656565">August</text><text style="font:11.998px RobotoRegular,Helvetica,Arial,sans-serif;white-space:pre" x="581.875" y="392" fill="#656565">September</text><text style="font:11.998px RobotoRegular,Helvetica,Arial,sans-serif;white-space:pre" x="658.625" y="392" fill="#656565">October</text><text style="font:11.998px RobotoRegular,Helvetica,Arial,sans-serif;white-space:pre" x="721.375" y="392" fill="#656565">November</text><text style="font:11.998px RobotoRegular,Helvetica,Arial,sans-serif;white-space:pre" x="790.125" y="392" fill="#656565">December</text><g stroke="rgba(0, 0, 0, 0.08)" fill="none"><path d="M27.5 50.5v322M23.5 372.5h4M23.5 326.5h4M23.5 280.5h4M23.5 234.5h4M23.5 188.5h4M23.5 142.5h4M23.5 96.5h4M23.5 50.5h4"></path></g><text style="font:11.998px RobotoRegular,Helvetica,Arial,sans-serif;white-space:pre" x="11" y="376" fill="#656565">0</text><text style="font:11.998px RobotoRegular,Helvetica,Arial,sans-serif;white-space:pre" x="11" y="330" fill="#656565">5</text><text style="font:11.998px RobotoRegular,Helvetica,Arial,sans-serif;white-space:pre" x="5" y="284" fill="#656565">10</text><text style="font:11.998px RobotoRegular,Helvetica,Arial,sans-serif;white-space:pre" x="5" y="238" fill="#656565">15</text><text style="font:11.998px RobotoRegular,Helvetica,Arial,sans-serif;white-space:pre" x="5" y="192" fill="#656565">20</text><text style="font:11.998px RobotoRegular,Helvetica,Arial,sans-serif;white-space:pre" x="5" y="146" fill="#656565">25</text><text style="font:11.998px RobotoRegular,Helvetica,Arial,sans-serif;white-space:pre" x="5" y="100" fill="#656565">30</text><text style="font:11.998px RobotoRegular,Helvetica,Arial,sans-serif;white-space:pre" x="5" y="54" fill="#656565">35</text><g><text style="font:16.002px RobotoRegular,Helvetica,Arial,sans-serif;white-space:pre" x="327" y="29" fill="#656565">Average Weather Conditions</text></g></svg>