<svg style="width:100%;height:100%" viewBox="0 0 858 400" xmlns="http://www.w3.org/2000/svg" overflow="hidden"><defs><clipPath id="a"><path d="M27.5 50.5h799v322h-799z" stroke="#000" fill="none"></path></clipPath><clipPath id="b"><path d="M0 0h858v400H0z" stroke="#000" fill="none"></path></clipPath></defs><path d="M0 0h858v400H0z" fill="#FFF"></path><path d="M27 50h798.5v322H27z" fill="none"></path><g stroke="rgba(0, 0, 0, 0.08)" fill="none"><path d="M100.5 50.5v322M172.5 50.5v322M245.5 50.5v322M317.5 50.5v322M390.5 50.5v322M463.5 50.5v322M535.5 50.5v322M608.5 50.5v322M680.5 50.5v322M753.5 50.5v322M826.5 50.5v322"></path></g><g stroke="rgba(0, 0, 0, 0.08)" fill="none"><path d="M27.5 326.5h799M27.5 280.5h799M27.5 234.5h799M27.5 188.5h799M27.5 142.5h799M27.5 96.5h799M27.5 50.5h799"></path></g><g stroke="rgba(0, 0, 0, 0.08)" fill="none"><path d="M27.5 372.5h799M27.5 372.5v4M100.5 372.5v4M172.5 372.5v4M245.5 372.5v4M317.5 372.5v4M390.5 372.5v4M463.5 372.5v4M535.5 372.5v4M608.5 372.5v4M680.5 372.5v4M753.5 372.5v4M826.5 372.5v4"></path></g><g clip-path="url(#a)"><g clip-path="url(#b)"><path d="M27 270.8l72.591-18.4 72.591-18.4 72.591-36.8 72.591-36.8 72.591-46 72.59-18.4h72.591l72.591 36.8 72.591 36.8 72.591 55.2 72.591 27.6v64.4l-72.591-27.6-72.591-36.8-72.591-36.8-72.591-27.6h-72.591l-72.59 27.6-72.591 36.8-72.591 27.6-72.591 27.6L99.591 326H27" fill="#FF6358" fill-opacity=".4"></path></g></g><text style="font:11.998px RobotoRegular,Helvetica,Arial,sans-serif;white-space:pre" x="5.5" y="392" fill="#656565">January</text><text style="font:11.998px RobotoRegular,Helvetica,Arial,sans-serif;white-space:pre" x="75.591" y="392" fill="#656565">February</text><text style="font:11.998px RobotoRegular,Helvetica,Arial,sans-serif;white-space:pre" x="155.682" y="392" fill="#656565">March</text><text style="font:11.998px RobotoRegular,Helvetica,Arial,sans-serif;white-space:pre" x="232.773" y="392" fill="#656565">April</text><text style="font:11.998px RobotoRegular,Helvetica,Arial,sans-serif;white-space:pre" x="305.864" y="392" fill="#656565">May</text><text style="font:11.998px RobotoRegular,Helvetica,Arial,sans-serif;white-space:pre" x="376.955" y="392" fill="#656565">June</text><text style="font:11.998px RobotoRegular,Helvetica,Arial,sans-serif;white-space:pre" x="452.045" y="392" fill="#656565">July</text><text style="font:11.998px RobotoRegular,Helvetica,Arial,sans-serif;white-space:pre" x="516.636" y="392" fill="#656565">August</text><text style="font:11.998px RobotoRegular,Helvetica,Arial,sans-serif;white-space:pre" x="578.227" y="392" fill="#656565">September</text><text style="font:11.998px RobotoRegular,Helvetica,Arial,sans-serif;white-space:pre" x="658.818" y="392" fill="#656565">October</text><text style="font:11.998px RobotoRegular,Helvetica,Arial,sans-serif;white-space:pre" x="725.409" y="392" fill="#656565">November</text><text style="font:11.998px RobotoRegular,Helvetica,Arial,sans-serif;white-space:pre" x="798" y="392" fill="#656565">December</text><path d="M11.5 334h31v22h-31z" fill="#FFF" fill-opacity=".8"></path><text style="font:11.998px RobotoRegular,Helvetica,Arial,sans-serif;white-space:pre" x="15.5" y="349" fill="#656565">5 °C</text><path d="M8.5 240.8h37v22h-37z" fill="#FFF" fill-opacity=".8"></path><text style="font:11.998px RobotoRegular,Helvetica,Arial,sans-serif;white-space:pre" x="12.5" y="255.8" fill="#656565">11 °C</text><path d="M84.091 334h31v22h-31z" fill="#FFF" fill-opacity=".8"></path><text style="font:11.998px RobotoRegular,Helvetica,Arial,sans-serif;white-space:pre" x="88.091" y="349" fill="#656565">5 °C</text><path d="M80.591 222.4h38v22h-38z" fill="#FFF" fill-opacity=".8"></path><text style="font:11.998px RobotoRegular,Helvetica,Arial,sans-serif;white-space:pre" x="84.591" y="237.4" fill="#656565">13 °C</text><path d="M156.682 315.6h31v22h-31z" fill="#FFF" fill-opacity=".8"></path><text style="font:11.998px RobotoRegular,Helvetica,Arial,sans-serif;white-space:pre" x="160.682" y="330.6" fill="#656565">7 °C</text><path d="M153.182 204h38v22h-38z" fill="#FFF" fill-opacity=".8"></path><text style="font:11.998px RobotoRegular,Helvetica,Arial,sans-serif;white-space:pre" x="157.182" y="219" fill="#656565">15 °C</text><path d="M225.773 288h38v22h-38z" fill="#FFF" fill-opacity=".8"></path><text style="font:11.998px RobotoRegular,Helvetica,Arial,sans-serif;white-space:pre" x="229.773" y="303" fill="#656565">10 °C</text><path d="M225.773 167.2h38v22h-38z" fill="#FFF" fill-opacity=".8"></path><text style="font:11.998px RobotoRegular,Helvetica,Arial,sans-serif;white-space:pre" x="229.773" y="182.2" fill="#656565">19 °C</text><path d="M298.364 260.4h38v22h-38z" fill="#FFF" fill-opacity=".8"></path><text style="font:11.998px RobotoRegular,Helvetica,Arial,sans-serif;white-space:pre" x="302.364" y="275.4" fill="#656565">13 °C</text><path d="M298.364 130.4h38v22h-38z" fill="#FFF" fill-opacity=".8"></path><text style="font:11.998px RobotoRegular,Helvetica,Arial,sans-serif;white-space:pre" x="302.364" y="145.4" fill="#656565">23 °C</text><path d="M370.955 223.6h38v22h-38z" fill="#FFF" fill-opacity=".8"></path><text style="font:11.998px RobotoRegular,Helvetica,Arial,sans-serif;white-space:pre" x="374.955" y="238.6" fill="#656565">17 °C</text><path d="M370.955 84.4h38v22h-38z" fill="#FFF" fill-opacity=".8"></path><text style="font:11.998px RobotoRegular,Helvetica,Arial,sans-serif;white-space:pre" x="374.955" y="99.4" fill="#656565">28 °C</text><path d="M443.545 196h38v22h-38z" fill="#FFF" fill-opacity=".8"></path><text style="font:11.998px RobotoRegular,Helvetica,Arial,sans-serif;white-space:pre" x="447.545" y="211" fill="#656565">20 °C</text><path d="M443.545 66h38v22h-38z" fill="#FFF" fill-opacity=".8"></path><text style="font:11.998px RobotoRegular,Helvetica,Arial,sans-serif;white-space:pre" x="447.545" y="81" fill="#656565">30 °C</text><path d="M516.136 196h38v22h-38z" fill="#FFF" fill-opacity=".8"></path><text style="font:11.998px RobotoRegular,Helvetica,Arial,sans-serif;white-space:pre" x="520.136" y="211" fill="#656565">20 °C</text><path d="M516.136 66h38v22h-38z" fill="#FFF" fill-opacity=".8"></path><text style="font:11.998px RobotoRegular,Helvetica,Arial,sans-serif;white-space:pre" x="520.136" y="81" fill="#656565">30 °C</text><path d="M588.727 223.6h38v22h-38z" fill="#FFF" fill-opacity=".8"></path><text style="font:11.998px RobotoRegular,Helvetica,Arial,sans-serif;white-space:pre" x="592.727" y="238.6" fill="#656565">17 °C</text><g><path d="M588.727 102.8h38v22h-38z" fill="#FFF" fill-opacity=".8"></path><text style="font:11.998px RobotoRegular,Helvetica,Arial,sans-serif;white-space:pre" x="592.727" y="117.8" fill="#656565">26 °C</text></g><g><path d="M661.318 260.4h38v22h-38z" fill="#FFF" fill-opacity=".8"></path><text style="font:11.998px RobotoRegular,Helvetica,Arial,sans-serif;white-space:pre" x="665.318" y="275.4" fill="#656565">13 °C</text></g><g><path d="M661.318 139.6h38v22h-38z" fill="#FFF" fill-opacity=".8"></path><text style="font:11.998px RobotoRegular,Helvetica,Arial,sans-serif;white-space:pre" x="665.318" y="154.6" fill="#656565">22 °C</text></g><g><path d="M737.409 297.2h31v22h-31z" fill="#FFF" fill-opacity=".8"></path><text style="font:11.998px RobotoRegular,Helvetica,Arial,sans-serif;white-space:pre" x="741.409" y="312.2" fill="#656565">9 °C</text></g><g><path d="M733.909 194.8h38v22h-38z" fill="#FFF" fill-opacity=".8"></path><text style="font:11.998px RobotoRegular,Helvetica,Arial,sans-serif;white-space:pre" x="737.909" y="209.8" fill="#656565">16 °C</text></g><g><path d="M810 324.8h31v22h-31z" fill="#FFF" fill-opacity=".8"></path><text style="font:11.998px RobotoRegular,Helvetica,Arial,sans-serif;white-space:pre" x="814" y="339.8" fill="#656565">6 °C</text></g><g><path d="M806.5 222.4h38v22h-38z" fill="#FFF" fill-opacity=".8"></path><text style="font:11.998px RobotoRegular,Helvetica,Arial,sans-serif;white-space:pre" x="810.5" y="237.4" fill="#656565">13 °C</text></g><g><g stroke="rgba(0, 0, 0, 0.08)" fill="none"><path d="M27.5 50.5v322M23.5 372.5h4M23.5 326.5h4M23.5 280.5h4M23.5 234.5h4M23.5 188.5h4M23.5 142.5h4M23.5 96.5h4M23.5 50.5h4"></path></g></g><g><text style="font:11.998px RobotoRegular,Helvetica,Arial,sans-serif;white-space:pre" x="11" y="376" fill="#656565">0</text></g><g><text style="font:11.998px RobotoRegular,Helvetica,Arial,sans-serif;white-space:pre" x="11" y="330" fill="#656565">5</text></g><g><text style="font:11.998px RobotoRegular,Helvetica,Arial,sans-serif;white-space:pre" x="5" y="284" fill="#656565">10</text></g><g><text style="font:11.998px RobotoRegular,Helvetica,Arial,sans-serif;white-space:pre" x="5" y="238" fill="#656565">15</text></g><g><text style="font:11.998px RobotoRegular,Helvetica,Arial,sans-serif;white-space:pre" x="5" y="192" fill="#656565">20</text></g><g><text style="font:11.998px RobotoRegular,Helvetica,Arial,sans-serif;white-space:pre" x="5" y="146" fill="#656565">25</text></g><g><text style="font:11.998px RobotoRegular,Helvetica,Arial,sans-serif;white-space:pre" x="5" y="100" fill="#656565">30</text></g><g><text style="font:11.998px RobotoRegular,Helvetica,Arial,sans-serif;white-space:pre" x="5" y="54" fill="#656565">35</text></g><g><text style="font:16.002px RobotoRegular,Helvetica,Arial,sans-serif;white-space:pre" x="327" y="29" fill="#656565">Average Weather Conditions</text></g></svg>