<svg style="width:100%;height:100%" viewBox="0 0 858 400" xmlns="http://www.w3.org/2000/svg" overflow="hidden"><defs><clipPath id="a"><path d="M53.5 50.5h797v296h-797z" stroke="#000" fill="none"></path></clipPath><clipPath id="b"><path d="M0 0h858v400H0z" stroke="#000" fill="none"></path></clipPath></defs><path d="M0 0h858v400H0z" fill="#FFF"></path><path d="M53 50h796.5v296H53z" fill="none"></path><g stroke="rgba(0, 0, 0, 0.08)" fill="none"><path d="M142.5 50.5v296M230.5 50.5v296M319.5 50.5v296M407.5 50.5v296M496.5 50.5v296M584.5 50.5v296M673.5 50.5v296M761.5 50.5v296M850.5 50.5v296"></path></g><g stroke="rgba(0, 0, 0, 0.08)" fill="none"><path d="M53.5 304.5h797M53.5 261.5h797M53.5 219.5h797M53.5 177.5h797M53.5 135.5h797M53.5 92.5h797M53.5 50.5h797"></path></g><g clip-path="url(#a)"><g clip-path="url(#b)" stroke="#FF6358" stroke-width="2" fill="#fff"><circle cx="530.9" cy="207.303" r="4"></circle><circle cx="230" cy="162.48" r="4"></circle><circle cx="318.5" cy="131.189" r="4"></circle><circle cx="230" cy="185.314" r="4"></circle><circle cx="141.5" cy="253.817" r="4"></circle><circle cx="336.2" cy="230.983" r="4"></circle><circle cx="707.9" cy="253.817" r="4"></circle><circle cx="53" cy="253.817" r="4"></circle><circle cx="778.7" cy="253.817" r="4"></circle><circle cx="53" cy="207.303" r="4"></circle><circle cx="212.3" cy="207.303" r="4"></circle><circle cx="79.55" cy="230.983" r="4"></circle><circle cx="53" cy="93.131" r="4"></circle><circle cx="256.55" cy="116.811" r="4"></circle><circle cx="53" cy="207.303" r="4"></circle></g></g><g stroke="rgba(0, 0, 0, 0.08)" fill="none"><path d="M53.5 346.5h797M53.5 346.5v4M142.5 346.5v4M230.5 346.5v4M319.5 346.5v4M407.5 346.5v4M496.5 346.5v4M584.5 346.5v4M673.5 346.5v4M761.5 346.5v4M850.5 346.5v4"></path></g><text style="font:11.998px RobotoRegular,Helvetica,Arial,sans-serif;white-space:pre" x="49.5" y="366" fill="#656565">0</text><text style="font:11.998px RobotoRegular,Helvetica,Arial,sans-serif;white-space:pre" x="138" y="366" fill="#656565">1</text><text style="font:11.998px RobotoRegular,Helvetica,Arial,sans-serif;white-space:pre" x="226.5" y="366" fill="#656565">2</text><text style="font:11.998px RobotoRegular,Helvetica,Arial,sans-serif;white-space:pre" x="315" y="366" fill="#656565">3</text><text style="font:11.998px RobotoRegular,Helvetica,Arial,sans-serif;white-space:pre" x="403.5" y="366" fill="#656565">4</text><text style="font:11.998px RobotoRegular,Helvetica,Arial,sans-serif;white-space:pre" x="492" y="366" fill="#656565">5</text><text style="font:11.998px RobotoRegular,Helvetica,Arial,sans-serif;white-space:pre" x="580.5" y="366" fill="#656565">6</text><text style="font:11.998px RobotoRegular,Helvetica,Arial,sans-serif;white-space:pre" x="669" y="366" fill="#656565">7</text><text style="font:11.998px RobotoRegular,Helvetica,Arial,sans-serif;white-space:pre" x="757.5" y="366" fill="#656565">8</text><text style="font:11.998px RobotoRegular,Helvetica,Arial,sans-serif;white-space:pre" x="846" y="366" fill="#656565">9</text><text style="font:14px RobotoRegular,Helvetica,Arial,sans-serif;white-space:pre" x="392.75" y="387" fill="#656565">Wind Speed [km/h]</text><g stroke="rgba(0, 0, 0, 0.08)" fill="none"><path d="M53.5 50.5v296M49.5 346.5h4M49.5 304.5h4M49.5 261.5h4M49.5 219.5h4M49.5 177.5h4M49.5 135.5h4M49.5 92.5h4M49.5 50.5h4"></path></g><text style="font:11.998px RobotoRegular,Helvetica,Arial,sans-serif;white-space:pre" x="37" y="350" fill="#656565">0</text><text style="font:11.998px RobotoRegular,Helvetica,Arial,sans-serif;white-space:pre" x="37" y="307.714" fill="#656565">5</text><text style="font:11.998px RobotoRegular,Helvetica,Arial,sans-serif;white-space:pre" x="31" y="265.429" fill="#656565">10</text><text style="font:11.998px RobotoRegular,Helvetica,Arial,sans-serif;white-space:pre" x="31" y="223.143" fill="#656565">15</text><text style="font:11.998px RobotoRegular,Helvetica,Arial,sans-serif;white-space:pre" x="31" y="180.857" fill="#656565">20</text><text style="font:11.998px RobotoRegular,Helvetica,Arial,sans-serif;white-space:pre" x="31" y="138.571" fill="#656565">25</text><text style="font:11.998px RobotoRegular,Helvetica,Arial,sans-serif;white-space:pre" x="31" y="96.286" fill="#656565">30</text><text style="font:11.998px RobotoRegular,Helvetica,Arial,sans-serif;white-space:pre" x="31" y="54" fill="#656565">35</text><text style="font:14px RobotoRegular,Helvetica,Arial,sans-serif;white-space:pre" x="10" y="203.5" fill="#656565" transform="rotate(-90 32 217.5)">Rainfall [mm]</text><g><text style="font:16.002px RobotoRegular,Helvetica,Arial,sans-serif;white-space:pre" x="351.5" y="29" fill="#656565">Rainfall - Wind Speed</text></g></svg>