<svg style="width:100%;height:100%" viewBox="0 0 858 400" xmlns="http://www.w3.org/2000/svg" overflow="hidden"><defs><clipPath id="a"><path d="M57.5 50.5h795v308h-795z" stroke="#000" fill="none"></path></clipPath></defs><path d="M0 0h858v400H0z" fill="#FFF"></path><path d="M57 50h795v308H57z" fill="none"></path><g stroke="rgba(0, 0, 0, 0.08)" fill="none"><path d="M137.5 50.5v308M216.5 50.5v308M296.5 50.5v308M375.5 50.5v308M455.5 50.5v308M534.5 50.5v308M614.5 50.5v308M693.5 50.5v308M773.5 50.5v308M852.5 50.5v308"></path></g><g stroke="rgba(0, 0, 0, 0.08)" fill="none"><path d="M57.5 324.5h795M57.5 290.5h795M57.5 255.5h795M57.5 221.5h795M57.5 187.5h795M57.5 153.5h795M57.5 118.5h795M57.5 84.5h795M57.5 50.5h795"></path></g><g stroke="rgba(0, 0, 0, 0.08)" fill="none"><path d="M57.5 358.5h795M57.5 358.5v4M137.5 358.5v4M216.5 358.5v4M296.5 358.5v4M375.5 358.5v4M455.5 358.5v4M534.5 358.5v4M614.5 358.5v4M693.5 358.5v4M773.5 358.5v4M852.5 358.5v4"></path></g><g clip-path="url(#a)"><path d="M70.5 187.5h53v171h-53zM150.5 129.5h53v58h-53zM229.5 81.5h53v48h-53z" stroke="#060" fill="green"></path><path d="M309.5 81.5h53v41h-53z" stroke="#c00" fill="red"></path><path d="M388.5 122.5h53v236h-53z" stroke="#666" fill="gray"></path><path d="M468.5 122.5h53v75h-53zM547.5 197.5h53v62h-53z" stroke="#c00" fill="red"></path><path d="M627.5 225.5h53v34h-53z" stroke="#060" fill="green"></path><path d="M706.5 122.5h53v103h-53z" stroke="#666" fill="gray"></path><path d="M786.5 225.5h53v133h-53z" stroke="#444" fill="#555"></path><path d="M70.5 187.5h133M150.5 129.5h132M229.5 81.5h133M309.5 122.5h132M388.5 122.5h133M468.5 197.5h132M547.5 259.5h133M627.5 225.5h132M706.5 225.5h133" stroke="rgba(0, 0, 0, 0.08)" fill="none"></path></g><g fill="#656565"><text style="font:11.998px RobotoRegular,Helvetica,Arial,sans-serif;white-space:pre" x="70.25" y="378">Beginning</text><text style="font:11.998px RobotoRegular,Helvetica,Arial,sans-serif;white-space:pre" x="75.25" y="392">Balance</text></g><text style="font:11.998px RobotoRegular,Helvetica,Arial,sans-serif;white-space:pre" x="166.75" y="378" fill="#656565">Jan</text><text style="font:11.998px RobotoRegular,Helvetica,Arial,sans-serif;white-space:pre" x="245.25" y="378" fill="#656565">Feb</text><text style="font:11.998px RobotoRegular,Helvetica,Arial,sans-serif;white-space:pre" x="324.75" y="378" fill="#656565">Mar</text><text style="font:11.998px RobotoRegular,Helvetica,Arial,sans-serif;white-space:pre" x="406.75" y="378" fill="#656565">Q1</text><text style="font:11.998px RobotoRegular,Helvetica,Arial,sans-serif;white-space:pre" x="484.75" y="378" fill="#656565">Apr</text><text style="font:11.998px RobotoRegular,Helvetica,Arial,sans-serif;white-space:pre" x="562.25" y="378" fill="#656565">May</text><text style="font:11.998px RobotoRegular,Helvetica,Arial,sans-serif;white-space:pre" x="643.75" y="378" fill="#656565">Jun</text><text style="font:11.998px RobotoRegular,Helvetica,Arial,sans-serif;white-space:pre" x="724.75" y="378" fill="#656565">Q2</text><g fill="#656565"><text style="font:11.998px RobotoRegular,Helvetica,Arial,sans-serif;white-space:pre" x="793.75" y="378">Ending</text><text style="font:11.998px RobotoRegular,Helvetica,Arial,sans-serif;white-space:pre" x="790.75" y="392">Balance</text></g><g stroke="rgba(0, 0, 0, 0.08)" fill="none"><path d="M57.5 50.5v308M53.5 358.5h4M53.5 324.5h4M53.5 290.5h4M53.5 255.5h4M53.5 221.5h4M53.5 187.5h4M53.5 153.5h4M53.5 118.5h4M53.5 84.5h4M53.5 50.5h4"></path></g><text style="font:11.998px RobotoRegular,Helvetica,Arial,sans-serif;white-space:pre" x="35" y="362" fill="#656565">$0</text><text style="font:11.998px RobotoRegular,Helvetica,Arial,sans-serif;white-space:pre" x="5" y="327.778" fill="#656565">$10,000</text><text style="font:11.998px RobotoRegular,Helvetica,Arial,sans-serif;white-space:pre" x="5" y="293.556" fill="#656565">$20,000</text><text style="font:11.998px RobotoRegular,Helvetica,Arial,sans-serif;white-space:pre" x="5" y="259.333" fill="#656565">$30,000</text><text style="font:11.998px RobotoRegular,Helvetica,Arial,sans-serif;white-space:pre" x="5" y="225.111" fill="#656565">$40,000</text><text style="font:11.998px RobotoRegular,Helvetica,Arial,sans-serif;white-space:pre" x="5" y="190.889" fill="#656565">$50,000</text><text style="font:11.998px RobotoRegular,Helvetica,Arial,sans-serif;white-space:pre" x="5" y="156.667" fill="#656565">$60,000</text><text style="font:11.998px RobotoRegular,Helvetica,Arial,sans-serif;white-space:pre" x="5" y="122.444" fill="#656565">$70,000</text><text style="font:11.998px RobotoRegular,Helvetica,Arial,sans-serif;white-space:pre" x="5" y="88.222" fill="#656565">$80,000</text><text style="font:11.998px RobotoRegular,Helvetica,Arial,sans-serif;white-space:pre" x="5" y="54" fill="#656565">$90,000</text><path d="M70.25 190.889h53v22h-53z" fill="#FFF" fill-opacity=".8"></path><text style="font:11.998px RobotoRegular,Helvetica,Arial,sans-serif;white-space:pre" x="75.25" y="205.889" fill="#656565">$50,000</text><path d="M149.75 132.711h53v22h-53z" fill="#FFF" fill-opacity=".8"></path><text style="font:11.998px RobotoRegular,Helvetica,Arial,sans-serif;white-space:pre" x="154.75" y="147.711" fill="#656565">$17,000</text><path d="M229.25 84.8h53v22h-53z" fill="#FFF" fill-opacity=".8"></path><text style="font:11.998px RobotoRegular,Helvetica,Arial,sans-serif;white-space:pre" x="234.25" y="99.8" fill="#656565">$14,000</text><path d="M308.75 95.867h53v22h-53z" fill="#FFF" fill-opacity=".8"></path><text style="font:11.998px RobotoRegular,Helvetica,Arial,sans-serif;white-space:pre" x="311.75" y="110.867" fill="#656565">-$12,000</text><path d="M388.25 125.867h53v22h-53z" fill="#FFF" fill-opacity=".8"></path><text style="font:11.998px RobotoRegular,Helvetica,Arial,sans-serif;white-space:pre" x="393.25" y="140.867" fill="#656565">$69,000</text><g><path d="M467.75 171.156h53v22h-53z" fill="#FFF" fill-opacity=".8"></path><text style="font:11.998px RobotoRegular,Helvetica,Arial,sans-serif;white-space:pre" x="470.75" y="186.156" fill="#656565">-$22,000</text></g><g><path d="M547.25 232.756h53v22h-53z" fill="#FFF" fill-opacity=".8"></path><text style="font:11.998px RobotoRegular,Helvetica,Arial,sans-serif;white-space:pre" x="550.25" y="247.756" fill="#656565">-$18,000</text></g><g><path d="M626.75 228.533h53v22h-53z" fill="#FFF" fill-opacity=".8"></path><text style="font:11.998px RobotoRegular,Helvetica,Arial,sans-serif;white-space:pre" x="631.75" y="243.533" fill="#656565">$10,000</text></g><g><path d="M706.25 198.533h53v22h-53z" fill="#FFF" fill-opacity=".8"></path><text style="font:11.998px RobotoRegular,Helvetica,Arial,sans-serif;white-space:pre" x="709.25" y="213.533" fill="#656565">-$30,000</text></g><g><path d="M785.75 228.533h53v22h-53z" fill="#FFF" fill-opacity=".8"></path><text style="font:11.998px RobotoRegular,Helvetica,Arial,sans-serif;white-space:pre" x="790.75" y="243.533" fill="#656565">$39,000</text></g><g><text style="font:16.002px RobotoRegular,Helvetica,Arial,sans-serif;white-space:pre" x="394" y="29" fill="#656565">Cash flow</text></g></svg>