<svg width="34" height="38" viewBox="0 0 34 38" fill="none" xmlns="http://www.w3.org/2000/svg">
<path d="M0 28.1818L2.98023e-06 9.39393L9.39392 14.6128V23.0151L16.9091 27.2424L24.4242 23.0151V14.6128L33.8182 9.39393V28.1818L16.9091 37.5757L0 28.1818Z" fill="#192657"/>
<path fill-rule="evenodd" clip-rule="evenodd" d="M4.69698 12.0034L0 9.39394L16.9091 0L33.8182 9.39394L29.1212 12.0034V25.8333L16.9091 32.8788L4.69697 25.8333L4.69698 12.0034ZM28.6124 12.2861L24.4242 14.6128V14.5606L16.9091 10.3333L9.39392 14.5606V14.6128L5.20581 12.2861V25.5443L16.9091 32.2962L28.6124 25.5443V12.2861Z" fill="url(#paint0_linear_31160_161471)"/>
<defs>
<linearGradient id="paint0_linear_31160_161471" x1="4.69697" y1="7.30638" x2="30.0606" y2="7.30639" gradientUnits="userSpaceOnUse">
<stop stop-color="#64C2DB"/>
<stop offset="0.307292" stop-color="#7476ED"/>
<stop offset="0.604167" stop-color="#C994DF"/>
<stop offset="1" stop-color="#E56F8C"/>
</linearGradient>
</defs>
</svg>
