<svg width="153" height="38" viewBox="0 0 153 38" fill="none" xmlns="http://www.w3.org/2000/svg">
<g clip-path="url(#clip0_30948_8317)">
<path d="M0.878784 28.1819L0.878787 9.39404L10.2727 14.6129V23.0152L17.7879 27.2425L25.303 23.0152V14.6129L34.697 9.39404V28.1819L17.7879 37.5758L0.878784 28.1819Z" fill="#192657"/>
<path fill-rule="evenodd" clip-rule="evenodd" d="M5.57576 12.0034L0.878784 9.39394L17.7879 0L34.697 9.39394L30 12.0034V25.8333L17.7879 32.8788L5.57575 25.8333L5.57576 12.0034ZM29.4912 12.2861L25.303 14.6128V14.5606L17.7879 10.3333L10.2727 14.5606V14.6128L6.08459 12.2861V25.5443L17.7879 32.2962L29.4912 25.5443V12.2861Z" fill="url(#paint0_linear_30948_8317)"/>
<path d="M43.7001 26.6971V10.9153H46.6761V23.9916H53.8907V26.6971H43.7001Z" fill="#192657"/>
<path d="M60.3159 27.0125C59.2037 27.0125 58.2042 26.7871 57.3174 26.3361C56.4306 25.8852 55.7317 25.2314 55.2207 24.3747C54.7096 23.518 54.4541 22.4884 54.4541 21.286V20.9252C54.4541 19.7228 54.7096 18.6932 55.2207 17.8365C55.7317 16.9798 56.4306 16.326 57.3174 15.8751C58.2042 15.4241 59.2037 15.1987 60.3159 15.1987C61.4282 15.1987 62.4277 15.4241 63.3145 15.8751C64.2013 16.326 64.9002 16.9798 65.4112 17.8365C65.9222 18.6932 66.1778 19.7228 66.1778 20.9252V21.286C66.1778 22.4884 65.9222 23.518 65.4112 24.3747C64.9002 25.2314 64.2013 25.8852 63.3145 26.3361C62.4277 26.7871 61.4282 27.0125 60.3159 27.0125ZM60.3159 24.4874C61.1877 24.4874 61.9092 24.2094 62.4803 23.6532C63.0515 23.0821 63.337 22.2704 63.337 21.2183V20.9929C63.337 19.9408 63.0515 19.1366 62.4803 18.5805C61.9242 18.0094 61.2027 17.7238 60.3159 17.7238C59.4442 17.7238 58.7227 18.0094 58.1516 18.5805C57.5804 19.1366 57.2949 19.9408 57.2949 20.9929V21.2183C57.2949 22.2704 57.5804 23.0821 58.1516 23.6532C58.7227 24.2094 59.4442 24.4874 60.3159 24.4874Z" fill="#192657"/>
<path d="M67.2443 21.1507V20.79C67.2443 19.6176 67.4772 18.6181 67.9432 17.7914C68.4091 16.9497 69.0254 16.3109 69.7919 15.8751C70.5735 15.4241 71.4227 15.1987 72.3395 15.1987C73.3616 15.1987 74.1357 15.3791 74.6617 15.7398C75.1878 16.1005 75.5711 16.4763 75.8115 16.8671H76.2174V15.5143H79.013V28.6809C79.013 29.4474 78.7875 30.0561 78.3366 30.5071C77.8857 30.973 77.2845 31.206 76.533 31.206H69.0479V28.726H75.541C75.9618 28.726 76.1723 28.5005 76.1723 28.0496V25.1412H75.7664C75.6161 25.3817 75.4057 25.6297 75.1352 25.8852C74.8646 26.1257 74.5039 26.3286 74.053 26.494C73.6021 26.6593 73.0309 26.742 72.3395 26.742C71.4227 26.742 70.5735 26.524 69.7919 26.0881C69.0254 25.6372 68.4091 24.9984 67.9432 24.1718C67.4772 23.3301 67.2443 22.3231 67.2443 21.1507ZM73.1512 24.262C74.0229 24.262 74.7519 23.9839 75.3381 23.4278C75.9243 22.8717 76.2174 22.0901 76.2174 21.0831V20.8576C76.2174 19.8355 75.9243 19.054 75.3381 18.5129C74.7669 17.9568 74.038 17.6787 73.1512 17.6787C72.2794 17.6787 71.5504 17.9568 70.9643 18.5129C70.3781 19.054 70.085 19.8355 70.085 20.8576V21.0831C70.085 22.0901 70.3781 22.8717 70.9643 23.4278C71.5504 23.9839 72.2794 24.262 73.1512 24.262Z" fill="#192657"/>
<path d="M86.4687 27.0125C85.3564 27.0125 84.3569 26.7871 83.4701 26.3361C82.5833 25.8852 81.8844 25.2314 81.3734 24.3747C80.8624 23.518 80.6069 22.4884 80.6069 21.286V20.9252C80.6069 19.7228 80.8624 18.6932 81.3734 17.8365C81.8844 16.9798 82.5833 16.326 83.4701 15.8751C84.3569 15.4241 85.3564 15.1987 86.4687 15.1987C87.5809 15.1987 88.5804 15.4241 89.4672 15.8751C90.354 16.326 91.0529 16.9798 91.5639 17.8365C92.075 18.6932 92.3305 19.7228 92.3305 20.9252V21.286C92.3305 22.4884 92.075 23.518 91.5639 24.3747C91.0529 25.2314 90.354 25.8852 89.4672 26.3361C88.5804 26.7871 87.5809 27.0125 86.4687 27.0125ZM86.4687 24.4874C87.3404 24.4874 88.0619 24.2094 88.633 23.6532C89.2042 23.0821 89.4898 22.2704 89.4898 21.2183V20.9929C89.4898 19.9408 89.2042 19.1366 88.633 18.5805C88.0769 18.0094 87.3555 17.7238 86.4687 17.7238C85.5969 17.7238 84.8755 18.0094 84.3043 18.5805C83.7332 19.1366 83.4476 19.9408 83.4476 20.9929V21.2183C83.4476 22.2704 83.7332 23.0821 84.3043 23.6532C84.8755 24.2094 85.5969 24.4874 86.4687 24.4874Z" fill="#192657"/>
<path d="M93.9381 26.6971V15.5145H96.7788V26.6971H93.9381ZM95.3584 14.2069C94.8474 14.2069 94.4115 14.0416 94.0508 13.7109C93.7051 13.3802 93.5323 12.9443 93.5323 12.4033C93.5323 11.8622 93.7051 11.4263 94.0508 11.0956C94.4115 10.765 94.8474 10.5996 95.3584 10.5996C95.8845 10.5996 96.3204 10.765 96.6661 11.0956C97.0118 11.4263 97.1846 11.8622 97.1846 12.4033C97.1846 12.9443 97.0118 13.3802 96.6661 13.7109C96.3204 14.0416 95.8845 14.2069 95.3584 14.2069Z" fill="#192657"/>
<path d="M98.9122 31.206V15.5143H101.708V16.8671H102.114C102.369 16.4312 102.767 16.0479 103.309 15.7172C103.85 15.3715 104.624 15.1987 105.631 15.1987C106.533 15.1987 107.367 15.4241 108.133 15.8751C108.9 16.3109 109.516 16.9572 109.982 17.814C110.448 18.6707 110.681 19.7078 110.681 20.9252V21.286C110.681 22.5034 110.448 23.5405 109.982 24.3972C109.516 25.254 108.9 25.9078 108.133 26.3587C107.367 26.7946 106.533 27.0125 105.631 27.0125C104.954 27.0125 104.383 26.9298 103.917 26.7645C103.466 26.6142 103.098 26.4188 102.813 26.1783C102.542 25.9228 102.324 25.6673 102.159 25.4118H101.753V31.206H98.9122ZM104.774 24.5325C105.661 24.5325 106.39 24.2544 106.961 23.6983C107.547 23.1272 107.84 22.3005 107.84 21.2183V20.9929C107.84 19.9107 107.547 19.0915 106.961 18.5354C106.375 17.9643 105.646 17.6787 104.774 17.6787C103.902 17.6787 103.173 17.9643 102.587 18.5354C102.001 19.0915 101.708 19.9107 101.708 20.9929V21.2183C101.708 22.3005 102.001 23.1272 102.587 23.6983C103.173 24.2544 103.902 24.5325 104.774 24.5325Z" fill="#192657"/>
<path d="M116.919 27.0125C115.461 27.0125 114.266 26.6969 113.334 26.0656C112.403 25.4343 111.839 24.5325 111.643 23.3601L114.259 22.6838C114.364 23.2098 114.537 23.6232 114.777 23.9238C115.033 24.2244 115.341 24.4423 115.702 24.5776C116.077 24.6978 116.483 24.758 116.919 24.758C117.58 24.758 118.069 24.6452 118.385 24.4198C118.7 24.1793 118.858 23.8862 118.858 23.5405C118.858 23.1948 118.708 22.9318 118.407 22.7514C118.107 22.556 117.626 22.3982 116.964 22.278L116.333 22.1652C115.551 22.0149 114.837 21.812 114.191 21.5565C113.545 21.286 113.026 20.9177 112.635 20.4518C112.245 19.9858 112.049 19.3846 112.049 18.6481C112.049 17.5359 112.455 16.6867 113.267 16.1005C114.078 15.4993 115.146 15.1987 116.468 15.1987C117.716 15.1987 118.753 15.4768 119.579 16.0329C120.406 16.589 120.947 17.318 121.203 18.2198L118.565 19.0314C118.445 18.4603 118.197 18.0544 117.821 17.814C117.46 17.5735 117.009 17.4532 116.468 17.4532C115.927 17.4532 115.514 17.5509 115.228 17.7463C114.943 17.9267 114.8 18.1822 114.8 18.5129C114.8 18.8736 114.95 19.1441 115.251 19.3245C115.551 19.4898 115.957 19.6176 116.468 19.7078L117.099 19.8205C117.941 19.9708 118.7 20.1737 119.377 20.4292C120.068 20.6697 120.609 21.0229 121 21.4889C121.406 21.9398 121.609 22.556 121.609 23.3376C121.609 24.51 121.18 25.4193 120.323 26.0656C119.482 26.6969 118.347 27.0125 116.919 27.0125Z" fill="#192657"/>
<path d="M127.344 26.8773C126.473 26.8773 125.706 26.6819 125.045 26.2912C124.399 25.8853 123.895 25.3292 123.534 24.6228C123.174 23.9164 122.993 23.1047 122.993 22.1879V15.5144H125.834V21.9624C125.834 22.8041 126.037 23.4354 126.443 23.8562C126.863 24.2771 127.457 24.4875 128.224 24.4875C129.095 24.4875 129.772 24.2019 130.253 23.6308C130.734 23.0446 130.974 22.233 130.974 21.1959V15.5144H133.815V26.697H131.019V25.2315H130.614C130.433 25.6073 130.095 25.9755 129.599 26.3362C129.103 26.697 128.351 26.8773 127.344 26.8773Z" fill="#192657"/>
<path d="M135.962 26.6969V15.5143H138.757V16.7318H139.163C139.358 16.356 139.682 16.0329 140.132 15.7623C140.583 15.4768 141.177 15.334 141.914 15.334C142.71 15.334 143.349 15.4918 143.83 15.8074C144.311 16.108 144.679 16.5063 144.935 17.0023H145.34C145.596 16.5214 145.957 16.1231 146.423 15.8074C146.889 15.4918 147.55 15.334 148.407 15.334C149.098 15.334 149.722 15.4843 150.278 15.7849C150.849 16.0704 151.3 16.5138 151.631 17.1151C151.976 17.7012 152.149 18.4452 152.149 19.3471V26.6969H149.308V19.55C149.308 18.9337 149.151 18.4753 148.835 18.1747C148.519 17.8591 148.076 17.7012 147.505 17.7012C146.859 17.7012 146.355 17.9117 145.994 18.3325C145.649 18.7383 145.476 19.3245 145.476 20.0911V26.6969H142.635V19.55C142.635 18.9337 142.477 18.4753 142.162 18.1747C141.846 17.8591 141.403 17.7012 140.831 17.7012C140.185 17.7012 139.682 17.9117 139.321 18.3325C138.975 18.7383 138.802 19.3245 138.802 20.0911V26.6969H135.962Z" fill="#192657"/>
</g>
<defs>
<linearGradient id="paint0_linear_30948_8317" x1="5.57575" y1="7.30638" x2="30.9394" y2="7.30639" gradientUnits="userSpaceOnUse">
<stop stop-color="#64C2DB"/>
<stop offset="0.307292" stop-color="#7476ED"/>
<stop offset="0.604167" stop-color="#C994DF"/>
<stop offset="1" stop-color="#E56F8C"/>
</linearGradient>
<clipPath id="clip0_30948_8317">
<rect width="153" height="38" fill="white"/>
</clipPath>
</defs>
</svg>
