<svg width="174" height="160" viewBox="0 0 174 160" fill="none" xmlns="http://www.w3.org/2000/svg">
<path d="M17.7236 145.195L19.0851 127.778C19.1025 127.557 19.1715 127.343 19.2866 127.154C19.4016 126.965 19.5595 126.805 19.7475 126.688L60.9194 101.043C61.0879 100.938 61.2766 100.87 61.4732 100.843L72.1832 99.3625C72.5547 99.3121 72.9312 99.4109 73.23 99.6374C73.5288 99.8639 73.7256 100.2 73.7773 100.571C73.7846 100.624 73.7889 100.678 73.7903 100.732L74.0572 112.492C74.0597 112.594 74.0511 112.695 74.0318 112.795L67.5373 146.157C67.4735 146.483 67.2977 146.775 67.0404 146.984C66.7831 147.194 66.4607 147.306 66.1292 147.302L19.1151 146.721C18.7403 146.716 18.3829 146.562 18.1211 146.294C17.8594 146.025 17.7147 145.664 17.7188 145.289C17.7188 145.258 17.7189 145.227 17.723 145.196" fill="black"/>
<path d="M70.4717 146.109L73.3682 100.064C73.3902 99.7235 73.534 99.4026 73.7734 99.1599C74.0127 98.9172 74.3315 98.769 74.6713 98.7423L88.7513 97.6595C88.9548 97.6438 89.1592 97.6723 89.3506 97.7431C89.542 97.814 89.7158 97.9254 89.86 98.0698L118.21 126.419C118.429 126.639 118.57 126.924 118.612 127.232L121.095 145.721C121.145 146.093 121.045 146.469 120.817 146.767C120.59 147.066 120.254 147.261 119.882 147.312C119.822 147.32 119.762 147.324 119.702 147.324L71.8928 147.613C71.5176 147.615 71.157 147.468 70.89 147.204C70.623 146.941 70.4716 146.582 70.4688 146.207C70.4688 146.174 70.4688 146.141 70.4717 146.109Z" fill="black"/>
<path d="M110.647 114.996L98.1718 126.257C97.9395 126.467 97.6339 126.575 97.3218 126.559C97.0097 126.543 96.7167 126.404 96.5069 126.172C96.4688 126.13 96.4338 126.085 96.4024 126.038L78.94 99.9277C78.8386 99.7755 78.7741 99.6018 78.7514 99.4203C78.7286 99.2389 78.7483 99.0546 78.8089 98.8821C78.8696 98.7096 78.9694 98.5535 79.1007 98.4262C79.2319 98.2988 79.391 98.2037 79.5653 98.1483L88.5777 95.3072C88.7676 95.2476 88.9695 95.2369 89.1645 95.2761C89.3596 95.3153 89.5416 95.4032 89.6936 95.5316L110.615 113.221C110.854 113.423 111.003 113.711 111.029 114.023C111.056 114.334 110.958 114.644 110.756 114.883C110.722 114.923 110.685 114.961 110.647 114.996Z" fill="#14254C"/>
<path d="M46.2524 122.202L37.1761 115.993C37.0215 115.887 36.8944 115.745 36.8054 115.58C36.7164 115.415 36.668 115.231 36.6643 115.043C36.6605 114.856 36.7015 114.67 36.7839 114.501C36.8662 114.333 36.9875 114.186 37.1377 114.074L59.0122 97.8072C59.1912 97.675 59.4038 97.5961 59.6257 97.5795C59.8476 97.5629 60.0696 97.6092 60.2663 97.7133L67.7503 101.669C68.0265 101.816 68.2334 102.066 68.3255 102.364C68.4176 102.663 68.3874 102.987 68.2415 103.263C68.1778 103.383 68.0941 103.491 67.9941 103.583L47.7155 122.101C47.5186 122.28 47.2669 122.387 47.0014 122.405C46.7358 122.424 46.4719 122.352 46.2524 122.202Z" fill="#14254C"/>
<path d="M51.1328 124.293L65.462 100.923L83.6807 99.7611C83.9585 99.7437 84.2335 99.8249 84.4572 99.9905C84.681 100.156 84.839 100.395 84.9034 100.666L91.7102 129.488L51.1328 124.293Z" fill="#14254C"/>
<path d="M80.8828 41.9619C98.187 47.3446 108.97 56.983 110.757 73.4417C112.209 86.7961 103.388 96.8182 100.795 99.507" stroke="#14254C" stroke-width="12.0531" stroke-miterlimit="10" stroke-linecap="round"/>
<path d="M81.5156 105.55L96.2079 87.3965L111.618 103.36L87.1375 114.755L81.5156 105.55Z" fill="#84CEF2"/>
<path d="M82.0334 108.037L79.4256 103.047C78.8632 102.084 78.0777 101.27 77.1352 100.675C76.1927 100.079 75.1208 99.7178 74.0097 99.6227L66.3344 98.7749C65.3307 98.6645 64.6547 99.4692 65.1011 100.24L65.5043 100.935C65.6629 101.196 65.9027 101.397 66.1868 101.508L82.0334 108.037Z" fill="#84CEF2"/>
<path d="M61.8523 110.111L62.0223 103.282C62.0725 101.267 64.4164 100.004 66.7963 100.707L80.3314 104.707L78.7255 113.631L66.001 113.6C63.7433 113.594 61.8092 111.965 61.8523 110.111Z" fill="#84CEF2"/>
<path d="M67.4179 44.4385C48.584 48.2478 40.192 63.0805 38.3493 74.6938C35.8058 90.7334 40.124 106.942 46.651 115.212" stroke="#14254C" stroke-width="12.0531" stroke-miterlimit="10" stroke-linecap="round"/>
<path d="M91.0304 103.116L59.5027 106.418L53.2781 64.5542C51.1491 52.8022 61.5143 42.166 75.096 42.166C88.6777 42.166 99.0428 52.8022 96.9138 64.5542L91.0304 103.116Z" fill="#84CEF2"/>
<path d="M56.1016 92.7989L93.0864 88.9141L91.5572 102.01C91.0769 106.119 89.1246 109.915 86.0615 112.695C82.9984 115.476 79.0319 117.053 74.8959 117.134C70.7599 117.215 66.7344 115.796 63.5642 113.138C60.394 110.481 58.2937 106.765 57.652 102.678L56.1016 92.7989Z" fill="#14254C"/>
<path d="M60.1894 38.5639L48.1953 50.5579L58.4755 54.6708L71.155 41.6482V25.1982H60.1894V38.5639Z" fill="black"/>
<path d="M67.3828 38.5585L83.8321 52.9526L103.709 45.0701L92.5412 36.136C91.7487 35.5017 91.1091 34.6973 90.6697 33.7823C90.2302 32.8673 90.0022 31.8652 90.0024 30.8501V20.7383H67.384L67.3828 38.5585Z" fill="black"/>
<path fill-rule="evenodd" clip-rule="evenodd" d="M84.3047 18.5257C90.3268 15.4214 93.456 11.7951 95.216 8.95288C97.2494 5.66727 97.9283 2.65271 101.037 1.34319C102.961 0.53197 104.179 1.06505 108.088 1.00719C110.95 0.964589 113.8 0.627101 116.593 0L117.153 4.25089C114.665 5.06678 112.045 5.40865 109.431 5.25873C106.04 5.04855 104.723 4.09324 102.716 4.81117C100 5.78239 99.3978 8.61345 97.7919 11.0784C95.9741 13.8639 92.3324 17.0072 84.3047 18.524" fill="#84CEF2"/>
<path fill-rule="evenodd" clip-rule="evenodd" d="M83.9375 18.3178C90.7083 18.0745 95.0879 16.125 97.8871 14.303C100.921 12.3316 102.663 10.3656 106.394 9.89563C109.125 9.55202 110.341 10.3709 113.677 10.0728C116.18 9.83525 118.613 9.11331 120.841 7.94727L121.736 12.536C119.566 13.4427 117.257 13.9724 114.909 14.1023C111.06 14.303 109.551 13.2533 106.435 13.7516C103.115 14.2829 101.735 15.8274 99.3105 17.3247C96.4813 19.0717 91.8454 20.3641 83.9375 18.3178Z" fill="#84CEF2"/>
<path fill-rule="evenodd" clip-rule="evenodd" d="M83.065 11.5533H76.8793C72.3156 11.5533 67.9388 13.3662 64.7118 16.5932C61.4848 19.8202 59.6719 24.197 59.6719 28.7607V42.252C59.672 45.1466 60.822 47.9226 62.8688 49.9694C64.9156 52.0162 67.6916 53.1661 70.5862 53.1663H79.0118C81.9064 53.1661 84.6824 52.0162 86.7292 49.9694C88.776 47.9226 89.9259 45.1466 89.9261 42.252V18.4138C89.9188 16.5964 89.1936 14.8555 87.9084 13.5704C86.6233 12.2852 84.8824 11.5606 83.065 11.5533Z" fill="#14254C"/>
<path fill-rule="evenodd" clip-rule="evenodd" d="M88.3494 37.5506C88.3494 40.2421 87.5513 42.8731 86.0561 45.1109C84.5608 47.3487 82.4356 49.0929 79.9491 50.1229C77.4625 51.1529 74.7264 51.4225 72.0867 50.8975C69.447 50.3726 67.0222 49.0766 65.119 47.1736C63.2158 45.2705 61.9197 42.8459 61.3944 40.2062C60.8692 37.5666 61.1385 34.8305 62.1683 32.3439C63.1981 29.8573 64.9422 27.7318 67.1799 26.2364C69.4176 24.7409 72.0485 23.9426 74.7399 23.9424C76.5238 23.9391 78.2908 24.2873 79.9401 24.967C81.5894 25.6466 83.0887 26.6445 84.3524 27.9036C85.616 29.1627 86.6193 30.6584 87.3049 32.3052C87.9905 33.9521 88.345 35.7178 88.3482 37.5017V37.5506" fill="#31475C"/>
<path fill-rule="evenodd" clip-rule="evenodd" d="M86.5555 30.9156C86.5555 30.8683 86.5496 30.8246 86.549 30.7791C85.3584 28.6969 83.6375 26.9673 81.5614 25.7661C79.4853 24.5649 77.1281 23.9349 74.7295 23.9405C72.331 23.946 69.9766 24.5867 67.9061 25.7974C65.8355 27.0082 64.1226 28.7458 62.9416 30.8335C62.9416 30.8606 62.9375 30.8878 62.9375 30.9156V44.2587C64.1189 46.3475 65.8327 48.0859 67.9043 49.2971C69.9759 50.5084 72.3315 51.1491 74.7312 51.1541C77.1309 51.1592 79.4891 50.5283 81.5658 49.3258C83.6425 48.1233 85.3635 46.3921 86.5537 44.3083L86.5555 30.9156Z" fill="#E9AC6A"/>
<path fill-rule="evenodd" clip-rule="evenodd" d="M69.1172 39.8689H75.3011V29.1826L69.1172 39.8689Z" fill="#E26841"/>
<path d="M89.3625 27.7666H61.1328V29.1163H89.3625V27.7666Z" fill="#14254C"/>
<path d="M89.3625 33.9502H61.1328V35.2999H89.3625V33.9502Z" fill="#14254C"/>
<path d="M87.6757 46.2109H61.1328V47.6734H87.6757V46.2109Z" fill="#14254C"/>
<path d="M89.3625 40.0244H61.1328V41.4868H89.3625V40.0244Z" fill="#14254C"/>
<path d="M81.1019 30.7412H82.5141C82.7773 30.7412 83.0298 30.8457 83.2159 31.0319C83.402 31.218 83.5066 31.4704 83.5066 31.7336V31.8098C83.5066 31.9401 83.4809 32.0692 83.4311 32.1896C83.3812 32.3099 83.308 32.4193 83.2159 32.5114C83.1237 32.6035 83.0142 32.6766 82.8938 32.7264C82.7734 32.7762 82.6444 32.8018 82.5141 32.8017H81.1019C80.8387 32.8017 80.5864 32.6972 80.4003 32.5112C80.2142 32.3252 80.1095 32.0729 80.1094 31.8098V31.7336C80.1094 31.4704 80.214 31.218 80.4001 31.0319C80.5862 30.8457 80.8386 30.7412 81.1019 30.7412Z" fill="#EEF5FF"/>
<path d="M67.1175 30.7412H68.5297C68.7929 30.7412 69.0454 30.8457 69.2315 31.0319C69.4176 31.218 69.5222 31.4704 69.5222 31.7336V31.8098C69.5222 31.9401 69.4965 32.0692 69.4466 32.1896C69.3967 32.3099 69.3236 32.4193 69.2315 32.5114C69.1393 32.6035 69.0299 32.6766 68.9095 32.7264C68.7891 32.7762 68.66 32.8018 68.5297 32.8017H67.1175C66.8544 32.8017 66.602 32.6972 66.4159 32.5112C66.2298 32.3252 66.1252 32.0729 66.125 31.8098V31.7336C66.125 31.4704 66.2295 31.218 66.4157 31.0319C66.6018 30.8457 66.8543 30.7412 67.1175 30.7412Z" fill="#EEF5FF"/>
<path d="M81.5907 31.5879C81.7971 31.5879 81.999 31.6491 82.1706 31.7638C82.3423 31.8785 82.4761 32.0415 82.5551 32.2323C82.6341 32.423 82.6547 32.6329 82.6144 32.8354C82.5742 33.0379 82.4747 33.2239 82.3288 33.3698C82.1828 33.5158 81.9968 33.6153 81.7944 33.6555C81.5919 33.6958 81.3819 33.6752 81.1912 33.5961C81.0005 33.5171 80.8374 33.3833 80.7227 33.2117C80.608 33.04 80.5469 32.8382 80.5469 32.6318C80.5469 32.3549 80.6568 32.0894 80.8526 31.8936C81.0484 31.6979 81.3138 31.5879 81.5907 31.5879Z" fill="black"/>
<path d="M67.8251 31.5879C68.0316 31.5879 68.2334 31.6491 68.405 31.7638C68.5767 31.8785 68.7105 32.0415 68.7895 32.2323C68.8685 32.423 68.8892 32.6329 68.8489 32.8354C68.8086 33.0379 68.7092 33.2239 68.5632 33.3698C68.4172 33.5158 68.2312 33.6153 68.0287 33.6555C67.8262 33.6958 67.6164 33.6752 67.4256 33.5961C67.2349 33.5171 67.0719 33.3833 66.9572 33.2117C66.8425 33.04 66.7812 32.8382 66.7812 32.6318C66.7812 32.3549 66.8913 32.0894 67.087 31.8936C67.2828 31.6979 67.5483 31.5879 67.8251 31.5879Z" fill="black"/>
<path d="M92.448 70.2871H27.7578V117.132H92.448V70.2871Z" fill="#4F5D6C"/>
<path d="M92.448 116.024H27.7578V120.218H92.448V116.024Z" fill="black"/>
<path d="M58.9552 96.2263L56.077 92.5014C55.9321 92.3138 55.8427 92.0893 55.8189 91.8534C55.7951 91.6176 55.8379 91.3798 55.9424 91.167C56.0469 90.9543 56.209 90.7751 56.4102 90.6498C56.6114 90.5245 56.8437 90.458 57.0807 90.458H63.1087C63.3507 90.4577 63.5877 90.5266 63.7918 90.6566C63.9958 90.7867 64.1584 90.9724 64.2603 91.1918C64.3622 91.4113 64.3991 91.6554 64.3667 91.8952C64.3344 92.135 64.234 92.3604 64.0776 92.545L60.9278 96.27C60.8205 96.3972 60.6891 96.502 60.5413 96.5785C60.3934 96.655 60.232 96.7015 60.0661 96.7156C59.9003 96.7296 59.7333 96.7108 59.5747 96.6603C59.4161 96.6098 59.269 96.5285 59.1418 96.4211C59.0727 96.3631 59.0102 96.2978 58.9552 96.2263Z" fill="#EEF5FF"/>
<path d="M59.5945 93.2398C59.5007 93.1193 59.4566 92.9673 59.4716 92.8152C59.4866 92.6631 59.5594 92.5227 59.6749 92.4227C59.7905 92.3227 59.94 92.2709 60.0927 92.278C60.2453 92.285 60.3893 92.3504 60.4952 92.4606C60.601 92.5708 60.6605 92.7175 60.6614 92.8703C60.6622 93.0231 60.6044 93.1703 60.4999 93.2817C60.3953 93.3931 60.252 93.4602 60.0994 93.469C59.9469 93.4778 59.7967 93.4276 59.68 93.329C59.6484 93.3024 59.6198 93.2725 59.5945 93.2398Z" fill="#4F5D6C"/>
<path d="M47.9071 123.553L40.3918 123.783C39.8422 123.8 39.2963 123.687 38.7982 123.454C38.3 123.222 37.8635 122.875 37.5237 122.443C37.184 122.01 36.9505 121.504 36.8422 120.965C36.7339 120.426 36.7537 119.869 36.9001 119.339L37.585 116.86C37.8241 115.995 38.3443 115.235 39.0636 114.7C39.7829 114.164 40.6601 113.884 41.5567 113.902L47.1188 114.017C48.0915 114.037 49.0241 114.408 49.7449 115.061C50.4656 115.715 50.9259 116.607 51.0409 117.573L51.2866 119.632C51.3952 120.556 51.1324 121.486 50.556 122.217C49.9795 122.947 49.1365 123.419 48.2123 123.529C48.1107 123.541 48.0092 123.549 47.9071 123.552" fill="#84CEF2"/>
<path d="M130.533 145.795L107.493 144.463L46.2325 145.664L1.9107 146.64C1.51277 146.646 1.13312 146.808 0.853276 147.091C0.573434 147.374 0.415699 147.755 0.414075 148.153C0.412451 148.551 0.56696 148.934 0.844483 149.219C1.12201 149.504 1.50044 149.669 1.89831 149.679L46.223 151.003L107.48 152.395L130.525 151.135L130.533 145.795Z" fill="#E9AC6A"/>
<path d="M42.6172 149.975L42.6225 146.679C42.6235 146.318 42.7676 145.973 43.0234 145.718C43.2791 145.463 43.6255 145.321 43.9864 145.321L45.9596 145.325C46.3204 145.326 46.6662 145.47 46.9208 145.726C47.1755 145.981 47.3181 146.328 47.3175 146.689L47.3128 149.984C47.3117 150.345 47.1675 150.691 46.9118 150.945C46.6561 151.2 46.3097 151.343 45.9489 151.342L43.9757 151.339C43.6148 151.338 43.2691 151.194 43.0144 150.938C42.7598 150.683 42.6166 150.336 42.6172 149.975Z" fill="black"/>
<path d="M0.306995 148.97V147.289C0.307228 147.136 0.337528 146.985 0.396075 146.845C0.454622 146.704 0.540375 146.576 0.648324 146.469C0.756273 146.361 0.884339 146.276 1.02526 146.218C1.16617 146.159 1.31707 146.13 1.4695 146.13L3.55307 146.133C3.70548 146.134 3.8563 146.164 3.99703 146.222C4.13777 146.281 4.26561 146.366 4.37324 146.474C4.48087 146.582 4.56621 146.71 4.62434 146.851C4.68246 146.992 4.71235 147.143 4.71212 147.295L4.70909 148.977C4.70886 149.13 4.67868 149.281 4.62016 149.421C4.56164 149.562 4.47595 149.69 4.36805 149.797C4.26016 149.905 4.13211 149.99 3.99127 150.048C3.85042 150.106 3.69952 150.136 3.54716 150.136L1.46359 150.133C1.31116 150.133 1.16037 150.102 1.01963 150.044C0.878895 149.985 0.751043 149.9 0.643423 149.792C0.535803 149.684 0.450445 149.556 0.392327 149.415C0.33421 149.274 0.304456 149.123 0.304689 148.97" fill="black"/>
<path d="M173.633 152.943L173.646 144.123L130.399 145.785L130.391 151.147L173.633 152.943Z" fill="black"/>
<path d="M127.43 158.769L127.462 138.488C127.462 138.343 127.49 138.2 127.546 138.066C127.602 137.932 127.683 137.811 127.786 137.709C127.889 137.606 128.01 137.525 128.144 137.47C128.278 137.415 128.422 137.386 128.567 137.387H130.166C130.458 137.387 130.739 137.504 130.945 137.711C131.152 137.919 131.268 138.199 131.267 138.492L131.235 158.772C131.235 158.917 131.206 159.061 131.151 159.195C131.095 159.328 131.014 159.45 130.911 159.552C130.808 159.654 130.686 159.736 130.553 159.791C130.419 159.846 130.275 159.874 130.13 159.874H128.531C128.239 159.873 127.958 159.757 127.752 159.549C127.545 159.342 127.429 159.062 127.43 158.769Z" fill="black"/>
</svg>
