<svg width="98" height="93" viewBox="0 0 98 93" fill="none" xmlns="http://www.w3.org/2000/svg">
<g clip-path="url(#clip0_8001_143861)">
<path d="M92.5926 46.2963C92.5926 37.1398 89.8774 28.1889 84.7903 20.5755C79.7032 12.9621 72.4727 7.02817 64.0131 3.52412C55.5536 0.0200606 46.2449 -0.896762 37.2644 0.889591C28.2837 2.67594 20.0345 7.08524 13.5599 13.5599C7.08524 20.0345 2.67594 28.2838 0.88959 37.2644C-0.896763 46.245 0.020064 55.5536 3.52412 64.0131C7.02818 72.4727 12.9621 79.7032 20.5755 84.7903C28.1889 89.8774 37.1398 92.5926 46.2963 92.5926C58.5748 92.5926 70.3505 87.715 79.0327 79.0327C87.715 70.3505 92.5926 58.5749 92.5926 46.2963Z" fill="#E3F6FF"/>
<path fill-rule="evenodd" clip-rule="evenodd" d="M52.0078 23.0855C59.3977 19.2769 63.2412 14.8238 65.3976 11.3396C67.893 7.30689 68.7251 3.60784 72.5389 2.00057C74.9009 1.00535 76.3952 1.6599 81.1914 1.58885C84.7037 1.53644 88.2013 1.12215 91.6287 0.352539L92.3153 5.5715C89.2615 6.57205 86.0471 6.9912 82.8388 6.80723C78.6774 6.54984 77.0608 5.37816 74.5992 6.25808C71.2636 7.45014 70.5275 10.9256 68.5563 13.9491C66.3282 17.3663 61.8593 21.2243 52.0078 23.0855Z" fill="#84CEF2"/>
<path fill-rule="evenodd" clip-rule="evenodd" d="M51.5625 22.5371C59.8708 22.2389 65.2476 19.8461 68.6799 17.6122C72.4034 15.1902 74.5406 12.7788 79.119 12.2046C82.4698 11.7824 83.9618 12.7869 88.0568 12.42C91.1281 12.1287 94.1134 11.2424 96.8461 9.81055L97.945 15.4412C95.2822 16.5541 92.449 17.204 89.5674 17.363C84.8469 17.6087 82.9922 16.3211 79.1691 16.9326C75.0927 17.5842 73.4039 19.4804 70.4264 21.3177C66.955 23.4607 61.2684 25.0446 51.5625 22.5359" fill="#84CEF2"/>
<mask id="mask0_8001_143861" style="mask-type:luminance" maskUnits="userSpaceOnUse" x="0" y="0" width="93" height="93">
<path d="M0 46.2963C0 55.4528 2.71525 64.4037 7.80235 72.0171C12.8895 79.6305 20.1199 85.5644 28.5795 89.0685C37.039 92.5726 46.3477 93.4894 55.3283 91.703C64.3089 89.9167 72.5581 85.5074 79.0327 79.0327C85.5074 72.5581 89.9167 64.3089 91.703 55.3283C93.4894 46.3477 92.5726 37.039 89.0685 28.5795C85.5644 20.1199 79.6305 12.8894 72.0171 7.80233C64.4038 2.71523 55.4528 0 46.2963 0C34.0178 0 22.2421 4.87763 13.5599 13.5599C4.87764 22.2421 0 34.0177 0 46.2963Z" fill="white"/>
</mask>
<g mask="url(#mask0_8001_143861)">
<path d="M32.7803 83.4834C23.999 88.4834 16.1103 94.9089 9.43704 102.497C-1.04457 114.545 -8.2423 129.093 -11.4609 144.734" stroke="#14254C" stroke-width="20.1665" stroke-miterlimit="10" stroke-linecap="round"/>
<path d="M26.1093 69.2462L11.3906 83.9649L24.0065 89.0115L39.5667 73.0309V52.8428H26.1093V69.2462Z" fill="black"/>
<path d="M63.9586 153.674L25.2694 158.3L17.632 99.6632C17.0176 95.7923 17.2499 91.8343 18.3128 88.0619C19.3758 84.2895 21.244 80.7925 23.7889 77.8118C26.3338 74.8312 29.4947 72.4378 33.0539 70.7967C36.613 69.1555 40.4857 68.3057 44.405 68.3057C48.3242 68.3057 52.1969 69.1555 55.756 70.7967C59.3152 72.4378 62.4761 74.8312 65.021 77.8118C67.5659 80.7925 69.4342 84.2895 70.4971 88.0619C71.56 91.8343 71.7923 95.7923 71.1779 99.6632L63.9586 153.674Z" fill="#84CEF2"/>
<path d="M63.4218 81.0781C65.8467 83.8914 77.6345 98.1373 75.0938 116.469C72.249 136.99 52.5961 154.38 26.9922 156.394" stroke="#0C1B38" stroke-width="20.1665" stroke-linecap="round" stroke-linejoin="round"/>
<path d="M34.9453 69.2412L55.1311 86.9037L79.5219 77.2315L65.8188 66.2683C64.8459 65.4903 64.0605 64.5033 63.5208 63.3806C62.981 62.2578 62.7009 61.028 62.701 59.7822V47.373H34.9453V69.2412Z" fill="black"/>
<path fill-rule="evenodd" clip-rule="evenodd" d="M54.5113 16.8154H46.9205C41.3202 16.8154 35.9493 19.0401 31.9894 23.0001C28.0294 26.9601 25.8047 32.331 25.8047 37.9312V54.4866C25.8047 58.0389 27.2158 61.4457 29.7277 63.9576C32.2395 66.4694 35.6463 67.8805 39.1986 67.8805H49.5375C53.0898 67.8805 56.4966 66.4694 59.0084 63.9576C61.5203 61.4457 62.9314 58.0389 62.9314 54.4866V25.2344C62.9225 23.0043 62.0327 20.868 60.4557 19.2911C58.8788 17.7142 56.7426 16.8243 54.5125 16.8154" fill="#14254C"/>
<path fill-rule="evenodd" clip-rule="evenodd" d="M60.9845 45.2462C60.9845 48.549 60.0051 51.7776 58.1702 54.5238C56.3352 57.27 53.7271 59.4104 50.6758 60.6743C47.6244 61.9382 44.2667 62.2689 41.0274 61.6246C37.788 60.9802 34.8125 59.3898 32.477 57.0544C30.1416 54.7189 28.5512 51.7434 27.9068 48.5041C27.2625 45.2647 27.5932 41.907 28.8571 38.8556C30.121 35.8042 32.2614 33.1962 35.0076 31.3612C37.7538 29.5263 40.9824 28.5469 44.2852 28.5469C46.4793 28.5428 48.6527 28.972 50.6806 29.8098C52.7085 30.6476 54.551 31.8775 56.1025 33.4289C57.6539 34.9804 58.8839 36.8229 59.7216 38.8508C60.5594 40.8787 60.9886 43.0521 60.9845 45.2462Z" fill="#31475C"/>
<path fill-rule="evenodd" clip-rule="evenodd" d="M58.7795 37.1029C58.7795 37.0447 58.772 36.9917 58.7714 36.9352C57.3098 34.3807 55.1978 32.2589 52.6502 30.7853C50.1026 29.3118 47.2103 28.5391 44.2673 28.5459C41.3242 28.5527 38.4355 29.3388 35.8947 30.8241C33.354 32.3093 31.2519 34.441 29.8021 37.0021C29.8021 37.0359 29.7969 37.0691 29.7969 37.1029V53.4825C31.2466 56.0462 33.3498 58.18 35.8923 59.6666C38.4349 61.1532 41.326 61.9395 44.2713 61.9455C47.2165 61.9514 50.1107 61.1767 52.6592 59.7003C55.2077 58.224 57.3195 56.0986 58.7795 53.5407V37.1029Z" fill="#E9AC6A"/>
<path d="M45.0312 54.7652C46.9801 54.7693 48.8797 54.1531 50.4552 53.006C51.7193 52.1528 52.738 50.9835 53.41 49.6144L51.9734 48.8818C51.3926 49.9954 50.556 50.9554 49.5322 51.6829C48.2395 52.6411 46.6637 53.1398 45.0551 53.0997L45.0312 54.7652Z" fill="white"/>
<path fill-rule="evenodd" clip-rule="evenodd" d="M37.3906 49.2492H44.9815V36.1377L37.3906 49.2492Z" fill="#DC7F1B"/>
<path d="M62.2272 33.2393H27.5859V34.8954H62.2272V33.2393Z" fill="#14254C"/>
<path d="M62.2272 40.8301H27.5859V42.4863H62.2272V40.8301Z" fill="#14254C"/>
<path d="M60.157 55.874H27.5859V57.6682H60.157V55.874Z" fill="#14254C"/>
<path d="M62.2272 48.2832H27.5859V50.0774H62.2272V48.2832Z" fill="#14254C"/>
<path d="M53.9039 39.0379C53.9039 38.6518 53.7505 38.2815 53.4775 38.0084C53.2045 37.7354 52.8342 37.582 52.448 37.582C52.0619 37.582 51.6916 37.7354 51.4186 38.0084C51.1456 38.2815 50.9922 38.6518 50.9922 39.0379" fill="black"/>
<path d="M37.0133 39.0379C37.0133 38.6518 36.8599 38.2815 36.5869 38.0084C36.3138 37.7354 35.9435 37.582 35.5574 37.582C35.1713 37.582 34.801 37.7354 34.528 38.0084C34.255 38.2815 34.1016 38.6518 34.1016 39.0379" fill="black"/>
</g>
</g>
<defs>
<clipPath id="clip0_8001_143861">
<rect width="97.9478" height="92.5926" fill="white"/>
</clipPath>
</defs>
</svg>
