<svg width="40" height="40" viewBox="0 0 40 40" fill="none" xmlns="http://www.w3.org/2000/svg">
<path fill-rule="evenodd" clip-rule="evenodd" d="M8.55273 3.59786C7.12207 4.59822 5.82837 5.78097 4.70532 7.11239C9.29462 6.68632 15.1251 7.38204 21.8943 10.7666C29.1229 14.3808 34.9437 14.503 38.9947 13.7216C38.6271 12.6087 38.1643 11.5391 37.6162 10.5223C32.9789 11.0114 27.0339 10.364 20.1055 6.89997C15.7059 4.70017 11.8277 3.794 8.55273 3.59786ZM34.9073 6.66664C31.2452 2.57499 25.9233 0 19.9999 0C18.2604 0 16.5726 0.222107 14.9636 0.63948C17.1428 1.23408 19.4578 2.10398 21.8943 3.32226C26.9669 5.85852 31.3463 6.67515 34.9073 6.66664ZM39.8608 17.628C34.9668 18.5944 28.2087 18.3959 20.1055 14.3443C12.5299 10.5565 6.50043 10.6042 2.4339 11.5079C2.224 11.5545 2.01904 11.6035 1.81903 11.6545C1.28662 12.8124 0.861634 14.03 0.556702 15.2944C0.882386 15.2074 1.21893 15.1247 1.56616 15.0475C6.49957 13.9512 13.47 13.9988 21.8943 18.211C29.47 21.9988 35.4995 21.9511 39.5661 21.0474C39.7054 21.0165 39.8427 20.9845 39.9777 20.9515C39.9925 20.6362 39.9999 20.3189 39.9999 19.9999C39.9999 19.1974 39.9527 18.4059 39.8608 17.628ZM39.3247 25.1722C34.4782 26.0195 27.9169 25.6943 20.1055 21.7887C12.5299 18.0009 6.50043 18.0486 2.4339 18.9523C1.53125 19.1528 0.719239 19.3971 0.002931 19.655C0.000977999 19.7697 0 19.8847 0 19.9999C0 31.0456 8.95429 39.9999 19.9999 39.9999C29.257 39.9999 37.0452 33.7108 39.3247 25.1722Z" fill="#7F57F1"/>
</svg>
