<?xml version="1.0" encoding="utf-8"?>
<!-- Generator: Adobe Illustrator 24.1.2, SVG Export Plug-In . SVG Version: 6.00 Build 0)  -->
<svg version="1.1" id="Layer_1" xmlns="http://www.w3.org/2000/svg" xmlns:xlink="http://www.w3.org/1999/xlink" x="0px" y="0px"
	 viewBox="0 0 900 280" style="enable-background:new 0 0 900 280;" xml:space="preserve">
<style type="text/css">
	.st0{clip-path:url(#SVGID_2_);}
	.st1{fill:#151950;}
	.st2{fill:url(#Path_566_1_);}
	.st3{opacity:0.154;fill:url(#Path_565_1_);enable-background:new    ;}
	.st4{enable-background:new    ;}
	.st5{fill:#FFFFFF;}
	.st6{fill:#61DAFB;}
	.st7{fill:#FF7272;}
	.st8{fill:#84CEF2;}
	.st9{fill:#0C2749;}
	.st10{fill:#FAB16A;}
	.st11{fill:#0B0204;}
	.st12{fill:none;}
	.st13{fill:#E07E27;}
	.st14{fill:#0A183D;}
</style>
<g>
	<defs>
		<rect id="SVGID_1_" width="900" height="280"/>
	</defs>
	<clipPath id="SVGID_2_">
		<use xlink:href="#SVGID_1_"  style="overflow:visible;"/>
	</clipPath>
	<g class="st0">
		<path id="Path_553" class="st1" d="M-350.7-2.4h1401v284.6h-1401L-350.7-2.4L-350.7-2.4z"/>
		
			<linearGradient id="Path_566_1_" gradientUnits="userSpaceOnUse" x1="-463.7022" y1="0.619" x2="-463.7263" y2="2.1915" gradientTransform="matrix(1923.1899 0 0 391.5898 892158.125 -399.4801)">
			<stop  offset="0" style="stop-color:#3A55DA;stop-opacity:0.306"/>
			<stop  offset="1" style="stop-color:#282F89;stop-opacity:0.698"/>
		</linearGradient>
		<path id="Path_566" class="st2" d="M-93.1,108.5c0,0-14.8,3.7-48.4-12.2S-352.9-3.3-352.9-3.3v285.7h1402.7l0.6-285
			c0,0-321.6,214.4-353,235s-50.1,19.6-85.5,6.7c-35.4-12.9-301.1-109.4-323.3-117.2s-31.5-13.3-54-13.3S-93.1,108.5-93.1,108.5z"/>
		
			<linearGradient id="Path_565_1_" gradientUnits="userSpaceOnUse" x1="-463.6852" y1="1.2606" x2="-463.7574" y2="2.4951" gradientTransform="matrix(1920.2739 0 0 359.5566 890808.0625 -369.2984)">
			<stop  offset="0" style="stop-color:#5777EA"/>
			<stop  offset="1" style="stop-color:#282F89;stop-opacity:0.698"/>
		</linearGradient>
		<path id="Path_565" class="st3" d="M-350.7,244.2c0,0,175.8-156.4,205.4-184.4S-94.6,35-75.6,34.4s305.9,0,305.9,0
			s23.2-2.5,50.8,8.5s252,89.2,252,89.2s27.3,10,55.3-7.9c28-18,115.4-77.4,143.6-93.8s39.7-12.3,88.2-6.5s230.2,23.9,230.2,23.9
			l-0.2,233.4l-1400.9-0.4L-350.7,244.2z"/>
		<g id="_900_x_280_GitHub_B">
			<g class="st4">
				<path class="st5" d="M114.1,121.3v-18.6h2.6V121c0,7.2,3.9,10.6,9.2,10.6c5.3,0,9.3-3.3,9.3-10.6v-18.3h2.6v18.6
					c0,8.5-5.2,12.6-11.8,12.6C119.2,133.8,114.1,129.7,114.1,121.3z"/>
				<path class="st5" d="M147.5,133.4h-2.6v-30.7h2.6V133.4z"/>
				<path class="st5" d="M175.9,103.2c-0.6-0.3-1.4-0.5-2.2-0.5c-2.4,0-4.1,1.7-4.1,4.8v3.8h5.2v2.2h-5.2v20.1h-2.5v-20.1h-3.6v-2.2
					h3.6v-4c0-4.1,2.7-6.8,6.3-6.8c1,0,1.8,0.2,2.5,0.5C175.9,101,175.9,103.2,175.9,103.2z"/>
				<path class="st5" d="M187,133.8c-5.9,0-9.8-4.7-9.8-11.6s4-11.6,9.8-11.6c5.9,0,9.9,4.7,9.9,11.6S192.9,133.8,187,133.8z
					 M187,112.9c-4.4,0-7.3,3.8-7.3,9.4s2.9,9.4,7.3,9.4c4.5,0,7.4-3.8,7.4-9.4S191.4,112.9,187,112.9z"/>
				<path class="st5" d="M212.8,113.5c-0.6-0.2-1.2-0.4-2.1-0.4c-2.7,0-4.9,1.9-5.9,4.8v15.5h-2.5v-22.2h2.5v3.5c1-2.2,3.3-4,6-4
					c0.9,0,1.5,0.2,2,0.3V113.5z"/>
				<path class="st5" d="M231.4,119.8v13.6h-2.6v-30.7h10.6c6,0,9.9,3,9.9,8.6c0,5-3.1,7.8-7.9,8.5l9.3,13.7h-3l-9.2-13.6
					L231.4,119.8L231.4,119.8z M231.4,117.6h8c4.7,0,7.5-2.4,7.5-6.3c0-4-2.8-6.3-7.5-6.3h-8V117.6z"/>
				<path class="st5" d="M264.6,131.6c2.5,0,4.4-0.6,6.2-2.2v2.5c-1.6,1.3-3.9,2-6.5,2c-6.2,0-10.4-4.4-10.4-11.4
					c0-6.9,3.7-11.8,9.6-11.8c5.8,0,8.8,4.4,8.8,10.9v0.9h-16C256.5,128.5,260,131.6,264.6,131.6z M256.6,120.4h13.5
					c-0.1-3.9-2-7.5-6.4-7.5C260,112.9,257.2,115.6,256.6,120.4z"/>
				<path class="st5" d="M290.3,118c0-3-2.1-5-5.5-5c-2.6,0-4.7,0.8-6.5,2v-2.4c1.5-1,4-1.9,6.7-1.9c4.7,0,7.7,2.7,7.7,7.1v15.6
					h-2.4v-2.1c-0.9,1.2-3.4,2.5-6.2,2.5c-4.5,0-8.2-2.6-8.2-6.8c0-4.1,3.7-6.8,8.3-6.8c2.7,0,5.1,1.2,6.1,2.4V118L290.3,118z
					 M290.3,125.5c-0.7-1.9-3.2-3.3-5.9-3.3c-3.1,0-6.1,1.6-6.1,4.7c0,3.1,2.9,4.8,6.1,4.8c2.7,0,5.2-1.4,5.9-3.3V125.5z"/>
				<path class="st5" d="M308.3,110.7c2.1,0,4.4,0.6,5.9,2v2.5c-1.8-1.6-3.6-2.2-5.8-2.2c-4.4,0-8,3.5-8,9.3s3.6,9.3,8,9.3
					c2.2,0,4.1-0.7,5.8-2.2v2.5c-1.6,1.3-3.8,2-5.9,2c-6,0-10.4-4.6-10.4-11.6C298,115.3,302.4,110.7,308.3,110.7z"/>
				<path class="st5" d="M324.6,133.4h-2.5v-20.1h-4.8v-2.2h4.8v-5.6h2.5v5.7h5.3v2.2h-5.3V133.4z"/>
				<path class="st5" d="M345.9,102.7h9.4c8.9,0,14.9,6,14.9,15.4s-6,15.4-14.9,15.4h-9.4V102.7z M355.3,131c7.6,0,12.3-5.1,12.3-13
					s-4.8-13-12.3-13h-6.8v26H355.3z"/>
				<path class="st5" d="M384.8,131.6c2.5,0,4.4-0.6,6.2-2.2v2.5c-1.6,1.3-3.9,2-6.5,2c-6.2,0-10.4-4.4-10.4-11.4
					c0-6.9,3.7-11.8,9.6-11.8c5.8,0,8.8,4.4,8.8,10.9v0.9h-16C376.7,128.5,380.2,131.6,384.8,131.6z M376.8,120.4h13.5
					c-0.1-3.9-2-7.5-6.4-7.5C380.2,112.9,377.4,115.6,376.8,120.4z"/>
				<path class="st5" d="M404,133.4l-8.9-22.2h2.6L405,130l7.3-18.8h2.5l-8.8,22.2H404z"/>
				<path class="st5" d="M428,131.6c2.5,0,4.3-0.6,6.2-2.2v2.5c-1.7,1.3-3.8,2-6.5,2c-6.2,0-10.4-4.4-10.4-11.4
					c0-6.9,3.7-11.8,9.6-11.8c5.8,0,8.8,4.4,8.8,10.9v0.9h-16C419.9,128.5,423.4,131.6,428,131.6z M420,120.4h13.5
					c-0.2-3.9-2-7.5-6.4-7.5C423.4,112.9,420.6,115.6,420,120.4z"/>
				<path class="st5" d="M443.8,133.4h-2.5v-32.5h2.5V133.4z"/>
				<path class="st5" d="M459.1,133.8c-5.9,0-9.8-4.7-9.8-11.6s4-11.6,9.8-11.6c5.9,0,9.9,4.7,9.9,11.6S465,133.8,459.1,133.8z
					 M459.1,112.9c-4.4,0-7.3,3.8-7.3,9.4s2.9,9.4,7.3,9.4c4.5,0,7.4-3.8,7.4-9.4S463.5,112.9,459.1,112.9z"/>
				<path class="st5" d="M476.9,141.9h-2.5v-30.7h2.5v3.3c1.2-1.9,3.8-3.8,6.9-3.8c6.5,0,9.7,5.5,9.7,11.6s-3.2,11.6-9.7,11.6
					c-3.1,0-5.7-1.9-6.9-3.8V141.9z M476.9,127.1c1.5,2.8,4,4.4,6.7,4.4c4.7,0,7.5-3.9,7.5-9.2s-2.8-9.3-7.5-9.3
					c-2.7,0-5.2,1.6-6.7,4.4V127.1z"/>
				<path class="st5" d="M508,131.6c2.5,0,4.3-0.6,6.2-2.2v2.5c-1.7,1.3-3.8,2-6.5,2c-6.2,0-10.4-4.4-10.4-11.4
					c0-6.9,3.7-11.8,9.6-11.8c5.8,0,8.8,4.4,8.8,10.9v0.9h-16C499.9,128.5,503.4,131.6,508,131.6z M500,120.4h13.5
					c-0.2-3.9-2-7.5-6.4-7.5C503.4,112.9,500.6,115.6,500,120.4z"/>
				<path class="st5" d="M531.7,113.5c-0.6-0.2-1.2-0.4-2-0.4c-2.7,0-4.9,1.9-5.9,4.8v15.5h-2.5v-22.2h2.5v3.5c1-2.2,3.2-4,6-4
					c0.8,0,1.5,0.2,2,0.3L531.7,113.5L531.7,113.5z"/>
				<path class="st5" d="M534.8,128.9c2,1.7,4.2,2.7,7.1,2.7c2.8,0,5.3-1.1,5.3-4c0-1.9-1.2-3.1-3.5-3.9l-3.7-1.3
					c-3-1.1-5.1-2.5-5.1-5.9c0-3.8,3.3-5.9,7.3-5.9c2.4,0,4.7,0.7,6.5,2v2.7c-1.9-1.5-3.8-2.5-6.5-2.5c-2.6,0-4.9,1.2-4.9,3.6
					c0,2.1,1.4,2.9,3.8,3.8l3.9,1.5c3,1,4.7,3,4.7,5.8c0,4-3.5,6.3-7.8,6.3c-3,0-5.6-1-7.1-2.2V128.9L534.8,128.9z"/>
			</g>
			<g class="st4">
				<path class="st6" d="M120.1,66.9l8.8-11.7h8.4l-10.2,13.2l10.6,14.4h-8.5l-9-12.4v12.4H113V55.2h7.2L120.1,66.9L120.1,66.9z"/>
				<path class="st6" d="M144.3,74.3c0.6,2.4,2.6,3.4,5.2,3.4c2.2,0,3.8-0.4,5.8-1.6v5.4c-1.6,1.2-4,1.8-7,1.8
					c-6.5,0-10.9-3.9-10.9-10.4c0-6.3,4.2-10.7,9.8-10.7c6.3,0,9.5,4.1,9.5,10.1v2.1L144.3,74.3L144.3,74.3z M144.4,70.4h6.1
					c-0.2-1.7-1.2-2.9-2.9-2.9C146,67.5,144.9,68.5,144.4,70.4z"/>
				<path class="st6" d="M159.6,62.6h7.1v1.8c1.1-1.3,3.1-2.2,5.4-2.2c4.5,0,7.2,2.9,7.2,7.4v13.3h-7V71.3c0-1.7-0.9-2.9-2.7-2.9
					c-1.4,0-2.6,0.8-2.9,2.2v12.2h-7.1V62.6z"/>
				<path class="st6" d="M195.9,81.2c-0.9,1.1-2.9,2.1-5,2.1c-5.8,0-9-4.7-9-10.6c0-5.8,3.2-10.6,9-10.6c2.1,0,4,1,5,2.1V53.6h7.1
					v29.2h-7.1V81.2z M195.9,70c-0.5-1.1-1.8-1.9-3.1-1.9c-2.4,0-3.9,2-3.9,4.6s1.4,4.5,3.9,4.5c1.4,0,2.6-0.8,3.1-1.9V70z"/>
				<path class="st6" d="M216,83.3c-6.1,0-10.3-4.3-10.3-10.6c0-6.3,4.2-10.6,10.3-10.6c6.2,0,10.3,4.3,10.3,10.6
					C226.4,79,222.2,83.3,216,83.3z M216,67.9c-2.2,0-3.4,2-3.4,4.8s1.2,4.7,3.4,4.7s3.4-1.9,3.4-4.7
					C219.4,69.9,218.2,67.9,216,67.9z"/>
				<path class="st6" d="M236.4,73.7v9.1h-7.1V55.2h12.4c5.9,0,10,3.4,10,9.4c0,4.2-2.1,7.1-5.5,8.3l6.5,9.9h-8l-5.8-9.1
					C238.9,73.7,236.4,73.7,236.4,73.7z M236.4,67.9h4.5c2.6,0,3.7-1.3,3.7-3.3s-1.2-3.3-3.7-3.3h-4.5V67.9z"/>
				<path class="st6" d="M260.5,74.3c0.6,2.4,2.6,3.4,5.2,3.4c2.2,0,3.8-0.4,5.8-1.6v5.4c-1.6,1.2-4,1.8-7,1.8
					c-6.5,0-10.9-3.9-10.9-10.4c0-6.3,4.2-10.7,9.8-10.7c6.3,0,9.5,4.1,9.5,10.1v2.1L260.5,74.3L260.5,74.3z M260.6,70.4h6.1
					c-0.2-1.7-1.2-2.9-2.9-2.9C262.2,67.5,261.1,68.5,260.6,70.4z"/>
				<path class="st6" d="M286.9,70.6c0-1.6-1.4-2.7-4.3-2.7c-1.9,0-3.9,0.5-5.5,1.4v-5.7c1.7-0.9,4.4-1.6,7.2-1.6
					c6,0,9.4,2.8,9.4,8.2v12.5h-6.8v-1c-0.7,0.7-2.6,1.4-4.8,1.4c-4,0-7.4-2.2-7.4-6.5c0-3.9,3.4-6.4,7.8-6.4c1.7,0,3.6,0.5,4.4,1.1
					L286.9,70.6L286.9,70.6z M286.9,76c-0.4-0.9-1.6-1.4-2.8-1.4c-1.4,0-2.8,0.6-2.8,1.9c0,1.4,1.4,2,2.8,2c1.3,0,2.4-0.5,2.8-1.3
					V76z"/>
				<path class="st6" d="M306.8,62.1c2.1,0,4,0.4,5.4,1.4v6c-1.3-0.9-2.7-1.4-4.4-1.4c-2.6,0-4.7,1.6-4.7,4.6c0,3.1,2.1,4.6,4.7,4.6
					c1.7,0,3.1-0.5,4.4-1.4v5.9c-1.4,1-3.4,1.4-5.4,1.4c-6.1,0-10.6-4-10.6-10.6C296.3,66.2,300.7,62.1,306.8,62.1z"/>
				<path class="st6" d="M324.7,82.8h-7V68.1h-3.5v-5.5h3.5V57h7v5.6h4v5.5h-4V82.8z"/>
			</g>
			<g id="Group_1238" transform="translate(41 29.219)">
				<g id="Group_1237" transform="translate(24 135)">
					<path id="Rectangle_1145" class="st7" d="M73.2,5.5h168c13.7,0,24.9,11.1,24.9,24.9l0,0c0,13.7-11.1,24.9-24.9,24.9h-168
						c-13.8,0-24.9-11.2-24.9-24.9l0,0C48.3,16.6,59.4,5.5,73.2,5.5z"/>
					<g class="st4">
						<path class="st5" d="M92.5,34.6c-0.4,0.5-0.9,1-1.8,1.4c-0.8,0.4-1.9,0.6-3.2,0.6c-1.6,0-3-0.5-4-1.5c-1.1-1-1.6-2.4-1.6-4
							v-2.8c0-1.6,0.5-3,1.5-4s2.3-1.5,3.8-1.5c1.6,0,2.8,0.4,3.7,1.2c0.9,0.8,1.3,1.8,1.3,3.1v0.1h-2.1c0-0.7-0.3-1.3-0.8-1.8
							c-0.3-0.7-1-0.9-1.9-0.9s-1.7,0.3-2.3,1s-0.9,1.6-0.9,2.7V31c0,1.1,0.3,2,0.9,2.7s1.4,1.1,2.4,1.1c0.7,0,1.3-0.1,1.7-0.2
							c0.4-0.2,0.8-0.4,1-0.6v-2.7h-2.7v-1.8h4.9L92.5,34.6L92.5,34.6z"/>
						<path class="st5" d="M103.9,30.3H98v4.3h6.9v1.8h-9.1V22.9h9v1.8H98v3.8h5.9C103.9,28.5,103.9,30.3,103.9,30.3z"/>
						<path class="st5" d="M116.7,24.7h-4.1v11.7h-2.3V24.7h-4.1v-1.8h10.4L116.7,24.7L116.7,24.7z"/>
						<path class="st5" d="M131.4,32.9c0-0.6-0.2-1-0.6-1.4c-0.4-0.4-1.2-0.7-2.2-1c-1.5-0.4-2.7-0.9-3.5-1.6s-1.2-1.5-1.2-2.6
							s0.4-2,1.4-2.7c0.9-0.7,2.1-1.1,3.5-1.1c1.5,0,2.7,0.4,3.6,1.2c0.9,0.8,1.3,1.8,1.3,2.9v0.1h-2.2c0-0.7-0.2-1.3-0.7-1.7
							c-0.5-0.4-1.1-0.6-2-0.6c-0.8,0-1.5,0.2-1.9,0.5c-0.4,0.4-0.7,0.8-0.7,1.4c0,0.5,0.2,0.9,0.7,1.3c0.5,0.3,1.3,0.7,2.4,1
							c1.5,0.4,2.6,0.9,3.3,1.6c0.8,0.7,1.1,1.6,1.1,2.6c0,1.1-0.4,2-1.4,2.7c-0.9,0.7-2.1,1-3.5,1c-1.4,0-2.6-0.4-3.7-1.1
							c-1.1-0.8-1.6-1.8-1.5-3.1v-0.1h2.2c0,0.8,0.3,1.4,0.9,1.8c0.6,0.4,1.3,0.6,2.2,0.6c0.8,0,1.5-0.2,1.9-0.5
							C131.2,33.9,131.4,33.5,131.4,32.9z"/>
						<path class="st5" d="M145.8,24.7h-4.1v11.7h-2.3V24.7h-4.1v-1.8h10.4v1.8H145.8z"/>
						<path class="st5" d="M154.3,33.2H149l-1.1,3.2h-2.3l5-13.5h2.1l4.9,13.5h-2.3L154.3,33.2z M149.7,31.4h4l-2-5.8h-0.1
							L149.7,31.4z"/>
						<path class="st5" d="M162,30.8v5.6h-2.3V22.9h5c1.5,0,2.7,0.3,3.5,1s1.2,1.7,1.2,2.9c0,0.7-0.2,1.3-0.5,1.8
							c-0.4,0.5-0.9,0.9-1.6,1.2c0.8,0.2,1.3,0.6,1.6,1.2c0.3,0.5,0.5,1.2,0.5,2v1.1c0,0.4,0,0.8,0.1,1.2s0.3,0.7,0.5,0.9v0.2h-2.3
							c-0.2-0.2-0.4-0.5-0.5-1c-0.1-0.4-0.1-0.9-0.1-1.3V33c0-0.7-0.2-1.2-0.6-1.7c-0.4-0.4-0.9-0.6-1.6-0.6L162,30.8L162,30.8z
							 M162,29h2.6c0.9,0,1.6-0.2,2-0.5s0.6-0.9,0.6-1.6s-0.2-1.2-0.6-1.6c-0.4-0.4-1-0.6-1.9-0.6H162V29z"/>
						<path class="st5" d="M181.6,24.7h-4.1v11.7h-2.2V24.7h-4.1v-1.8h10.4L181.6,24.7L181.6,24.7z"/>
						<path class="st5" d="M192,30.3h-5.9v4.3h6.9v1.8h-9.1V22.9h9v1.8h-6.8v3.8h5.9L192,30.3L192,30.3z"/>
						<path class="st5" d="M195.4,36.4V22.9h4.4c1.7,0,3.1,0.5,4.2,1.6c1.1,1.1,1.6,2.4,1.6,4.1v2c0,1.7-0.5,3.1-1.6,4.1
							c-1.1,1.1-2.5,1.6-4.2,1.6L195.4,36.4L195.4,36.4z M197.6,24.7v9.9h2.1c1.1,0,2-0.4,2.6-1.1s1-1.7,1-2.8v-2.1
							c0-1.1-0.3-2.1-1-2.8c-0.6-0.7-1.5-1.1-2.6-1.1H197.6z"/>
					</g>
				</g>
				<g class="st4">
					<path class="st5" d="M254.5,165.6v-1.9h11.7l-5.3-5.4l1.3-1.3l7.7,7.7l-7.7,7.7l-1.4-1.3l5.4-5.4h-11.7L254.5,165.6
						L254.5,165.6z"/>
				</g>
			</g>
			<g>
				<g>
					<circle class="st5" cx="624.1" cy="122.1" r="35.1"/>
				</g>
				<path class="st8" d="M729.5,161.3l-33.5,4l-6.6-50.8c-2.3-14.3,8.8-27.1,23.2-27.1l0,0c14.4,0,25.4,12.9,23.2,27.1L729.5,161.3z
					"/>
				<path class="st9" d="M746.9,115.7c-9.2,0-18.8-3.8-26.6-10.8c-3.6-3.2-3.9-8.7-0.7-12.3s8.7-3.9,12.3-0.7
					c6.5,5.8,14.4,7.9,20.3,5.4c2.8-1.2,5.2-3.5,7.2-6.8c3.7-6.2,2.7-12.8,2.1-15.4c-1.1-4.7,1.8-9.3,6.5-10.4s9.3,1.8,10.4,6.5
					c1.1,4.6,2.8,16.6-4.2,28.2c-3.9,6.5-9,11.2-15.2,13.8C755.3,114.9,751.2,115.7,746.9,115.7z"/>
				<polygon class="st8" points="761.3,48 758.6,83 782.4,81.4 772.9,46 				"/>
				<path class="st8" d="M747.9,55.1l-5-3.7c-1.8-1.4-2.7-3.7-2.3-5.9l1.4-7.3c0.2-1,1.3-1.4,2.1-0.8l0.7,0.6
					c0.2,0.2,0.4,0.5,0.5,0.8L747.9,55.1z"/>
				<path class="st10" d="M734.1,262.5c-0.8,0-1.6-0.2-2.4-0.6c-2.6-1.3-3.6-4.4-2.3-7l22-43.3c1.3-2.6,4.4-3.6,7-2.3s3.6,4.4,2.3,7
					l-22,43.3C737.8,261.5,736,262.5,734.1,262.5z"/>
				<path class="st10" d="M729.1,257c-0.2,3.1,2.3,5.6,5.4,5.6h2l18.1-0.2c1.6,0,2.9-1.2,3.2-2.8c0.3-1.8-0.9-3.5-2.7-3.7l-9.6-1.7
					l-10-2C732.3,251.5,729.3,253.8,729.1,257L729.1,257z"/>
				<path class="st10" d="M596.5,262.5c-1.2,0-2.5-0.4-3.4-1.3c-2.2-1.9-2.4-5.2-0.5-7.3l41.3-46.8c1.9-2.2,5.2-2.4,7.3-0.5
					c2.2,1.9,2.4,5.2,0.5,7.3l-41.3,46.8C599.4,261.9,598,262.5,596.5,262.5z"/>
				<path class="st10" d="M601.7,257c0.2,3.1-2.3,5.6-5.4,5.6h-2l-18.1-0.2c-1.6,0-2.9-1.2-3.2-2.8c-0.3-1.8,0.9-3.5,2.7-3.7
					l9.6-1.7l10-2C598.6,251.5,601.6,253.8,601.7,257L601.7,257z"/>
				<path class="st11" d="M721.5,172.6l-29.7,33.8c-0.1,0.1-0.1,0.1-0.2,0.2L668,246.2c-0.3,0.5-0.8,0.7-1.3,0.7l-91.6,0.7
					c-1.3,0-2-1.6-1.1-2.6l48.5-48.4c0.1-0.1,0.3-0.2,0.4-0.3l73.9-35.1c0.4-0.2,0.8-0.2,1.2,0l22.7,8.9
					C721.9,170.6,722.2,171.8,721.5,172.6z"/>
				<path class="st11" d="M725.1,154.4l48.9,42.8c0.5,0.4,0.6,1,0.4,1.6l-16,48.2c-0.2,0.6-0.8,1-1.4,1l-57.7-0.3
					c-1.1,0-1.8-1.1-1.4-2l16-41.3c0.1-0.2,0.1-0.5,0.1-0.8l-6.1-43.9c-0.1-0.7,0.4-1.5,1.1-1.7l14.8-4
					C724.2,153.9,724.7,154,725.1,154.4z"/>
				<polygon class="st11" points="693.4,87.6 680.7,100.3 691.6,104.7 705.1,90.9 705.1,73.4 693.4,73.4 				"/>
				<path class="st9" d="M692.7,149.3l39.3-3.9l-1.7,13.9c-1.1,8.9-8.6,15.7-17.5,15.9l0,0c-9.2,0.3-17.1-6.4-18.5-15.5L692.7,149.3
					z"/>
				<g>
					<path class="st9" d="M758.8,172.4L738.5,190c-0.6,0.5-1.4,0.4-1.9-0.3l-19.2-29.3c-0.4-0.6-0.2-1.4,0.4-1.8l11.1-6.9
						c0.4-0.3,0.9-0.3,1.3,0l28.5,18.7C759.3,170.9,759.4,171.9,758.8,172.4z"/>
					<path class="st9" d="M672.7,180.1l-8.3-7.5c-0.7-0.6-0.5-1.7,0.3-2.1l31.9-15.3c0.5-0.2,1-0.1,1.4,0.2l8.4,8.2
						c0.6,0.6,0.4,1.7-0.4,2l-32,14.6C673.6,180.6,673.1,180.5,672.7,180.1z"/>
					<path class="st9" d="M680.9,179.3l22.2-17.5c0.1-0.1,0.3-0.2,0.4-0.2l19.7-6c0.8-0.2,1.5,0.3,1.6,1.1l3.6,34.5
						c0.1,0.9-0.7,1.6-1.5,1.3l-45.5-11C680.4,181.3,680.1,180,680.9,179.3z"/>
				</g>
				<g>
					<path class="st8" d="M718.8,51.3l4.7-14c1-3.1,3.9-5.2,7.1-5.3l0,0c4-0.1,7.2-3.3,7.5-7.2l0.5-8l4.3,1.2l-1.2,10.5
						c-0.5,3.9-3.8,6.9-7.8,6.8h-1.4c-2.8,0-5.5,1.5-6.9,4L718.8,51.3z"/>
					<path class="st8" d="M718.9,51.1l8.3-9.4c1.6-1.8,3.9-2.8,6.3-2.6l3.5,0.2c3.4,0.2,6.5-1.8,7.7-5l3.2-8.7l4.7,1.6l-5,11.6
						c-1.4,3.3-4.9,5.1-8.4,4.6l-4.7-0.8c-2.1-0.3-4.2,0.2-5.9,1.4L718.9,51.1z"/>
					<path class="st11" d="M701.1,87.6l17.5,15.3l21.1-8.4L727.8,85c-1.7-1.4-2.7-3.4-2.7-5.6V68.6h-24V87.6L701.1,87.6z"/>
					<path class="st9" d="M693.3,61.7v18.6c0,4,3.3,7.3,7.3,7.3h6.6c10.1,0,18.2-8.2,18.2-18.2V50.8c0-4-3.3-7.3-7.3-7.3h-6.6
						C701.4,43.5,693.3,51.7,693.3,61.7z"/>
					<path class="st10" d="M717,68.5v-1.2c0-7.5-6.1-13.6-13.6-13.6l0,0c-3.1,0-6,1.1-8.3,2.8c-0.5,1.6-0.7,3.4-0.7,5.2v16.9
						c2.4,2.2,5.6,3.5,9.1,3.5l0,0C710.9,82.1,717,76,717,68.5z"/>
					<path class="st12" d="M718,64.1c0-9.2-6.9-16.9-15.8-18c-5.4,3.2-8.9,9-8.9,15.7v18.6c0,0.3,0,0.5,0,0.8c2,0.8,4.2,1.2,6.5,1.2
						C709.9,82.3,718,74.1,718,64.1z"/>
					<polygon class="st13" points="695.7,71.6 702.3,71.6 702.3,60.3 					"/>
					<rect x="694.1" y="57.7" class="st9" width="30.6" height="1.5"/>
					<rect x="693.3" y="64.3" class="st9" width="31.5" height="1.5"/>
					<rect x="693.3" y="77.4" class="st9" width="25.3" height="1.5"/>
					<path class="st5" d="M711.7,63h-1.5c-0.6,0-1.1-0.5-1.1-1.1v-0.1c0-0.6,0.5-1.1,1.1-1.1h1.5c0.6,0,1.1,0.5,1.1,1.1v0.1
						C712.8,62.5,712.3,63,711.7,63z"/>
					<path class="st5" d="M696.8,63h-1.5c-0.6,0-1.1-0.5-1.1-1.1v-0.1c0-0.6,0.5-1.1,1.1-1.1h1.5c0.6,0,1.1,0.5,1.1,1.1v0.1
						C697.9,62.5,697.4,63,696.8,63z"/>
					<circle class="st11" cx="709.7" cy="61.9" r="1.1"/>
					<circle class="st11" cx="695" cy="61.9" r="1.1"/>
					<path class="st5" d="M702.3,76.6l-0.2-1.3c0.1,0,0.2,0,0.3,0c0.8-0.1,2-0.2,3.2-1.3c0.8-0.7,1.4-1.8,1.5-2.8l1.3,0.2
						c-0.2,1.4-0.9,2.7-1.9,3.6c-1.5,1.3-2.9,1.5-3.9,1.6L702.3,76.6z"/>
					<rect x="693.3" y="70.8" class="st9" width="31.5" height="1.5"/>
				</g>
				<g>
					<path class="st10" d="M738.5,43.3L714,41.9l-65.1,1.4l-47.1,1.1c-0.9,0-1.6,0.7-1.6,1.6l0,0c0,0.9,0.7,1.6,1.6,1.6l47.1,1.3
						l65.1,1.3l24.5-1.4V43.3z"/>
					<path class="st11" d="M645.1,48.2v-4.1c0-0.6,0.5-1.2,1.2-1.2h2.7c0.6,0,1.2,0.5,1.2,1.2v4.1c0,0.6-0.5,1.2-1.2,1.2h-2.7
						C645.6,49.4,645.1,48.9,645.1,48.2z"/>
					<path class="st11" d="M600.1,47.2v-2.3c0-0.5,0.4-1,1-1h2.7c0.5,0,1,0.4,1,1v2.3c0,0.5-0.4,1-1,1H601
						C600.5,48.2,600.1,47.8,600.1,47.2z"/>
					<polygon class="st11" points="784.4,50.8 784.4,41.4 738.4,43.3 738.4,49 					"/>
					<path class="st11" d="M735.3,57.4v-22c0-0.5,0.4-0.9,0.9-0.9h2.2c0.5,0,0.9,0.4,0.9,0.9v22c0,0.5-0.4,0.9-0.9,0.9h-2.2
						C735.7,58.3,735.3,57.9,735.3,57.4z"/>
				</g>
				<path class="st8" d="M770.9,35.2l-7.9,0.5c-2.5,0.2-4.1,2.7-3.2,5l1,2.5c0.7,1.8,2.5,2.9,4.5,2.7l5.8-0.7c2.1-0.3,3.7-2,3.7-4.1
					v-2.2C774.9,36.7,773.1,35,770.9,35.2z"/>
				<path class="st8" d="M767.5,55l-5.8-2.3c-2.1-0.8-3.6-2.8-3.8-5.1l-0.7-7.4c-0.1-1,0.9-1.7,1.8-1.3l0.8,0.4
					c0.3,0.1,0.5,0.4,0.6,0.6L767.5,55z"/>
				<path class="st14" d="M713.8,124.2c-3.9,0-8.6-0.7-13.2-3.2c-5.5-2.9-10-7.8-12.8-13.7c-2-4.4-0.1-9.5,4.2-11.5
					c4.4-2,9.5-0.1,11.5,4.2c0.7,1.5,2.2,4.1,5.2,5.7c3.9,2,8,1,10.4,0.4c4.8-1.2,7.9-4,9.2-5.2c7.8-7,9-17.6,9.2-21.8
					c0.2-4.8,4.3-8.5,9-8.3c4.8,0.2,8.5,4.3,8.3,9c-0.3,6.4-2.3,22.5-14.9,33.9c-1.9,1.7-7.6,6.9-16.6,9.2
					C721.5,123.3,718,124.2,713.8,124.2z"/>
				<g>
					<path class="st8" d="M756.5,36.9l-8-1.6c-2.3-0.5-4.5,1.4-4.4,3.8l0.5,13.6l10.8,0.9l3.8-11.8
						C759.9,39.6,758.6,37.4,756.5,36.9z"/>
					<polygon class="st8" points="744.4,49.8 733.6,83.2 757.1,87.2 756.1,50.6 					"/>
				</g>
				<polygon class="st11" points="693.4,87.6 680.7,100.3 691.6,104.7 705.1,90.9 				"/>
				<g>
					<g>
						<circle class="st8" cx="624.3" cy="122.2" r="5"/>
					</g>
					<g>
						<path class="st8" d="M624.3,133.6c-7,0-13.1-0.8-17.6-2.4c-3-1-5.5-2.4-7.3-3.9c-1.9-1.6-2.9-3.4-2.9-5.1
							c0-3.3,3.6-6.5,9.6-8.6c4.9-1.7,11.4-2.7,18.1-2.7c6.6,0,13,0.9,17.9,2.6c2.9,1,5.3,2.3,7,3.7c1.9,1.6,2.9,3.3,2.9,4.9
							c0,3.4-4,6.9-10.5,9C637,132.7,630.9,133.6,624.3,133.6z M624.3,113.3c-6.4,0-12.7,0.9-17.3,2.5c-5.6,1.9-8,4.6-8,6.4
							s2.7,4.7,8.5,6.7c4.3,1.5,10.1,2.3,16.8,2.3c6.3,0,12.1-0.8,16.5-2.2c6.1-2,8.9-4.9,8.9-6.8c0-0.9-0.7-2-2-3.1
							c-1.5-1.2-3.7-2.4-6.3-3.3C636.8,114.2,630.7,113.3,624.3,113.3z"/>
					</g>
					<g>
						<path class="st8" d="M613.1,146.9c-1,0-1.9-0.2-2.6-0.6c-2.8-1.6-3.8-6.4-2.6-12.6c1-5.1,3.4-11.2,6.7-17l0,0
							c3.3-5.7,7.3-10.8,11.2-14.2c2.3-2,4.6-3.5,6.7-4.2c2.3-0.8,4.3-0.8,5.7,0c3,1.7,3.9,6.9,2.6,13.6c-1,4.7-3.3,10.5-6.6,16.1
							c-3.5,6-7.2,10.9-10.9,14.1c-2.4,2.1-4.8,3.6-7,4.3C615.1,146.7,614,146.9,613.1,146.9z M616.6,117.8
							c-3.2,5.5-5.6,11.5-6.5,16.3c-1.1,5.8,0,9.3,1.5,10.1c1.6,0.9,5.4,0,10.1-4c3.4-3,7-7.7,10.4-13.5c3.1-5.4,5.4-10.9,6.3-15.4
							c1.3-6.3,0.2-10.1-1.4-11.1c-0.8-0.5-2.1-0.4-3.7,0.2c-1.8,0.7-3.9,2-6,3.8C623.6,107.4,619.8,112.3,616.6,117.8L616.6,117.8z
							"/>
					</g>
					<g>
						<path class="st8" d="M635.6,146.9c-2.7,0-6.1-1.6-9.7-4.7c-4-3.4-8-8.5-11.4-14.4l0,0c-3.3-5.7-5.7-11.7-6.7-16.8
							c-0.6-3-0.7-5.7-0.3-7.9c0.4-2.4,1.4-4.1,2.8-4.9c2.9-1.7,8,0,13.1,4.6c3.6,3.2,7.4,8.1,10.7,13.7c3.5,6,5.8,11.7,6.8,16.4
							c0.6,3.1,0.7,5.9,0.3,8.2c-0.5,2.5-1.5,4.2-3,5.1C637.4,146.7,636.6,146.9,635.6,146.9z M616.6,126.7
							c3.2,5.5,7.2,10.5,10.9,13.7c4.5,3.8,8,4.7,9.5,3.8c1.6-0.9,2.8-4.7,1.5-10.8c-0.9-4.5-3.1-9.9-6.5-15.7
							c-3.1-5.4-6.8-10.1-10.2-13.2c-4.8-4.3-8.7-5.2-10.3-4.3c-0.8,0.5-1.4,1.6-1.7,3.3c-0.3,1.9-0.2,4.4,0.3,7.1
							C611.1,115.5,613.4,121.2,616.6,126.7L616.6,126.7z"/>
					</g>
				</g>
			</g>
		</g>
	</g>
</g>
</svg>
