<svg width="140" height="60" viewBox="0 0 140 60" fill="none" xmlns="http://www.w3.org/2000/svg">
<g clip-path="url(#clip0_14391_128621)">
<mask id="path-3-inside-1_14391_128621" fill="white">
<path d="M0 0.25H140V19.25H0V0.25Z"/>
</mask>
<path d="M0 0.25H140V19.25H0V0.25Z" fill="white"/>
<path d="M140 19.25V18.875H0V19.25V19.625H140V19.25Z" fill="white" mask="url(#path-3-inside-1_14391_128621)"/>
<path d="M140 19.25V18.875H0V19.25V19.625H140V19.25Z" fill="#3958AC" fill-opacity="0.24" mask="url(#path-3-inside-1_14391_128621)"/>
<rect x="4" y="4.75" width="33.5" height="10" rx="5" fill="#C2D1EB" fill-opacity="0.7"/>
<path d="M11.75 7.125L12.3864 8.73855L14 9.375L12.3864 10.0114L11.75 11.625L11.1136 10.0114L9.5 9.375L11.1136 8.73855L11.75 7.125ZM9.10227 10.8523L8 11.25L9.10227 11.6477L9.5 12.75L9.89773 11.6477L11 11.25L9.89773 10.8523L9.5 9.75L9.10227 10.8523ZM8.82664 7.57664L8 7.875L8.82664 8.17336L9.125 9L9.42336 8.17336L10.25 7.875L9.42336 7.57664L9.125 6.75L8.82664 7.57664Z" fill="#5473C8"/>
<rect x="16" y="8.75" width="17.5" height="2" rx="1" fill="#5473C8"/>
<rect x="38.5" y="4.25" width="34.5" height="11" rx="5.5" fill="white"/>
<path d="M43.375 6.6875H48.625C48.8656 6.6875 49.0625 6.88437 49.0625 7.125V11.0625C49.0625 11.3031 48.8656 11.5 48.625 11.5H44.25L42.9375 12.8125V7.125C42.9375 6.88437 43.1344 6.6875 43.375 6.6875ZM48.6242 11.0625L48.625 11.0617V7.12578L48.6242 7.125H43.3758L43.375 7.12578V11.7563L44.0688 11.0625H48.6242Z" fill="#5473C8"/>
<rect x="51.5" y="8.75" width="17.5" height="2" rx="1" fill="#5473C8"/>
<rect width="140" height="22.5" transform="translate(0 19.25)" fill="#F2F6FB"/>
<rect x="8.1875" y="23.4375" width="123.625" height="14.125" rx="0.8125" fill="white"/>
<rect x="8.1875" y="23.4375" width="123.625" height="14.125" rx="0.8125" stroke="white" stroke-width="0.375"/>
<rect x="8.1875" y="23.4375" width="123.625" height="14.125" rx="0.8125" stroke="#3958AC" stroke-opacity="0.24" stroke-width="0.375"/>
<rect x="12" y="29" width="83" height="3" rx="1.5" fill="#C2D1EB"/>
<path d="M129.606 36.8563L129.253 36.5031L130.753 35.0031L131.106 35.3563L129.606 36.8563ZM130.852 33.6031L130.498 33.25L127.5 36.2484L127.853 36.6016L130.852 33.6031Z" fill="#90ABDA"/>
<rect width="140" height="18" transform="translate(0 41.75)" fill="white"/>
<rect x="4" y="45.75" width="37" height="10" rx="5" fill="#5473C8"/>
<path d="M11.75 48.125L12.3864 49.7386L14 50.375L12.3864 51.0114L11.75 52.625L11.1136 51.0114L9.5 50.375L11.1136 49.7386L11.75 48.125ZM9.10227 51.8523L8 52.25L9.10227 52.6477L9.5 53.75L9.89773 52.6477L11 52.25L9.89773 51.8523L9.5 50.75L9.10227 51.8523ZM8.82664 48.5766L8 48.875L8.82664 49.1734L9.125 50L9.42336 49.1734L10.25 48.875L9.42336 48.5766L9.125 47.75L8.82664 48.5766Z" fill="white"/>
<rect x="16" y="49.75" width="17.5" height="2" rx="1" fill="white"/>
</g>
<rect x="0.1875" y="0.4375" width="139.625" height="59.125" stroke="white" stroke-width="0.375"/>
<rect x="0.1875" y="0.4375" width="139.625" height="59.125" stroke="#3958AC" stroke-opacity="0.24" stroke-width="0.375"/>
<defs>
<clipPath id="clip0_14391_128621">
<rect y="0.25" width="140" height="59.5" fill="white"/>
</clipPath>
</defs>
</svg>
