<svg width="143" height="62" viewBox="0 0 143 62" fill="none" xmlns="http://www.w3.org/2000/svg">
<rect x="0.4375" y="0.4375" width="142.125" height="17.625" fill="#E4EBF6"/>
<rect x="0.4375" y="0.4375" width="142.125" height="17.625" stroke="#C2D1EB" stroke-width="0.375"/>
<path d="M3.625 5.125C3.625 4.29657 4.29657 3.625 5.125 3.625H20.5V14.875H5.125C4.29657 14.875 3.625 14.2034 3.625 13.375V5.125Z" fill="#5473C8"/>
<rect x="8.125" y="8.125" width="7.875" height="2.25" rx="1.125" fill="white"/>
<rect width="16.875" height="11.25" transform="translate(20.5 3.625)" fill="#C2D1EB"/>
<rect x="25" y="8.125" width="7.875" height="2.25" rx="1.125" fill="#5473C8"/>
<path d="M37.375 3.625H52.75C53.5784 3.625 54.25 4.29657 54.25 5.125V13.375C54.25 14.2034 53.5784 14.875 52.75 14.875H37.375V3.625Z" fill="#C2D1EB"/>
<rect x="41.875" y="8.125" width="7.875" height="2.25" rx="1.125" fill="#5473C8"/>
<g clip-path="url(#clip0_14391_129169)">
<path d="M80.125 5.125C80.125 4.29657 80.7966 3.625 81.625 3.625H113.875V14.875H81.625C80.7966 14.875 80.125 14.2034 80.125 13.375V5.125Z" fill="#C2D1EB"/>
<rect x="84.625" y="8.125" width="24.75" height="2.25" rx="1.125" fill="#5473C8"/>
<mask id="path-11-inside-1_14391_129169" fill="white">
<path d="M113.875 3.625H123.625C124.453 3.625 125.125 4.29657 125.125 5.125V13.375C125.125 14.2034 124.453 14.875 123.625 14.875H113.875V3.625Z"/>
</mask>
<path d="M113.875 3.625H123.625C124.453 3.625 125.125 4.29657 125.125 5.125V13.375C125.125 14.2034 124.453 14.875 123.625 14.875H113.875V3.625Z" fill="#C2D1EB"/>
<path d="M113.875 3.625H125.125H113.875ZM125.125 14.875H113.875H125.125ZM113.5 14.875V3.625H114.25V14.875H113.5ZM125.125 3.625V14.875V3.625Z" fill="#90ABDA" mask="url(#path-11-inside-1_14391_129169)"/>
<path d="M119.5 10.375L118 8.125H121L119.5 10.375Z" fill="#5473C8"/>
</g>
<rect x="80.3125" y="3.8125" width="44.625" height="10.875" rx="1.3125" stroke="#C2D1EB" stroke-width="0.375"/>
<rect x="128.125" y="3.625" width="11.25" height="11.25" rx="1.5" fill="#C2D1EB"/>
<path d="M133.562 7.75C133.872 7.75 134.125 7.49688 134.125 7.1875C134.125 6.87813 133.872 6.625 133.562 6.625C133.253 6.625 133 6.87813 133 7.1875C133 7.49688 133.253 7.75 133.562 7.75Z" fill="#5473C8"/>
<path d="M133.562 8.5C133.253 8.5 133 8.75313 133 9.0625C133 9.37187 133.253 9.625 133.562 9.625C133.872 9.625 134.125 9.37187 134.125 9.0625C134.125 8.75313 133.872 8.5 133.562 8.5Z" fill="#5473C8"/>
<path d="M133.562 10.375C133.253 10.375 133 10.6281 133 10.9375C133 11.2469 133.253 11.5 133.562 11.5C133.872 11.5 134.125 11.2469 134.125 10.9375C134.125 10.6281 133.872 10.375 133.562 10.375Z" fill="#5473C8"/>
<mask id="path-16-inside-2_14391_129169" fill="white">
<path d="M0.25 18.25H142.75V61.75H0.25V18.25Z"/>
</mask>
<path d="M0.25 18.25H142.75V61.75H0.25V18.25Z" fill="white"/>
<path d="M142.75 61.75V62.125H143.125V61.75H142.75ZM0.25 61.75H-0.125V62.125H0.25V61.75ZM142.75 18.25H142.375V61.75H142.75H143.125V18.25H142.75ZM142.75 61.75V61.375H0.25V61.75V62.125H142.75V61.75ZM0.25 61.75H0.625V18.25H0.25H-0.125V61.75H0.25Z" fill="#C2D1EB" mask="url(#path-16-inside-2_14391_129169)"/>
<rect x="5.125" y="25.375" width="132.75" height="2.25" rx="1.125" fill="#C2D1EB"/>
<rect x="5.125" y="32.125" width="132.75" height="2.25" rx="1.125" fill="#C2D1EB"/>
<rect x="5.125" y="38.875" width="132.75" height="2.25" rx="1.125" fill="#C2D1EB"/>
<rect x="5.125" y="45.625" width="132.75" height="2.25" rx="1.125" fill="#C2D1EB"/>
<rect x="5.125" y="52.375" width="52.5" height="2.25" rx="1.125" fill="#C2D1EB"/>
<defs>
<clipPath id="clip0_14391_129169">
<rect x="80.125" y="3.625" width="45" height="11.25" rx="1.5" fill="white"/>
</clipPath>
</defs>
</svg>
