<svg width="79" height="68" viewBox="0 0 79 68" fill="none" xmlns="http://www.w3.org/2000/svg">
<rect width="78.5007" height="67.5" transform="translate(0.250488 0.25)" fill="white"/>
<rect x="5.25049" y="7" width="18.75" height="1.5" rx="0.75" fill="#90ABDA"/>
<rect x="5.25049" y="10.25" width="68.5007" height="0.5" fill="#C2D1EB"/>
<rect x="5.25049" y="20" width="10.5" height="1.5" rx="0.75" fill="#90ABDA"/>
<path d="M6.25049 23.375H72.7515C73.2346 23.3751 73.6265 23.7668 73.6265 24.25V29.75C73.6265 30.2332 73.2346 30.6249 72.7515 30.625H6.25049C5.76724 30.625 5.37549 30.2332 5.37549 29.75V24.25L5.38037 24.1602C5.42537 23.7191 5.79758 23.375 6.25049 23.375Z" fill="white"/>
<path d="M6.25049 23.375H72.7515C73.2346 23.3751 73.6265 23.7668 73.6265 24.25V29.75C73.6265 30.2332 73.2346 30.6249 72.7515 30.625H6.25049C5.76724 30.625 5.37549 30.2332 5.37549 29.75V24.25L5.38037 24.1602C5.42537 23.7191 5.79758 23.375 6.25049 23.375Z" stroke="#C2D1EB" stroke-width="0.25"/>
<rect x="8.25049" y="26.25" width="18.75" height="1.5" rx="0.75" fill="#5473C8"/>
<path d="M71.7512 26.1039L70.8551 27L71.7512 27.8961L71.3973 28.25L70.5012 27.3539L69.6051 28.25L69.2512 27.8961L70.1473 27L69.2512 26.1039L69.6051 25.75L70.5012 26.6461L71.3973 25.75L71.7512 26.1039Z" fill="#90ABDA"/>
<rect x="5.25049" y="36.5" width="10.5" height="1.5" rx="0.75" fill="#90ABDA"/>
<rect x="5.25049" y="39.75" width="68.5007" height="7.5" rx="1" stroke="#C2D1EB"/>
<g clip-path="url(#clip0_14391_129125)">
<g clip-path="url(#clip1_14391_129125)">
<path d="M5.25049 40.75C5.25049 40.1977 5.6982 39.75 6.25049 39.75H66.2512V47.25H6.25049C5.6982 47.25 5.25049 46.8023 5.25049 46.25V40.75Z" fill="#C2D1EB"/>
<rect x="8.25049" y="42.75" width="18.75" height="1.5" rx="0.75" fill="#5473C8"/>
</g>
<path d="M66.2512 39.75H72.7512C73.3035 39.75 73.7512 40.1977 73.7512 40.75V46.25C73.7512 46.8023 73.3035 47.25 72.7512 47.25H66.2512V39.75Z" fill="#C2D1EB"/>
<path d="M70.0012 44.25L69.0012 42.75H71.0012L70.0012 44.25Z" fill="#5473C8"/>
</g>
<rect x="5.37549" y="39.875" width="68.2507" height="7.25" rx="0.875" stroke="#C2D1EB" stroke-width="0.25"/>
<rect x="5.25049" y="55.25" width="15" height="7.5" rx="1" fill="#5473C8"/>
<rect x="8.25049" y="58.25" width="9" height="1.5" rx="0.75" fill="white"/>
<rect x="22.2505" y="55.25" width="15" height="7.5" rx="1" fill="#C2D1EB"/>
<rect x="25.2505" y="58.25" width="9" height="1.5" rx="0.75" fill="#5473C8"/>
<defs>
<clipPath id="clip0_14391_129125">
<rect x="5.25049" y="39.75" width="68.5007" height="7.5" rx="1" fill="white"/>
</clipPath>
<clipPath id="clip1_14391_129125">
<path d="M5.25049 40.75C5.25049 40.1977 5.6982 39.75 6.25049 39.75H66.2512V47.25H6.25049C5.6982 47.25 5.25049 46.8023 5.25049 46.25V40.75Z" fill="white"/>
</clipPath>
</defs>
</svg>
