<svg width="131" height="66" viewBox="0 0 131 66" fill="none" xmlns="http://www.w3.org/2000/svg">
<g clip-path="url(#clip0_14400_189436)">
<mask id="path-3-inside-1_14400_189436" fill="white">
<path d="M0.348877 0.813965H130.047V7.91862H0.348877V0.813965Z"/>
</mask>
<path d="M0.348877 0.813965H130.047V7.91862H0.348877V0.813965Z" fill="#E4ECF6"/>
<path d="M130.047 7.91862V7.76745H0.348877V7.91862V8.06978H130.047V7.91862Z" fill="black" fill-opacity="0.08" mask="url(#path-3-inside-1_14400_189436)"/>
<path d="M1.55811 2.62791C1.55811 2.29397 1.82882 2.02325 2.16276 2.02325H10.6279V6.55814H2.16276C1.82882 6.55814 1.55811 6.28743 1.55811 5.95349V2.62791Z" fill="#C2D1EB"/>
<rect x="3.37207" y="3.83722" width="5.44186" height="0.906977" rx="0.453488" fill="#5473C8"/>
<g clip-path="url(#clip1_14400_189436)">
<rect width="4.53488" height="4.53488" transform="translate(10.6279 2.02325)" fill="#C2D1EB"/>
<path d="M12.3286 4.29073L13.4623 3.53491V5.04654L12.3286 4.29073Z" fill="#3958AC"/>
</g>
<g clip-path="url(#clip2_14400_189436)">
<path d="M15.1628 2.02325H19.0931C19.427 2.02325 19.6977 2.29397 19.6977 2.62791V5.95349C19.6977 6.28743 19.427 6.55814 19.0931 6.55814H15.1628V2.02325Z" fill="#C2D1EB"/>
<path d="M17.997 4.29073L16.8633 5.04654V3.53491L17.997 4.29073Z" fill="#3958AC"/>
</g>
<rect x="22.1162" y="3.83722" width="13.3023" height="0.906977" rx="0.453488" fill="#90ABDA"/>
<path d="M92.5581 2.62791C92.5581 2.29397 92.8288 2.02325 93.1628 2.02325H101.628V6.55814H93.1628C92.8288 6.55814 92.5581 6.28743 92.5581 5.95349V2.62791Z" fill="#C2D1EB"/>
<rect x="94.3721" y="3.83722" width="5.44186" height="0.906977" rx="0.453488" fill="#5473C8"/>
<path d="M101.628 2.02325H110.698V6.55814H101.628V2.02325Z" fill="#5473C8"/>
<rect x="103.442" y="3.83722" width="5.44186" height="0.906977" rx="0.453488" fill="white"/>
<rect width="9.06977" height="4.53488" transform="translate(110.698 2.02325)" fill="#C2D1EB"/>
<rect x="112.512" y="3.83722" width="5.44186" height="0.906977" rx="0.453488" fill="#5473C8"/>
<path d="M119.768 2.02325H128.233C128.567 2.02325 128.837 2.29397 128.837 2.62791V5.95349C128.837 6.28743 128.567 6.55814 128.233 6.55814H119.768V2.02325Z" fill="#C2D1EB"/>
<rect x="121.582" y="3.83722" width="5.44186" height="0.906977" rx="0.453488" fill="#5473C8"/>
<g clip-path="url(#clip3_14400_189436)">
<rect width="129.698" height="50.1628" transform="translate(0.348877 7.91858)" fill="white"/>
<mask id="path-18-inside-2_14400_189436" fill="white">
<path d="M0.348877 7.91858H13.1977V13.5116H0.348877V7.91858Z"/>
</mask>
<path d="M0.348877 7.91858H13.1977V13.5116H0.348877V7.91858Z" fill="white"/>
<path d="M13.1977 13.5116V13.6628H13.3489V13.5116H13.1977ZM13.1977 7.91858H13.0466V13.5116H13.1977H13.3489V7.91858H13.1977ZM13.1977 13.5116V13.3604H0.348877V13.5116V13.6628H13.1977V13.5116Z" fill="#C2D1EB" mask="url(#path-18-inside-2_14400_189436)"/>
<mask id="path-20-inside-3_14400_189436" fill="white">
<path d="M13.1978 7.91858H36.5675V13.5116H13.1978V7.91858Z"/>
</mask>
<path d="M13.1978 7.91858H36.5675V13.5116H13.1978V7.91858Z" fill="white"/>
<path d="M36.5675 13.5116V13.6628H36.7187V13.5116H36.5675ZM36.5675 7.91858H36.4164V13.5116H36.5675H36.7187V7.91858H36.5675ZM36.5675 13.5116V13.3604H13.1978V13.5116V13.6628H36.5675V13.5116Z" fill="#C2D1EB" mask="url(#path-20-inside-3_14400_189436)"/>
<rect x="19.5164" y="10.186" width="10.5814" height="0.906977" rx="0.453488" fill="#C2D1EB"/>
<mask id="path-23-inside-4_14400_189436" fill="white">
<path d="M36.5674 7.91858H59.9372V13.5116H36.5674V7.91858Z"/>
</mask>
<path d="M36.5674 7.91858H59.9372V13.5116H36.5674V7.91858Z" fill="white"/>
<path d="M59.9372 13.5116V13.6628H60.0883V13.5116H59.9372ZM59.9372 7.91858H59.786V13.5116H59.9372H60.0883V7.91858H59.9372ZM59.9372 13.5116V13.3604H36.5674V13.5116V13.6628H59.9372V13.5116Z" fill="#C2D1EB" mask="url(#path-23-inside-4_14400_189436)"/>
<rect x="42.8862" y="10.186" width="10.5814" height="0.906977" rx="0.453488" fill="#C2D1EB"/>
<mask id="path-26-inside-5_14400_189436" fill="white">
<path d="M59.9373 7.91858H83.307V13.5116H59.9373V7.91858Z"/>
</mask>
<path d="M59.9373 7.91858H83.307V13.5116H59.9373V7.91858Z" fill="white"/>
<path d="M83.307 13.5116V13.6628H83.4582V13.5116H83.307ZM83.307 7.91858H83.1559V13.5116H83.307H83.4582V7.91858H83.307ZM83.307 13.5116V13.3604H59.9373V13.5116V13.6628H83.307V13.5116Z" fill="#C2D1EB" mask="url(#path-26-inside-5_14400_189436)"/>
<rect x="66.2559" y="10.186" width="10.5814" height="0.906977" rx="0.453488" fill="#C2D1EB"/>
<mask id="path-29-inside-6_14400_189436" fill="white">
<path d="M83.3071 7.91858H106.677V13.5116H83.3071V7.91858Z"/>
</mask>
<path d="M83.3071 7.91858H106.677V13.5116H83.3071V7.91858Z" fill="white"/>
<path d="M106.677 13.5116V13.6628H106.828V13.5116H106.677ZM106.677 7.91858H106.526V13.5116H106.677H106.828V7.91858H106.677ZM106.677 13.5116V13.3604H83.3071V13.5116V13.6628H106.677V13.5116Z" fill="#C2D1EB" mask="url(#path-29-inside-6_14400_189436)"/>
<rect x="89.6255" y="10.186" width="10.5814" height="0.906977" rx="0.453488" fill="#C2D1EB"/>
<mask id="path-32-inside-7_14400_189436" fill="white">
<path d="M106.677 7.91858H130.047V13.5116H106.677V7.91858Z"/>
</mask>
<path d="M106.677 7.91858H130.047V13.5116H106.677V7.91858Z" fill="white"/>
<path d="M130.047 13.5116V13.6628H130.198V13.5116H130.047ZM130.047 7.91858H129.895V13.5116H130.047H130.198V7.91858H130.047ZM130.047 13.5116V13.3604H106.677V13.5116V13.6628H130.047V13.5116Z" fill="#C2D1EB" mask="url(#path-32-inside-7_14400_189436)"/>
<rect x="112.995" y="10.186" width="10.5814" height="0.906977" rx="0.453488" fill="#C2D1EB"/>
<mask id="path-35-inside-8_14400_189436" fill="white">
<path d="M0.348877 13.5116H13.1977V29.3837H0.348877V13.5116Z"/>
</mask>
<path d="M0.348877 13.5116H13.1977V29.3837H0.348877V13.5116Z" fill="white"/>
<path d="M13.1977 29.3837V29.5349H13.3489V29.3837H13.1977ZM13.1977 13.5116H13.0466V29.3837H13.1977H13.3489V13.5116H13.1977ZM13.1977 29.3837V29.2325H0.348877V29.3837V29.5349H13.1977V29.3837Z" fill="#C2D1EB" mask="url(#path-35-inside-8_14400_189436)"/>
<rect x="3.06982" y="15.7791" width="7.25581" height="0.906977" rx="0.453488" fill="#C2D1EB"/>
<mask id="path-38-inside-9_14400_189436" fill="white">
<path d="M13.1978 13.5116H36.5675V29.3837H13.1978V13.5116Z"/>
</mask>
<path d="M13.1978 13.5116H36.5675V29.3837H13.1978V13.5116Z" fill="white"/>
<path d="M36.5675 29.3837V29.5349H36.7187V29.3837H36.5675ZM36.5675 13.5116H36.4164V29.3837H36.5675H36.7187V13.5116H36.5675ZM36.5675 29.3837V29.2325H13.1978V29.3837V29.5349H36.5675V29.3837Z" fill="#C2D1EB" mask="url(#path-38-inside-9_14400_189436)"/>
<mask id="path-40-inside-10_14400_189436" fill="white">
<path d="M36.5674 13.5116H59.9372V29.3837H36.5674V13.5116Z"/>
</mask>
<path d="M36.5674 13.5116H59.9372V29.3837H36.5674V13.5116Z" fill="white"/>
<path d="M59.9372 29.3837V29.5349H60.0883V29.3837H59.9372ZM59.9372 13.5116H59.786V29.3837H59.9372H60.0883V13.5116H59.9372ZM59.9372 29.3837V29.2325H36.5674V29.3837V29.5349H59.9372V29.3837Z" fill="#C2D1EB" mask="url(#path-40-inside-10_14400_189436)"/>
<mask id="path-42-inside-11_14400_189436" fill="white">
<path d="M59.9373 13.5116H83.307V29.3837H59.9373V13.5116Z"/>
</mask>
<path d="M59.9373 13.5116H83.307V29.3837H59.9373V13.5116Z" fill="white"/>
<path d="M83.307 29.3837V29.5349H83.4582V29.3837H83.307ZM83.307 13.5116H83.1559V29.3837H83.307H83.4582V13.5116H83.307ZM83.307 29.3837V29.2325H59.9373V29.3837V29.5349H83.307V29.3837Z" fill="#C2D1EB" mask="url(#path-42-inside-11_14400_189436)"/>
<mask id="path-44-inside-12_14400_189436" fill="white">
<path d="M83.3071 13.5116H106.677V29.3837H83.3071V13.5116Z"/>
</mask>
<path d="M83.3071 13.5116H106.677V29.3837H83.3071V13.5116Z" fill="white"/>
<path d="M106.677 29.3837V29.5349H106.828V29.3837H106.677ZM106.677 13.5116H106.526V29.3837H106.677H106.828V13.5116H106.677ZM106.677 29.3837V29.2325H83.3071V29.3837V29.5349H106.677V29.3837Z" fill="#C2D1EB" mask="url(#path-44-inside-12_14400_189436)"/>
<mask id="path-46-inside-13_14400_189436" fill="white">
<path d="M106.677 13.5116H130.047V29.3837H106.677V13.5116Z"/>
</mask>
<path d="M106.677 13.5116H130.047V29.3837H106.677V13.5116Z" fill="white"/>
<path d="M130.047 29.3837V29.5349H130.198V29.3837H130.047ZM130.047 13.5116H129.895V29.3837H130.047H130.198V13.5116H130.047ZM130.047 29.3837V29.2325H106.677V29.3837V29.5349H130.047V29.3837Z" fill="#C2D1EB" mask="url(#path-46-inside-13_14400_189436)"/>
<mask id="path-48-inside-14_14400_189436" fill="white">
<path d="M0.348877 29.3837H13.1977V43.7326H0.348877V29.3837Z"/>
</mask>
<path d="M0.348877 29.3837H13.1977V43.7326H0.348877V29.3837Z" fill="white"/>
<path d="M13.1977 43.7326V43.8837H13.3489V43.7326H13.1977ZM13.1977 29.3837H13.0466V43.7326H13.1977H13.3489V29.3837H13.1977ZM13.1977 43.7326V43.5814H0.348877V43.7326V43.8837H13.1977V43.7326Z" fill="#C2D1EB" mask="url(#path-48-inside-14_14400_189436)"/>
<rect x="3.06982" y="31.6511" width="7.25581" height="0.906977" rx="0.453488" fill="#C2D1EB"/>
<g clip-path="url(#clip4_14400_189436)">
<mask id="path-51-inside-15_14400_189436" fill="white">
<path d="M13.1978 29.3837H36.5675V36.5581H13.1978V29.3837Z"/>
</mask>
<mask id="path-53-inside-16_14400_189436" fill="white">
<path d="M13.1978 29.3837H36.5675V36.5581H13.1978V29.3837Z"/>
</mask>
<path d="M13.1978 29.3837H36.5675V36.5581H13.1978V29.3837Z" fill="white"/>
<path d="M13.1978 36.5581V36.6337H13.3476V36.5581V36.4826H13.1978V36.5581ZM13.6472 36.5581V36.6337H13.9468V36.5581V36.4826H13.6472V36.5581ZM14.2464 36.5581V36.6337H14.546V36.5581V36.4826H14.2464V36.5581ZM14.8456 36.5581V36.6337H15.1452V36.5581V36.4826H14.8456V36.5581ZM15.4448 36.5581V36.6337H15.7445V36.5581V36.4826H15.4448V36.5581ZM16.0441 36.5581V36.6337H16.3437V36.5581V36.4826H16.0441V36.5581ZM16.6433 36.5581V36.6337H16.9429V36.5581V36.4826H16.6433V36.5581ZM17.2425 36.5581V36.6337H17.5421V36.5581V36.4826H17.2425V36.5581ZM17.8417 36.5581V36.6337H18.1414V36.5581V36.4826H17.8417V36.5581ZM18.441 36.5581V36.6337H18.7406V36.5581V36.4826H18.441V36.5581ZM19.0402 36.5581V36.6337H19.3398V36.5581V36.4826H19.0402V36.5581ZM19.6394 36.5581V36.6337H19.939V36.5581V36.4826H19.6394V36.5581ZM20.2386 36.5581V36.6337H20.5383V36.5581V36.4826H20.2386V36.5581ZM20.8379 36.5581V36.6337H21.1375V36.5581V36.4826H20.8379V36.5581ZM21.4371 36.5581V36.6337H21.7367V36.5581V36.4826H21.4371V36.5581ZM22.0363 36.5581V36.6337H22.3359V36.5581V36.4826H22.0363V36.5581ZM22.6355 36.5581V36.6337H22.9352V36.5581V36.4826H22.6355V36.5581ZM23.2348 36.5581V36.6337H23.5344V36.5581V36.4826H23.2348V36.5581ZM23.834 36.5581V36.6337H24.1336V36.5581V36.4826H23.834V36.5581ZM24.4332 36.5581V36.6337H24.7328V36.5581V36.4826H24.4332V36.5581ZM25.0324 36.5581V36.6337H25.3321V36.5581V36.4826H25.0324V36.5581ZM25.6317 36.5581V36.6337H25.9313V36.5581V36.4826H25.6317V36.5581ZM26.2309 36.5581V36.6337H26.5305V36.5581V36.4826H26.2309V36.5581ZM26.8301 36.5581V36.6337H27.1297V36.5581V36.4826H26.8301V36.5581ZM27.4293 36.5581V36.6337H27.7289V36.5581V36.4826H27.4293V36.5581ZM28.0286 36.5581V36.6337H28.3282V36.5581V36.4826H28.0286V36.5581ZM28.6278 36.5581V36.6337H28.9274V36.5581V36.4826H28.6278V36.5581ZM29.227 36.5581V36.6337H29.5266V36.5581V36.4826H29.227V36.5581ZM29.8262 36.5581V36.6337H30.1258V36.5581V36.4826H29.8262V36.5581ZM30.4255 36.5581V36.6337H30.7251V36.5581V36.4826H30.4255V36.5581ZM31.0247 36.5581V36.6337H31.3243V36.5581V36.4826H31.0247V36.5581ZM31.6239 36.5581V36.6337H31.9235V36.5581V36.4826H31.6239V36.5581ZM32.2231 36.5581V36.6337H32.5227V36.5581V36.4826H32.2231V36.5581ZM32.8224 36.5581V36.6337H33.122V36.5581V36.4826H32.8224V36.5581ZM33.4216 36.5581V36.6337H33.7212V36.5581V36.4826H33.4216V36.5581ZM34.0208 36.5581V36.6337H34.3204V36.5581V36.4826H34.0208V36.5581ZM34.62 36.5581V36.6337H34.9196V36.5581V36.4826H34.62V36.5581ZM35.2193 36.5581V36.6337H35.5189V36.5581V36.4826H35.2193V36.5581ZM35.8185 36.5581V36.6337H36.1181V36.5581V36.4826H35.8185V36.5581ZM36.4177 36.5581V36.6337H36.5675V36.5581V36.4826H36.4177V36.5581ZM13.1978 36.5581V36.7093H13.3476V36.5581V36.407H13.1978V36.5581ZM13.6472 36.5581V36.7093H13.9468V36.5581V36.407H13.6472V36.5581ZM14.2464 36.5581V36.7093H14.546V36.5581V36.407H14.2464V36.5581ZM14.8456 36.5581V36.7093H15.1452V36.5581V36.407H14.8456V36.5581ZM15.4448 36.5581V36.7093H15.7445V36.5581V36.407H15.4448V36.5581ZM16.0441 36.5581V36.7093H16.3437V36.5581V36.407H16.0441V36.5581ZM16.6433 36.5581V36.7093H16.9429V36.5581V36.407H16.6433V36.5581ZM17.2425 36.5581V36.7093H17.5421V36.5581V36.407H17.2425V36.5581ZM17.8417 36.5581V36.7093H18.1414V36.5581V36.407H17.8417V36.5581ZM18.441 36.5581V36.7093H18.7406V36.5581V36.407H18.441V36.5581ZM19.0402 36.5581V36.7093H19.3398V36.5581V36.407H19.0402V36.5581ZM19.6394 36.5581V36.7093H19.939V36.5581V36.407H19.6394V36.5581ZM20.2386 36.5581V36.7093H20.5383V36.5581V36.407H20.2386V36.5581ZM20.8379 36.5581V36.7093H21.1375V36.5581V36.407H20.8379V36.5581ZM21.4371 36.5581V36.7093H21.7367V36.5581V36.407H21.4371V36.5581ZM22.0363 36.5581V36.7093H22.3359V36.5581V36.407H22.0363V36.5581ZM22.6355 36.5581V36.7093H22.9352V36.5581V36.407H22.6355V36.5581ZM23.2348 36.5581V36.7093H23.5344V36.5581V36.407H23.2348V36.5581ZM23.834 36.5581V36.7093H24.1336V36.5581V36.407H23.834V36.5581ZM24.4332 36.5581V36.7093H24.7328V36.5581V36.407H24.4332V36.5581ZM25.0324 36.5581V36.7093H25.3321V36.5581V36.407H25.0324V36.5581ZM25.6317 36.5581V36.7093H25.9313V36.5581V36.407H25.6317V36.5581ZM26.2309 36.5581V36.7093H26.5305V36.5581V36.407H26.2309V36.5581ZM26.8301 36.5581V36.7093H27.1297V36.5581V36.407H26.8301V36.5581ZM27.4293 36.5581V36.7093H27.7289V36.5581V36.407H27.4293V36.5581ZM28.0286 36.5581V36.7093H28.3282V36.5581V36.407H28.0286V36.5581ZM28.6278 36.5581V36.7093H28.9274V36.5581V36.407H28.6278V36.5581ZM29.227 36.5581V36.7093H29.5266V36.5581V36.407H29.227V36.5581ZM29.8262 36.5581V36.7093H30.1258V36.5581V36.407H29.8262V36.5581ZM30.4255 36.5581V36.7093H30.7251V36.5581V36.407H30.4255V36.5581ZM31.0247 36.5581V36.7093H31.3243V36.5581V36.407H31.0247V36.5581ZM31.6239 36.5581V36.7093H31.9235V36.5581V36.407H31.6239V36.5581ZM32.2231 36.5581V36.7093H32.5227V36.5581V36.407H32.2231V36.5581ZM32.8224 36.5581V36.7093H33.122V36.5581V36.407H32.8224V36.5581ZM33.4216 36.5581V36.7093H33.7212V36.5581V36.407H33.4216V36.5581ZM34.0208 36.5581V36.7093H34.3204V36.5581V36.407H34.0208V36.5581ZM34.62 36.5581V36.7093H34.9196V36.5581V36.407H34.62V36.5581ZM35.2193 36.5581V36.7093H35.5189V36.5581V36.407H35.2193V36.5581ZM35.8185 36.5581V36.7093H36.1181V36.5581V36.407H35.8185V36.5581ZM36.4177 36.5581V36.7093H36.5675V36.5581V36.407H36.4177V36.5581Z" fill="#C2D1EB" mask="url(#path-53-inside-16_14400_189436)"/>
</g>
<path d="M36.5675 29.3837H36.4164V36.5581H36.5675H36.7187V29.3837H36.5675Z" fill="#C2D1EB" mask="url(#path-51-inside-15_14400_189436)"/>
<g clip-path="url(#clip5_14400_189436)">
<mask id="path-55-inside-17_14400_189436" fill="white">
<path d="M36.5674 29.3837H59.9372V36.5581H36.5674V29.3837Z"/>
</mask>
<mask id="path-57-inside-18_14400_189436" fill="white">
<path d="M36.5674 29.3837H59.9372V36.5581H36.5674V29.3837Z"/>
</mask>
<path d="M36.5674 29.3837H59.9372V36.5581H36.5674V29.3837Z" fill="white"/>
<path d="M36.5674 36.5581V36.6337H36.7172V36.5581V36.4826H36.5674V36.5581ZM37.0168 36.5581V36.6337H37.3164V36.5581V36.4826H37.0168V36.5581ZM37.616 36.5581V36.6337H37.9156V36.5581V36.4826H37.616V36.5581ZM38.2153 36.5581V36.6337H38.5149V36.5581V36.4826H38.2153V36.5581ZM38.8145 36.5581V36.6337H39.1141V36.5581V36.4826H38.8145V36.5581ZM39.4137 36.5581V36.6337H39.7133V36.5581V36.4826H39.4137V36.5581ZM40.0129 36.5581V36.6337H40.3125V36.5581V36.4826H40.0129V36.5581ZM40.6122 36.5581V36.6337H40.9118V36.5581V36.4826H40.6122V36.5581ZM41.2114 36.5581V36.6337H41.511V36.5581V36.4826H41.2114V36.5581ZM41.8106 36.5581V36.6337H42.1102V36.5581V36.4826H41.8106V36.5581ZM42.4098 36.5581V36.6337H42.7094V36.5581V36.4826H42.4098V36.5581ZM43.0091 36.5581V36.6337H43.3087V36.5581V36.4826H43.0091V36.5581ZM43.6083 36.5581V36.6337H43.9079V36.5581V36.4826H43.6083V36.5581ZM44.2075 36.5581V36.6337H44.5071V36.5581V36.4826H44.2075V36.5581ZM44.8067 36.5581V36.6337H45.1063V36.5581V36.4826H44.8067V36.5581ZM45.4059 36.5581V36.6337H45.7056V36.5581V36.4826H45.4059V36.5581ZM46.0052 36.5581V36.6337H46.3048V36.5581V36.4826H46.0052V36.5581ZM46.6044 36.5581V36.6337H46.904V36.5581V36.4826H46.6044V36.5581ZM47.2036 36.5581V36.6337H47.5032V36.5581V36.4826H47.2036V36.5581ZM47.8028 36.5581V36.6337H48.1025V36.5581V36.4826H47.8028V36.5581ZM48.4021 36.5581V36.6337H48.7017V36.5581V36.4826H48.4021V36.5581ZM49.0013 36.5581V36.6337H49.3009V36.5581V36.4826H49.0013V36.5581ZM49.6005 36.5581V36.6337H49.9001V36.5581V36.4826H49.6005V36.5581ZM50.1997 36.5581V36.6337H50.4994V36.5581V36.4826H50.1997V36.5581ZM50.799 36.5581V36.6337H51.0986V36.5581V36.4826H50.799V36.5581ZM51.3982 36.5581V36.6337H51.6978V36.5581V36.4826H51.3982V36.5581ZM51.9974 36.5581V36.6337H52.297V36.5581V36.4826H51.9974V36.5581ZM52.5966 36.5581V36.6337H52.8963V36.5581V36.4826H52.5966V36.5581ZM53.1959 36.5581V36.6337H53.4955V36.5581V36.4826H53.1959V36.5581ZM53.7951 36.5581V36.6337H54.0947V36.5581V36.4826H53.7951V36.5581ZM54.3943 36.5581V36.6337H54.6939V36.5581V36.4826H54.3943V36.5581ZM54.9935 36.5581V36.6337H55.2931V36.5581V36.4826H54.9935V36.5581ZM55.5928 36.5581V36.6337H55.8924V36.5581V36.4826H55.5928V36.5581ZM56.192 36.5581V36.6337H56.4916V36.5581V36.4826H56.192V36.5581ZM56.7912 36.5581V36.6337H57.0908V36.5581V36.4826H56.7912V36.5581ZM57.3904 36.5581V36.6337H57.69V36.5581V36.4826H57.3904V36.5581ZM57.9897 36.5581V36.6337H58.2893V36.5581V36.4826H57.9897V36.5581ZM58.5889 36.5581V36.6337H58.8885V36.5581V36.4826H58.5889V36.5581ZM59.1881 36.5581V36.6337H59.4877V36.5581V36.4826H59.1881V36.5581ZM59.7873 36.5581V36.6337H59.9372V36.5581V36.4826H59.7873V36.5581ZM36.5674 36.5581V36.7093H36.7172V36.5581V36.407H36.5674V36.5581ZM37.0168 36.5581V36.7093H37.3164V36.5581V36.407H37.0168V36.5581ZM37.616 36.5581V36.7093H37.9156V36.5581V36.407H37.616V36.5581ZM38.2153 36.5581V36.7093H38.5149V36.5581V36.407H38.2153V36.5581ZM38.8145 36.5581V36.7093H39.1141V36.5581V36.407H38.8145V36.5581ZM39.4137 36.5581V36.7093H39.7133V36.5581V36.407H39.4137V36.5581ZM40.0129 36.5581V36.7093H40.3125V36.5581V36.407H40.0129V36.5581ZM40.6122 36.5581V36.7093H40.9118V36.5581V36.407H40.6122V36.5581ZM41.2114 36.5581V36.7093H41.511V36.5581V36.407H41.2114V36.5581ZM41.8106 36.5581V36.7093H42.1102V36.5581V36.407H41.8106V36.5581ZM42.4098 36.5581V36.7093H42.7094V36.5581V36.407H42.4098V36.5581ZM43.0091 36.5581V36.7093H43.3087V36.5581V36.407H43.0091V36.5581ZM43.6083 36.5581V36.7093H43.9079V36.5581V36.407H43.6083V36.5581ZM44.2075 36.5581V36.7093H44.5071V36.5581V36.407H44.2075V36.5581ZM44.8067 36.5581V36.7093H45.1063V36.5581V36.407H44.8067V36.5581ZM45.4059 36.5581V36.7093H45.7056V36.5581V36.407H45.4059V36.5581ZM46.0052 36.5581V36.7093H46.3048V36.5581V36.407H46.0052V36.5581ZM46.6044 36.5581V36.7093H46.904V36.5581V36.407H46.6044V36.5581ZM47.2036 36.5581V36.7093H47.5032V36.5581V36.407H47.2036V36.5581ZM47.8028 36.5581V36.7093H48.1025V36.5581V36.407H47.8028V36.5581ZM48.4021 36.5581V36.7093H48.7017V36.5581V36.407H48.4021V36.5581ZM49.0013 36.5581V36.7093H49.3009V36.5581V36.407H49.0013V36.5581ZM49.6005 36.5581V36.7093H49.9001V36.5581V36.407H49.6005V36.5581ZM50.1997 36.5581V36.7093H50.4994V36.5581V36.407H50.1997V36.5581ZM50.799 36.5581V36.7093H51.0986V36.5581V36.407H50.799V36.5581ZM51.3982 36.5581V36.7093H51.6978V36.5581V36.407H51.3982V36.5581ZM51.9974 36.5581V36.7093H52.297V36.5581V36.407H51.9974V36.5581ZM52.5966 36.5581V36.7093H52.8963V36.5581V36.407H52.5966V36.5581ZM53.1959 36.5581V36.7093H53.4955V36.5581V36.407H53.1959V36.5581ZM53.7951 36.5581V36.7093H54.0947V36.5581V36.407H53.7951V36.5581ZM54.3943 36.5581V36.7093H54.6939V36.5581V36.407H54.3943V36.5581ZM54.9935 36.5581V36.7093H55.2931V36.5581V36.407H54.9935V36.5581ZM55.5928 36.5581V36.7093H55.8924V36.5581V36.407H55.5928V36.5581ZM56.192 36.5581V36.7093H56.4916V36.5581V36.407H56.192V36.5581ZM56.7912 36.5581V36.7093H57.0908V36.5581V36.407H56.7912V36.5581ZM57.3904 36.5581V36.7093H57.69V36.5581V36.407H57.3904V36.5581ZM57.9897 36.5581V36.7093H58.2893V36.5581V36.407H57.9897V36.5581ZM58.5889 36.5581V36.7093H58.8885V36.5581V36.407H58.5889V36.5581ZM59.1881 36.5581V36.7093H59.4877V36.5581V36.407H59.1881V36.5581ZM59.7873 36.5581V36.7093H59.9372V36.5581V36.407H59.7873V36.5581Z" fill="#C2D1EB" mask="url(#path-57-inside-18_14400_189436)"/>
</g>
<path d="M59.9372 29.3837H59.786V36.5581H59.9372H60.0883V29.3837H59.9372Z" fill="#C2D1EB" mask="url(#path-55-inside-17_14400_189436)"/>
<g clip-path="url(#clip6_14400_189436)">
<mask id="path-59-inside-19_14400_189436" fill="white">
<path d="M59.9373 29.3837H83.307V36.5581H59.9373V29.3837Z"/>
</mask>
<mask id="path-61-inside-20_14400_189436" fill="white">
<path d="M59.9373 29.3837H83.307V36.5581H59.9373V29.3837Z"/>
</mask>
<path d="M59.9373 29.3837H83.307V36.5581H59.9373V29.3837Z" fill="white"/>
<path d="M59.9373 36.5581V36.6337H60.0871V36.5581V36.4826H59.9373V36.5581ZM60.3867 36.5581V36.6337H60.6863V36.5581V36.4826H60.3867V36.5581ZM60.9859 36.5581V36.6337H61.2855V36.5581V36.4826H60.9859V36.5581ZM61.5851 36.5581V36.6337H61.8847V36.5581V36.4826H61.5851V36.5581ZM62.1843 36.5581V36.6337H62.484V36.5581V36.4826H62.1843V36.5581ZM62.7836 36.5581V36.6337H63.0832V36.5581V36.4826H62.7836V36.5581ZM63.3828 36.5581V36.6337H63.6824V36.5581V36.4826H63.3828V36.5581ZM63.982 36.5581V36.6337H64.2816V36.5581V36.4826H63.982V36.5581ZM64.5812 36.5581V36.6337H64.8809V36.5581V36.4826H64.5812V36.5581ZM65.1805 36.5581V36.6337H65.4801V36.5581V36.4826H65.1805V36.5581ZM65.7797 36.5581V36.6337H66.0793V36.5581V36.4826H65.7797V36.5581ZM66.3789 36.5581V36.6337H66.6785V36.5581V36.4826H66.3789V36.5581ZM66.9781 36.5581V36.6337H67.2778V36.5581V36.4826H66.9781V36.5581ZM67.5774 36.5581V36.6337H67.877V36.5581V36.4826H67.5774V36.5581ZM68.1766 36.5581V36.6337H68.4762V36.5581V36.4826H68.1766V36.5581ZM68.7758 36.5581V36.6337H69.0754V36.5581V36.4826H68.7758V36.5581ZM69.375 36.5581V36.6337H69.6747V36.5581V36.4826H69.375V36.5581ZM69.9743 36.5581V36.6337H70.2739V36.5581V36.4826H69.9743V36.5581ZM70.5735 36.5581V36.6337H70.8731V36.5581V36.4826H70.5735V36.5581ZM71.1727 36.5581V36.6337H71.4723V36.5581V36.4826H71.1727V36.5581ZM71.7719 36.5581V36.6337H72.0716V36.5581V36.4826H71.7719V36.5581ZM72.3712 36.5581V36.6337H72.6708V36.5581V36.4826H72.3712V36.5581ZM72.9704 36.5581V36.6337H73.27V36.5581V36.4826H72.9704V36.5581ZM73.5696 36.5581V36.6337H73.8692V36.5581V36.4826H73.5696V36.5581ZM74.1688 36.5581V36.6337H74.4685V36.5581V36.4826H74.1688V36.5581ZM74.7681 36.5581V36.6337H75.0677V36.5581V36.4826H74.7681V36.5581ZM75.3673 36.5581V36.6337H75.6669V36.5581V36.4826H75.3673V36.5581ZM75.9665 36.5581V36.6337H76.2661V36.5581V36.4826H75.9665V36.5581ZM76.5657 36.5581V36.6337H76.8653V36.5581V36.4826H76.5657V36.5581ZM77.165 36.5581V36.6337H77.4646V36.5581V36.4826H77.165V36.5581ZM77.7642 36.5581V36.6337H78.0638V36.5581V36.4826H77.7642V36.5581ZM78.3634 36.5581V36.6337H78.663V36.5581V36.4826H78.3634V36.5581ZM78.9626 36.5581V36.6337H79.2622V36.5581V36.4826H78.9626V36.5581ZM79.5619 36.5581V36.6337H79.8615V36.5581V36.4826H79.5619V36.5581ZM80.1611 36.5581V36.6337H80.4607V36.5581V36.4826H80.1611V36.5581ZM80.7603 36.5581V36.6337H81.0599V36.5581V36.4826H80.7603V36.5581ZM81.3595 36.5581V36.6337H81.6591V36.5581V36.4826H81.3595V36.5581ZM81.9588 36.5581V36.6337H82.2584V36.5581V36.4826H81.9588V36.5581ZM82.558 36.5581V36.6337H82.8576V36.5581V36.4826H82.558V36.5581ZM83.1572 36.5581V36.6337H83.307V36.5581V36.4826H83.1572V36.5581ZM59.9373 36.5581V36.7093H60.0871V36.5581V36.407H59.9373V36.5581ZM60.3867 36.5581V36.7093H60.6863V36.5581V36.407H60.3867V36.5581ZM60.9859 36.5581V36.7093H61.2855V36.5581V36.407H60.9859V36.5581ZM61.5851 36.5581V36.7093H61.8847V36.5581V36.407H61.5851V36.5581ZM62.1843 36.5581V36.7093H62.484V36.5581V36.407H62.1843V36.5581ZM62.7836 36.5581V36.7093H63.0832V36.5581V36.407H62.7836V36.5581ZM63.3828 36.5581V36.7093H63.6824V36.5581V36.407H63.3828V36.5581ZM63.982 36.5581V36.7093H64.2816V36.5581V36.407H63.982V36.5581ZM64.5812 36.5581V36.7093H64.8809V36.5581V36.407H64.5812V36.5581ZM65.1805 36.5581V36.7093H65.4801V36.5581V36.407H65.1805V36.5581ZM65.7797 36.5581V36.7093H66.0793V36.5581V36.407H65.7797V36.5581ZM66.3789 36.5581V36.7093H66.6785V36.5581V36.407H66.3789V36.5581ZM66.9781 36.5581V36.7093H67.2778V36.5581V36.407H66.9781V36.5581ZM67.5774 36.5581V36.7093H67.877V36.5581V36.407H67.5774V36.5581ZM68.1766 36.5581V36.7093H68.4762V36.5581V36.407H68.1766V36.5581ZM68.7758 36.5581V36.7093H69.0754V36.5581V36.407H68.7758V36.5581ZM69.375 36.5581V36.7093H69.6747V36.5581V36.407H69.375V36.5581ZM69.9743 36.5581V36.7093H70.2739V36.5581V36.407H69.9743V36.5581ZM70.5735 36.5581V36.7093H70.8731V36.5581V36.407H70.5735V36.5581ZM71.1727 36.5581V36.7093H71.4723V36.5581V36.407H71.1727V36.5581ZM71.7719 36.5581V36.7093H72.0716V36.5581V36.407H71.7719V36.5581ZM72.3712 36.5581V36.7093H72.6708V36.5581V36.407H72.3712V36.5581ZM72.9704 36.5581V36.7093H73.27V36.5581V36.407H72.9704V36.5581ZM73.5696 36.5581V36.7093H73.8692V36.5581V36.407H73.5696V36.5581ZM74.1688 36.5581V36.7093H74.4685V36.5581V36.407H74.1688V36.5581ZM74.7681 36.5581V36.7093H75.0677V36.5581V36.407H74.7681V36.5581ZM75.3673 36.5581V36.7093H75.6669V36.5581V36.407H75.3673V36.5581ZM75.9665 36.5581V36.7093H76.2661V36.5581V36.407H75.9665V36.5581ZM76.5657 36.5581V36.7093H76.8653V36.5581V36.407H76.5657V36.5581ZM77.165 36.5581V36.7093H77.4646V36.5581V36.407H77.165V36.5581ZM77.7642 36.5581V36.7093H78.0638V36.5581V36.407H77.7642V36.5581ZM78.3634 36.5581V36.7093H78.663V36.5581V36.407H78.3634V36.5581ZM78.9626 36.5581V36.7093H79.2622V36.5581V36.407H78.9626V36.5581ZM79.5619 36.5581V36.7093H79.8615V36.5581V36.407H79.5619V36.5581ZM80.1611 36.5581V36.7093H80.4607V36.5581V36.407H80.1611V36.5581ZM80.7603 36.5581V36.7093H81.0599V36.5581V36.407H80.7603V36.5581ZM81.3595 36.5581V36.7093H81.6591V36.5581V36.407H81.3595V36.5581ZM81.9588 36.5581V36.7093H82.2584V36.5581V36.407H81.9588V36.5581ZM82.558 36.5581V36.7093H82.8576V36.5581V36.407H82.558V36.5581ZM83.1572 36.5581V36.7093H83.307V36.5581V36.407H83.1572V36.5581Z" fill="#C2D1EB" mask="url(#path-61-inside-20_14400_189436)"/>
</g>
<path d="M83.307 29.3837H83.1559V36.5581H83.307H83.4582V29.3837H83.307Z" fill="#C2D1EB" mask="url(#path-59-inside-19_14400_189436)"/>
<g clip-path="url(#clip7_14400_189436)">
<mask id="path-63-inside-21_14400_189436" fill="white">
<path d="M83.3071 29.3837H106.677V36.5581H83.3071V29.3837Z"/>
</mask>
<mask id="path-65-inside-22_14400_189436" fill="white">
<path d="M83.3071 29.3837H106.677V36.5581H83.3071V29.3837Z"/>
</mask>
<path d="M83.3071 29.3837H106.677V36.5581H83.3071V29.3837Z" fill="white"/>
<path d="M83.3071 36.5581V36.6337H83.4569V36.5581V36.4826H83.3071V36.5581ZM83.7565 36.5581V36.6337H84.0562V36.5581V36.4826H83.7565V36.5581ZM84.3558 36.5581V36.6337H84.6554V36.5581V36.4826H84.3558V36.5581ZM84.955 36.5581V36.6337H85.2546V36.5581V36.4826H84.955V36.5581ZM85.5542 36.5581V36.6337H85.8538V36.5581V36.4826H85.5542V36.5581ZM86.1534 36.5581V36.6337H86.4531V36.5581V36.4826H86.1534V36.5581ZM86.7527 36.5581V36.6337H87.0523V36.5581V36.4826H86.7527V36.5581ZM87.3519 36.5581V36.6337H87.6515V36.5581V36.4826H87.3519V36.5581ZM87.9511 36.5581V36.6337H88.2507V36.5581V36.4826H87.9511V36.5581ZM88.5503 36.5581V36.6337H88.85V36.5581V36.4826H88.5503V36.5581ZM89.1496 36.5581V36.6337H89.4492V36.5581V36.4826H89.1496V36.5581ZM89.7488 36.5581V36.6337H90.0484V36.5581V36.4826H89.7488V36.5581ZM90.348 36.5581V36.6337H90.6476V36.5581V36.4826H90.348V36.5581ZM90.9472 36.5581V36.6337H91.2469V36.5581V36.4826H90.9472V36.5581ZM91.5465 36.5581V36.6337H91.8461V36.5581V36.4826H91.5465V36.5581ZM92.1457 36.5581V36.6337H92.4453V36.5581V36.4826H92.1457V36.5581ZM92.7449 36.5581V36.6337H93.0445V36.5581V36.4826H92.7449V36.5581ZM93.3441 36.5581V36.6337H93.6438V36.5581V36.4826H93.3441V36.5581ZM93.9434 36.5581V36.6337H94.243V36.5581V36.4826H93.9434V36.5581ZM94.5426 36.5581V36.6337H94.8422V36.5581V36.4826H94.5426V36.5581ZM95.1418 36.5581V36.6337H95.4414V36.5581V36.4826H95.1418V36.5581ZM95.741 36.5581V36.6337H96.0407V36.5581V36.4826H95.741V36.5581ZM96.3403 36.5581V36.6337H96.6399V36.5581V36.4826H96.3403V36.5581ZM96.9395 36.5581V36.6337H97.2391V36.5581V36.4826H96.9395V36.5581ZM97.5387 36.5581V36.6337H97.8383V36.5581V36.4826H97.5387V36.5581ZM98.1379 36.5581V36.6337H98.4375V36.5581V36.4826H98.1379V36.5581ZM98.7372 36.5581V36.6337H99.0368V36.5581V36.4826H98.7372V36.5581ZM99.3364 36.5581V36.6337H99.636V36.5581V36.4826H99.3364V36.5581ZM99.9356 36.5581V36.6337H100.235V36.5581V36.4826H99.9356V36.5581ZM100.535 36.5581V36.6337H100.834V36.5581V36.4826H100.535V36.5581ZM101.134 36.5581V36.6337H101.434V36.5581V36.4826H101.134V36.5581ZM101.733 36.5581V36.6337H102.033V36.5581V36.4826H101.733V36.5581ZM102.333 36.5581V36.6337H102.632V36.5581V36.4826H102.333V36.5581ZM102.932 36.5581V36.6337H103.231V36.5581V36.4826H102.932V36.5581ZM103.531 36.5581V36.6337H103.831V36.5581V36.4826H103.531V36.5581ZM104.13 36.5581V36.6337H104.43V36.5581V36.4826H104.13V36.5581ZM104.729 36.5581V36.6337H105.029V36.5581V36.4826H104.729V36.5581ZM105.329 36.5581V36.6337H105.628V36.5581V36.4826H105.329V36.5581ZM105.928 36.5581V36.6337H106.227V36.5581V36.4826H105.928V36.5581ZM106.527 36.5581V36.6337H106.677V36.5581V36.4826H106.527V36.5581ZM83.3071 36.5581V36.7093H83.4569V36.5581V36.407H83.3071V36.5581ZM83.7565 36.5581V36.7093H84.0562V36.5581V36.407H83.7565V36.5581ZM84.3558 36.5581V36.7093H84.6554V36.5581V36.407H84.3558V36.5581ZM84.955 36.5581V36.7093H85.2546V36.5581V36.407H84.955V36.5581ZM85.5542 36.5581V36.7093H85.8538V36.5581V36.407H85.5542V36.5581ZM86.1534 36.5581V36.7093H86.4531V36.5581V36.407H86.1534V36.5581ZM86.7527 36.5581V36.7093H87.0523V36.5581V36.407H86.7527V36.5581ZM87.3519 36.5581V36.7093H87.6515V36.5581V36.407H87.3519V36.5581ZM87.9511 36.5581V36.7093H88.2507V36.5581V36.407H87.9511V36.5581ZM88.5503 36.5581V36.7093H88.85V36.5581V36.407H88.5503V36.5581ZM89.1496 36.5581V36.7093H89.4492V36.5581V36.407H89.1496V36.5581ZM89.7488 36.5581V36.7093H90.0484V36.5581V36.407H89.7488V36.5581ZM90.348 36.5581V36.7093H90.6476V36.5581V36.407H90.348V36.5581ZM90.9472 36.5581V36.7093H91.2469V36.5581V36.407H90.9472V36.5581ZM91.5465 36.5581V36.7093H91.8461V36.5581V36.407H91.5465V36.5581ZM92.1457 36.5581V36.7093H92.4453V36.5581V36.407H92.1457V36.5581ZM92.7449 36.5581V36.7093H93.0445V36.5581V36.407H92.7449V36.5581ZM93.3441 36.5581V36.7093H93.6438V36.5581V36.407H93.3441V36.5581ZM93.9434 36.5581V36.7093H94.243V36.5581V36.407H93.9434V36.5581ZM94.5426 36.5581V36.7093H94.8422V36.5581V36.407H94.5426V36.5581ZM95.1418 36.5581V36.7093H95.4414V36.5581V36.407H95.1418V36.5581ZM95.741 36.5581V36.7093H96.0407V36.5581V36.407H95.741V36.5581ZM96.3403 36.5581V36.7093H96.6399V36.5581V36.407H96.3403V36.5581ZM96.9395 36.5581V36.7093H97.2391V36.5581V36.407H96.9395V36.5581ZM97.5387 36.5581V36.7093H97.8383V36.5581V36.407H97.5387V36.5581ZM98.1379 36.5581V36.7093H98.4375V36.5581V36.407H98.1379V36.5581ZM98.7372 36.5581V36.7093H99.0368V36.5581V36.407H98.7372V36.5581ZM99.3364 36.5581V36.7093H99.636V36.5581V36.407H99.3364V36.5581ZM99.9356 36.5581V36.7093H100.235V36.5581V36.407H99.9356V36.5581ZM100.535 36.5581V36.7093H100.834V36.5581V36.407H100.535V36.5581ZM101.134 36.5581V36.7093H101.434V36.5581V36.407H101.134V36.5581ZM101.733 36.5581V36.7093H102.033V36.5581V36.407H101.733V36.5581ZM102.333 36.5581V36.7093H102.632V36.5581V36.407H102.333V36.5581ZM102.932 36.5581V36.7093H103.231V36.5581V36.407H102.932V36.5581ZM103.531 36.5581V36.7093H103.831V36.5581V36.407H103.531V36.5581ZM104.13 36.5581V36.7093H104.43V36.5581V36.407H104.13V36.5581ZM104.729 36.5581V36.7093H105.029V36.5581V36.407H104.729V36.5581ZM105.329 36.5581V36.7093H105.628V36.5581V36.407H105.329V36.5581ZM105.928 36.5581V36.7093H106.227V36.5581V36.407H105.928V36.5581ZM106.527 36.5581V36.7093H106.677V36.5581V36.407H106.527V36.5581Z" fill="#C2D1EB" mask="url(#path-65-inside-22_14400_189436)"/>
</g>
<path d="M106.677 29.3837H106.526V36.5581H106.677H106.828V29.3837H106.677Z" fill="#C2D1EB" mask="url(#path-63-inside-21_14400_189436)"/>
<g clip-path="url(#clip8_14400_189436)">
<mask id="path-67-inside-23_14400_189436" fill="white">
<path d="M106.677 29.3837H130.047V36.5581H106.677V29.3837Z"/>
</mask>
<mask id="path-69-inside-24_14400_189436" fill="white">
<path d="M106.677 29.3837H130.047V36.5581H106.677V29.3837Z"/>
</mask>
<path d="M106.677 29.3837H130.047V36.5581H106.677V29.3837Z" fill="white"/>
<path d="M106.677 36.5581V36.6337H106.827V36.5581V36.4826H106.677V36.5581ZM107.126 36.5581V36.6337H107.426V36.5581V36.4826H107.126V36.5581ZM107.725 36.5581V36.6337H108.025V36.5581V36.4826H107.725V36.5581ZM108.325 36.5581V36.6337H108.624V36.5581V36.4826H108.325V36.5581ZM108.924 36.5581V36.6337H109.223V36.5581V36.4826H108.924V36.5581ZM109.523 36.5581V36.6337H109.823V36.5581V36.4826H109.523V36.5581ZM110.122 36.5581V36.6337H110.422V36.5581V36.4826H110.122V36.5581ZM110.722 36.5581V36.6337H111.021V36.5581V36.4826H110.722V36.5581ZM111.321 36.5581V36.6337H111.62V36.5581V36.4826H111.321V36.5581ZM111.92 36.5581V36.6337H112.22V36.5581V36.4826H111.92V36.5581ZM112.519 36.5581V36.6337H112.819V36.5581V36.4826H112.519V36.5581ZM113.118 36.5581V36.6337H113.418V36.5581V36.4826H113.118V36.5581ZM113.718 36.5581V36.6337H114.017V36.5581V36.4826H113.718V36.5581ZM114.317 36.5581V36.6337H114.616V36.5581V36.4826H114.317V36.5581ZM114.916 36.5581V36.6337H115.216V36.5581V36.4826H114.916V36.5581ZM115.515 36.5581V36.6337H115.815V36.5581V36.4826H115.515V36.5581ZM116.115 36.5581V36.6337H116.414V36.5581V36.4826H116.115V36.5581ZM116.714 36.5581V36.6337H117.013V36.5581V36.4826H116.714V36.5581ZM117.313 36.5581V36.6337H117.613V36.5581V36.4826H117.313V36.5581ZM117.912 36.5581V36.6337H118.212V36.5581V36.4826H117.912V36.5581ZM118.511 36.5581V36.6337H118.811V36.5581V36.4826H118.511V36.5581ZM119.111 36.5581V36.6337H119.41V36.5581V36.4826H119.111V36.5581ZM119.71 36.5581V36.6337H120.01V36.5581V36.4826H119.71V36.5581ZM120.309 36.5581V36.6337H120.609V36.5581V36.4826H120.309V36.5581ZM120.908 36.5581V36.6337H121.208V36.5581V36.4826H120.908V36.5581ZM121.508 36.5581V36.6337H121.807V36.5581V36.4826H121.508V36.5581ZM122.107 36.5581V36.6337H122.406V36.5581V36.4826H122.107V36.5581ZM122.706 36.5581V36.6337H123.006V36.5581V36.4826H122.706V36.5581ZM123.305 36.5581V36.6337H123.605V36.5581V36.4826H123.305V36.5581ZM123.904 36.5581V36.6337H124.204V36.5581V36.4826H123.904V36.5581ZM124.504 36.5581V36.6337H124.803V36.5581V36.4826H124.504V36.5581ZM125.103 36.5581V36.6337H125.403V36.5581V36.4826H125.103V36.5581ZM125.702 36.5581V36.6337H126.002V36.5581V36.4826H125.702V36.5581ZM126.301 36.5581V36.6337H126.601V36.5581V36.4826H126.301V36.5581ZM126.901 36.5581V36.6337H127.2V36.5581V36.4826H126.901V36.5581ZM127.5 36.5581V36.6337H127.799V36.5581V36.4826H127.5V36.5581ZM128.099 36.5581V36.6337H128.399V36.5581V36.4826H128.099V36.5581ZM128.698 36.5581V36.6337H128.998V36.5581V36.4826H128.698V36.5581ZM129.297 36.5581V36.6337H129.597V36.5581V36.4826H129.297V36.5581ZM129.897 36.5581V36.6337H130.047V36.5581V36.4826H129.897V36.5581ZM106.677 36.5581V36.7093H106.827V36.5581V36.407H106.677V36.5581ZM107.126 36.5581V36.7093H107.426V36.5581V36.407H107.126V36.5581ZM107.725 36.5581V36.7093H108.025V36.5581V36.407H107.725V36.5581ZM108.325 36.5581V36.7093H108.624V36.5581V36.407H108.325V36.5581ZM108.924 36.5581V36.7093H109.223V36.5581V36.407H108.924V36.5581ZM109.523 36.5581V36.7093H109.823V36.5581V36.407H109.523V36.5581ZM110.122 36.5581V36.7093H110.422V36.5581V36.407H110.122V36.5581ZM110.722 36.5581V36.7093H111.021V36.5581V36.407H110.722V36.5581ZM111.321 36.5581V36.7093H111.62V36.5581V36.407H111.321V36.5581ZM111.92 36.5581V36.7093H112.22V36.5581V36.407H111.92V36.5581ZM112.519 36.5581V36.7093H112.819V36.5581V36.407H112.519V36.5581ZM113.118 36.5581V36.7093H113.418V36.5581V36.407H113.118V36.5581ZM113.718 36.5581V36.7093H114.017V36.5581V36.407H113.718V36.5581ZM114.317 36.5581V36.7093H114.616V36.5581V36.407H114.317V36.5581ZM114.916 36.5581V36.7093H115.216V36.5581V36.407H114.916V36.5581ZM115.515 36.5581V36.7093H115.815V36.5581V36.407H115.515V36.5581ZM116.115 36.5581V36.7093H116.414V36.5581V36.407H116.115V36.5581ZM116.714 36.5581V36.7093H117.013V36.5581V36.407H116.714V36.5581ZM117.313 36.5581V36.7093H117.613V36.5581V36.407H117.313V36.5581ZM117.912 36.5581V36.7093H118.212V36.5581V36.407H117.912V36.5581ZM118.511 36.5581V36.7093H118.811V36.5581V36.407H118.511V36.5581ZM119.111 36.5581V36.7093H119.41V36.5581V36.407H119.111V36.5581ZM119.71 36.5581V36.7093H120.01V36.5581V36.407H119.71V36.5581ZM120.309 36.5581V36.7093H120.609V36.5581V36.407H120.309V36.5581ZM120.908 36.5581V36.7093H121.208V36.5581V36.407H120.908V36.5581ZM121.508 36.5581V36.7093H121.807V36.5581V36.407H121.508V36.5581ZM122.107 36.5581V36.7093H122.406V36.5581V36.407H122.107V36.5581ZM122.706 36.5581V36.7093H123.006V36.5581V36.407H122.706V36.5581ZM123.305 36.5581V36.7093H123.605V36.5581V36.407H123.305V36.5581ZM123.904 36.5581V36.7093H124.204V36.5581V36.407H123.904V36.5581ZM124.504 36.5581V36.7093H124.803V36.5581V36.407H124.504V36.5581ZM125.103 36.5581V36.7093H125.403V36.5581V36.407H125.103V36.5581ZM125.702 36.5581V36.7093H126.002V36.5581V36.407H125.702V36.5581ZM126.301 36.5581V36.7093H126.601V36.5581V36.407H126.301V36.5581ZM126.901 36.5581V36.7093H127.2V36.5581V36.407H126.901V36.5581ZM127.5 36.5581V36.7093H127.799V36.5581V36.407H127.5V36.5581ZM128.099 36.5581V36.7093H128.399V36.5581V36.407H128.099V36.5581ZM128.698 36.5581V36.7093H128.998V36.5581V36.407H128.698V36.5581ZM129.297 36.5581V36.7093H129.597V36.5581V36.407H129.297V36.5581ZM129.897 36.5581V36.7093H130.047V36.5581V36.407H129.897V36.5581Z" fill="#C2D1EB" mask="url(#path-69-inside-24_14400_189436)"/>
</g>
<path d="M130.047 29.3837H129.895V36.5581H130.047H130.198V29.3837H130.047Z" fill="#C2D1EB" mask="url(#path-67-inside-23_14400_189436)"/>
<mask id="path-71-inside-25_14400_189436" fill="white">
<path d="M13.1978 36.5582H36.5675V43.7326H13.1978V36.5582Z"/>
</mask>
<path d="M13.1978 36.5582H36.5675V43.7326H13.1978V36.5582Z" fill="white"/>
<path d="M36.5675 43.7326V43.8837H36.7187V43.7326H36.5675ZM36.5675 36.5582H36.4164V43.7326H36.5675H36.7187V36.5582H36.5675ZM36.5675 43.7326V43.5814H13.1978V43.7326V43.8837H36.5675V43.7326Z" fill="#C2D1EB" mask="url(#path-71-inside-25_14400_189436)"/>
<mask id="path-73-inside-26_14400_189436" fill="white">
<path d="M36.5674 36.5582H59.9372V43.7326H36.5674V36.5582Z"/>
</mask>
<path d="M36.5674 36.5582H59.9372V43.7326H36.5674V36.5582Z" fill="white"/>
<path d="M59.9372 43.7326V43.8837H60.0883V43.7326H59.9372ZM59.9372 36.5582H59.786V43.7326H59.9372H60.0883V36.5582H59.9372ZM59.9372 43.7326V43.5814H36.5674V43.7326V43.8837H59.9372V43.7326Z" fill="#C2D1EB" mask="url(#path-73-inside-26_14400_189436)"/>
<mask id="path-75-inside-27_14400_189436" fill="white">
<path d="M59.9373 36.5582H83.307V43.7326H59.9373V36.5582Z"/>
</mask>
<path d="M59.9373 36.5582H83.307V43.7326H59.9373V36.5582Z" fill="white"/>
<path d="M83.307 43.7326V43.8837H83.4582V43.7326H83.307ZM83.307 36.5582H83.1559V43.7326H83.307H83.4582V36.5582H83.307ZM83.307 43.7326V43.5814H59.9373V43.7326V43.8837H83.307V43.7326Z" fill="#C2D1EB" mask="url(#path-75-inside-27_14400_189436)"/>
<mask id="path-77-inside-28_14400_189436" fill="white">
<path d="M83.3071 36.5582H106.677V43.7326H83.3071V36.5582Z"/>
</mask>
<path d="M83.3071 36.5582H106.677V43.7326H83.3071V36.5582Z" fill="white"/>
<path d="M106.677 43.7326V43.8837H106.828V43.7326H106.677ZM106.677 36.5582H106.526V43.7326H106.677H106.828V36.5582H106.677ZM106.677 43.7326V43.5814H83.3071V43.7326V43.8837H106.677V43.7326Z" fill="#C2D1EB" mask="url(#path-77-inside-28_14400_189436)"/>
<mask id="path-79-inside-29_14400_189436" fill="white">
<path d="M106.677 36.5582H130.047V43.7326H106.677V36.5582Z"/>
</mask>
<path d="M106.677 36.5582H130.047V43.7326H106.677V36.5582Z" fill="white"/>
<path d="M130.047 43.7326V43.8837H130.198V43.7326H130.047ZM130.047 36.5582H129.895V43.7326H130.047H130.198V36.5582H130.047ZM130.047 43.7326V43.5814H106.677V43.7326V43.8837H130.047V43.7326Z" fill="#C2D1EB" mask="url(#path-79-inside-29_14400_189436)"/>
<mask id="path-81-inside-30_14400_189436" fill="white">
<path d="M0.348877 43.7325H13.1977V58.0814H0.348877V43.7325Z"/>
</mask>
<path d="M0.348877 43.7325H13.1977V58.0814H0.348877V43.7325Z" fill="white"/>
<path d="M13.1977 58.0814V58.2325H13.3489V58.0814H13.1977ZM13.1977 43.7325H13.0466V58.0814H13.1977H13.3489V43.7325H13.1977ZM13.1977 58.0814V57.9302H0.348877V58.0814V58.2325H13.1977V58.0814Z" fill="#C2D1EB" mask="url(#path-81-inside-30_14400_189436)"/>
<rect x="3.06982" y="46" width="7.25581" height="0.906977" rx="0.453488" fill="#C2D1EB"/>
<g clip-path="url(#clip9_14400_189436)">
<mask id="path-84-inside-31_14400_189436" fill="white">
<path d="M13.1978 43.7325H36.5675V50.907H13.1978V43.7325Z"/>
</mask>
<mask id="path-86-inside-32_14400_189436" fill="white">
<path d="M13.1978 43.7325H36.5675V50.907H13.1978V43.7325Z"/>
</mask>
<path d="M13.1978 43.7325H36.5675V50.907H13.1978V43.7325Z" fill="white"/>
<path d="M13.1978 50.907V50.9825H13.3476V50.907V50.8314H13.1978V50.907ZM13.6472 50.907V50.9825H13.9468V50.907V50.8314H13.6472V50.907ZM14.2464 50.907V50.9825H14.546V50.907V50.8314H14.2464V50.907ZM14.8456 50.907V50.9825H15.1452V50.907V50.8314H14.8456V50.907ZM15.4448 50.907V50.9825H15.7445V50.907V50.8314H15.4448V50.907ZM16.0441 50.907V50.9825H16.3437V50.907V50.8314H16.0441V50.907ZM16.6433 50.907V50.9825H16.9429V50.907V50.8314H16.6433V50.907ZM17.2425 50.907V50.9825H17.5421V50.907V50.8314H17.2425V50.907ZM17.8417 50.907V50.9825H18.1414V50.907V50.8314H17.8417V50.907ZM18.441 50.907V50.9825H18.7406V50.907V50.8314H18.441V50.907ZM19.0402 50.907V50.9825H19.3398V50.907V50.8314H19.0402V50.907ZM19.6394 50.907V50.9825H19.939V50.907V50.8314H19.6394V50.907ZM20.2386 50.907V50.9825H20.5383V50.907V50.8314H20.2386V50.907ZM20.8379 50.907V50.9825H21.1375V50.907V50.8314H20.8379V50.907ZM21.4371 50.907V50.9825H21.7367V50.907V50.8314H21.4371V50.907ZM22.0363 50.907V50.9825H22.3359V50.907V50.8314H22.0363V50.907ZM22.6355 50.907V50.9825H22.9352V50.907V50.8314H22.6355V50.907ZM23.2348 50.907V50.9825H23.5344V50.907V50.8314H23.2348V50.907ZM23.834 50.907V50.9825H24.1336V50.907V50.8314H23.834V50.907ZM24.4332 50.907V50.9825H24.7328V50.907V50.8314H24.4332V50.907ZM25.0324 50.907V50.9825H25.3321V50.907V50.8314H25.0324V50.907ZM25.6317 50.907V50.9825H25.9313V50.907V50.8314H25.6317V50.907ZM26.2309 50.907V50.9825H26.5305V50.907V50.8314H26.2309V50.907ZM26.8301 50.907V50.9825H27.1297V50.907V50.8314H26.8301V50.907ZM27.4293 50.907V50.9825H27.7289V50.907V50.8314H27.4293V50.907ZM28.0286 50.907V50.9825H28.3282V50.907V50.8314H28.0286V50.907ZM28.6278 50.907V50.9825H28.9274V50.907V50.8314H28.6278V50.907ZM29.227 50.907V50.9825H29.5266V50.907V50.8314H29.227V50.907ZM29.8262 50.907V50.9825H30.1258V50.907V50.8314H29.8262V50.907ZM30.4255 50.907V50.9825H30.7251V50.907V50.8314H30.4255V50.907ZM31.0247 50.907V50.9825H31.3243V50.907V50.8314H31.0247V50.907ZM31.6239 50.907V50.9825H31.9235V50.907V50.8314H31.6239V50.907ZM32.2231 50.907V50.9825H32.5227V50.907V50.8314H32.2231V50.907ZM32.8224 50.907V50.9825H33.122V50.907V50.8314H32.8224V50.907ZM33.4216 50.907V50.9825H33.7212V50.907V50.8314H33.4216V50.907ZM34.0208 50.907V50.9825H34.3204V50.907V50.8314H34.0208V50.907ZM34.62 50.907V50.9825H34.9196V50.907V50.8314H34.62V50.907ZM35.2193 50.907V50.9825H35.5189V50.907V50.8314H35.2193V50.907ZM35.8185 50.907V50.9825H36.1181V50.907V50.8314H35.8185V50.907ZM36.4177 50.907V50.9825H36.5675V50.907V50.8314H36.4177V50.907ZM13.1978 50.907V51.0581H13.3476V50.907V50.7558H13.1978V50.907ZM13.6472 50.907V51.0581H13.9468V50.907V50.7558H13.6472V50.907ZM14.2464 50.907V51.0581H14.546V50.907V50.7558H14.2464V50.907ZM14.8456 50.907V51.0581H15.1452V50.907V50.7558H14.8456V50.907ZM15.4448 50.907V51.0581H15.7445V50.907V50.7558H15.4448V50.907ZM16.0441 50.907V51.0581H16.3437V50.907V50.7558H16.0441V50.907ZM16.6433 50.907V51.0581H16.9429V50.907V50.7558H16.6433V50.907ZM17.2425 50.907V51.0581H17.5421V50.907V50.7558H17.2425V50.907ZM17.8417 50.907V51.0581H18.1414V50.907V50.7558H17.8417V50.907ZM18.441 50.907V51.0581H18.7406V50.907V50.7558H18.441V50.907ZM19.0402 50.907V51.0581H19.3398V50.907V50.7558H19.0402V50.907ZM19.6394 50.907V51.0581H19.939V50.907V50.7558H19.6394V50.907ZM20.2386 50.907V51.0581H20.5383V50.907V50.7558H20.2386V50.907ZM20.8379 50.907V51.0581H21.1375V50.907V50.7558H20.8379V50.907ZM21.4371 50.907V51.0581H21.7367V50.907V50.7558H21.4371V50.907ZM22.0363 50.907V51.0581H22.3359V50.907V50.7558H22.0363V50.907ZM22.6355 50.907V51.0581H22.9352V50.907V50.7558H22.6355V50.907ZM23.2348 50.907V51.0581H23.5344V50.907V50.7558H23.2348V50.907ZM23.834 50.907V51.0581H24.1336V50.907V50.7558H23.834V50.907ZM24.4332 50.907V51.0581H24.7328V50.907V50.7558H24.4332V50.907ZM25.0324 50.907V51.0581H25.3321V50.907V50.7558H25.0324V50.907ZM25.6317 50.907V51.0581H25.9313V50.907V50.7558H25.6317V50.907ZM26.2309 50.907V51.0581H26.5305V50.907V50.7558H26.2309V50.907ZM26.8301 50.907V51.0581H27.1297V50.907V50.7558H26.8301V50.907ZM27.4293 50.907V51.0581H27.7289V50.907V50.7558H27.4293V50.907ZM28.0286 50.907V51.0581H28.3282V50.907V50.7558H28.0286V50.907ZM28.6278 50.907V51.0581H28.9274V50.907V50.7558H28.6278V50.907ZM29.227 50.907V51.0581H29.5266V50.907V50.7558H29.227V50.907ZM29.8262 50.907V51.0581H30.1258V50.907V50.7558H29.8262V50.907ZM30.4255 50.907V51.0581H30.7251V50.907V50.7558H30.4255V50.907ZM31.0247 50.907V51.0581H31.3243V50.907V50.7558H31.0247V50.907ZM31.6239 50.907V51.0581H31.9235V50.907V50.7558H31.6239V50.907ZM32.2231 50.907V51.0581H32.5227V50.907V50.7558H32.2231V50.907ZM32.8224 50.907V51.0581H33.122V50.907V50.7558H32.8224V50.907ZM33.4216 50.907V51.0581H33.7212V50.907V50.7558H33.4216V50.907ZM34.0208 50.907V51.0581H34.3204V50.907V50.7558H34.0208V50.907ZM34.62 50.907V51.0581H34.9196V50.907V50.7558H34.62V50.907ZM35.2193 50.907V51.0581H35.5189V50.907V50.7558H35.2193V50.907ZM35.8185 50.907V51.0581H36.1181V50.907V50.7558H35.8185V50.907ZM36.4177 50.907V51.0581H36.5675V50.907V50.7558H36.4177V50.907Z" fill="#C2D1EB" mask="url(#path-86-inside-32_14400_189436)"/>
</g>
<path d="M36.5675 43.7325H36.4164V50.907H36.5675H36.7187V43.7325H36.5675Z" fill="#C2D1EB" mask="url(#path-84-inside-31_14400_189436)"/>
<g clip-path="url(#clip10_14400_189436)">
<mask id="path-88-inside-33_14400_189436" fill="white">
<path d="M36.5674 43.7325H59.9372V50.907H36.5674V43.7325Z"/>
</mask>
<mask id="path-90-inside-34_14400_189436" fill="white">
<path d="M36.5674 43.7325H59.9372V50.907H36.5674V43.7325Z"/>
</mask>
<path d="M36.5674 43.7325H59.9372V50.907H36.5674V43.7325Z" fill="white"/>
<path d="M36.5674 50.907V50.9825H36.7172V50.907V50.8314H36.5674V50.907ZM37.0168 50.907V50.9825H37.3164V50.907V50.8314H37.0168V50.907ZM37.616 50.907V50.9825H37.9156V50.907V50.8314H37.616V50.907ZM38.2153 50.907V50.9825H38.5149V50.907V50.8314H38.2153V50.907ZM38.8145 50.907V50.9825H39.1141V50.907V50.8314H38.8145V50.907ZM39.4137 50.907V50.9825H39.7133V50.907V50.8314H39.4137V50.907ZM40.0129 50.907V50.9825H40.3125V50.907V50.8314H40.0129V50.907ZM40.6122 50.907V50.9825H40.9118V50.907V50.8314H40.6122V50.907ZM41.2114 50.907V50.9825H41.511V50.907V50.8314H41.2114V50.907ZM41.8106 50.907V50.9825H42.1102V50.907V50.8314H41.8106V50.907ZM42.4098 50.907V50.9825H42.7094V50.907V50.8314H42.4098V50.907ZM43.0091 50.907V50.9825H43.3087V50.907V50.8314H43.0091V50.907ZM43.6083 50.907V50.9825H43.9079V50.907V50.8314H43.6083V50.907ZM44.2075 50.907V50.9825H44.5071V50.907V50.8314H44.2075V50.907ZM44.8067 50.907V50.9825H45.1063V50.907V50.8314H44.8067V50.907ZM45.4059 50.907V50.9825H45.7056V50.907V50.8314H45.4059V50.907ZM46.0052 50.907V50.9825H46.3048V50.907V50.8314H46.0052V50.907ZM46.6044 50.907V50.9825H46.904V50.907V50.8314H46.6044V50.907ZM47.2036 50.907V50.9825H47.5032V50.907V50.8314H47.2036V50.907ZM47.8028 50.907V50.9825H48.1025V50.907V50.8314H47.8028V50.907ZM48.4021 50.907V50.9825H48.7017V50.907V50.8314H48.4021V50.907ZM49.0013 50.907V50.9825H49.3009V50.907V50.8314H49.0013V50.907ZM49.6005 50.907V50.9825H49.9001V50.907V50.8314H49.6005V50.907ZM50.1997 50.907V50.9825H50.4994V50.907V50.8314H50.1997V50.907ZM50.799 50.907V50.9825H51.0986V50.907V50.8314H50.799V50.907ZM51.3982 50.907V50.9825H51.6978V50.907V50.8314H51.3982V50.907ZM51.9974 50.907V50.9825H52.297V50.907V50.8314H51.9974V50.907ZM52.5966 50.907V50.9825H52.8963V50.907V50.8314H52.5966V50.907ZM53.1959 50.907V50.9825H53.4955V50.907V50.8314H53.1959V50.907ZM53.7951 50.907V50.9825H54.0947V50.907V50.8314H53.7951V50.907ZM54.3943 50.907V50.9825H54.6939V50.907V50.8314H54.3943V50.907ZM54.9935 50.907V50.9825H55.2931V50.907V50.8314H54.9935V50.907ZM55.5928 50.907V50.9825H55.8924V50.907V50.8314H55.5928V50.907ZM56.192 50.907V50.9825H56.4916V50.907V50.8314H56.192V50.907ZM56.7912 50.907V50.9825H57.0908V50.907V50.8314H56.7912V50.907ZM57.3904 50.907V50.9825H57.69V50.907V50.8314H57.3904V50.907ZM57.9897 50.907V50.9825H58.2893V50.907V50.8314H57.9897V50.907ZM58.5889 50.907V50.9825H58.8885V50.907V50.8314H58.5889V50.907ZM59.1881 50.907V50.9825H59.4877V50.907V50.8314H59.1881V50.907ZM59.7873 50.907V50.9825H59.9372V50.907V50.8314H59.7873V50.907ZM36.5674 50.907V51.0581H36.7172V50.907V50.7558H36.5674V50.907ZM37.0168 50.907V51.0581H37.3164V50.907V50.7558H37.0168V50.907ZM37.616 50.907V51.0581H37.9156V50.907V50.7558H37.616V50.907ZM38.2153 50.907V51.0581H38.5149V50.907V50.7558H38.2153V50.907ZM38.8145 50.907V51.0581H39.1141V50.907V50.7558H38.8145V50.907ZM39.4137 50.907V51.0581H39.7133V50.907V50.7558H39.4137V50.907ZM40.0129 50.907V51.0581H40.3125V50.907V50.7558H40.0129V50.907ZM40.6122 50.907V51.0581H40.9118V50.907V50.7558H40.6122V50.907ZM41.2114 50.907V51.0581H41.511V50.907V50.7558H41.2114V50.907ZM41.8106 50.907V51.0581H42.1102V50.907V50.7558H41.8106V50.907ZM42.4098 50.907V51.0581H42.7094V50.907V50.7558H42.4098V50.907ZM43.0091 50.907V51.0581H43.3087V50.907V50.7558H43.0091V50.907ZM43.6083 50.907V51.0581H43.9079V50.907V50.7558H43.6083V50.907ZM44.2075 50.907V51.0581H44.5071V50.907V50.7558H44.2075V50.907ZM44.8067 50.907V51.0581H45.1063V50.907V50.7558H44.8067V50.907ZM45.4059 50.907V51.0581H45.7056V50.907V50.7558H45.4059V50.907ZM46.0052 50.907V51.0581H46.3048V50.907V50.7558H46.0052V50.907ZM46.6044 50.907V51.0581H46.904V50.907V50.7558H46.6044V50.907ZM47.2036 50.907V51.0581H47.5032V50.907V50.7558H47.2036V50.907ZM47.8028 50.907V51.0581H48.1025V50.907V50.7558H47.8028V50.907ZM48.4021 50.907V51.0581H48.7017V50.907V50.7558H48.4021V50.907ZM49.0013 50.907V51.0581H49.3009V50.907V50.7558H49.0013V50.907ZM49.6005 50.907V51.0581H49.9001V50.907V50.7558H49.6005V50.907ZM50.1997 50.907V51.0581H50.4994V50.907V50.7558H50.1997V50.907ZM50.799 50.907V51.0581H51.0986V50.907V50.7558H50.799V50.907ZM51.3982 50.907V51.0581H51.6978V50.907V50.7558H51.3982V50.907ZM51.9974 50.907V51.0581H52.297V50.907V50.7558H51.9974V50.907ZM52.5966 50.907V51.0581H52.8963V50.907V50.7558H52.5966V50.907ZM53.1959 50.907V51.0581H53.4955V50.907V50.7558H53.1959V50.907ZM53.7951 50.907V51.0581H54.0947V50.907V50.7558H53.7951V50.907ZM54.3943 50.907V51.0581H54.6939V50.907V50.7558H54.3943V50.907ZM54.9935 50.907V51.0581H55.2931V50.907V50.7558H54.9935V50.907ZM55.5928 50.907V51.0581H55.8924V50.907V50.7558H55.5928V50.907ZM56.192 50.907V51.0581H56.4916V50.907V50.7558H56.192V50.907ZM56.7912 50.907V51.0581H57.0908V50.907V50.7558H56.7912V50.907ZM57.3904 50.907V51.0581H57.69V50.907V50.7558H57.3904V50.907ZM57.9897 50.907V51.0581H58.2893V50.907V50.7558H57.9897V50.907ZM58.5889 50.907V51.0581H58.8885V50.907V50.7558H58.5889V50.907ZM59.1881 50.907V51.0581H59.4877V50.907V50.7558H59.1881V50.907ZM59.7873 50.907V51.0581H59.9372V50.907V50.7558H59.7873V50.907Z" fill="#C2D1EB" mask="url(#path-90-inside-34_14400_189436)"/>
</g>
<path d="M59.9372 43.7325H59.786V50.907H59.9372H60.0883V43.7325H59.9372Z" fill="#C2D1EB" mask="url(#path-88-inside-33_14400_189436)"/>
<g clip-path="url(#clip11_14400_189436)">
<mask id="path-92-inside-35_14400_189436" fill="white">
<path d="M59.9373 43.7325H83.307V50.907H59.9373V43.7325Z"/>
</mask>
<mask id="path-94-inside-36_14400_189436" fill="white">
<path d="M59.9373 43.7325H83.307V50.907H59.9373V43.7325Z"/>
</mask>
<path d="M59.9373 43.7325H83.307V50.907H59.9373V43.7325Z" fill="white"/>
<path d="M59.9373 50.907V50.9825H60.0871V50.907V50.8314H59.9373V50.907ZM60.3867 50.907V50.9825H60.6863V50.907V50.8314H60.3867V50.907ZM60.9859 50.907V50.9825H61.2855V50.907V50.8314H60.9859V50.907ZM61.5851 50.907V50.9825H61.8847V50.907V50.8314H61.5851V50.907ZM62.1843 50.907V50.9825H62.484V50.907V50.8314H62.1843V50.907ZM62.7836 50.907V50.9825H63.0832V50.907V50.8314H62.7836V50.907ZM63.3828 50.907V50.9825H63.6824V50.907V50.8314H63.3828V50.907ZM63.982 50.907V50.9825H64.2816V50.907V50.8314H63.982V50.907ZM64.5812 50.907V50.9825H64.8809V50.907V50.8314H64.5812V50.907ZM65.1805 50.907V50.9825H65.4801V50.907V50.8314H65.1805V50.907ZM65.7797 50.907V50.9825H66.0793V50.907V50.8314H65.7797V50.907ZM66.3789 50.907V50.9825H66.6785V50.907V50.8314H66.3789V50.907ZM66.9781 50.907V50.9825H67.2778V50.907V50.8314H66.9781V50.907ZM67.5774 50.907V50.9825H67.877V50.907V50.8314H67.5774V50.907ZM68.1766 50.907V50.9825H68.4762V50.907V50.8314H68.1766V50.907ZM68.7758 50.907V50.9825H69.0754V50.907V50.8314H68.7758V50.907ZM69.375 50.907V50.9825H69.6747V50.907V50.8314H69.375V50.907ZM69.9743 50.907V50.9825H70.2739V50.907V50.8314H69.9743V50.907ZM70.5735 50.907V50.9825H70.8731V50.907V50.8314H70.5735V50.907ZM71.1727 50.907V50.9825H71.4723V50.907V50.8314H71.1727V50.907ZM71.7719 50.907V50.9825H72.0716V50.907V50.8314H71.7719V50.907ZM72.3712 50.907V50.9825H72.6708V50.907V50.8314H72.3712V50.907ZM72.9704 50.907V50.9825H73.27V50.907V50.8314H72.9704V50.907ZM73.5696 50.907V50.9825H73.8692V50.907V50.8314H73.5696V50.907ZM74.1688 50.907V50.9825H74.4685V50.907V50.8314H74.1688V50.907ZM74.7681 50.907V50.9825H75.0677V50.907V50.8314H74.7681V50.907ZM75.3673 50.907V50.9825H75.6669V50.907V50.8314H75.3673V50.907ZM75.9665 50.907V50.9825H76.2661V50.907V50.8314H75.9665V50.907ZM76.5657 50.907V50.9825H76.8653V50.907V50.8314H76.5657V50.907ZM77.165 50.907V50.9825H77.4646V50.907V50.8314H77.165V50.907ZM77.7642 50.907V50.9825H78.0638V50.907V50.8314H77.7642V50.907ZM78.3634 50.907V50.9825H78.663V50.907V50.8314H78.3634V50.907ZM78.9626 50.907V50.9825H79.2622V50.907V50.8314H78.9626V50.907ZM79.5619 50.907V50.9825H79.8615V50.907V50.8314H79.5619V50.907ZM80.1611 50.907V50.9825H80.4607V50.907V50.8314H80.1611V50.907ZM80.7603 50.907V50.9825H81.0599V50.907V50.8314H80.7603V50.907ZM81.3595 50.907V50.9825H81.6591V50.907V50.8314H81.3595V50.907ZM81.9588 50.907V50.9825H82.2584V50.907V50.8314H81.9588V50.907ZM82.558 50.907V50.9825H82.8576V50.907V50.8314H82.558V50.907ZM83.1572 50.907V50.9825H83.307V50.907V50.8314H83.1572V50.907ZM59.9373 50.907V51.0581H60.0871V50.907V50.7558H59.9373V50.907ZM60.3867 50.907V51.0581H60.6863V50.907V50.7558H60.3867V50.907ZM60.9859 50.907V51.0581H61.2855V50.907V50.7558H60.9859V50.907ZM61.5851 50.907V51.0581H61.8847V50.907V50.7558H61.5851V50.907ZM62.1843 50.907V51.0581H62.484V50.907V50.7558H62.1843V50.907ZM62.7836 50.907V51.0581H63.0832V50.907V50.7558H62.7836V50.907ZM63.3828 50.907V51.0581H63.6824V50.907V50.7558H63.3828V50.907ZM63.982 50.907V51.0581H64.2816V50.907V50.7558H63.982V50.907ZM64.5812 50.907V51.0581H64.8809V50.907V50.7558H64.5812V50.907ZM65.1805 50.907V51.0581H65.4801V50.907V50.7558H65.1805V50.907ZM65.7797 50.907V51.0581H66.0793V50.907V50.7558H65.7797V50.907ZM66.3789 50.907V51.0581H66.6785V50.907V50.7558H66.3789V50.907ZM66.9781 50.907V51.0581H67.2778V50.907V50.7558H66.9781V50.907ZM67.5774 50.907V51.0581H67.877V50.907V50.7558H67.5774V50.907ZM68.1766 50.907V51.0581H68.4762V50.907V50.7558H68.1766V50.907ZM68.7758 50.907V51.0581H69.0754V50.907V50.7558H68.7758V50.907ZM69.375 50.907V51.0581H69.6747V50.907V50.7558H69.375V50.907ZM69.9743 50.907V51.0581H70.2739V50.907V50.7558H69.9743V50.907ZM70.5735 50.907V51.0581H70.8731V50.907V50.7558H70.5735V50.907ZM71.1727 50.907V51.0581H71.4723V50.907V50.7558H71.1727V50.907ZM71.7719 50.907V51.0581H72.0716V50.907V50.7558H71.7719V50.907ZM72.3712 50.907V51.0581H72.6708V50.907V50.7558H72.3712V50.907ZM72.9704 50.907V51.0581H73.27V50.907V50.7558H72.9704V50.907ZM73.5696 50.907V51.0581H73.8692V50.907V50.7558H73.5696V50.907ZM74.1688 50.907V51.0581H74.4685V50.907V50.7558H74.1688V50.907ZM74.7681 50.907V51.0581H75.0677V50.907V50.7558H74.7681V50.907ZM75.3673 50.907V51.0581H75.6669V50.907V50.7558H75.3673V50.907ZM75.9665 50.907V51.0581H76.2661V50.907V50.7558H75.9665V50.907ZM76.5657 50.907V51.0581H76.8653V50.907V50.7558H76.5657V50.907ZM77.165 50.907V51.0581H77.4646V50.907V50.7558H77.165V50.907ZM77.7642 50.907V51.0581H78.0638V50.907V50.7558H77.7642V50.907ZM78.3634 50.907V51.0581H78.663V50.907V50.7558H78.3634V50.907ZM78.9626 50.907V51.0581H79.2622V50.907V50.7558H78.9626V50.907ZM79.5619 50.907V51.0581H79.8615V50.907V50.7558H79.5619V50.907ZM80.1611 50.907V51.0581H80.4607V50.907V50.7558H80.1611V50.907ZM80.7603 50.907V51.0581H81.0599V50.907V50.7558H80.7603V50.907ZM81.3595 50.907V51.0581H81.6591V50.907V50.7558H81.3595V50.907ZM81.9588 50.907V51.0581H82.2584V50.907V50.7558H81.9588V50.907ZM82.558 50.907V51.0581H82.8576V50.907V50.7558H82.558V50.907ZM83.1572 50.907V51.0581H83.307V50.907V50.7558H83.1572V50.907Z" fill="#C2D1EB" mask="url(#path-94-inside-36_14400_189436)"/>
</g>
<path d="M83.307 43.7325H83.1559V50.907H83.307H83.4582V43.7325H83.307Z" fill="#C2D1EB" mask="url(#path-92-inside-35_14400_189436)"/>
<g clip-path="url(#clip12_14400_189436)">
<mask id="path-96-inside-37_14400_189436" fill="white">
<path d="M83.3071 43.7325H106.677V50.907H83.3071V43.7325Z"/>
</mask>
<mask id="path-98-inside-38_14400_189436" fill="white">
<path d="M83.3071 43.7325H106.677V50.907H83.3071V43.7325Z"/>
</mask>
<path d="M83.3071 43.7325H106.677V50.907H83.3071V43.7325Z" fill="white"/>
<path d="M83.3071 50.907V50.9825H83.4569V50.907V50.8314H83.3071V50.907ZM83.7565 50.907V50.9825H84.0562V50.907V50.8314H83.7565V50.907ZM84.3558 50.907V50.9825H84.6554V50.907V50.8314H84.3558V50.907ZM84.955 50.907V50.9825H85.2546V50.907V50.8314H84.955V50.907ZM85.5542 50.907V50.9825H85.8538V50.907V50.8314H85.5542V50.907ZM86.1534 50.907V50.9825H86.4531V50.907V50.8314H86.1534V50.907ZM86.7527 50.907V50.9825H87.0523V50.907V50.8314H86.7527V50.907ZM87.3519 50.907V50.9825H87.6515V50.907V50.8314H87.3519V50.907ZM87.9511 50.907V50.9825H88.2507V50.907V50.8314H87.9511V50.907ZM88.5503 50.907V50.9825H88.85V50.907V50.8314H88.5503V50.907ZM89.1496 50.907V50.9825H89.4492V50.907V50.8314H89.1496V50.907ZM89.7488 50.907V50.9825H90.0484V50.907V50.8314H89.7488V50.907ZM90.348 50.907V50.9825H90.6476V50.907V50.8314H90.348V50.907ZM90.9472 50.907V50.9825H91.2469V50.907V50.8314H90.9472V50.907ZM91.5465 50.907V50.9825H91.8461V50.907V50.8314H91.5465V50.907ZM92.1457 50.907V50.9825H92.4453V50.907V50.8314H92.1457V50.907ZM92.7449 50.907V50.9825H93.0445V50.907V50.8314H92.7449V50.907ZM93.3441 50.907V50.9825H93.6438V50.907V50.8314H93.3441V50.907ZM93.9434 50.907V50.9825H94.243V50.907V50.8314H93.9434V50.907ZM94.5426 50.907V50.9825H94.8422V50.907V50.8314H94.5426V50.907ZM95.1418 50.907V50.9825H95.4414V50.907V50.8314H95.1418V50.907ZM95.741 50.907V50.9825H96.0407V50.907V50.8314H95.741V50.907ZM96.3403 50.907V50.9825H96.6399V50.907V50.8314H96.3403V50.907ZM96.9395 50.907V50.9825H97.2391V50.907V50.8314H96.9395V50.907ZM97.5387 50.907V50.9825H97.8383V50.907V50.8314H97.5387V50.907ZM98.1379 50.907V50.9825H98.4375V50.907V50.8314H98.1379V50.907ZM98.7372 50.907V50.9825H99.0368V50.907V50.8314H98.7372V50.907ZM99.3364 50.907V50.9825H99.636V50.907V50.8314H99.3364V50.907ZM99.9356 50.907V50.9825H100.235V50.907V50.8314H99.9356V50.907ZM100.535 50.907V50.9825H100.834V50.907V50.8314H100.535V50.907ZM101.134 50.907V50.9825H101.434V50.907V50.8314H101.134V50.907ZM101.733 50.907V50.9825H102.033V50.907V50.8314H101.733V50.907ZM102.333 50.907V50.9825H102.632V50.907V50.8314H102.333V50.907ZM102.932 50.907V50.9825H103.231V50.907V50.8314H102.932V50.907ZM103.531 50.907V50.9825H103.831V50.907V50.8314H103.531V50.907ZM104.13 50.907V50.9825H104.43V50.907V50.8314H104.13V50.907ZM104.729 50.907V50.9825H105.029V50.907V50.8314H104.729V50.907ZM105.329 50.907V50.9825H105.628V50.907V50.8314H105.329V50.907ZM105.928 50.907V50.9825H106.227V50.907V50.8314H105.928V50.907ZM106.527 50.907V50.9825H106.677V50.907V50.8314H106.527V50.907ZM83.3071 50.907V51.0581H83.4569V50.907V50.7558H83.3071V50.907ZM83.7565 50.907V51.0581H84.0562V50.907V50.7558H83.7565V50.907ZM84.3558 50.907V51.0581H84.6554V50.907V50.7558H84.3558V50.907ZM84.955 50.907V51.0581H85.2546V50.907V50.7558H84.955V50.907ZM85.5542 50.907V51.0581H85.8538V50.907V50.7558H85.5542V50.907ZM86.1534 50.907V51.0581H86.4531V50.907V50.7558H86.1534V50.907ZM86.7527 50.907V51.0581H87.0523V50.907V50.7558H86.7527V50.907ZM87.3519 50.907V51.0581H87.6515V50.907V50.7558H87.3519V50.907ZM87.9511 50.907V51.0581H88.2507V50.907V50.7558H87.9511V50.907ZM88.5503 50.907V51.0581H88.85V50.907V50.7558H88.5503V50.907ZM89.1496 50.907V51.0581H89.4492V50.907V50.7558H89.1496V50.907ZM89.7488 50.907V51.0581H90.0484V50.907V50.7558H89.7488V50.907ZM90.348 50.907V51.0581H90.6476V50.907V50.7558H90.348V50.907ZM90.9472 50.907V51.0581H91.2469V50.907V50.7558H90.9472V50.907ZM91.5465 50.907V51.0581H91.8461V50.907V50.7558H91.5465V50.907ZM92.1457 50.907V51.0581H92.4453V50.907V50.7558H92.1457V50.907ZM92.7449 50.907V51.0581H93.0445V50.907V50.7558H92.7449V50.907ZM93.3441 50.907V51.0581H93.6438V50.907V50.7558H93.3441V50.907ZM93.9434 50.907V51.0581H94.243V50.907V50.7558H93.9434V50.907ZM94.5426 50.907V51.0581H94.8422V50.907V50.7558H94.5426V50.907ZM95.1418 50.907V51.0581H95.4414V50.907V50.7558H95.1418V50.907ZM95.741 50.907V51.0581H96.0407V50.907V50.7558H95.741V50.907ZM96.3403 50.907V51.0581H96.6399V50.907V50.7558H96.3403V50.907ZM96.9395 50.907V51.0581H97.2391V50.907V50.7558H96.9395V50.907ZM97.5387 50.907V51.0581H97.8383V50.907V50.7558H97.5387V50.907ZM98.1379 50.907V51.0581H98.4375V50.907V50.7558H98.1379V50.907ZM98.7372 50.907V51.0581H99.0368V50.907V50.7558H98.7372V50.907ZM99.3364 50.907V51.0581H99.636V50.907V50.7558H99.3364V50.907ZM99.9356 50.907V51.0581H100.235V50.907V50.7558H99.9356V50.907ZM100.535 50.907V51.0581H100.834V50.907V50.7558H100.535V50.907ZM101.134 50.907V51.0581H101.434V50.907V50.7558H101.134V50.907ZM101.733 50.907V51.0581H102.033V50.907V50.7558H101.733V50.907ZM102.333 50.907V51.0581H102.632V50.907V50.7558H102.333V50.907ZM102.932 50.907V51.0581H103.231V50.907V50.7558H102.932V50.907ZM103.531 50.907V51.0581H103.831V50.907V50.7558H103.531V50.907ZM104.13 50.907V51.0581H104.43V50.907V50.7558H104.13V50.907ZM104.729 50.907V51.0581H105.029V50.907V50.7558H104.729V50.907ZM105.329 50.907V51.0581H105.628V50.907V50.7558H105.329V50.907ZM105.928 50.907V51.0581H106.227V50.907V50.7558H105.928V50.907ZM106.527 50.907V51.0581H106.677V50.907V50.7558H106.527V50.907Z" fill="#C2D1EB" mask="url(#path-98-inside-38_14400_189436)"/>
</g>
<path d="M106.677 43.7325H106.526V50.907H106.677H106.828V43.7325H106.677Z" fill="#C2D1EB" mask="url(#path-96-inside-37_14400_189436)"/>
<g clip-path="url(#clip13_14400_189436)">
<mask id="path-100-inside-39_14400_189436" fill="white">
<path d="M106.677 43.7325H130.047V50.907H106.677V43.7325Z"/>
</mask>
<mask id="path-102-inside-40_14400_189436" fill="white">
<path d="M106.677 43.7325H130.047V50.907H106.677V43.7325Z"/>
</mask>
<path d="M106.677 43.7325H130.047V50.907H106.677V43.7325Z" fill="white"/>
<path d="M106.677 50.907V50.9825H106.827V50.907V50.8314H106.677V50.907ZM107.126 50.907V50.9825H107.426V50.907V50.8314H107.126V50.907ZM107.725 50.907V50.9825H108.025V50.907V50.8314H107.725V50.907ZM108.325 50.907V50.9825H108.624V50.907V50.8314H108.325V50.907ZM108.924 50.907V50.9825H109.223V50.907V50.8314H108.924V50.907ZM109.523 50.907V50.9825H109.823V50.907V50.8314H109.523V50.907ZM110.122 50.907V50.9825H110.422V50.907V50.8314H110.122V50.907ZM110.722 50.907V50.9825H111.021V50.907V50.8314H110.722V50.907ZM111.321 50.907V50.9825H111.62V50.907V50.8314H111.321V50.907ZM111.92 50.907V50.9825H112.22V50.907V50.8314H111.92V50.907ZM112.519 50.907V50.9825H112.819V50.907V50.8314H112.519V50.907ZM113.118 50.907V50.9825H113.418V50.907V50.8314H113.118V50.907ZM113.718 50.907V50.9825H114.017V50.907V50.8314H113.718V50.907ZM114.317 50.907V50.9825H114.616V50.907V50.8314H114.317V50.907ZM114.916 50.907V50.9825H115.216V50.907V50.8314H114.916V50.907ZM115.515 50.907V50.9825H115.815V50.907V50.8314H115.515V50.907ZM116.115 50.907V50.9825H116.414V50.907V50.8314H116.115V50.907ZM116.714 50.907V50.9825H117.013V50.907V50.8314H116.714V50.907ZM117.313 50.907V50.9825H117.613V50.907V50.8314H117.313V50.907ZM117.912 50.907V50.9825H118.212V50.907V50.8314H117.912V50.907ZM118.511 50.907V50.9825H118.811V50.907V50.8314H118.511V50.907ZM119.111 50.907V50.9825H119.41V50.907V50.8314H119.111V50.907ZM119.71 50.907V50.9825H120.01V50.907V50.8314H119.71V50.907ZM120.309 50.907V50.9825H120.609V50.907V50.8314H120.309V50.907ZM120.908 50.907V50.9825H121.208V50.907V50.8314H120.908V50.907ZM121.508 50.907V50.9825H121.807V50.907V50.8314H121.508V50.907ZM122.107 50.907V50.9825H122.406V50.907V50.8314H122.107V50.907ZM122.706 50.907V50.9825H123.006V50.907V50.8314H122.706V50.907ZM123.305 50.907V50.9825H123.605V50.907V50.8314H123.305V50.907ZM123.904 50.907V50.9825H124.204V50.907V50.8314H123.904V50.907ZM124.504 50.907V50.9825H124.803V50.907V50.8314H124.504V50.907ZM125.103 50.907V50.9825H125.403V50.907V50.8314H125.103V50.907ZM125.702 50.907V50.9825H126.002V50.907V50.8314H125.702V50.907ZM126.301 50.907V50.9825H126.601V50.907V50.8314H126.301V50.907ZM126.901 50.907V50.9825H127.2V50.907V50.8314H126.901V50.907ZM127.5 50.907V50.9825H127.799V50.907V50.8314H127.5V50.907ZM128.099 50.907V50.9825H128.399V50.907V50.8314H128.099V50.907ZM128.698 50.907V50.9825H128.998V50.907V50.8314H128.698V50.907ZM129.297 50.907V50.9825H129.597V50.907V50.8314H129.297V50.907ZM129.897 50.907V50.9825H130.047V50.907V50.8314H129.897V50.907ZM106.677 50.907V51.0581H106.827V50.907V50.7558H106.677V50.907ZM107.126 50.907V51.0581H107.426V50.907V50.7558H107.126V50.907ZM107.725 50.907V51.0581H108.025V50.907V50.7558H107.725V50.907ZM108.325 50.907V51.0581H108.624V50.907V50.7558H108.325V50.907ZM108.924 50.907V51.0581H109.223V50.907V50.7558H108.924V50.907ZM109.523 50.907V51.0581H109.823V50.907V50.7558H109.523V50.907ZM110.122 50.907V51.0581H110.422V50.907V50.7558H110.122V50.907ZM110.722 50.907V51.0581H111.021V50.907V50.7558H110.722V50.907ZM111.321 50.907V51.0581H111.62V50.907V50.7558H111.321V50.907ZM111.92 50.907V51.0581H112.22V50.907V50.7558H111.92V50.907ZM112.519 50.907V51.0581H112.819V50.907V50.7558H112.519V50.907ZM113.118 50.907V51.0581H113.418V50.907V50.7558H113.118V50.907ZM113.718 50.907V51.0581H114.017V50.907V50.7558H113.718V50.907ZM114.317 50.907V51.0581H114.616V50.907V50.7558H114.317V50.907ZM114.916 50.907V51.0581H115.216V50.907V50.7558H114.916V50.907ZM115.515 50.907V51.0581H115.815V50.907V50.7558H115.515V50.907ZM116.115 50.907V51.0581H116.414V50.907V50.7558H116.115V50.907ZM116.714 50.907V51.0581H117.013V50.907V50.7558H116.714V50.907ZM117.313 50.907V51.0581H117.613V50.907V50.7558H117.313V50.907ZM117.912 50.907V51.0581H118.212V50.907V50.7558H117.912V50.907ZM118.511 50.907V51.0581H118.811V50.907V50.7558H118.511V50.907ZM119.111 50.907V51.0581H119.41V50.907V50.7558H119.111V50.907ZM119.71 50.907V51.0581H120.01V50.907V50.7558H119.71V50.907ZM120.309 50.907V51.0581H120.609V50.907V50.7558H120.309V50.907ZM120.908 50.907V51.0581H121.208V50.907V50.7558H120.908V50.907ZM121.508 50.907V51.0581H121.807V50.907V50.7558H121.508V50.907ZM122.107 50.907V51.0581H122.406V50.907V50.7558H122.107V50.907ZM122.706 50.907V51.0581H123.006V50.907V50.7558H122.706V50.907ZM123.305 50.907V51.0581H123.605V50.907V50.7558H123.305V50.907ZM123.904 50.907V51.0581H124.204V50.907V50.7558H123.904V50.907ZM124.504 50.907V51.0581H124.803V50.907V50.7558H124.504V50.907ZM125.103 50.907V51.0581H125.403V50.907V50.7558H125.103V50.907ZM125.702 50.907V51.0581H126.002V50.907V50.7558H125.702V50.907ZM126.301 50.907V51.0581H126.601V50.907V50.7558H126.301V50.907ZM126.901 50.907V51.0581H127.2V50.907V50.7558H126.901V50.907ZM127.5 50.907V51.0581H127.799V50.907V50.7558H127.5V50.907ZM128.099 50.907V51.0581H128.399V50.907V50.7558H128.099V50.907ZM128.698 50.907V51.0581H128.998V50.907V50.7558H128.698V50.907ZM129.297 50.907V51.0581H129.597V50.907V50.7558H129.297V50.907ZM129.897 50.907V51.0581H130.047V50.907V50.7558H129.897V50.907Z" fill="#C2D1EB" mask="url(#path-102-inside-40_14400_189436)"/>
</g>
<path d="M130.047 43.7325H129.895V50.907H130.047H130.198V43.7325H130.047Z" fill="#C2D1EB" mask="url(#path-100-inside-39_14400_189436)"/>
<mask id="path-104-inside-41_14400_189436" fill="white">
<path d="M13.1978 50.907H36.5675V58.0814H13.1978V50.907Z"/>
</mask>
<path d="M13.1978 50.907H36.5675V58.0814H13.1978V50.907Z" fill="white"/>
<path d="M36.5675 58.0814V58.2326H36.7187V58.0814H36.5675ZM36.5675 50.907H36.4164V58.0814H36.5675H36.7187V50.907H36.5675ZM36.5675 58.0814V57.9302H13.1978V58.0814V58.2326H36.5675V58.0814Z" fill="#C2D1EB" mask="url(#path-104-inside-41_14400_189436)"/>
<mask id="path-106-inside-42_14400_189436" fill="white">
<path d="M36.5674 50.907H59.9372V58.0814H36.5674V50.907Z"/>
</mask>
<path d="M36.5674 50.907H59.9372V58.0814H36.5674V50.907Z" fill="white"/>
<path d="M59.9372 58.0814V58.2326H60.0883V58.0814H59.9372ZM59.9372 50.907H59.786V58.0814H59.9372H60.0883V50.907H59.9372ZM59.9372 58.0814V57.9302H36.5674V58.0814V58.2326H59.9372V58.0814Z" fill="#C2D1EB" mask="url(#path-106-inside-42_14400_189436)"/>
<mask id="path-108-inside-43_14400_189436" fill="white">
<path d="M59.9373 50.907H83.307V58.0814H59.9373V50.907Z"/>
</mask>
<path d="M59.9373 50.907H83.307V58.0814H59.9373V50.907Z" fill="white"/>
<path d="M83.307 58.0814V58.2326H83.4582V58.0814H83.307ZM83.307 50.907H83.1559V58.0814H83.307H83.4582V50.907H83.307ZM83.307 58.0814V57.9302H59.9373V58.0814V58.2326H83.307V58.0814Z" fill="#C2D1EB" mask="url(#path-108-inside-43_14400_189436)"/>
<mask id="path-110-inside-44_14400_189436" fill="white">
<path d="M83.3071 50.907H106.677V58.0814H83.3071V50.907Z"/>
</mask>
<path d="M83.3071 50.907H106.677V58.0814H83.3071V50.907Z" fill="white"/>
<path d="M106.677 58.0814V58.2326H106.828V58.0814H106.677ZM106.677 50.907H106.526V58.0814H106.677H106.828V50.907H106.677ZM106.677 58.0814V57.9302H83.3071V58.0814V58.2326H106.677V58.0814Z" fill="#C2D1EB" mask="url(#path-110-inside-44_14400_189436)"/>
<mask id="path-112-inside-45_14400_189436" fill="white">
<path d="M106.677 50.907H130.047V58.0814H106.677V50.907Z"/>
</mask>
<path d="M106.677 50.907H130.047V58.0814H106.677V50.907Z" fill="white"/>
<path d="M130.047 58.0814V58.2326H130.198V58.0814H130.047ZM130.047 50.907H129.895V58.0814H130.047H130.198V50.907H130.047ZM130.047 58.0814V57.9302H106.677V58.0814V58.2326H130.047V58.0814Z" fill="#C2D1EB" mask="url(#path-112-inside-45_14400_189436)"/>
</g>
<mask id="path-114-inside-46_14400_189436" fill="white">
<path d="M0.348877 58.0814H130.047V65.1861H0.348877V58.0814Z"/>
</mask>
<path d="M0.348877 58.0814H130.047V65.1861H0.348877V58.0814Z" fill="#E4ECF6"/>
<path d="M0.348877 58.0814V58.2326H130.047V58.0814V57.9303H0.348877V58.0814Z" fill="#C2D1EB" mask="url(#path-114-inside-46_14400_189436)"/>
<g clip-path="url(#clip14_14400_189436)">
<rect x="1.55811" y="59.4419" width="17.3837" height="4.53488" rx="0.604651" fill="#C2D1EB"/>
<path d="M5.90473 60.5757V62.8437C5.90473 62.9476 5.8197 63.0326 5.71577 63.0326H3.44774C3.34382 63.0326 3.25879 62.9476 3.25879 62.8437V60.5757C3.25879 60.4717 3.34382 60.3867 3.44774 60.3867H3.82565V60.1978H4.20356V60.3867H4.95937V60.1978H5.33728V60.3867H5.71577C5.8197 60.3867 5.90473 60.4717 5.90473 60.5757ZM5.52623 62.6541V61.8983H4.77042V62.6541H5.52623ZM5.71518 60.5757H5.33728V60.7646H4.95937V60.5757H4.20356V60.7646H3.82565V60.5757H3.44833L3.44774 60.5763V61.1425H5.71577V60.5763L5.71518 60.5757ZM3.44774 61.3315V62.8431L3.44833 62.8437L5.71577 62.8431V61.3315H3.44774Z" fill="#5473C8"/>
<rect x="7.30225" y="61.2559" width="9.82558" height="0.906977" rx="0.453488" fill="#5473C8"/>
</g>
<g clip-path="url(#clip15_14400_189436)">
<path d="M60.564 18.3896H105.762C106.054 18.3898 106.29 18.6269 106.291 18.9189V22.6484C106.29 22.9404 106.054 23.1775 105.762 23.1777H60.564C60.2719 23.1776 60.0347 22.9405 60.0347 22.6484V18.9189C60.0348 18.6268 60.2719 18.3897 60.564 18.3896Z" fill="#5473C8"/>
<path d="M60.564 18.3896H105.762C106.054 18.3898 106.29 18.6269 106.291 18.9189V22.6484C106.29 22.9404 106.054 23.1775 105.762 23.1777H60.564C60.2719 23.1776 60.0347 22.9405 60.0347 22.6484V18.9189C60.0348 18.6268 60.2719 18.3897 60.564 18.3896Z" stroke="#5473C8" stroke-width="0.151163"/>
</g>
<g clip-path="url(#clip16_14400_189436)">
<path d="M37.2847 18.3896H58.9009C59.193 18.3896 59.4301 18.6268 59.4302 18.9189V22.6474C59.4302 22.9396 59.1931 23.1767 58.9009 23.1767H37.2847C36.9925 23.1766 36.7554 22.9395 36.7554 22.6474V18.9189C36.7555 18.6268 36.9926 18.3897 37.2847 18.3896Z" fill="#5473C8"/>
<path d="M37.2847 18.3896H58.9009C59.193 18.3896 59.4301 18.6268 59.4302 18.9189V22.6474C59.4302 22.9396 59.1931 23.1767 58.9009 23.1767H37.2847C36.9925 23.1766 36.7554 22.9395 36.7554 22.6474V18.9189C36.7555 18.6268 36.9926 18.3897 37.2847 18.3896Z" stroke="#5473C8" stroke-width="0.151163"/>
</g>
<g clip-path="url(#clip17_14400_189436)">
<path d="M37.2847 23.6299H58.9009C59.193 23.6299 59.4301 23.8671 59.4302 24.1592V27.8878C59.4302 28.18 59.1931 28.4171 58.9009 28.4171H37.2847C36.9925 28.417 36.7554 28.1799 36.7554 27.8878V24.1592C36.7555 23.8672 36.9926 23.63 37.2847 23.6299Z" fill="#5473C8"/>
<path d="M37.2847 23.6299H58.9009C59.193 23.6299 59.4301 23.8671 59.4302 24.1592V27.8878C59.4302 28.18 59.1931 28.4171 58.9009 28.4171H37.2847C36.9925 28.417 36.7554 28.1799 36.7554 27.8878V24.1592C36.7555 23.8672 36.9926 23.63 37.2847 23.6299Z" stroke="#5473C8" stroke-width="0.151163"/>
</g>
<g clip-path="url(#clip18_14400_189436)">
<path d="M37.2847 28.8702H58.9009C59.193 28.8702 59.4301 29.1074 59.4302 29.3995V33.1281C59.4302 33.4202 59.1931 33.6573 58.9009 33.6573H37.2847C36.9925 33.6573 36.7554 33.4202 36.7554 33.1281V29.3995C36.7555 29.1075 36.9926 28.8703 37.2847 28.8702Z" fill="#5473C8"/>
<path d="M37.2847 28.8702H58.9009C59.193 28.8702 59.4301 29.1074 59.4302 29.3995V33.1281C59.4302 33.4202 59.1931 33.6573 58.9009 33.6573H37.2847C36.9925 33.6573 36.7554 33.4202 36.7554 33.1281V29.3995C36.7555 29.1075 36.9926 28.8703 37.2847 28.8702Z" stroke="#5473C8" stroke-width="0.151163"/>
</g>
<g clip-path="url(#clip19_14400_189436)">
<path d="M83.9941 34.2617H103.041C103.333 34.2618 103.57 34.499 103.57 34.791V49.9072C103.57 50.1994 103.333 50.4364 103.041 50.4365H83.9941C83.702 50.4364 83.4648 50.1994 83.4648 49.9072V34.791C83.4649 34.4989 83.7021 34.2618 83.9941 34.2617Z" fill="#5473C8"/>
<path d="M83.9941 34.2617H103.041C103.333 34.2618 103.57 34.499 103.57 34.791V49.9072C103.57 50.1994 103.333 50.4364 103.041 50.4365H83.9941C83.702 50.4364 83.4648 50.1994 83.4648 49.9072V34.791C83.4649 34.4989 83.7021 34.2618 83.9941 34.2617Z" stroke="#5473C8" stroke-width="0.151163"/>
</g>
<g clip-path="url(#clip20_14400_189436)">
<path d="M60.564 39.8547H79.6108C79.9029 39.8548 80.1401 40.092 80.1401 40.384V49.9075C80.1401 50.1996 79.9029 50.4367 79.6108 50.4368H60.564C60.2718 50.4367 60.0347 50.1996 60.0347 49.9075V40.384C60.0348 40.092 60.2719 39.8548 60.564 39.8547Z" fill="#5473C8"/>
<path d="M60.564 39.8547H79.6108C79.9029 39.8548 80.1401 40.092 80.1401 40.384V49.9075C80.1401 50.1996 79.9029 50.4367 79.6108 50.4368H60.564C60.2718 50.4367 60.0347 50.1996 60.0347 49.9075V40.384C60.0348 40.092 60.2719 39.8548 60.564 39.8547Z" stroke="#5473C8" stroke-width="0.151163"/>
</g>
</g>
<rect x="0.192627" y="0.657715" width="130.01" height="64.6846" stroke="#C2D1EB" stroke-width="0.1875"/>
<defs>
<clipPath id="clip0_14400_189436">
<rect x="0.098877" y="0.563965" width="130.198" height="64.8721" fill="white"/>
</clipPath>
<clipPath id="clip1_14400_189436">
<rect width="4.53488" height="4.53488" fill="white" transform="translate(10.6279 2.02325)"/>
</clipPath>
<clipPath id="clip2_14400_189436">
<path d="M15.1628 2.02325H19.0931C19.427 2.02325 19.6977 2.29397 19.6977 2.62791V5.95349C19.6977 6.28743 19.427 6.55814 19.0931 6.55814H15.1628V2.02325Z" fill="white"/>
</clipPath>
<clipPath id="clip3_14400_189436">
<rect width="129.698" height="50.1628" fill="white" transform="translate(0.348877 7.91858)"/>
</clipPath>
<clipPath id="clip4_14400_189436">
<path d="M13.1978 29.3837H36.5675V36.5581H13.1978V29.3837Z" fill="white"/>
</clipPath>
<clipPath id="clip5_14400_189436">
<path d="M36.5674 29.3837H59.9372V36.5581H36.5674V29.3837Z" fill="white"/>
</clipPath>
<clipPath id="clip6_14400_189436">
<path d="M59.9373 29.3837H83.307V36.5581H59.9373V29.3837Z" fill="white"/>
</clipPath>
<clipPath id="clip7_14400_189436">
<path d="M83.3071 29.3837H106.677V36.5581H83.3071V29.3837Z" fill="white"/>
</clipPath>
<clipPath id="clip8_14400_189436">
<path d="M106.677 29.3837H130.047V36.5581H106.677V29.3837Z" fill="white"/>
</clipPath>
<clipPath id="clip9_14400_189436">
<path d="M13.1978 43.7325H36.5675V50.907H13.1978V43.7325Z" fill="white"/>
</clipPath>
<clipPath id="clip10_14400_189436">
<path d="M36.5674 43.7325H59.9372V50.907H36.5674V43.7325Z" fill="white"/>
</clipPath>
<clipPath id="clip11_14400_189436">
<path d="M59.9373 43.7325H83.307V50.907H59.9373V43.7325Z" fill="white"/>
</clipPath>
<clipPath id="clip12_14400_189436">
<path d="M83.3071 43.7325H106.677V50.907H83.3071V43.7325Z" fill="white"/>
</clipPath>
<clipPath id="clip13_14400_189436">
<path d="M106.677 43.7325H130.047V50.907H106.677V43.7325Z" fill="white"/>
</clipPath>
<clipPath id="clip14_14400_189436">
<rect x="1.55811" y="59.4419" width="17.3837" height="4.53488" rx="0.604651" fill="white"/>
</clipPath>
<clipPath id="clip15_14400_189436">
<path d="M59.9595 18.919C59.9595 18.5851 60.2302 18.3144 60.5641 18.3144H105.762C106.096 18.3144 106.366 18.5851 106.366 18.919V22.6482C106.366 22.9822 106.096 23.2529 105.762 23.2529H60.5641C60.2302 23.2529 59.9595 22.9822 59.9595 22.6482V18.919Z" fill="white"/>
</clipPath>
<clipPath id="clip16_14400_189436">
<path d="M36.6802 18.919C36.6802 18.5851 36.9509 18.3144 37.2848 18.3144H58.9011C59.235 18.3144 59.5058 18.5851 59.5058 18.919V22.6477C59.5058 22.9817 59.235 23.2524 58.9011 23.2524H37.2848C36.9509 23.2524 36.6802 22.9817 36.6802 22.6477V18.919Z" fill="white"/>
</clipPath>
<clipPath id="clip17_14400_189436">
<path d="M36.6802 24.1594C36.6802 23.8255 36.9509 23.5547 37.2848 23.5547H58.9011C59.235 23.5547 59.5058 23.8255 59.5058 24.1594V27.8881C59.5058 28.222 59.235 28.4927 58.9011 28.4927H37.2848C36.9509 28.4927 36.6802 28.222 36.6802 27.8881V24.1594Z" fill="white"/>
</clipPath>
<clipPath id="clip18_14400_189436">
<path d="M36.6802 29.3997C36.6802 29.0658 36.9509 28.795 37.2848 28.795H58.9011C59.235 28.795 59.5058 29.0658 59.5058 29.3997V33.1284C59.5058 33.4623 59.235 33.733 58.9011 33.733H37.2848C36.9509 33.733 36.6802 33.4623 36.6802 33.1284V29.3997Z" fill="white"/>
</clipPath>
<clipPath id="clip19_14400_189436">
<path d="M83.3896 34.7912C83.3896 34.4572 83.6604 34.1865 83.9943 34.1865H103.041C103.375 34.1865 103.645 34.4572 103.645 34.7912V49.9075C103.645 50.2414 103.375 50.5121 103.041 50.5121H83.9943C83.6604 50.5121 83.3896 50.2414 83.3896 49.9075V34.7912Z" fill="white"/>
</clipPath>
<clipPath id="clip20_14400_189436">
<path d="M59.9595 40.3842C59.9595 40.0503 60.2302 39.7795 60.5641 39.7795H79.6106C79.9446 39.7795 80.2153 40.0503 80.2153 40.3842V49.9074C80.2153 50.2414 79.9446 50.5121 79.6106 50.5121H60.5641C60.2302 50.5121 59.9595 50.2414 59.9595 49.9074V40.3842Z" fill="white"/>
</clipPath>
</defs>
</svg>
