<svg width="130" height="64" viewBox="0 0 130 64" fill="none" xmlns="http://www.w3.org/2000/svg">
<g clip-path="url(#clip0_14391_128752)">
<rect y="0.75" width="130" height="62.5" fill="white"/>
<rect width="130" height="8" transform="translate(0 0.75)" fill="#E4EBF6"/>
<rect x="3.33325" y="4" width="10" height="1.5" rx="0.75" fill="#90ABDA"/>
<rect x="20" y="4" width="10" height="1.5" rx="0.75" fill="#5473C8"/>
<rect x="36.6665" y="4" width="10" height="1.5" rx="0.75" fill="#90ABDA"/>
<rect x="53.3333" y="4" width="10" height="1.5" rx="0.75" fill="#90ABDA"/>
<rect x="70" y="4" width="10" height="1.5" rx="0.75" fill="#90ABDA"/>
<g clip-path="url(#clip1_14391_128752)">
<mask id="path-8-inside-1_14391_128752" fill="white">
<path d="M0 8.75H130V16.25H0V8.75Z"/>
</mask>
<rect width="8" height="7.5" transform="translate(0 8.75)" fill="#E4EBF6"/>
<mask id="path-10-inside-2_14391_128752" fill="white">
<path d="M7.75 8.75H48.6667V16.25H7.75V8.75Z"/>
</mask>
<path d="M7.75 8.75H48.6667V16.25H7.75V8.75Z" fill="#E4EBF6"/>
<path d="M7.75 16.25H8V8.75H7.75H7.5V16.25H7.75Z" fill="#C2D1EB" mask="url(#path-10-inside-2_14391_128752)"/>
<path d="M28.2767 11.7322L27.453 14H27.1163L28.0648 11.5117H28.2818L28.2767 11.7322ZM28.9671 14L28.1417 11.7322L28.1366 11.5117H28.3536L29.3055 14H28.9671ZM28.9244 13.0789V13.3489H27.5264V13.0789H28.9244Z" fill="#5473C8"/>
<mask id="path-13-inside-3_14391_128752" fill="white">
<path d="M48.4167 8.75H89.3334V16.25H48.4167V8.75Z"/>
</mask>
<path d="M48.4167 8.75H89.3334V16.25H48.4167V8.75Z" fill="#E4EBF6"/>
<path d="M48.4167 16.25H48.6667V8.75H48.4167H48.1667V16.25H48.4167Z" fill="#C2D1EB" mask="url(#path-13-inside-3_14391_128752)"/>
<path d="M68.9605 12.8362H68.3299L68.3265 12.5713H68.899C68.9936 12.5713 69.0762 12.5553 69.1468 12.5234C69.2174 12.4915 69.2721 12.446 69.3109 12.3867C69.3507 12.3263 69.3707 12.2546 69.3707 12.1714C69.3707 12.0802 69.353 12.0062 69.3177 11.9492C69.2835 11.8911 69.2305 11.849 69.1588 11.8228C69.0881 11.7954 68.9981 11.7817 68.8888 11.7817H68.4034V14H68.0736V11.5117H68.8888C69.0164 11.5117 69.1303 11.5248 69.2305 11.551C69.3308 11.5761 69.4157 11.616 69.4852 11.6707C69.5558 11.7242 69.6094 11.7926 69.6458 11.8757C69.6823 11.9589 69.7005 12.0586 69.7005 12.1748C69.7005 12.2773 69.6743 12.3702 69.6219 12.4534C69.5695 12.5354 69.4966 12.6026 69.4032 12.655C69.3109 12.7074 69.2026 12.741 69.0784 12.7559L68.9605 12.8362ZM68.9451 14H68.2L68.3863 13.7317H68.9451C69.05 13.7317 69.1388 13.7135 69.2118 13.677C69.2858 13.6405 69.3422 13.5893 69.3809 13.5232C69.4197 13.456 69.439 13.3768 69.439 13.2856C69.439 13.1934 69.4225 13.1136 69.3895 13.0464C69.3564 12.9792 69.3046 12.9273 69.234 12.8909C69.1633 12.8544 69.0722 12.8362 68.9605 12.8362H68.4906L68.494 12.5713H69.1366L69.2066 12.667C69.3263 12.6772 69.4277 12.7114 69.5108 12.7695C69.594 12.8265 69.6572 12.8994 69.7005 12.9883C69.745 13.0771 69.7672 13.1751 69.7672 13.2822C69.7672 13.4372 69.733 13.5682 69.6646 13.6753C69.5974 13.7812 69.5023 13.8621 69.3792 13.918C69.2562 13.9727 69.1115 14 68.9451 14Z" fill="#5473C8"/>
<mask id="path-16-inside-4_14391_128752" fill="white">
<path d="M89.0833 8.75H130V16.25H89.0833V8.75Z"/>
</mask>
<path d="M89.0833 8.75H130V16.25H89.0833V8.75Z" fill="#E4EBF6"/>
<path d="M89.0833 16.25H89.3333V8.75H89.0833H88.8333V16.25H89.0833Z" fill="#C2D1EB" mask="url(#path-16-inside-4_14391_128752)"/>
<path d="M110.193 13.2087H110.521C110.504 13.366 110.459 13.5067 110.386 13.6309C110.313 13.755 110.21 13.8536 110.076 13.9265C109.943 13.9983 109.777 14.0342 109.577 14.0342C109.432 14.0342 109.299 14.0068 109.179 13.9521C109.061 13.8975 108.959 13.82 108.873 13.7197C108.788 13.6183 108.722 13.497 108.675 13.3557C108.63 13.2133 108.607 13.0549 108.607 12.8806V12.6328C108.607 12.4585 108.63 12.3007 108.675 12.1594C108.722 12.017 108.788 11.8951 108.875 11.7937C108.963 11.6923 109.068 11.6143 109.191 11.5596C109.314 11.5049 109.453 11.4775 109.607 11.4775C109.795 11.4775 109.953 11.5129 110.083 11.5835C110.213 11.6541 110.314 11.7521 110.386 11.8774C110.459 12.0016 110.504 12.1458 110.521 12.3098H110.193C110.177 12.1936 110.147 12.0939 110.104 12.0107C110.061 11.9264 109.999 11.8615 109.919 11.8159C109.84 11.7703 109.735 11.7476 109.607 11.7476C109.496 11.7476 109.399 11.7686 109.314 11.8108C109.231 11.8529 109.161 11.9128 109.104 11.9902C109.048 12.0677 109.006 12.1606 108.978 12.2688C108.949 12.377 108.935 12.4972 108.935 12.6294V12.8806C108.935 13.0025 108.947 13.117 108.972 13.2241C108.999 13.3312 109.038 13.4252 109.09 13.5061C109.143 13.587 109.209 13.6508 109.29 13.6975C109.371 13.7431 109.467 13.7659 109.577 13.7659C109.718 13.7659 109.829 13.7437 109.912 13.6992C109.996 13.6548 110.058 13.591 110.1 13.5078C110.144 13.4246 110.174 13.325 110.193 13.2087Z" fill="#5473C8"/>
<path d="M8 12.25V16.25H4L8 12.25Z" fill="#C2D1EB"/>
</g>
<path d="M0 8.75V9H130V8.75V8.5H0V8.75Z" fill="#C2D1EB" mask="url(#path-8-inside-1_14391_128752)"/>
<mask id="path-20-inside-5_14391_128752" fill="white">
<path d="M0 16.25H8V23.75H0V16.25Z"/>
</mask>
<path d="M0 16.25H8V23.75H0V16.25Z" fill="#E4EBF6"/>
<path d="M0 16.25V16.5H8V16.25V16H0V16.25Z" fill="#C2D1EB" mask="url(#path-20-inside-5_14391_128752)"/>
<path d="M4.26147 18.998V21.5H3.94531V19.3928L3.30786 19.6252V19.3398L4.21191 18.998H4.26147Z" fill="#5473C8"/>
<rect x="7.875" y="16.375" width="40.6667" height="7.25" fill="white"/>
<rect x="7.875" y="16.375" width="40.6667" height="7.25" stroke="#C2D1EB" stroke-width="0.25"/>
<rect x="10" y="19.25" width="21" height="1.5" rx="0.75" fill="#E4EBF6"/>
<rect x="48.5417" y="16.375" width="40.6667" height="7.25" fill="white"/>
<rect x="48.5417" y="16.375" width="40.6667" height="7.25" stroke="#C2D1EB" stroke-width="0.25"/>
<rect x="50.6667" y="19.25" width="21" height="1.5" rx="0.75" fill="#E4EBF6"/>
<rect x="89.2083" y="16.375" width="40.6667" height="7.25" fill="white"/>
<rect x="89.2083" y="16.375" width="40.6667" height="7.25" stroke="#C2D1EB" stroke-width="0.25"/>
<rect x="91.3333" y="19.25" width="21" height="1.5" rx="0.75" fill="#E4EBF6"/>
<mask id="path-29-inside-6_14391_128752" fill="white">
<path d="M0 23.5H8V31H0V23.5Z"/>
</mask>
<path d="M0 23.5H8V31H0V23.5Z" fill="#E4EBF6"/>
<path d="M0 23.5V23.75H8V23.5V23.25H0V23.5Z" fill="#C2D1EB" mask="url(#path-29-inside-6_14391_128752)"/>
<path d="M4.85278 28.4902V28.75H3.22412V28.5227L4.03931 27.6152C4.13957 27.5036 4.21704 27.409 4.27173 27.3315C4.32756 27.2529 4.36629 27.1829 4.38794 27.1213C4.41073 27.0587 4.42212 26.9949 4.42212 26.9299C4.42212 26.8479 4.40503 26.7738 4.37085 26.7078C4.33781 26.6405 4.28882 26.587 4.22388 26.5471C4.15894 26.5072 4.08032 26.4873 3.98804 26.4873C3.87752 26.4873 3.78524 26.509 3.71118 26.5522C3.63826 26.5944 3.58358 26.6536 3.54712 26.73C3.51066 26.8063 3.49243 26.894 3.49243 26.9932H3.17627C3.17627 26.853 3.20703 26.7249 3.26855 26.6086C3.33008 26.4924 3.42122 26.4001 3.54199 26.3318C3.66276 26.2623 3.81144 26.2275 3.98804 26.2275C4.14526 26.2275 4.2797 26.2555 4.39136 26.3113C4.50301 26.366 4.58846 26.4434 4.64771 26.5437C4.70809 26.6428 4.73828 26.759 4.73828 26.8923C4.73828 26.9653 4.72575 27.0393 4.70068 27.1145C4.67676 27.1886 4.64315 27.2626 4.59985 27.3367C4.5577 27.4107 4.50814 27.4836 4.45117 27.5554C4.39535 27.6272 4.33553 27.6978 4.27173 27.7673L3.60522 28.4902H4.85278Z" fill="#5473C8"/>
<rect x="7.875" y="23.625" width="40.6667" height="7.25" fill="white"/>
<rect x="7.875" y="23.625" width="40.6667" height="7.25" stroke="#C2D1EB" stroke-width="0.25"/>
<rect x="10" y="26.5" width="21" height="1.5" rx="0.75" fill="#E4EBF6"/>
<rect x="48.5417" y="23.625" width="40.6667" height="7.25" fill="white"/>
<rect x="48.5417" y="23.625" width="40.6667" height="7.25" stroke="#C2D1EB" stroke-width="0.25"/>
<rect x="50.6667" y="26.5" width="21" height="1.5" rx="0.75" fill="#E4EBF6"/>
<rect x="89.2083" y="23.625" width="40.6667" height="7.25" fill="white"/>
<rect x="89.2083" y="23.625" width="40.6667" height="7.25" stroke="#C2D1EB" stroke-width="0.25"/>
<rect x="91.3333" y="26.5" width="21" height="1.5" rx="0.75" fill="#E4EBF6"/>
<mask id="path-38-inside-7_14391_128752" fill="white">
<path d="M0 30.75H8V38.25H0V30.75Z"/>
</mask>
<path d="M0 30.75H8V38.25H0V30.75Z" fill="#E4EBF6"/>
<path d="M0 30.75V31H8V30.75V30.5H0V30.75Z" fill="#C2D1EB" mask="url(#path-38-inside-7_14391_128752)"/>
<path d="M3.68384 34.6003H3.90942C4.01994 34.6003 4.11108 34.5821 4.18286 34.5457C4.25578 34.5081 4.3099 34.4574 4.34521 34.3936C4.38167 34.3286 4.3999 34.2557 4.3999 34.1748C4.3999 34.0791 4.38395 33.9988 4.35205 33.9338C4.32015 33.8689 4.2723 33.8199 4.2085 33.7869C4.14469 33.7538 4.0638 33.7373 3.96582 33.7373C3.87695 33.7373 3.79834 33.755 3.72998 33.7903C3.66276 33.8245 3.60978 33.8735 3.57104 33.9373C3.53345 34.0011 3.51465 34.0763 3.51465 34.1628H3.19849C3.19849 34.0364 3.23039 33.9213 3.29419 33.8176C3.35799 33.7139 3.44743 33.6313 3.5625 33.5698C3.67871 33.5083 3.81315 33.4775 3.96582 33.4775C4.11621 33.4775 4.2478 33.5043 4.3606 33.5579C4.47339 33.6103 4.56112 33.6889 4.62378 33.7937C4.68644 33.8974 4.71777 34.0267 4.71777 34.1816C4.71777 34.2443 4.70296 34.3115 4.67334 34.3833C4.64486 34.4539 4.59985 34.52 4.53833 34.5815C4.47795 34.6431 4.39933 34.6938 4.30249 34.7336C4.20565 34.7724 4.08944 34.7917 3.95386 34.7917H3.68384V34.6003ZM3.68384 34.8601V34.6704H3.95386C4.11222 34.6704 4.24325 34.6892 4.34692 34.7268C4.4506 34.7644 4.53206 34.8145 4.59131 34.8772C4.65169 34.9399 4.69385 35.0088 4.71777 35.084C4.74284 35.158 4.75537 35.2321 4.75537 35.3062C4.75537 35.4224 4.73543 35.5255 4.69556 35.6155C4.65682 35.7055 4.60156 35.7818 4.52979 35.8445C4.45915 35.9071 4.37598 35.9544 4.28027 35.9863C4.18457 36.0182 4.08032 36.0342 3.96753 36.0342C3.85929 36.0342 3.75732 36.0188 3.66162 35.988C3.56706 35.9573 3.48332 35.9128 3.4104 35.8547C3.33748 35.7955 3.28052 35.7231 3.2395 35.6377C3.19849 35.5511 3.17798 35.4526 3.17798 35.342H3.49414C3.49414 35.4286 3.51294 35.5044 3.55054 35.5693C3.58927 35.6343 3.64396 35.685 3.7146 35.7214C3.78638 35.7568 3.87069 35.7744 3.96753 35.7744C4.06437 35.7744 4.14754 35.7579 4.21704 35.7249C4.28768 35.6907 4.3418 35.6394 4.37939 35.571C4.41813 35.5027 4.4375 35.4167 4.4375 35.313C4.4375 35.2093 4.41585 35.1244 4.37256 35.0583C4.32926 34.9911 4.26774 34.9416 4.18799 34.9097C4.10938 34.8766 4.01652 34.8601 3.90942 34.8601H3.68384Z" fill="#5473C8"/>
<rect x="7.875" y="30.875" width="40.6667" height="7.25" fill="white"/>
<rect x="7.875" y="30.875" width="40.6667" height="7.25" stroke="#C2D1EB" stroke-width="0.25"/>
<rect x="10" y="33.75" width="21" height="1.5" rx="0.75" fill="#E4EBF6"/>
<rect x="48.5417" y="30.875" width="40.6667" height="7.25" fill="white"/>
<rect x="48.5417" y="30.875" width="40.6667" height="7.25" stroke="#C2D1EB" stroke-width="0.25"/>
<rect x="50.6667" y="33.75" width="21" height="1.5" rx="0.75" fill="#E4EBF6"/>
<rect x="89.2083" y="30.875" width="40.6667" height="7.25" fill="white"/>
<rect x="89.2083" y="30.875" width="40.6667" height="7.25" stroke="#C2D1EB" stroke-width="0.25"/>
<rect x="91.3333" y="33.75" width="21" height="1.5" rx="0.75" fill="#E4EBF6"/>
<mask id="path-47-inside-8_14391_128752" fill="white">
<path d="M0 38H8V45.5H0V38Z"/>
</mask>
<path d="M0 38H8V45.5H0V38Z" fill="#E4EBF6"/>
<path d="M0 38V38.25H8V38V37.75H0V38Z" fill="#C2D1EB" mask="url(#path-47-inside-8_14391_128752)"/>
<path d="M4.90405 42.4126V42.6724H3.1062V42.4861L4.22046 40.7617H4.47852L4.20166 41.2607L3.46509 42.4126H4.90405ZM4.55713 40.7617V43.25H4.24097V40.7617H4.55713Z" fill="#5473C8"/>
<rect x="7.875" y="38.125" width="40.6667" height="7.25" fill="white"/>
<rect x="7.875" y="38.125" width="40.6667" height="7.25" stroke="#C2D1EB" stroke-width="0.25"/>
<rect x="10" y="41" width="21" height="1.5" rx="0.75" fill="#E4EBF6"/>
<rect x="48.5417" y="38.125" width="40.6667" height="7.25" fill="white"/>
<rect x="48.5417" y="38.125" width="40.6667" height="7.25" stroke="#C2D1EB" stroke-width="0.25"/>
<rect x="50.6667" y="41" width="21" height="1.5" rx="0.75" fill="#E4EBF6"/>
<rect x="89.2083" y="38.125" width="40.6667" height="7.25" fill="white"/>
<rect x="89.2083" y="38.125" width="40.6667" height="7.25" stroke="#C2D1EB" stroke-width="0.25"/>
<rect x="91.3333" y="41" width="21" height="1.5" rx="0.75" fill="#E4EBF6"/>
<mask id="path-56-inside-9_14391_128752" fill="white">
<path d="M0 45.25H8V52.75H0V45.25Z"/>
</mask>
<path d="M0 45.25H8V52.75H0V45.25Z" fill="#E4EBF6"/>
<path d="M0 45.25V45.5H8V45.25V45H0V45.25Z" fill="#C2D1EB" mask="url(#path-56-inside-9_14391_128752)"/>
<path d="M3.62231 49.3157L3.36938 49.2507L3.49414 48.0117H4.77075V48.304H3.76245L3.68726 48.9807C3.73283 48.9545 3.79036 48.93 3.85986 48.9072C3.9305 48.8844 4.01139 48.873 4.10254 48.873C4.21761 48.873 4.32072 48.893 4.41187 48.9329C4.50301 48.9716 4.58049 49.0274 4.64429 49.1003C4.70923 49.1733 4.75879 49.261 4.79297 49.3635C4.82715 49.4661 4.84424 49.5806 4.84424 49.707C4.84424 49.8267 4.82772 49.9366 4.79468 50.0369C4.76278 50.1371 4.71436 50.2249 4.64941 50.3C4.58447 50.3741 4.50244 50.4316 4.40332 50.4727C4.30534 50.5137 4.1897 50.5342 4.0564 50.5342C3.95614 50.5342 3.861 50.5205 3.771 50.4932C3.68213 50.4647 3.60238 50.422 3.53174 50.365C3.46224 50.3069 3.40527 50.2351 3.36084 50.1497C3.31755 50.0631 3.2902 49.9617 3.27881 49.8455H3.57959C3.59326 49.9389 3.62061 50.0175 3.66162 50.0813C3.70264 50.1451 3.75618 50.1935 3.82227 50.2266C3.88949 50.2585 3.96753 50.2744 4.0564 50.2744C4.13159 50.2744 4.19824 50.2613 4.25635 50.2351C4.31445 50.2089 4.36344 50.1713 4.40332 50.1223C4.4432 50.0733 4.47339 50.0141 4.4939 49.9446C4.51554 49.8751 4.52637 49.797 4.52637 49.7104C4.52637 49.6318 4.51554 49.5589 4.4939 49.4917C4.47225 49.4245 4.43978 49.3658 4.39648 49.3157C4.35433 49.2655 4.30249 49.2268 4.24097 49.1995C4.17944 49.171 4.10881 49.1567 4.02905 49.1567C3.9231 49.1567 3.84277 49.171 3.78809 49.1995C3.73454 49.2279 3.67928 49.2667 3.62231 49.3157Z" fill="#5473C8"/>
<rect x="7.875" y="45.375" width="40.6667" height="7.25" fill="white"/>
<rect x="7.875" y="45.375" width="40.6667" height="7.25" stroke="#C2D1EB" stroke-width="0.25"/>
<rect x="10" y="48.25" width="21" height="1.5" rx="0.75" fill="#E4EBF6"/>
<rect x="48.5417" y="45.375" width="40.6667" height="7.25" fill="white"/>
<rect x="48.5417" y="45.375" width="40.6667" height="7.25" stroke="#C2D1EB" stroke-width="0.25"/>
<rect x="50.6667" y="48.25" width="21" height="1.5" rx="0.75" fill="#E4EBF6"/>
<rect x="89.2083" y="45.375" width="40.6667" height="7.25" fill="white"/>
<rect x="89.2083" y="45.375" width="40.6667" height="7.25" stroke="#C2D1EB" stroke-width="0.25"/>
<rect x="91.3333" y="48.25" width="21" height="1.5" rx="0.75" fill="#E4EBF6"/>
<mask id="path-65-inside-10_14391_128752" fill="white">
<path d="M0 52.5H130V63.25H0V52.5Z"/>
</mask>
<path d="M0 52.5H130V63.25H0V52.5Z" fill="white"/>
<path d="M0 52.5V52.75H130V52.5V52.25H0V52.5Z" fill="#C2D1EB" mask="url(#path-65-inside-10_14391_128752)"/>
<path d="M3.25 53.125H8.75C9.23325 53.125 9.625 53.5168 9.625 54V59.5C9.625 59.9832 9.23325 60.375 8.75 60.375H3.25C2.76675 60.375 2.375 59.9832 2.375 59.5V54L2.37988 53.9102C2.42187 53.4987 2.74868 53.1719 3.16016 53.1299L3.25 53.125Z" stroke="white" stroke-opacity="0.01" stroke-width="0.25"/>
<path d="M6.25 56.5V55.5H5.75V56.5H4.75V57H5.75V58H6.25V57H7.25V56.5H6.25Z" fill="#C2D1EB"/>
<path d="M10.75 53.125H16.25C16.7332 53.125 17.125 53.5168 17.125 54V59.5C17.125 59.9832 16.7332 60.375 16.25 60.375H10.75C10.2668 60.375 9.875 59.9832 9.875 59.5V54L9.87988 53.9102C9.92187 53.4987 10.2487 53.1719 10.6602 53.1299L10.75 53.125Z" stroke="white" stroke-opacity="0.01" stroke-width="0.25"/>
<path d="M15.25 55V55.75H11.75V55H15.25Z" fill="#C2D1EB"/>
<path d="M11.75 56.25V57H15.25V56.25H11.75Z" fill="#C2D1EB"/>
<path d="M15.25 57.5H11.75V58.25H15.25V57.5Z" fill="#C2D1EB"/>
<g clip-path="url(#clip2_14391_128752)">
<mask id="path-76-inside-11_14391_128752" fill="white">
<path d="M19.25 52.5H43.25V60.5C43.25 60.7761 43.0261 61 42.75 61H19.75C19.4739 61 19.25 60.7761 19.25 60.5V52.5Z"/>
</mask>
<path d="M19.25 52.5H43.25V60.5C43.25 60.7761 43.0261 61 42.75 61H19.75C19.4739 61 19.25 60.7761 19.25 60.5V52.5Z" fill="white"/>
<path d="M19.25 52.5H43.25H19.25ZM43.5 60.5C43.5 60.9142 43.1642 61.25 42.75 61.25H19.75C19.3358 61.25 19 60.9142 19 60.5H19.5C19.5 60.6381 19.6119 60.75 19.75 60.75H42.75C42.8881 60.75 43 60.6381 43 60.5H43.5ZM19.75 61.25C19.3358 61.25 19 60.9142 19 60.5V52.5H19.5V60.5C19.5 60.6381 19.6119 60.75 19.75 60.75V61.25ZM43.5 52.5V60.5C43.5 60.9142 43.1642 61.25 42.75 61.25V60.75C42.8881 60.75 43 60.6381 43 60.5V52.5H43.5Z" fill="#C2D1EB" mask="url(#path-76-inside-11_14391_128752)"/>
<rect x="22.5" y="56" width="10" height="1.5" rx="0.75" fill="#5473C8"/>
<path d="M36.5 53.125H42C42.4832 53.125 42.875 53.5168 42.875 54V59.5C42.875 59.9832 42.4832 60.375 42 60.375H36.5C36.0168 60.375 35.625 59.9832 35.625 59.5V54L35.6299 53.9102C35.6719 53.4987 35.9987 53.1719 36.4102 53.1299L36.5 53.125Z" stroke="white" stroke-opacity="0.01" stroke-width="0.25"/>
<path d="M39.25 57.5L38.25 56H40.25L39.25 57.5Z" fill="#5473C8"/>
<rect x="46.5" y="56" width="10" height="1.5" rx="0.75" fill="#C2D1EB"/>
<path d="M60.5 53.125H66C66.4832 53.125 66.875 53.5168 66.875 54V59.5C66.875 59.9832 66.4832 60.375 66 60.375H60.5C60.0168 60.375 59.625 59.9832 59.625 59.5V54L59.6299 53.9102C59.6719 53.4987 59.9987 53.1719 60.4102 53.1299L60.5 53.125Z" stroke="white" stroke-opacity="0.01" stroke-width="0.25"/>
<path d="M63.25 57.5L62.25 56H64.25L63.25 57.5Z" fill="#C2D1EB"/>
<rect x="70.5" y="56" width="10" height="1.5" rx="0.75" fill="#C2D1EB"/>
<path d="M84.5 53.125H90C90.4832 53.125 90.875 53.5168 90.875 54V59.5C90.875 59.9832 90.4832 60.375 90 60.375H84.5C84.0168 60.375 83.625 59.9832 83.625 59.5V54L83.6299 53.9102C83.6719 53.4987 83.9987 53.1719 84.4102 53.1299L84.5 53.125Z" stroke="white" stroke-opacity="0.01" stroke-width="0.25"/>
<path d="M87.25 57.5L86.25 56H88.25L87.25 57.5Z" fill="#C2D1EB"/>
</g>
<path d="M113.75 53.125H119.25C119.733 53.125 120.125 53.5168 120.125 54V59.5C120.125 59.9832 119.733 60.375 119.25 60.375H113.75C113.267 60.375 112.875 59.9832 112.875 59.5V54L112.88 53.9102C112.922 53.4987 113.249 53.1719 113.66 53.1299L113.75 53.125Z" stroke="white" stroke-opacity="0.01" stroke-width="0.25"/>
<path d="M115.75 56.75L117.25 55.75V57.75L115.75 56.75Z" fill="#C2D1EB"/>
<path d="M121.25 53.125H126.75C127.233 53.125 127.625 53.5168 127.625 54V59.5C127.625 59.9832 127.233 60.375 126.75 60.375H121.25C120.767 60.375 120.375 59.9832 120.375 59.5V54L120.38 53.9102C120.422 53.4987 120.749 53.1719 121.16 53.1299L121.25 53.125Z" stroke="white" stroke-opacity="0.01" stroke-width="0.25"/>
<path d="M124.75 56.75L123.25 57.75V55.75L124.75 56.75Z" fill="#C2D1EB"/>
</g>
<rect x="0.125" y="0.875" width="129.75" height="62.25" stroke="#C2D1EB" stroke-width="0.25"/>
<defs>
<clipPath id="clip0_14391_128752">
<rect y="0.75" width="130" height="62.5" fill="white"/>
</clipPath>
<clipPath id="clip1_14391_128752">
<path d="M0 8.75H130V16.25H0V8.75Z" fill="white"/>
</clipPath>
<clipPath id="clip2_14391_128752">
<rect width="91.5" height="8.5" fill="white" transform="translate(19.25 52.5)"/>
</clipPath>
</defs>
</svg>
