<svg width="16" height="15" viewBox="0 0 16 15" fill="none" xmlns="http://www.w3.org/2000/svg">
<path d="M10 2C11.6569 2 13 3.34315 13 5V6C14.6569 6 16 7.34315 16 9V15H8L7.8457 14.9961C6.31166 14.9184 5.08163 13.6883 5.00391 12.1543L5 12V11H2V6.1748L3 8.94531V10H5V9C5 7.34315 6.34315 6 8 6H12V5C12 3.89543 11.1046 3 10 3H8.94531L6.1748 2H10ZM8 7C6.89543 7 6 7.89543 6 9V12C6 13.1046 6.89543 14 8 14H15V9C15 7.89543 14.1046 7 13 7H8ZM12.5 11C12.7761 11 13 11.2239 13 11.5C13 11.7761 12.7761 12 12.5 12H8.5C8.22386 12 8 11.7761 8 11.5C8 11.2239 8.22386 11 8.5 11H12.5ZM12.5 9C12.7761 9 13 9.22386 13 9.5C13 9.77614 12.7761 10 12.5 10H8.5C8.22386 10 8 9.77614 8 9.5C8 9.22386 8.22386 9 8.5 9H12.5ZM3.7959 2.2041L6 3L3.7959 3.7959L3 6L2.2041 3.7959L0 3L2.2041 2.2041L3 0L3.7959 2.2041Z" fill="currentColor"/>
</svg>
