<svg width="16" height="16" viewBox="0 0 16 16" fill="none" xmlns="http://www.w3.org/2000/svg">
<path d="M3.18381 4.06877C2.93932 3.82428 2.93932 3.42787 3.18381 3.18337C3.4283 2.93888 3.82469 2.93888 4.06918 3.18337L12.8166 11.9311C13.0611 12.1756 13.0611 12.572 12.8166 12.8165C12.5721 13.061 12.1758 13.061 11.9313 12.8165L3.18381 4.06877Z" fill="currentColor"/>
<path d="M11.9308 3.18347C12.1753 2.93897 12.5717 2.93897 12.8162 3.18347C13.0607 3.42796 13.0607 3.82437 12.8162 4.06887L4.06874 12.8166C3.82425 13.0611 3.42785 13.0611 3.18337 12.8166C2.93888 12.5721 2.93888 12.1757 3.18337 11.9312L11.9308 3.18347Z" fill="currentColor"/>
</svg>
