<svg width="16" height="16" viewBox="0 0 16 16" fill="none" xmlns="http://www.w3.org/2000/svg">
<path d="M2.2915 13.3333V2.66635C2.29159 2.21339 2.47121 1.77864 2.7915 1.45834C3.1118 1.13805 3.54655 0.95843 3.99951 0.958344H9.3335V0.95932C9.59355 0.959021 9.85104 1.00924 10.0913 1.10873C10.3316 1.20828 10.5502 1.35432 10.7339 1.53842L13.1255 3.93002C13.3105 4.1139 13.4571 4.33269 13.5571 4.57358C13.6571 4.81435 13.7088 5.07266 13.7085 5.33334V13.3333C13.7085 13.7864 13.5279 14.221 13.2075 14.5414C12.8872 14.8616 12.4525 15.0414 11.9995 15.0414H3.99951C3.54655 15.0413 3.1118 14.8616 2.7915 14.5414C2.47123 14.221 2.2915 13.7863 2.2915 13.3333ZM7.62451 12.0003V10.3753H5.99951C5.79266 10.3752 5.62469 10.2072 5.62451 10.0003C5.62451 9.79334 5.79255 9.62551 5.99951 9.62534H7.62451V8.00034C7.62451 7.79334 7.79255 7.62551 7.99951 7.62534C8.20662 7.62534 8.37451 7.79323 8.37451 8.00034V9.62534H9.99951C10.2066 9.62534 10.3745 9.79323 10.3745 10.0003C10.3743 10.2073 10.2065 10.3753 9.99951 10.3753H8.37451V12.0003C8.37434 12.2073 8.20651 12.3753 7.99951 12.3753C7.79266 12.3752 7.62469 12.2072 7.62451 12.0003ZM9.7085 4.66635C9.7085 4.74371 9.73876 4.81868 9.79346 4.87338C9.84806 4.9279 9.92235 4.95826 9.99951 4.95834H12.8999C12.8895 4.92571 12.8779 4.89341 12.8647 4.86166C12.8028 4.71235 12.7118 4.57626 12.5972 4.46225L10.2036 2.0687C10.0896 1.95424 9.95347 1.86394 9.8042 1.80209C9.77272 1.78906 9.74084 1.77727 9.7085 1.76694V4.66635ZM3.0415 13.3333C3.0415 13.5874 3.14216 13.8314 3.32178 14.0111C3.50142 14.1907 3.74546 14.2913 3.99951 14.2914H11.9995C12.2536 14.2914 12.4975 14.1907 12.6772 14.0111C12.857 13.8314 12.9585 13.5875 12.9585 13.3333V5.70834H9.99951C9.72344 5.70826 9.45844 5.59883 9.26318 5.40366C9.06783 5.20831 8.9585 4.94262 8.9585 4.66635V1.70834H3.99951C3.74546 1.70843 3.50142 1.80897 3.32178 1.98862C3.14213 2.16826 3.04159 2.4123 3.0415 2.66635V13.3333Z" fill="black"/>
</svg>
