<svg width="102" height="24" viewBox="0 0 102 24" fill="none" xmlns="http://www.w3.org/2000/svg">
<g clip-path="url(#clip0_144_1040)">
<path d="M19.0687 16.0283C19.0687 16.2537 18.9092 16.5283 18.7151 16.6397L13.7895 19.4811V8.52098L4.28936 3.04109L9.2149 0.200834C9.40905 0.0883288 9.72844 0.0883288 9.92299 0.200834L19.0687 5.47651V16.0283ZM11.6763 9.73829L5.17034 5.98365C4.9758 5.87192 4.65798 5.87192 4.46304 5.98365L0.0664062 8.52019L6.92797 12.4782L6.92915 20.3951L11.3226 17.859C11.5176 17.7464 11.6763 17.471 11.6763 17.2467L11.6763 9.73829ZM0.0664062 16.4366L4.81354 19.1762V13.6955L0.0664062 16.4366Z" fill="#5CE500"/>
<path d="M29.5324 5.47269H24.3552V19.4796H26.6524V13.9824H29.5513C32.6881 13.9824 34.4158 12.4516 34.4158 9.67071C34.4158 8.40854 33.9393 5.47269 29.5324 5.47269ZM32.08 9.70928C32.08 11.2889 31.2597 11.933 29.2481 11.933H26.6524V7.541H29.5513C31.2538 7.541 32.08 8.25078 32.08 9.70928ZM41.2537 9.27451L41.4274 9.35832L41.0375 11.4286L40.7694 11.346C40.5496 11.2783 40.3263 11.2441 40.1058 11.2441C37.9598 11.2441 37.7846 12.9516 37.7846 15.0168V19.4796H35.6571V9.19387H37.6519V10.4348C38.1945 9.60028 38.8514 9.16947 39.7155 9.06364C40.2818 8.99832 40.8335 9.07544 41.2537 9.27451ZM46.4829 8.98652C44.8084 8.98652 43.4678 9.62351 42.6042 10.8282C41.6976 12.0935 41.5633 13.5812 41.5633 14.355C41.5633 17.6057 43.4934 19.7055 46.4829 19.7055C50.1151 19.7055 51.4037 16.7822 51.4037 14.2795C51.4037 12.8395 50.9764 11.5329 50.2026 10.5996C49.3259 9.54442 48.0393 8.98652 46.4829 8.98652ZM46.4829 17.8071C44.8182 17.8071 43.7841 16.484 43.7841 14.355C43.7841 12.2033 44.8182 10.866 46.4829 10.866C48.1346 10.866 49.2011 12.2198 49.2011 14.3177C49.2011 16.4694 48.159 17.8071 46.4829 17.8071ZM69.2809 9.27451L69.4546 9.35832L69.0635 11.4286L68.7949 11.346C68.5764 11.2783 68.3531 11.2441 68.1317 11.2441C65.9862 11.2441 65.8121 12.9516 65.8121 15.0168V19.4797H63.6847V9.19387H65.6798V10.4348C66.2221 9.60028 66.8794 9.16947 67.7434 9.06364C68.3093 8.99832 68.8603 9.07544 69.2809 9.27451ZM76.9207 16.1822L76.8813 16.2951C76.4374 17.5597 75.3761 17.8248 74.5629 17.8248C72.9533 17.8248 71.9171 16.7574 71.8163 15.0235H79.0957L79.1225 14.8217C79.1548 14.5836 79.1493 14.2484 79.1458 14.0033C79.1454 13.9364 79.1434 13.8762 79.1434 13.8176C79.0371 10.9384 77.1585 9.00424 74.4683 9.00424C72.897 9.00424 71.6088 9.62075 70.7428 10.7889C70.0429 11.7335 69.6409 13.0406 69.6409 14.3739C69.6409 17.5522 71.6194 19.6882 74.5629 19.6882C76.8399 19.6882 78.4081 18.5318 78.98 16.4332L79.0485 16.1822L76.9207 16.1822ZM71.8868 13.1787C72.0656 11.7536 73.0427 10.8479 74.4305 10.8479C75.4911 10.8479 76.7466 11.464 76.9222 13.1787H71.8868ZM59.8107 10.0571C59.1242 9.34613 58.207 8.98652 57.0736 8.98652C53.9526 8.98652 52.5316 11.7304 52.5316 14.2795C52.5316 16.8955 53.936 19.5355 57.0736 19.5355C58.1204 19.5355 59.0557 19.1507 59.7295 18.4587C59.722 18.9115 59.7102 19.3439 59.6976 19.5276C59.5818 21.2246 58.7659 22.0146 57.1299 22.0146C56.2399 22.0146 55.2187 21.6991 55.0214 20.813L54.9781 20.6175L52.8818 20.6179L52.9156 20.8984C53.135 22.7118 54.7288 23.8386 57.0736 23.8386C59.1313 23.8386 60.5956 23.0639 61.3072 21.5999C61.6506 20.8944 61.8243 19.866 61.8243 18.5448V9.19387H59.8107V10.0571ZM57.2067 17.6376C56.4628 17.6376 54.7347 17.3008 54.7347 14.1855C54.7347 12.138 55.7035 10.866 57.2626 10.866C58.4673 10.866 59.7543 11.7379 59.7543 14.1855C59.7543 16.3463 58.8017 17.6376 57.2067 17.6376ZM88.9712 16.3832C88.9712 18.0188 87.6122 19.6693 84.5758 19.6693C81.8907 19.6693 80.2926 18.5075 80.0779 16.399L80.0551 16.1822H82.1487L82.1806 16.3396C82.4373 17.6072 83.646 17.8732 84.6156 17.8732C85.6773 17.8732 86.8119 17.5309 86.8119 16.5725C86.8119 16.0866 86.4953 15.7419 85.8719 15.5476C85.5017 15.4378 85.0472 15.3099 84.5663 15.1758C83.7381 14.9444 82.8812 14.7032 82.3538 14.5219C81.0479 14.0545 80.2985 13.1444 80.2985 12.0251C80.2985 9.95124 82.3196 9.02273 84.3214 9.02273C86.999 9.02273 88.3844 10.0303 88.5585 12.1022L88.5762 12.3158L86.513 12.3143L86.4843 12.151C86.2767 10.9581 85.0897 10.7798 84.3998 10.7798C83.8047 10.7798 82.42 10.8861 82.42 11.872C82.42 12.3202 82.8032 12.6495 83.592 12.8781C83.8271 12.9442 84.1776 13.0339 84.5821 13.1385C85.4221 13.3557 86.4685 13.6268 86.995 13.8086C88.3069 14.2693 88.9712 15.1352 88.9712 16.3832ZM98.7967 16.3832C98.7967 18.0188 97.4376 19.6693 94.4024 19.6693C91.7166 19.6693 90.1185 18.5075 89.9038 16.399L89.8814 16.1822H91.9753L92.0064 16.3396C92.2628 17.6072 93.4722 17.8732 94.4418 17.8732C95.5036 17.8732 96.6374 17.5309 96.6374 16.5725C96.6374 16.0866 96.3208 15.7419 95.6981 15.5476C95.3271 15.4378 94.8727 15.3099 94.3914 15.1758C93.5644 14.9444 92.7074 14.7032 92.1805 14.5219C90.8742 14.0545 90.1251 13.1444 90.1251 12.0251C90.1251 9.95124 92.1455 9.02273 94.1476 9.02273C96.8252 9.02273 98.2103 10.0303 98.384 12.1022L98.4021 12.3158L96.3393 12.3143L96.3105 12.151C96.1026 10.9581 94.9164 10.7798 94.2256 10.7798C93.6313 10.7798 92.2463 10.8861 92.2463 11.872C92.2463 12.3202 92.6299 12.6495 93.4179 12.8781C93.6534 12.9442 94.0027 13.0339 94.4087 13.1385C95.2484 13.3557 96.2944 13.6268 96.8217 13.8086C98.1316 14.2693 98.7967 15.1352 98.7967 16.3832Z" fill="#4B4E52"/>
<path d="M100.48 10.297C99.6868 10.297 99.0298 9.68058 99.0298 8.83208C99.0298 7.98347 99.6868 7.36713 100.48 7.36713C101.273 7.36713 101.931 7.98347 101.931 8.83208C101.931 9.68058 101.273 10.297 100.48 10.297ZM100.48 7.61533C99.8231 7.61533 99.2942 8.11957 99.2942 8.83208C99.2942 9.54459 99.8231 10.0488 100.48 10.0488C101.137 10.0488 101.666 9.54459 101.666 8.83208C101.666 8.11957 101.137 7.61533 100.48 7.61533ZM100.312 9.10429V9.59261H99.8792V8.05562H100.6C100.945 8.05562 101.169 8.25568 101.169 8.59196C101.169 8.83208 101.057 8.9922 100.873 9.05627L101.225 9.59261H100.745L100.448 9.10429L100.312 9.10429ZM100.552 8.4158H100.312V8.76005H100.552C100.68 8.76005 100.753 8.69598 100.753 8.59196C100.753 8.48784 100.68 8.4158 100.552 8.4158Z" fill="#4B4E52"/>
</g>
<defs>
<clipPath id="clip0_144_1040">
<rect width="102" height="24" fill="white"/>
</clipPath>
</defs>
</svg>
