<svg width="16" height="16" viewBox="0 0 16 16" fill="none" xmlns="http://www.w3.org/2000/svg">
<g clip-path="url(#clip0_358_6610)">
<rect width="16" height="16" fill="white"/>
<path d="M7.38529 2.625C7.38529 2.27982 7.66512 2 8.01029 2C8.35547 2 8.63529 2.27982 8.63529 2.625V13.375C8.63529 13.7202 8.35547 14 8.01029 14C7.66512 14 7.38529 13.7202 7.38529 13.375V2.625Z" fill="#212529"/>
<path d="M7.60224 3.07573C7.35816 2.83165 7.35816 2.43593 7.60224 2.19185C7.84631 1.94777 8.24204 1.94777 8.48612 2.19185L12.552 6.25771C12.7961 6.50179 12.7961 6.89752 12.552 7.14159C12.3079 7.38567 11.9122 7.38567 11.6681 7.14159L7.60224 3.07573Z" fill="#212529"/>
<path d="M8.40234 3.07583C8.64641 2.83175 8.64641 2.43602 8.40234 2.19194C8.15826 1.94786 7.76253 1.94786 7.51845 2.19194L3.45259 6.25781C3.20851 6.50188 3.20851 6.89761 3.45259 7.14169C3.69667 7.38577 4.0924 7.38577 4.33647 7.14169L8.40234 3.07583Z" fill="#212529"/>
</g>
<defs>
<clipPath id="clip0_358_6610">
<rect width="16" height="16" fill="white"/>
</clipPath>
</defs>
</svg>
