<svg width="472" height="523" viewBox="0 0 472 523" fill="none" xmlns="http://www.w3.org/2000/svg">
<mask id="mask0_328_1457" style="mask-type:alpha" maskUnits="userSpaceOnUse" x="-300" y="0" width="772" height="523">
<path d="M-299.78 0H471.949V522.894L-299.78 150.248V0Z" fill="#D9D9D9"/>
</mask>
<g mask="url(#mask0_328_1457)">
<g clip-path="url(#clip0_328_1457)">
<g opacity="0.4" clip-path="url(#clip1_328_1457)">
<path d="M244.453 21.2588L244.453 78.4613L304.567 106.388V49.9956L244.453 21.2588Z" stroke="#67718B" stroke-width="0.835121" stroke-miterlimit="10" stroke-dasharray="2.51 2.51"/>
<path d="M364.821 21.2589L364.821 78.4614L304.707 106.389V49.9957L364.821 21.2589Z" stroke="#67718B" stroke-width="0.835121" stroke-miterlimit="10" stroke-dasharray="2.51 2.51"/>
<path d="M364.394 21.2588L304.567 -6.81739L244.453 21.2588" stroke="#67718B" stroke-width="0.835121" stroke-miterlimit="10" stroke-dasharray="2.51 2.51"/>
<path d="M244.422 78.0717L244.422 135.274L304.536 163.201V106.809L244.422 78.0717Z" stroke="#67718B" stroke-width="0.835121" stroke-miterlimit="10" stroke-dasharray="2.51 2.51"/>
<path d="M364.788 78.0718L364.788 135.274L304.674 163.201V106.809L364.788 78.0718Z" stroke="#67718B" stroke-width="0.835121" stroke-miterlimit="10" stroke-dasharray="2.51 2.51"/>
<path d="M304.536 49.9956L364.363 78.0718L304.249 106.809L244.422 78.0718L304.536 49.9956Z" stroke="#67718B" stroke-width="0.835121" stroke-miterlimit="10" stroke-dasharray="2.51 2.51"/>
<path d="M364.72 20.6694L364.72 77.8719L424.834 105.799V49.4063L364.72 20.6694Z" stroke="#67718B" stroke-width="0.835121" stroke-miterlimit="10" stroke-dasharray="2.51 2.51"/>
<path d="M485.088 20.6696L485.088 77.8721L424.974 105.799V49.4064L485.088 20.6696Z" stroke="#67718B" stroke-width="0.835121" stroke-miterlimit="10" stroke-dasharray="2.51 2.51"/>
<path d="M484.661 20.6696L424.834 -7.4066L364.72 20.6696" stroke="#67718B" stroke-width="0.835121" stroke-miterlimit="10" stroke-dasharray="2.51 2.51"/>
<path d="M364.72 21.2691L364.72 -35.9334L424.834 -7.19656V49.1963" stroke="#67718B" stroke-width="0.835121" stroke-miterlimit="10" stroke-dasharray="2.51 2.51"/>
<path d="M485.088 21.2692L485.088 -35.9333L424.974 -7.19643V49.1964" stroke="#67718B" stroke-width="0.835121" stroke-miterlimit="10" stroke-dasharray="2.51 2.51"/>
<path d="M364.717 77.6256V133.414L424.831 162.755V106.372L364.717 77.6256Z" stroke="#67718B" stroke-width="0.835121" stroke-miterlimit="10" stroke-dasharray="2.51 2.51"/>
<path d="M484.667 77.6256L485.274 133.816L424.553 162.755V106.372L484.667 77.6256Z" stroke="#67718B" stroke-width="0.835121" stroke-miterlimit="10" stroke-dasharray="2.51 2.51"/>
<path d="M424.831 49.1963L484.667 77.6257L424.553 106.372L364.716 77.6257L424.831 49.1963Z" stroke="#67718B" stroke-width="0.835121" stroke-miterlimit="10" stroke-dasharray="2.51 2.51"/>
<path d="M4.25268 78.0362L4.25256 135.239L64.3669 163.166V106.773L4.25268 78.0362Z" stroke="#67718B" stroke-width="0.835121" stroke-miterlimit="10" stroke-dasharray="2.51 2.51"/>
<path d="M124.619 78.0362L124.619 135.239L64.5049 163.166V106.773L124.619 78.0362Z" stroke="#67718B" stroke-width="0.835121" stroke-miterlimit="10" stroke-dasharray="2.51 2.51"/>
<path d="M124.194 78.0363L64.3668 49.9602L4.25256 78.0363" stroke="#67718B" stroke-width="0.835121" stroke-miterlimit="10" stroke-dasharray="2.51 2.51"/>
<path d="M124.412 78.3802L124.412 21.1777L184.526 49.9146V106.307" stroke="#67718B" stroke-width="0.835121" stroke-miterlimit="10" stroke-dasharray="2.51 2.51"/>
<path d="M244.779 78.3802L244.779 21.1777L184.664 49.9146V106.307" stroke="#67718B" stroke-width="0.835121" stroke-miterlimit="10" stroke-dasharray="2.51 2.51"/>
<path d="M244.353 21.1777L184.526 -7.25178L124.412 21.1777" stroke="#67718B" stroke-width="0.835121" stroke-miterlimit="10" stroke-dasharray="2.51 2.51"/>
<path d="M124.483 77.7804L124.482 134.983L184.597 162.91V106.517L124.483 77.7804Z" stroke="#67718B" stroke-width="0.835121" stroke-miterlimit="10" stroke-dasharray="2.51 2.51"/>
<path d="M244.85 77.7806L244.85 134.983L184.736 162.91V106.517L244.85 77.7806Z" stroke="#67718B" stroke-width="0.835121" stroke-miterlimit="10" stroke-dasharray="2.51 2.51"/>
<path d="M244.423 77.7804L184.597 49.7042L124.482 77.7804" stroke="#67718B" stroke-width="0.835121" stroke-miterlimit="10" stroke-dasharray="2.51 2.51"/>
<path d="M244.453 249.46L244.858 192.218L304.567 220.994V277.387" stroke="#67718B" stroke-width="0.835121" stroke-miterlimit="10" stroke-dasharray="2.51 2.51"/>
<path d="M364.821 249.46L364.821 192.257L304.707 220.994V277.387" stroke="#67718B" stroke-width="0.835121" stroke-miterlimit="10" stroke-dasharray="2.51 2.51"/>
<path d="M364.394 192.257L304.567 164.181L244.453 192.257" stroke="#67718B" stroke-width="0.835121" stroke-miterlimit="10" stroke-dasharray="2.51 2.51"/>
<path d="M244.779 249.07L244.779 306.273L304.893 334.2V277.807L244.779 249.07Z" stroke="#67718B" stroke-width="0.835121" stroke-miterlimit="10" stroke-dasharray="2.51 2.51"/>
<path d="M365.147 249.07L365.147 306.273L305.033 334.2V277.807C328.509 266.585 341.671 260.293 365.147 249.07Z" stroke="#67718B" stroke-width="0.835121" stroke-miterlimit="10" stroke-dasharray="2.51 2.51"/>
<path d="M364.72 249.07L304.893 220.994L244.779 249.07" stroke="#67718B" stroke-width="0.835121" stroke-miterlimit="10" stroke-dasharray="2.51 2.51"/>
<path d="M364.72 248.87L364.72 191.668L424.834 220.405V276.798" stroke="#67718B" stroke-width="0.835121" stroke-miterlimit="10" stroke-dasharray="2.51 2.51"/>
<path d="M485.088 248.871L485.088 191.668L424.974 220.405V276.798" stroke="#67718B" stroke-width="0.835121" stroke-miterlimit="10" stroke-dasharray="2.51 2.51"/>
<path d="M484.661 191.668L424.834 163.592L364.72 191.668" stroke="#67718B" stroke-width="0.835121" stroke-miterlimit="10" stroke-dasharray="2.51 2.51"/>
<path d="M365.147 248.351V304.139L425.261 333.48V277.098L365.147 248.351Z" stroke="#67718B" stroke-width="0.835121" stroke-miterlimit="10" stroke-dasharray="2.51 2.51"/>
<path d="M485.098 248.351V304.139L424.984 333.48V277.098L485.098 248.351Z" stroke="#67718B" stroke-width="0.835121" stroke-miterlimit="10" stroke-dasharray="2.51 2.51"/>
<path d="M485.098 248.351L425.261 219.921L365.147 248.351" stroke="#67718B" stroke-width="0.835121" stroke-miterlimit="10" stroke-dasharray="2.51 2.51"/>
<path d="M4.11383 249.458L4.11394 192.255L64.2282 220.992V277.385" stroke="#67718B" stroke-width="0.835121" stroke-miterlimit="10" stroke-dasharray="2.51 2.51"/>
<path d="M124.482 249.458L124.482 192.255L64.3678 220.992V277.385" stroke="#67718B" stroke-width="0.835121" stroke-miterlimit="10" stroke-dasharray="2.51 2.51"/>
<path d="M124.055 192.255L64.2282 163.826L4.11398 192.255" stroke="#67718B" stroke-width="0.835121" stroke-miterlimit="10" stroke-dasharray="2.51 2.51"/>
<path d="M4.25268 249.035L4.25256 306.237L64.3669 334.165V277.772L4.25268 249.035Z" stroke="#67718B" stroke-width="0.835121" stroke-miterlimit="10" stroke-dasharray="2.51 2.51"/>
<path d="M124.619 249.035L124.619 306.237L64.5049 334.165V277.772L124.619 249.035Z" stroke="#67718B" stroke-width="0.835121" stroke-miterlimit="10" stroke-dasharray="2.51 2.51"/>
<path d="M124.194 249.035L64.3668 220.959L4.25256 249.035" stroke="#67718B" stroke-width="0.835121" stroke-miterlimit="10" stroke-dasharray="2.51 2.51"/>
<path d="M124.412 249.379L124.412 192.176L184.526 220.913V277.306" stroke="#67718B" stroke-width="0.835121" stroke-miterlimit="10" stroke-dasharray="2.51 2.51"/>
<path d="M244.779 249.379L244.779 192.176L184.664 220.913V277.306" stroke="#67718B" stroke-width="0.835121" stroke-miterlimit="10" stroke-dasharray="2.51 2.51"/>
<path d="M244.353 192.176L184.526 163.747L124.412 192.176" stroke="#67718B" stroke-width="0.835121" stroke-miterlimit="10" stroke-dasharray="2.51 2.51"/>
<path d="M124.483 248.779L124.482 305.982L184.597 333.909V277.516L124.483 248.779Z" stroke="#67718B" stroke-width="0.835121" stroke-miterlimit="10" stroke-dasharray="2.51 2.51"/>
<path d="M244.85 248.779L244.85 305.982L184.736 333.909V277.516L244.85 248.779Z" stroke="#67718B" stroke-width="0.835121" stroke-miterlimit="10" stroke-dasharray="2.51 2.51"/>
<path d="M244.423 248.779L184.597 220.703L124.482 248.779" stroke="#67718B" stroke-width="0.835121" stroke-miterlimit="10" stroke-dasharray="2.51 2.51"/>
<path d="M244.453 419.696L244.453 362.494L304.567 391.231V447.623" stroke="#67718B" stroke-width="0.835121" stroke-miterlimit="10" stroke-dasharray="2.51 2.51"/>
<path d="M304.567 334.418L364.394 362.494L304.279 391.231L244.453 362.494L304.567 334.418Z" stroke="#67718B" stroke-width="0.835121" stroke-miterlimit="10" stroke-dasharray="2.51 2.51"/>
<path d="M244.779 419.307L244.779 476.509L304.893 504.436V448.044L244.779 419.307Z" stroke="#67718B" stroke-width="0.835121" stroke-miterlimit="10" stroke-dasharray="2.51 2.51"/>
<path d="M365.147 419.307L365.147 476.509L305.033 504.436V448.044L365.147 419.307Z" stroke="#67718B" stroke-width="0.835121" stroke-miterlimit="10" stroke-dasharray="2.51 2.51"/>
<path d="M364.72 419.307L304.893 391.231L244.779 419.307" stroke="#67718B" stroke-width="0.835121" stroke-miterlimit="10" stroke-dasharray="2.51 2.51"/>
<path d="M364.72 419.107L364.72 361.904L424.834 390.641V447.034" stroke="#67718B" stroke-width="0.835121" stroke-miterlimit="10" stroke-dasharray="2.51 2.51"/>
<path d="M485.088 419.107L485.088 361.905L424.974 390.641V447.034" stroke="#67718B" stroke-width="0.835121" stroke-miterlimit="10" stroke-dasharray="2.51 2.51"/>
<path d="M484.661 361.905L424.834 333.828L364.72 361.905" stroke="#67718B" stroke-width="0.835121" stroke-miterlimit="10" stroke-dasharray="2.51 2.51"/>
<path d="M365.147 418.587V474.375L425.261 503.717V447.334L365.147 418.587Z" stroke="#67718B" stroke-width="0.835121" stroke-miterlimit="10" stroke-dasharray="2.51 2.51"/>
<path d="M485.098 418.587V474.375L424.984 503.717V447.334L485.098 418.587Z" stroke="#67718B" stroke-width="0.835121" stroke-miterlimit="10" stroke-dasharray="2.51 2.51"/>
<path d="M485.098 418.587L425.261 390.158L365.147 418.587" stroke="#67718B" stroke-width="0.835121" stroke-miterlimit="10" stroke-dasharray="2.51 2.51"/>
<path d="M4.11383 419.694L4.11394 362.492L64.2282 391.229V447.622" stroke="#67718B" stroke-width="0.835121" stroke-miterlimit="10" stroke-dasharray="2.51 2.51"/>
<path d="M124.482 419.694L124.482 362.492L64.3678 391.229V447.622" stroke="#67718B" stroke-width="0.835121" stroke-miterlimit="10" stroke-dasharray="2.51 2.51"/>
<path d="M124.055 362.492L64.2282 334.062L4.11398 362.492" stroke="#67718B" stroke-width="0.835121" stroke-miterlimit="10" stroke-dasharray="2.51 2.51"/>
<path d="M4.25268 419.271L4.25256 476.474L64.3669 504.401V448.008L4.25268 419.271Z" stroke="#67718B" stroke-width="0.835121" stroke-miterlimit="10" stroke-dasharray="2.51 2.51"/>
<path d="M124.619 419.272L124.619 476.474L64.5049 504.401V448.008L124.619 419.272Z" stroke="#67718B" stroke-width="0.835121" stroke-miterlimit="10" stroke-dasharray="2.51 2.51"/>
<path d="M124.194 419.271L64.3668 391.195L4.25256 419.271" stroke="#67718B" stroke-width="0.835121" stroke-miterlimit="10" stroke-dasharray="2.51 2.51"/>
<path d="M124.412 419.615L124.412 362.413L184.526 391.15V447.542" stroke="#67718B" stroke-width="0.835121" stroke-miterlimit="10" stroke-dasharray="2.51 2.51"/>
<path d="M244.779 419.615L244.779 362.413L184.664 391.15V447.542" stroke="#67718B" stroke-width="0.835121" stroke-miterlimit="10" stroke-dasharray="2.51 2.51"/>
<path d="M244.353 362.413L184.526 333.983L124.412 362.413" stroke="#67718B" stroke-width="0.835121" stroke-miterlimit="10" stroke-dasharray="2.51 2.51"/>
<path d="M124.483 419.015L124.482 476.218L184.597 504.145V447.752L124.483 419.015Z" stroke="#67718B" stroke-width="0.835121" stroke-miterlimit="10" stroke-dasharray="2.51 2.51"/>
<path d="M244.85 419.016L244.85 476.218L184.736 504.145V447.752L244.85 419.016Z" stroke="#67718B" stroke-width="0.835121" stroke-miterlimit="10" stroke-dasharray="2.51 2.51"/>
<path d="M244.423 419.015L184.597 390.939L124.482 419.015" stroke="#67718B" stroke-width="0.835121" stroke-miterlimit="10" stroke-dasharray="2.51 2.51"/>
<path d="M364.82 25.4622C367.284 25.4622 369.282 23.4644 369.282 21C369.282 18.5355 367.284 16.5377 364.82 16.5377C362.356 16.5377 360.358 18.5355 360.358 21C360.358 23.4644 362.356 25.4622 364.82 25.4622Z" fill="#67718B"/>
<path d="M244.781 25.4622C247.245 25.4622 249.243 23.4644 249.243 21C249.243 18.5355 247.245 16.5377 244.781 16.5377C242.317 16.5377 240.32 18.5355 240.32 21C240.32 23.4644 242.317 25.4622 244.781 25.4622Z" fill="#67718B"/>
<path d="M124.126 25.7192C126.59 25.7192 128.588 23.7214 128.588 21.257C128.588 18.7925 126.59 16.7947 124.126 16.7947C121.662 16.7947 119.664 18.7925 119.664 21.257C119.664 23.7214 121.662 25.7192 124.126 25.7192Z" fill="#67718B"/>
<path d="M64.3673 167.143C66.8314 167.143 68.829 165.145 68.829 162.68C68.829 160.216 66.8314 158.218 64.3673 158.218C61.9032 158.218 59.9056 160.216 59.9056 162.68C59.9056 165.145 61.9032 167.143 64.3673 167.143Z" fill="#67718B"/>
<path d="M185.214 167.176C187.678 167.176 189.675 165.178 189.675 162.714C189.675 160.249 187.678 158.252 185.214 158.252C182.75 158.252 180.752 160.249 180.752 162.714C180.752 165.178 182.75 167.176 185.214 167.176Z" fill="#67718B"/>
<path d="M304.893 168.643C307.358 168.643 309.355 166.646 309.355 164.181C309.355 161.717 307.358 159.719 304.893 159.719C302.429 159.719 300.432 161.717 300.432 164.181C300.432 166.646 302.429 168.643 304.893 168.643Z" fill="#67718B"/>
<path d="M425.148 167.143C427.612 167.143 429.609 165.145 429.609 162.68C429.609 160.216 427.612 158.218 425.148 158.218C422.684 158.218 420.686 160.216 420.686 162.68C420.686 165.145 422.684 167.143 425.148 167.143Z" fill="#67718B"/>
<path d="M4.06446 137.435C5.43343 137.435 6.54319 136.325 6.54319 134.956C6.54319 133.586 5.43343 132.477 4.06446 132.477C2.69549 132.477 1.58572 133.586 1.58572 134.956C1.58572 136.325 2.69549 137.435 4.06446 137.435Z" fill="#67718B"/>
<path d="M124.62 137.435C125.989 137.435 127.099 136.325 127.099 134.956C127.099 133.586 125.989 132.477 124.62 132.477C123.251 132.477 122.142 133.586 122.142 134.956C122.142 136.325 123.251 137.435 124.62 137.435Z" fill="#67718B"/>
<path d="M245.176 137.435C246.545 137.435 247.655 136.325 247.655 134.956C247.655 133.586 246.545 132.477 245.176 132.477C243.807 132.477 242.698 133.586 242.698 134.956C242.698 136.325 243.807 137.435 245.176 137.435Z" fill="#67718B"/>
<path d="M365.207 137.175C366.576 137.175 367.686 136.065 367.686 134.696C367.686 133.326 366.576 132.217 365.207 132.217C363.838 132.217 362.728 133.326 362.728 134.696C362.728 136.065 363.838 137.175 365.207 137.175Z" fill="#67718B"/>
<path d="M365.52 366.347C367.984 366.347 369.981 364.349 369.981 361.884C369.981 359.42 367.984 357.422 365.52 357.422C363.056 357.422 361.058 359.42 361.058 361.884C361.058 364.349 363.056 366.347 365.52 366.347Z" fill="#67718B"/>
<path d="M245.479 366.347C247.943 366.347 249.941 364.349 249.941 361.884C249.941 359.42 247.943 357.422 245.479 357.422C243.015 357.422 241.017 359.42 241.017 361.884C241.017 364.349 243.015 366.347 245.479 366.347Z" fill="#67718B"/>
<path d="M124.824 366.604C127.288 366.604 129.286 364.606 129.286 362.142C129.286 359.677 127.288 357.68 124.824 357.68C122.36 357.68 120.362 359.677 120.362 362.142C120.362 364.606 122.36 366.604 124.824 366.604Z" fill="#67718B"/>
<path d="M65.0675 336.192C66.4364 336.192 67.5462 335.082 67.5462 333.712C67.5462 332.343 66.4364 331.233 65.0675 331.233C63.6985 331.233 62.5887 332.343 62.5887 333.712C62.5887 335.082 63.6985 336.192 65.0675 336.192Z" fill="#67718B"/>
<path d="M185.364 336.192C186.733 336.192 187.843 335.082 187.843 333.712C187.843 332.343 186.733 331.233 185.364 331.233C183.995 331.233 182.885 332.343 182.885 333.712C182.885 335.082 183.995 336.192 185.364 336.192Z" fill="#67718B"/>
<path d="M425.389 335.957C426.758 335.957 427.868 334.847 427.868 333.478C427.868 332.109 426.758 330.999 425.389 330.999C424.02 330.999 422.911 332.109 422.911 333.478C422.911 334.847 424.02 335.957 425.389 335.957Z" fill="#67718B"/>
<path d="M305.491 336.547C306.86 336.547 307.97 335.437 307.97 334.068C307.97 332.698 306.86 331.589 305.491 331.589C304.122 331.589 303.012 332.698 303.012 334.068C303.012 335.437 304.122 336.547 305.491 336.547Z" fill="#67718B"/>
<path d="M4.81451 366.604C7.27865 366.604 9.27623 364.606 9.27623 362.142C9.27623 359.677 7.27865 357.68 4.81451 357.68C2.35037 357.68 0.352783 359.677 0.352783 362.142C0.352783 364.606 2.35037 366.604 4.81451 366.604Z" fill="#67718B"/>
<path d="M4.76591 478.319C6.13487 478.319 7.24464 477.209 7.24464 475.84C7.24464 474.471 6.13487 473.361 4.76591 473.361C3.39694 473.361 2.28717 474.471 2.28717 475.84C2.28717 477.209 3.39694 478.319 4.76591 478.319Z" fill="#67718B"/>
<path d="M125.32 478.319C126.689 478.319 127.799 477.209 127.799 475.84C127.799 474.471 126.689 473.361 125.32 473.361C123.951 473.361 122.841 474.471 122.841 475.84C122.841 477.209 123.951 478.319 125.32 478.319Z" fill="#67718B"/>
<path d="M245.876 478.319C247.245 478.319 248.355 477.209 248.355 475.84C248.355 474.471 247.245 473.361 245.876 473.361C244.507 473.361 243.397 474.471 243.397 475.84C243.397 477.209 244.507 478.319 245.876 478.319Z" fill="#67718B"/>
<path d="M365.907 478.059C367.276 478.059 368.385 476.95 368.385 475.58C368.385 474.211 367.276 473.101 365.907 473.101C364.538 473.101 363.428 474.211 363.428 475.58C363.428 476.95 364.538 478.059 365.907 478.059Z" fill="#67718B"/>
</g>
<line x1="124.724" y1="191.747" x2="245.21" y2="134.39" stroke="#2E69FF" stroke-width="1.25268"/>
<line x1="363.699" y1="191.822" x2="244.454" y2="135.054" stroke="#2E69FF" stroke-width="1.25268"/>
<line x1="304.559" y1="105.557" x2="304.559" y2="164.806" stroke="#2E69FF" stroke-width="1.25268"/>
<line x1="548.65" y1="46.9253" x2="424.624" y2="106.364" stroke="#2E69FF" stroke-width="1.25268"/>
<line x1="425.093" y1="106.499" x2="364.246" y2="77.7008" stroke="#2E69FF" stroke-width="1.25268"/>
<line x1="365.408" y1="77.7917" x2="304.981" y2="106.473" stroke="#2E69FF" stroke-width="1.25268"/>
<path d="M364.819 197.448C368.278 197.448 371.083 194.644 371.083 191.185C371.083 187.725 368.278 184.921 364.819 184.921C361.36 184.921 358.556 187.725 358.556 191.185C358.556 194.644 361.36 197.448 364.819 197.448Z" fill="#E68DB8"/>
<path d="M305.514 112.401C308.974 112.401 311.778 109.597 311.778 106.138C311.778 102.679 308.974 99.8747 305.514 99.8747C302.055 99.8747 299.251 102.679 299.251 106.138C299.251 109.597 302.055 112.401 305.514 112.401Z" fill="#82D1F2"/>
<path d="M305.561 118.022C312.282 118.022 317.73 112.573 317.73 105.853C317.73 99.1321 312.282 93.684 305.561 93.684C298.84 93.684 293.392 99.1321 293.392 105.853C293.392 112.573 298.84 118.022 305.561 118.022Z" fill="#82D1F2" fill-opacity="0.4"/>
<path d="M305.514 170.025C308.974 170.025 311.778 167.221 311.778 163.762C311.778 160.303 308.974 157.498 305.514 157.498C302.055 157.498 299.251 160.303 299.251 163.762C299.251 167.221 302.055 170.025 305.514 170.025Z" fill="#FFE55B"/>
<path d="M125.588 198.094C129.047 198.094 131.851 195.289 131.851 191.83C131.851 188.371 129.047 185.567 125.588 185.567C122.129 185.567 119.325 188.371 119.325 191.83C119.325 195.289 122.129 198.094 125.588 198.094Z" fill="#FFB649"/>
<path d="M125.67 203.32C132.061 203.32 137.242 198.139 137.242 191.748C137.242 185.358 132.061 180.177 125.67 180.177C119.28 180.177 114.099 185.358 114.099 191.748C114.099 198.139 119.28 203.32 125.67 203.32Z" fill="#FFB649" fill-opacity="0.4"/>
<path d="M424.703 109.5C426.779 109.5 428.461 107.817 428.461 105.742C428.461 103.666 426.779 101.984 424.703 101.984C422.628 101.984 420.945 103.666 420.945 105.742C420.945 107.817 422.628 109.5 424.703 109.5Z" fill="#D9BBF0"/>
<path d="M244.449 252.614C246.525 252.614 248.207 250.931 248.207 248.856C248.207 246.78 246.525 245.098 244.449 245.098C242.374 245.098 240.691 246.78 240.691 248.856C240.691 250.931 242.374 252.614 244.449 252.614Z" fill="#82D1F2"/>
<path d="M364.475 81.3297C366.551 81.3297 368.233 79.6472 368.233 77.5716C368.233 75.4961 366.551 73.8136 364.475 73.8136C362.4 73.8136 360.717 75.4961 360.717 77.5716C360.717 79.6472 362.4 81.3297 364.475 81.3297Z" fill="#FFB649"/>
<path d="M244.309 139.131C246.385 139.131 248.067 137.448 248.067 135.373C248.067 133.297 246.385 131.615 244.309 131.615C242.234 131.615 240.551 133.297 240.551 135.373C240.551 137.448 242.234 139.131 244.309 139.131Z" fill="#82EBB9"/>
</g>
</g>
<defs>
<clipPath id="clip0_328_1457">
<rect width="725.468" height="569.261" fill="white" transform="translate(0 -64.5808)"/>
</clipPath>
<clipPath id="clip1_328_1457">
<rect width="703.536" height="569.261" fill="white" transform="translate(-9.15527e-05 -64.5808)"/>
</clipPath>
</defs>
</svg>
