<svg width="886" height="366" viewBox="0 0 886 366" fill="none" xmlns="http://www.w3.org/2000/svg">
    <g clip-path="url(#clip0_17906_79068)">
    <g opacity="0.08">
    <path d="M442.95 50.2801C486.641 50.2801 522.059 14.8748 522.059 -28.7998C522.059 -72.4745 486.641 -107.88 442.95 -107.88C399.259 -107.88 363.841 -72.4745 363.841 -28.7998C363.841 14.8748 399.259 50.2801 442.95 50.2801Z" fill="#757575"/>
    <path d="M442.95 152.454C331.837 152.454 234.726 139.357 162.018 114.464C114.813 98.2679 74.8084 76.8734 46.3052 52.5796C16.0018 26.6861 0 -1.50674 0 -28.7998C0 -81.0865 57.5065 -132.374 153.717 -165.865C232.626 -193.358 335.338 -208.454 442.95 -208.454C548.562 -208.454 649.973 -193.558 728.382 -166.565C774.287 -150.769 812.992 -130.374 840.295 -107.58C870.098 -82.6861 885.8 -55.493 885.8 -28.7998C885.8 25.5864 821.593 80.5724 718.181 114.864C644.973 139.058 547.262 152.454 442.95 152.454ZM442.95 -170.664C340.938 -170.664 240.027 -155.868 166.119 -130.074C77.5088 -99.2819 37.8043 -56.9927 37.8043 -28.7998C37.8043 0.492737 80.5091 46.681 174.22 78.6729C243.027 102.167 335.938 114.664 442.95 114.664C543.261 114.664 636.772 101.967 706.38 78.9728C803.691 46.681 848.096 0.492737 848.096 -28.7998C848.096 -43.696 836.694 -61.3915 816.092 -78.5872C792.189 -98.4821 757.586 -116.578 716.081 -130.874C641.572 -156.567 544.461 -170.664 442.95 -170.664Z" fill="#757575"/>
    <path d="M263.23 365.5C247.228 365.5 233.026 362.001 220.925 355.103C175.62 329.009 159.918 253.629 178.92 153.554C194.522 71.4748 232.726 -25.1008 286.432 -118.277C339.338 -209.654 402.846 -290.034 465.453 -344.52C502.057 -376.312 539.061 -399.706 572.565 -412.003C608.969 -425.399 640.472 -425.399 663.575 -412.103C710.68 -385.009 726.282 -301.831 704.28 -195.158C688.678 -119.577 651.474 -28.2 599.368 62.0771C543.861 158.353 483.955 235.933 426.048 286.52C388.444 319.312 349.94 343.306 314.536 355.803C296.133 362.201 278.832 365.5 263.23 365.5ZM319.336 -99.2819C268.43 -10.9044 230.726 83.7716 216.124 160.652C198.622 252.829 215.424 308.315 239.827 322.411C265.23 337.107 326.537 323.211 401.145 258.027C455.952 210.24 513.058 135.958 566.564 43.2819C616.67 -43.5961 652.374 -130.974 667.175 -202.656C687.878 -303.03 669.976 -364.515 644.573 -379.211C631.671 -386.709 610.669 -385.609 585.466 -376.412C556.263 -365.714 523.359 -344.82 490.155 -315.927C430.749 -264.14 370.042 -187.26 319.336 -99.2819Z" fill="#757575"/>
    <path d="M622.57 366C579.665 366 525.259 340.107 468.553 291.319C405.246 236.833 340.638 155.553 286.632 62.3771C233.726 -28.9998 195.822 -124.176 179.82 -205.555C170.519 -253.143 168.819 -296.832 174.82 -331.923C181.42 -370.213 197.122 -397.406 220.225 -410.803C267.23 -437.996 347.139 -410.003 428.548 -337.721C486.355 -286.434 546.862 -208.554 599.068 -118.377C654.774 -22.2014 692.078 68.3755 706.98 143.656C716.681 192.544 718.181 237.933 711.38 274.723C704.079 313.913 687.778 341.806 664.175 355.603C652.174 362.601 638.172 366 622.57 366ZM319.436 43.4819C370.542 131.759 433.849 211.639 493.256 262.626C564.364 323.811 620.87 337.007 645.273 322.811C670.676 308.115 689.278 248.03 669.976 150.955C655.874 79.6726 620.07 -7.00531 566.464 -99.5818C516.258 -186.36 458.352 -260.941 403.546 -309.529C326.837 -377.611 264.63 -392.807 239.327 -378.111C226.426 -370.613 216.824 -351.918 212.324 -325.524C207.023 -294.832 208.724 -255.942 217.124 -212.753C232.226 -135.373 268.63 -44.3958 319.436 43.4819Z" fill="#757575"/>
    </g>
    </g>
    <defs>
    <clipPath id="clip0_17906_79068">
    <rect width="886" height="788" fill="white" transform="translate(0 -422)"/>
    </clipPath>
    </defs>
</svg>
