<svg width="580" height="153" viewBox="0 0 580 153" fill="none" xmlns="http://www.w3.org/2000/svg">
<g clip-path="url(#clip0_10101_12872)">
<rect width="580" height="153" fill="#F5F6F7"/>
<path d="M579.699 153H267.699L533.154 0H579.699V153Z" fill="#397EA3" fill-opacity="0.1"/>
<path d="M579.699 153H339.699L579.699 14.6709V153Z" fill="#397EA3" fill-opacity="0.15"/>
<path d="M8.11997 147.575C8.54096 147.575 8.88252 147.917 8.88252 148.338C8.88229 148.758 8.54079 149.099 8.11997 149.099C7.69907 149.099 7.35765 148.758 7.35742 148.338C7.35742 147.917 7.69891 147.575 8.11997 147.575Z" fill="#397EA3" fill-opacity="0.5"/>
<path d="M17.1628 147.575C17.5839 147.575 17.9254 147.917 17.9254 148.338C17.9252 148.758 17.5837 149.099 17.1628 149.099C16.7421 149.099 16.4005 148.758 16.4003 148.338C16.4003 147.917 16.7419 147.575 17.1628 147.575Z" fill="#397EA3" fill-opacity="0.5"/>
<path d="M26.2067 147.575C26.6277 147.575 26.9692 147.917 26.9692 148.338C26.969 148.758 26.6276 149.099 26.2067 149.099C25.7857 149.099 25.4444 148.758 25.4441 148.338C25.4441 147.917 25.7856 147.575 26.2067 147.575Z" fill="#397EA3" fill-opacity="0.5"/>
<path d="M8.11997 138.543C8.5409 138.543 8.88246 138.884 8.88252 139.305C8.88232 139.725 8.54084 140.066 8.11997 140.066C7.69903 140.066 7.35762 139.725 7.35742 139.305C7.35748 138.884 7.69897 138.543 8.11997 138.543Z" fill="#397EA3" fill-opacity="0.5"/>
<path d="M17.1628 138.543C17.5839 138.543 17.9253 138.884 17.9254 139.305C17.9252 139.725 17.5838 140.066 17.1628 140.066C16.742 140.066 16.4005 139.725 16.4003 139.305C16.4004 138.884 16.742 138.543 17.1628 138.543Z" fill="#397EA3" fill-opacity="0.5"/>
<path d="M26.2067 138.543C26.6277 138.543 26.9692 138.884 26.9692 139.305C26.969 139.725 26.6276 140.066 26.2067 140.066C25.7857 140.066 25.4443 139.725 25.4441 139.305C25.4442 138.884 25.7856 138.543 26.2067 138.543Z" fill="#397EA3" fill-opacity="0.5"/>
<path d="M35.2505 138.543C35.6713 138.544 36.012 138.884 36.0121 139.305C36.0119 139.725 35.6712 140.066 35.2505 140.066C34.8295 140.066 34.4872 139.725 34.487 139.305C34.4871 138.884 34.8295 138.543 35.2505 138.543Z" fill="#397EA3" fill-opacity="0.5"/>
<path d="M8.11997 129.511C8.5409 129.511 8.88246 129.852 8.88252 130.272C8.88247 130.693 8.54093 131.034 8.11997 131.034C7.69894 131.034 7.35747 130.693 7.35742 130.272C7.35748 129.852 7.69897 129.511 8.11997 129.511Z" fill="#397EA3" fill-opacity="0.5"/>
<path d="M17.1628 129.511C17.5839 129.511 17.9253 129.852 17.9254 130.272C17.9253 130.693 17.5839 131.034 17.1628 131.034C16.742 131.034 16.4003 130.693 16.4003 130.272C16.4004 129.852 16.742 129.511 17.1628 129.511Z" fill="#397EA3" fill-opacity="0.5"/>
<path d="M26.2067 129.511C26.6277 129.511 26.9692 129.852 26.9692 130.272C26.9692 130.693 26.6277 131.034 26.2067 131.034C25.7856 131.034 25.4442 130.693 25.4441 130.272C25.4442 129.852 25.7856 129.511 26.2067 129.511Z" fill="#397EA3" fill-opacity="0.5"/>
<path d="M35.2505 129.511C35.6713 129.511 36.012 129.852 36.0121 130.272C36.0121 130.693 35.6713 131.033 35.2505 131.034C34.8294 131.034 34.4871 130.693 34.487 130.272C34.4871 129.852 34.8295 129.511 35.2505 129.511Z" fill="#397EA3" fill-opacity="0.5"/>
<path d="M44.2934 129.511C44.7144 129.511 45.0559 129.852 45.0559 130.272C45.0559 130.693 44.7144 131.034 44.2934 131.034C43.8723 131.034 43.5309 130.693 43.5308 130.272C43.5309 129.852 43.8723 129.511 44.2934 129.511Z" fill="#397EA3" fill-opacity="0.5"/>
<path d="M53.3363 129.511C53.7574 129.511 54.0988 129.852 54.0988 130.272C54.0988 130.693 53.7574 131.034 53.3363 131.034C52.9154 131.034 52.5747 130.693 52.5747 130.272C52.5747 129.852 52.9154 129.511 53.3363 129.511Z" fill="#397EA3" fill-opacity="0.5"/>
<path d="M8.11997 120.478C8.5409 120.478 8.88242 120.819 8.88252 121.239C8.88252 121.66 8.54096 122.001 8.11997 122.001C7.69891 122.001 7.35742 121.66 7.35742 121.239C7.35752 120.819 7.69897 120.478 8.11997 120.478Z" fill="#397EA3" fill-opacity="0.5"/>
<path d="M17.1628 120.478C17.5838 120.478 17.9253 120.819 17.9254 121.239C17.9254 121.66 17.5839 122.001 17.1628 122.001C16.7419 122.001 16.4003 121.66 16.4003 121.239C16.4004 120.819 16.742 120.478 17.1628 120.478Z" fill="#397EA3" fill-opacity="0.5"/>
<path d="M26.2067 120.478C26.6277 120.478 26.9691 120.819 26.9692 121.239C26.9692 121.66 26.6277 122.001 26.2067 122.001C25.7856 122.001 25.4441 121.66 25.4441 121.239C25.4442 120.819 25.7857 120.478 26.2067 120.478Z" fill="#397EA3" fill-opacity="0.5"/>
<path d="M35.2505 120.478C35.6713 120.478 36.012 120.819 36.0121 121.239C36.0121 121.66 35.6714 122.001 35.2505 122.001C34.8294 122.001 34.487 121.66 34.487 121.239C34.4871 120.819 34.8295 120.478 35.2505 120.478Z" fill="#397EA3" fill-opacity="0.5"/>
<path d="M44.2934 120.478C44.7144 120.478 45.0558 120.819 45.0559 121.239C45.0559 121.66 44.7145 122.001 44.2934 122.001C43.8723 122.001 43.5308 121.66 43.5308 121.239C43.5309 120.819 43.8723 120.478 44.2934 120.478Z" fill="#397EA3" fill-opacity="0.5"/>
<path d="M53.3363 120.478C53.7573 120.478 54.0987 120.819 54.0988 121.239C54.0988 121.66 53.7574 122.001 53.3363 122.001C52.9153 122.001 52.5747 121.66 52.5747 121.239C52.5748 120.819 52.9154 120.478 53.3363 120.478Z" fill="#397EA3" fill-opacity="0.5"/>
<path d="M62.3801 120.478C62.8011 120.478 63.1426 120.819 63.1427 121.239C63.1427 121.66 62.8012 122.001 62.3801 122.001C61.959 122.001 61.6176 121.66 61.6176 121.239C61.6177 120.819 61.9591 120.478 62.3801 120.478Z" fill="#397EA3" fill-opacity="0.5"/>
<path d="M71.423 120.478C71.844 120.478 72.1854 120.819 72.1855 121.239C72.1855 121.66 71.8441 122.001 71.423 122.001C71.0021 122.001 70.6614 121.66 70.6614 121.239C70.6615 120.819 71.0021 120.478 71.423 120.478Z" fill="#397EA3" fill-opacity="0.5"/>
<path d="M8.11997 111.445C8.54081 111.445 8.88228 111.786 8.88252 112.207C8.88252 112.627 8.54096 112.969 8.11997 112.969C7.69891 112.969 7.35742 112.627 7.35742 112.207C7.35766 111.786 7.69906 111.445 8.11997 111.445Z" fill="#397EA3" fill-opacity="0.5"/>
<path d="M17.1628 111.445C17.5838 111.445 17.9252 111.786 17.9254 112.207C17.9254 112.627 17.5839 112.969 17.1628 112.969C16.7419 112.969 16.4003 112.627 16.4003 112.207C16.4005 111.786 16.7421 111.445 17.1628 111.445Z" fill="#397EA3" fill-opacity="0.5"/>
<path d="M26.2067 111.445C26.6276 111.445 26.969 111.786 26.9692 112.207C26.9692 112.627 26.6277 112.969 26.2067 112.969C25.7856 112.969 25.4441 112.627 25.4441 112.207C25.4444 111.786 25.7857 111.445 26.2067 111.445Z" fill="#397EA3" fill-opacity="0.5"/>
<path d="M35.2505 111.445C35.6712 111.445 36.0119 111.787 36.0121 112.207C36.0121 112.627 35.6714 112.969 35.2505 112.969C34.8294 112.969 34.487 112.627 34.487 112.207C34.4873 111.786 34.8295 111.445 35.2505 111.445Z" fill="#397EA3" fill-opacity="0.5"/>
<path d="M44.2934 111.445C44.7143 111.445 45.0557 111.786 45.0559 112.207C45.0559 112.627 44.7145 112.969 44.2934 112.969C43.8723 112.969 43.5308 112.627 43.5308 112.207C43.5311 111.786 43.8724 111.445 44.2934 111.445Z" fill="#397EA3" fill-opacity="0.5"/>
<path d="M53.3363 111.445C53.7572 111.445 54.0986 111.786 54.0988 112.207C54.0988 112.627 53.7574 112.969 53.3363 112.969C52.9154 112.969 52.5747 112.627 52.5747 112.207C52.5749 111.786 52.9155 111.445 53.3363 111.445Z" fill="#397EA3" fill-opacity="0.5"/>
<path d="M62.3801 111.445C62.801 111.445 63.1424 111.786 63.1427 112.207C63.1426 112.627 62.8012 112.969 62.3801 112.969C61.959 112.969 61.6176 112.627 61.6176 112.207C61.6178 111.786 61.9591 111.445 62.3801 111.445Z" fill="#397EA3" fill-opacity="0.5"/>
<path d="M71.423 111.445C71.8439 111.445 72.1853 111.786 72.1855 112.207C72.1855 112.627 71.8441 112.969 71.423 112.969C71.0021 112.969 70.6614 112.627 70.6614 112.207C70.6616 111.786 71.0022 111.445 71.423 111.445Z" fill="#397EA3" fill-opacity="0.5"/>
<path d="M80.7534 111.445C81.1743 111.445 81.5157 111.786 81.5159 112.207C81.5159 112.627 81.1745 112.969 80.7534 112.969C80.3324 112.969 79.9909 112.627 79.9908 112.207C79.9911 111.786 80.3325 111.445 80.7534 111.445Z" fill="#397EA3" fill-opacity="0.5"/>
<path d="M89.7972 111.445C90.218 111.445 90.5595 111.786 90.5598 112.207C90.5597 112.627 90.2181 112.969 89.7972 112.969C89.3762 112.969 89.0347 112.627 89.0347 112.207C89.0349 111.786 89.3763 111.445 89.7972 111.445Z" fill="#397EA3" fill-opacity="0.5"/>
<path d="M8.11997 102.413C8.54096 102.414 8.88252 102.754 8.88252 103.175C8.88233 103.595 8.54082 103.936 8.11997 103.937C7.69905 103.937 7.35761 103.595 7.35742 103.175C7.35742 102.754 7.69891 102.413 8.11997 102.413Z" fill="#397EA3" fill-opacity="0.5"/>
<path d="M17.1628 102.413C17.5839 102.413 17.9254 102.754 17.9254 103.175C17.9252 103.596 17.5838 103.937 17.1628 103.937C16.7421 103.936 16.4005 103.595 16.4003 103.175C16.4003 102.755 16.7419 102.414 17.1628 102.413Z" fill="#397EA3" fill-opacity="0.5"/>
<path d="M26.2067 102.413C26.6277 102.414 26.9692 102.754 26.9692 103.175C26.969 103.595 26.6276 103.937 26.2067 103.937C25.7857 103.937 25.4443 103.596 25.4441 103.175C25.4441 102.754 25.7856 102.413 26.2067 102.413Z" fill="#397EA3" fill-opacity="0.5"/>
<path d="M35.2505 102.413C35.6714 102.414 36.0121 102.755 36.0121 103.175C36.0119 103.595 35.6712 103.936 35.2505 103.937C34.8295 103.937 34.4872 103.596 34.487 103.175C34.487 102.754 34.8294 102.413 35.2505 102.413Z" fill="#397EA3" fill-opacity="0.5"/>
<path d="M44.2934 102.413C44.7145 102.413 45.0559 102.754 45.0559 103.175C45.0558 103.596 44.7143 103.937 44.2934 103.937C43.8724 103.937 43.531 103.596 43.5308 103.175C43.5308 102.754 43.8723 102.413 44.2934 102.413Z" fill="#397EA3" fill-opacity="0.5"/>
<path d="M53.3363 102.413C53.7574 102.413 54.0988 102.754 54.0988 103.175C54.0986 103.596 53.7573 103.937 53.3363 103.937C52.9154 103.936 52.5749 103.595 52.5747 103.175C52.5747 102.755 52.9153 102.414 53.3363 102.413Z" fill="#397EA3" fill-opacity="0.5"/>
<path d="M62.3801 102.413C62.8012 102.413 63.1427 102.754 63.1427 103.175C63.1425 103.596 62.8011 103.937 62.3801 103.937C61.9591 103.937 61.6177 103.596 61.6176 103.175C61.6176 102.754 61.959 102.413 62.3801 102.413Z" fill="#397EA3" fill-opacity="0.5"/>
<path d="M71.423 102.413C71.8441 102.413 72.1855 102.754 72.1855 103.175C72.1853 103.596 71.844 103.937 71.423 103.937C71.0022 103.936 70.6616 103.595 70.6614 103.175C70.6614 102.755 71.0021 102.414 71.423 102.413Z" fill="#397EA3" fill-opacity="0.5"/>
<path d="M80.7534 102.413C81.1745 102.413 81.5159 102.754 81.5159 103.175C81.5157 103.596 81.1744 103.937 80.7534 103.937C80.3324 103.937 79.991 103.595 79.9908 103.175C79.9908 102.754 80.3323 102.414 80.7534 102.413Z" fill="#397EA3" fill-opacity="0.5"/>
<path d="M89.7972 102.413C90.2181 102.414 90.5598 102.755 90.5598 103.175C90.5596 103.595 90.218 103.936 89.7972 103.937C89.3763 103.937 89.0349 103.595 89.0347 103.175C89.0347 102.754 89.3762 102.413 89.7972 102.413Z" fill="#397EA3" fill-opacity="0.5"/>
<path d="M98.8401 102.413C99.2611 102.413 99.6026 102.754 99.6026 103.175C99.6024 103.596 99.261 103.937 98.8401 103.937C98.4192 103.937 98.0777 103.595 98.0775 103.175C98.0775 102.754 98.4191 102.414 98.8401 102.413Z" fill="#397EA3" fill-opacity="0.5"/>
<path d="M8.11997 93.3807C8.5409 93.3809 8.88246 93.7218 8.88252 94.1423C8.88235 94.5628 8.54086 94.9038 8.11997 94.9039C7.69901 94.9039 7.35759 94.5628 7.35742 94.1423C7.35754 93.7218 7.69897 93.3808 8.11997 93.3807Z" fill="#397EA3" fill-opacity="0.5"/>
<path d="M17.1628 93.3807C17.5838 93.3808 17.9253 93.7218 17.9254 94.1423C17.9252 94.5628 17.5838 94.9039 17.1628 94.9039C16.742 94.9037 16.4005 94.5627 16.4003 94.1423C16.4004 93.7219 16.742 93.381 17.1628 93.3807Z" fill="#397EA3" fill-opacity="0.5"/>
<path d="M26.2067 93.3807C26.6277 93.3808 26.9691 93.7218 26.9692 94.1423C26.9691 94.5628 26.6276 94.9038 26.2067 94.9039C25.7857 94.9039 25.4443 94.5628 25.4441 94.1423C25.4442 93.7218 25.7856 93.3808 26.2067 93.3807Z" fill="#397EA3" fill-opacity="0.5"/>
<path d="M35.2505 93.3807C35.6713 93.3811 36.012 93.7219 36.0121 94.1423C36.0119 94.5627 35.6713 94.9036 35.2505 94.9039C34.8295 94.9039 34.4872 94.5629 34.487 94.1423C34.4871 93.7217 34.8295 93.3807 35.2505 93.3807Z" fill="#397EA3" fill-opacity="0.5"/>
<path d="M44.2934 93.3807C44.7144 93.3808 45.0559 93.7218 45.0559 94.1423C45.0558 94.5628 44.7144 94.9039 44.2934 94.9039C43.8724 94.9039 43.531 94.5629 43.5308 94.1423C43.5309 93.7217 43.8723 93.3807 44.2934 93.3807Z" fill="#397EA3" fill-opacity="0.5"/>
<path d="M53.3363 93.3807C53.7573 93.3807 54.0987 93.7217 54.0988 94.1423C54.0987 94.5629 53.7573 94.9039 53.3363 94.9039C52.9154 94.9037 52.5748 94.5627 52.5747 94.1423C52.5748 93.7219 52.9154 93.3809 53.3363 93.3807Z" fill="#397EA3" fill-opacity="0.5"/>
<path d="M62.3801 93.3807C62.8011 93.3808 63.1426 93.7218 63.1427 94.1423C63.1425 94.5628 62.8011 94.9039 62.3801 94.9039C61.9591 94.9039 61.6177 94.5629 61.6176 94.1423C61.6176 93.7217 61.959 93.3807 62.3801 93.3807Z" fill="#397EA3" fill-opacity="0.5"/>
<path d="M71.423 93.3807C71.844 93.3807 72.1854 93.7217 72.1855 94.1423C72.1854 94.5629 71.844 94.9039 71.423 94.9039C71.0022 94.9037 70.6616 94.5627 70.6614 94.1423C70.6615 93.7219 71.0021 93.381 71.423 93.3807Z" fill="#397EA3" fill-opacity="0.5"/>
<path d="M80.7534 93.3807C81.1744 93.3808 81.5158 93.7218 81.5159 94.1423C81.5158 94.5628 81.1744 94.9039 80.7534 94.9039C80.3324 94.9038 79.991 94.5628 79.9908 94.1423C79.9909 93.7218 80.3324 93.3808 80.7534 93.3807Z" fill="#397EA3" fill-opacity="0.5"/>
<path d="M89.7972 93.3807C90.2181 93.381 90.5597 93.7219 90.5598 94.1423C90.5596 94.5627 90.218 94.9037 89.7972 94.9039C89.3763 94.9039 89.0348 94.5628 89.0347 94.1423C89.0348 93.7218 89.3762 93.3808 89.7972 93.3807Z" fill="#397EA3" fill-opacity="0.5"/>
<path d="M98.8401 93.3807C99.2611 93.3808 99.6025 93.7218 99.6026 94.1423C99.6025 94.5628 99.261 94.9039 98.8401 94.9039C98.4192 94.9038 98.0777 94.5628 98.0775 94.1423C98.0776 93.7218 98.4191 93.3809 98.8401 93.3807Z" fill="#397EA3" fill-opacity="0.5"/>
<path d="M107.884 93.3807C108.305 93.3809 108.646 93.7219 108.646 94.1423C108.646 94.5627 108.305 94.9037 107.884 94.9039C107.463 94.9039 107.122 94.5628 107.121 94.1423C107.121 93.7218 107.463 93.3808 107.884 93.3807Z" fill="#397EA3" fill-opacity="0.5"/>
<path d="M116.927 93.3807C117.348 93.3808 117.689 93.7218 117.689 94.1423C117.689 94.5628 117.348 94.9039 116.927 94.9039C116.506 94.9038 116.164 94.5627 116.164 94.1423C116.164 93.7219 116.506 93.3809 116.927 93.3807Z" fill="#397EA3" fill-opacity="0.5"/>
<path d="M8.11997 84.348C8.5409 84.3482 8.88246 84.6891 8.88252 85.1096C8.8825 85.5302 8.54095 85.8711 8.11997 85.8712C7.69892 85.8712 7.35744 85.5302 7.35742 85.1096C7.35748 84.6891 7.69897 84.3481 8.11997 84.348Z" fill="#397EA3" fill-opacity="0.5"/>
<path d="M17.1628 84.348C17.5839 84.3481 17.9253 84.6891 17.9254 85.1096C17.9254 85.5303 17.5839 85.8712 17.1628 85.8712C16.7419 85.871 16.4003 85.5301 16.4003 85.1096C16.4004 84.6892 16.742 84.3483 17.1628 84.348Z" fill="#397EA3" fill-opacity="0.5"/>
<path d="M26.2067 84.348C26.6277 84.3481 26.9692 84.6891 26.9692 85.1096C26.9692 85.5302 26.6277 85.8712 26.2067 85.8712C25.7856 85.8712 25.4442 85.5303 25.4441 85.1096C25.4442 84.689 25.7856 84.3481 26.2067 84.348Z" fill="#397EA3" fill-opacity="0.5"/>
<path d="M35.2505 84.348C35.6713 84.3484 36.012 84.6892 36.0121 85.1096C36.0121 85.5301 35.6714 85.8709 35.2505 85.8712C34.8294 85.8712 34.487 85.5303 34.487 85.1096C34.4871 84.689 34.8295 84.348 35.2505 84.348Z" fill="#397EA3" fill-opacity="0.5"/>
<path d="M44.2934 84.348C44.7144 84.3481 45.0559 84.6891 45.0559 85.1096C45.0559 85.5303 44.7145 85.8712 44.2934 85.8712C43.8723 85.8712 43.5309 85.5303 43.5308 85.1096C43.5309 84.689 43.8723 84.348 44.2934 84.348Z" fill="#397EA3" fill-opacity="0.5"/>
<path d="M53.3363 84.348C53.7573 84.348 54.0988 84.689 54.0988 85.1096C54.0988 85.5303 53.7574 85.8712 53.3363 85.8712C52.9153 85.871 52.5747 85.5302 52.5747 85.1096C52.5747 84.6892 52.9154 84.3482 53.3363 84.348Z" fill="#397EA3" fill-opacity="0.5"/>
<path d="M62.3801 84.348C62.8012 84.3481 63.1426 84.6891 63.1427 85.1096C63.1426 85.5303 62.8012 85.8712 62.3801 85.8712C61.959 85.8712 61.6176 85.5303 61.6176 85.1096C61.6176 84.689 61.959 84.348 62.3801 84.348Z" fill="#397EA3" fill-opacity="0.5"/>
<path d="M71.423 84.348C71.844 84.348 72.1855 84.689 72.1855 85.1096C72.1855 85.5303 71.8441 85.8712 71.423 85.8712C71.0021 85.871 70.6614 85.5301 70.6614 85.1096C70.6615 84.6892 71.0021 84.3483 71.423 84.348Z" fill="#397EA3" fill-opacity="0.5"/>
<path d="M80.7534 84.348C81.1744 84.3481 81.5159 84.689 81.5159 85.1096C81.5159 85.5303 81.1745 85.8712 80.7534 85.8712C80.3323 85.8712 79.9908 85.5302 79.9908 85.1096C79.9909 84.6891 80.3324 84.3481 80.7534 84.348Z" fill="#397EA3" fill-opacity="0.5"/>
<path d="M89.7972 84.348C90.2181 84.3483 90.5597 84.6892 90.5598 85.1096C90.5597 85.5301 90.2181 85.871 89.7972 85.8712C89.3762 85.8712 89.0347 85.5302 89.0347 85.1096C89.0347 84.6891 89.3762 84.3481 89.7972 84.348Z" fill="#397EA3" fill-opacity="0.5"/>
<path d="M98.8401 84.348C99.2611 84.3481 99.6026 84.6891 99.6026 85.1096C99.6026 85.5303 99.2611 85.8712 98.8401 85.8712C98.4191 85.8711 98.0776 85.5302 98.0775 85.1096C98.0776 84.6891 98.4191 84.3482 98.8401 84.348Z" fill="#397EA3" fill-opacity="0.5"/>
<path d="M107.884 84.348C108.305 84.3482 108.646 84.6891 108.646 85.1096C108.646 85.5302 108.305 85.8711 107.884 85.8712C107.463 85.8712 107.121 85.5303 107.121 85.1096C107.121 84.689 107.463 84.3481 107.884 84.348Z" fill="#397EA3" fill-opacity="0.5"/>
<path d="M116.927 84.348C117.348 84.3481 117.689 84.6891 117.689 85.1096C117.689 85.5302 117.348 85.8712 116.927 85.8712C116.506 85.8711 116.164 85.5302 116.164 85.1096C116.164 84.6891 116.506 84.3482 116.927 84.348Z" fill="#397EA3" fill-opacity="0.5"/>
<path d="M125.971 84.348C126.392 84.3482 126.733 84.6891 126.733 85.1096C126.733 85.5302 126.392 85.8711 125.971 85.8712C125.55 85.8712 125.208 85.5303 125.208 85.1096C125.208 84.689 125.55 84.348 125.971 84.348Z" fill="#397EA3" fill-opacity="0.5"/>
<path d="M135.014 84.348C135.435 84.348 135.776 84.689 135.776 85.1096C135.776 85.5303 135.435 85.8712 135.014 85.8712C134.592 85.8711 134.251 85.5302 134.251 85.1096C134.251 84.6891 134.593 84.3481 135.014 84.348Z" fill="#397EA3" fill-opacity="0.5"/>
<path d="M8.11997 75.3153C8.54087 75.3155 8.88232 75.6565 8.88252 76.0769C8.88252 76.4975 8.54096 76.8384 8.11997 76.8385C7.69891 76.8385 7.35742 76.4976 7.35742 76.0769C7.35762 75.6565 7.69899 75.3154 8.11997 75.3153Z" fill="#397EA3" fill-opacity="0.5"/>
<path d="M17.1628 75.3153C17.5838 75.3154 17.9252 75.6564 17.9254 76.0769C17.9254 76.4976 17.5839 76.8385 17.1628 76.8385C16.7419 76.8383 16.4003 76.4975 16.4003 76.0769C16.4005 75.6566 16.742 75.3156 17.1628 75.3153Z" fill="#397EA3" fill-opacity="0.5"/>
<path d="M26.2067 75.3153C26.6276 75.3154 26.969 75.6565 26.9692 76.0769C26.9692 76.4975 26.6277 76.8385 26.2067 76.8385C25.7856 76.8385 25.4441 76.4976 25.4441 76.0769C25.4443 75.6564 25.7857 75.3154 26.2067 75.3153Z" fill="#397EA3" fill-opacity="0.5"/>
<path d="M35.2505 75.3153C35.6713 75.3157 36.0119 75.6566 36.0121 76.0769C36.0121 76.4974 35.6714 76.8382 35.2505 76.8385C34.8294 76.8385 34.487 76.4976 34.487 76.0769C34.4872 75.6564 34.8295 75.3153 35.2505 75.3153Z" fill="#397EA3" fill-opacity="0.5"/>
<path d="M44.2934 75.3153C44.7144 75.3154 45.0557 75.6565 45.0559 76.0769C45.0559 76.4976 44.7145 76.8385 44.2934 76.8385C43.8723 76.8385 43.5308 76.4976 43.5308 76.0769C43.531 75.6564 43.8724 75.3153 44.2934 75.3153Z" fill="#397EA3" fill-opacity="0.5"/>
<path d="M53.3363 75.3153C53.7573 75.3153 54.0986 75.6564 54.0988 76.0769C54.0988 76.4976 53.7574 76.8385 53.3363 76.8385C52.9153 76.8383 52.5747 76.4975 52.5747 76.0769C52.5749 75.6565 52.9154 75.3155 53.3363 75.3153Z" fill="#397EA3" fill-opacity="0.5"/>
<path d="M62.3801 75.3153C62.8011 75.3154 63.1425 75.6564 63.1427 76.0769C63.1427 76.4976 62.8012 76.8385 62.3801 76.8385C61.959 76.8385 61.6176 76.4976 61.6176 76.0769C61.6177 75.6564 61.9591 75.3153 62.3801 75.3153Z" fill="#397EA3" fill-opacity="0.5"/>
<path d="M71.423 75.3153C71.844 75.3153 72.1854 75.6564 72.1855 76.0769C72.1855 76.4976 71.8441 76.8385 71.423 76.8385C71.0021 76.8383 70.6614 76.4975 70.6614 76.0769C70.6616 75.6566 71.0022 75.3156 71.423 75.3153Z" fill="#397EA3" fill-opacity="0.5"/>
<path d="M80.7534 75.3153C81.1743 75.3154 81.5158 75.6564 81.5159 76.0769C81.5159 76.4976 81.1745 76.8385 80.7534 76.8385C80.3323 76.8385 79.9908 76.4975 79.9908 76.0769C79.991 75.6565 80.3324 75.3154 80.7534 75.3153Z" fill="#397EA3" fill-opacity="0.5"/>
<path d="M89.7972 75.3153C90.218 75.3156 90.5596 75.6566 90.5598 76.0769C90.5598 76.4975 90.2181 76.8383 89.7972 76.8385C89.3762 76.8385 89.0347 76.4976 89.0347 76.0769C89.0348 75.6565 89.3763 75.3154 89.7972 75.3153Z" fill="#397EA3" fill-opacity="0.5"/>
<path d="M98.8401 75.3153C99.2611 75.3154 99.6025 75.6565 99.6026 76.0769C99.6026 76.4976 99.2611 76.8385 98.8401 76.8385C98.4191 76.8384 98.0775 76.4975 98.0775 76.0769C98.0777 75.6565 98.4192 75.3155 98.8401 75.3153Z" fill="#397EA3" fill-opacity="0.5"/>
<path d="M107.884 75.3153C108.305 75.3155 108.646 75.6565 108.646 76.0769C108.646 76.4975 108.305 76.8384 107.884 76.8385C107.463 76.8385 107.121 76.4976 107.121 76.0769C107.122 75.6564 107.463 75.3154 107.884 75.3153Z" fill="#397EA3" fill-opacity="0.5"/>
<path d="M116.927 75.3153C117.348 75.3154 117.689 75.6565 117.689 76.0769C117.689 76.4976 117.348 76.8385 116.927 76.8385C116.506 76.8384 116.164 76.4975 116.164 76.0769C116.164 75.6565 116.506 75.3155 116.927 75.3153Z" fill="#397EA3" fill-opacity="0.5"/>
<path d="M125.971 75.3153C126.392 75.3155 126.733 75.6565 126.733 76.0769C126.733 76.4975 126.392 76.8384 125.971 76.8385C125.55 76.8385 125.208 76.4976 125.208 76.0769C125.208 75.6564 125.55 75.3153 125.971 75.3153Z" fill="#397EA3" fill-opacity="0.5"/>
<path d="M135.014 75.3153C135.435 75.3153 135.776 75.6564 135.776 76.0769C135.776 76.4976 135.435 76.8385 135.014 76.8385C134.592 76.8384 134.251 76.4975 134.251 76.0769C134.251 75.6565 134.593 75.3154 135.014 75.3153Z" fill="#397EA3" fill-opacity="0.5"/>
<path d="M144.057 75.3153C144.478 75.3155 144.82 75.6565 144.82 76.0769C144.82 76.4975 144.478 76.8384 144.057 76.8385C143.636 76.8385 143.295 76.4976 143.295 76.0769C143.295 75.6564 143.636 75.3153 144.057 75.3153Z" fill="#397EA3" fill-opacity="0.5"/>
<path d="M153.1 75.3153C153.521 75.3153 153.863 75.6564 153.863 76.0769C153.863 76.4976 153.521 76.8385 153.1 76.8385C152.679 76.8384 152.338 76.4975 152.338 76.0769C152.338 75.6565 152.679 75.3155 153.1 75.3153Z" fill="#397EA3" fill-opacity="0.5"/>
<path d="M8.11997 66.2826C8.54096 66.2828 8.88252 66.6246 8.88252 67.0452C8.88228 67.4656 8.54081 67.8067 8.11997 67.8068C7.69906 67.8067 7.35766 67.4656 7.35742 67.0452C7.35742 66.6246 7.69891 66.2827 8.11997 66.2826Z" fill="#397EA3" fill-opacity="0.5"/>
<path d="M17.1628 66.2826C17.5839 66.2827 17.9254 66.6246 17.9254 67.0452C17.9252 67.4656 17.5838 67.8068 17.1628 67.8068C16.7421 67.8066 16.4005 67.4655 16.4003 67.0452C16.4003 66.6247 16.7419 66.2829 17.1628 66.2826Z" fill="#397EA3" fill-opacity="0.5"/>
<path d="M26.2067 66.2826C26.6277 66.2827 26.9692 66.6246 26.9692 67.0452C26.969 67.4656 26.6276 67.8067 26.2067 67.8068C25.7857 67.8068 25.4444 67.4656 25.4441 67.0452C25.4441 66.6246 25.7856 66.2827 26.2067 66.2826Z" fill="#397EA3" fill-opacity="0.5"/>
<path d="M35.2505 66.2826C35.6714 66.283 36.0121 66.6247 36.0121 67.0452C36.0119 67.4655 35.6712 67.8065 35.2505 67.8068C34.8295 67.8068 34.4872 67.4657 34.487 67.0452C34.487 66.6246 34.8294 66.2826 35.2505 66.2826Z" fill="#397EA3" fill-opacity="0.5"/>
<path d="M44.2934 66.2836C44.7145 66.2836 45.0559 66.6246 45.0559 67.0452C45.0557 67.4656 44.7143 67.8068 44.2934 67.8068C43.8724 67.8068 43.5311 67.4657 43.5308 67.0452C43.5308 66.6246 43.8723 66.2836 44.2934 66.2836Z" fill="#397EA3" fill-opacity="0.5"/>
<path d="M53.3363 66.2836C53.7574 66.2836 54.0988 66.6246 54.0988 67.0452C54.0986 67.4657 53.7572 67.8068 53.3363 67.8068C52.9155 67.8066 52.5749 67.4655 52.5747 67.0452C52.5747 66.6247 52.9153 66.2838 53.3363 66.2836Z" fill="#397EA3" fill-opacity="0.5"/>
<path d="M62.3801 66.2836C62.8012 66.2836 63.1427 66.6246 63.1427 67.0452C63.1424 67.4656 62.801 67.8068 62.3801 67.8068C61.9591 67.8068 61.6178 67.4657 61.6176 67.0452C61.6176 66.6246 61.959 66.2836 62.3801 66.2836Z" fill="#397EA3" fill-opacity="0.5"/>
<path d="M71.423 66.2836C71.8441 66.2836 72.1855 66.6246 72.1855 67.0452C72.1853 67.4657 71.844 67.8068 71.423 67.8068C71.0022 67.8066 70.6616 67.4655 70.6614 67.0452C70.6614 66.6247 71.0021 66.2838 71.423 66.2836Z" fill="#397EA3" fill-opacity="0.5"/>
<path d="M80.7534 66.2836C81.1745 66.2836 81.5159 66.6246 81.5159 67.0452C81.5157 67.4656 81.1743 67.8068 80.7534 67.8068C80.3325 67.8067 79.9911 67.4656 79.9908 67.0452C79.9908 66.6246 80.3324 66.2837 80.7534 66.2836Z" fill="#397EA3" fill-opacity="0.5"/>
<path d="M89.7972 66.2836C90.2181 66.2838 90.5598 66.6247 90.5598 67.0452C90.5595 67.4655 90.218 67.8066 89.7972 67.8068C89.3763 67.8067 89.0349 67.4656 89.0347 67.0452C89.0347 66.6246 89.3762 66.2837 89.7972 66.2836Z" fill="#397EA3" fill-opacity="0.5"/>
<path d="M98.8401 66.2836C99.2611 66.2836 99.6026 66.6246 99.6026 67.0452C99.6024 67.4656 99.261 67.8068 98.8401 67.8068C98.4192 67.8067 98.0778 67.4656 98.0775 67.0452C98.0775 66.6246 98.4191 66.2837 98.8401 66.2836Z" fill="#397EA3" fill-opacity="0.5"/>
<path d="M107.884 66.2836C108.305 66.2838 108.646 66.6247 108.646 67.0452C108.646 67.4656 108.305 67.8066 107.884 67.8068C107.463 67.8068 107.122 67.4657 107.121 67.0452C107.121 66.6246 107.463 66.2836 107.884 66.2836Z" fill="#397EA3" fill-opacity="0.5"/>
<path d="M116.927 66.2836C117.348 66.2837 117.689 66.6246 117.689 67.0452C117.689 67.4656 117.348 67.8067 116.927 67.8068C116.506 67.8066 116.164 67.4656 116.164 67.0452C116.164 66.6247 116.506 66.2838 116.927 66.2836Z" fill="#397EA3" fill-opacity="0.5"/>
<path d="M125.971 66.2836C126.392 66.2837 126.733 66.6246 126.733 67.0452C126.733 67.4656 126.391 67.8067 125.971 67.8068C125.55 67.8068 125.208 67.4657 125.208 67.0452C125.208 66.6246 125.55 66.2836 125.971 66.2836Z" fill="#397EA3" fill-opacity="0.5"/>
<path d="M135.014 66.2836C135.435 66.2836 135.776 66.6246 135.776 67.0452C135.776 67.4657 135.434 67.8068 135.014 67.8068C134.593 67.8067 134.251 67.4656 134.251 67.0452C134.251 66.6246 134.592 66.2837 135.014 66.2836Z" fill="#397EA3" fill-opacity="0.5"/>
<path d="M144.057 66.2836C144.478 66.2837 144.82 66.6246 144.82 67.0452C144.82 67.4656 144.478 67.8067 144.057 67.8068C143.636 67.8068 143.295 67.4657 143.295 67.0452C143.295 66.6246 143.636 66.2836 144.057 66.2836Z" fill="#397EA3" fill-opacity="0.5"/>
<path d="M153.1 66.2836C153.521 66.2836 153.863 66.6246 153.863 67.0452C153.863 67.4657 153.521 67.8068 153.1 67.8068C152.679 67.8067 152.338 67.4656 152.338 67.0452C152.338 66.6246 152.679 66.2837 153.1 66.2836Z" fill="#397EA3" fill-opacity="0.5"/>
<path d="M162.431 66.2836C162.852 66.2836 163.193 66.6246 163.193 67.0452C163.193 67.4657 162.852 67.8068 162.431 67.8068C162.01 67.8068 161.668 67.4657 161.668 67.0452C161.668 66.6246 162.01 66.2836 162.431 66.2836Z" fill="#397EA3" fill-opacity="0.5"/>
<path d="M8.19786 57.2547C8.58236 57.2937 8.88252 57.6181 8.88252 58.0125C8.88243 58.3541 8.65707 58.643 8.34691 58.7395C8.27522 58.7619 8.19901 58.7741 8.11997 58.7741L8.04208 58.7703C7.99069 58.7651 7.94089 58.7544 7.89303 58.7395C7.83814 58.7225 7.78797 58.6959 7.73918 58.6675C7.61179 58.5935 7.50779 58.4863 7.44108 58.3544C7.38893 58.2514 7.35745 58.1359 7.35742 58.0125C7.35742 57.9073 7.37845 57.8069 7.41704 57.7157C7.53274 57.4424 7.80419 57.2509 8.11997 57.2509L8.19786 57.2547Z" fill="#397EA3" fill-opacity="0.5"/>
<path d="M17.1628 57.2509C17.5839 57.2509 17.9254 57.5919 17.9254 58.0125C17.9253 58.433 17.5838 58.7741 17.1628 58.7741C16.742 58.7739 16.4004 58.4329 16.4003 58.0125C16.4003 57.592 16.7419 57.2511 17.1628 57.2509Z" fill="#397EA3" fill-opacity="0.5"/>
<path d="M26.2067 57.2509C26.6277 57.251 26.9692 57.5919 26.9692 58.0125C26.9691 58.433 26.6277 58.774 26.2067 58.7741C25.7857 58.7741 25.4442 58.4331 25.4441 58.0125C25.4441 57.5919 25.7856 57.2509 26.2067 57.2509Z" fill="#397EA3" fill-opacity="0.5"/>
<path d="M35.2505 57.2509C35.6714 57.2512 36.0121 57.592 36.0121 58.0125C36.012 58.4329 35.6713 58.7738 35.2505 58.7741C34.8295 58.7741 34.4871 58.4331 34.487 58.0125C34.487 57.5918 34.8294 57.2509 35.2505 57.2509Z" fill="#397EA3" fill-opacity="0.5"/>
<path d="M44.2934 57.2509C44.7145 57.2509 45.0559 57.5919 45.0559 58.0125C45.0559 58.433 44.7144 58.7741 44.2934 58.7741C43.8723 58.7741 43.5309 58.4331 43.5308 58.0125C43.5308 57.5918 43.8723 57.2509 44.2934 57.2509Z" fill="#397EA3" fill-opacity="0.5"/>
<path d="M53.3363 57.2509C53.7574 57.2509 54.0988 57.5918 54.0988 58.0125C54.0987 58.4331 53.7573 58.7741 53.3363 58.7741C52.9154 58.7739 52.5748 58.4329 52.5747 58.0125C52.5747 57.592 52.9153 57.2511 53.3363 57.2509Z" fill="#397EA3" fill-opacity="0.5"/>
<path d="M62.3801 57.2509C62.8012 57.2509 63.1427 57.5919 63.1427 58.0125C63.1425 58.4331 62.8011 58.7741 62.3801 58.7741C61.9591 58.7741 61.6177 58.4331 61.6176 58.0125C61.6176 57.5918 61.959 57.2509 62.3801 57.2509Z" fill="#397EA3" fill-opacity="0.5"/>
<path d="M71.423 57.2509C71.8441 57.2509 72.1855 57.5918 72.1855 58.0125C72.1854 58.4331 71.844 58.7741 71.423 58.7741C71.0021 58.7739 70.6615 58.4329 70.6614 58.0125C70.6614 57.592 71.0021 57.2511 71.423 57.2509Z" fill="#397EA3" fill-opacity="0.5"/>
<path d="M80.7534 57.2509C81.1745 57.2509 81.5159 57.5919 81.5159 58.0125C81.5158 58.4331 81.1744 58.7741 80.7534 58.7741C80.3324 58.774 79.9909 58.433 79.9908 58.0125C79.9908 57.5919 80.3323 57.251 80.7534 57.2509Z" fill="#397EA3" fill-opacity="0.5"/>
<path d="M89.7972 57.2509C90.2181 57.2511 90.5598 57.592 90.5598 58.0125C90.5596 58.4329 90.218 58.7739 89.7972 58.7741C89.3762 58.774 89.0348 58.433 89.0347 58.0125C89.0347 57.5919 89.3762 57.251 89.7972 57.2509Z" fill="#397EA3" fill-opacity="0.5"/>
<path d="M98.8401 57.2509C99.2611 57.2509 99.6026 57.5919 99.6026 58.0125C99.6025 58.433 99.2611 58.7741 98.8401 58.7741C98.4192 58.774 98.0777 58.433 98.0775 58.0125C98.0775 57.5919 98.4191 57.251 98.8401 57.2509Z" fill="#397EA3" fill-opacity="0.5"/>
<path d="M107.884 57.2509C108.305 57.2511 108.646 57.592 108.646 58.0125C108.646 58.433 108.305 58.7739 107.884 58.7741C107.463 58.7741 107.121 58.4331 107.121 58.0125C107.121 57.5919 107.463 57.2509 107.884 57.2509Z" fill="#397EA3" fill-opacity="0.5"/>
<path d="M116.927 57.2509C117.348 57.251 117.689 57.5919 117.689 58.0125C117.689 58.433 117.348 58.774 116.927 58.7741C116.506 58.7739 116.164 58.433 116.164 58.0125C116.164 57.592 116.506 57.2511 116.927 57.2509Z" fill="#397EA3" fill-opacity="0.5"/>
<path d="M125.971 57.2509C126.392 57.251 126.733 57.5919 126.733 58.0125C126.733 58.433 126.392 58.774 125.971 58.7741C125.55 58.7741 125.208 58.4331 125.208 58.0125C125.208 57.5918 125.55 57.2509 125.971 57.2509Z" fill="#397EA3" fill-opacity="0.5"/>
<path d="M135.014 57.2509C135.435 57.2509 135.776 57.5918 135.776 58.0125C135.776 58.4331 135.435 58.7741 135.014 58.7741C134.593 58.774 134.251 58.433 134.251 58.0125C134.251 57.5919 134.592 57.251 135.014 57.2509Z" fill="#397EA3" fill-opacity="0.5"/>
<path d="M144.057 57.2509C144.478 57.251 144.82 57.5919 144.82 58.0125C144.82 58.433 144.478 58.774 144.057 58.7741C143.636 58.7741 143.295 58.4331 143.295 58.0125C143.295 57.5918 143.636 57.2509 144.057 57.2509Z" fill="#397EA3" fill-opacity="0.5"/>
<path d="M153.1 57.2509C153.521 57.2509 153.863 57.5918 153.863 58.0125C153.863 58.4331 153.521 58.7741 153.1 58.7741C152.679 58.774 152.338 58.433 152.338 58.0125C152.338 57.5919 152.679 57.251 153.1 57.2509Z" fill="#397EA3" fill-opacity="0.5"/>
<path d="M162.431 57.2509C162.852 57.2509 163.193 57.5919 163.193 58.0125C163.193 58.4331 162.852 58.7741 162.431 58.7741C162.01 58.7741 161.668 58.4331 161.668 58.0125C161.668 57.5918 162.01 57.2509 162.431 57.2509Z" fill="#397EA3" fill-opacity="0.5"/>
<path d="M171.473 57.2509C171.895 57.2509 172.236 57.5918 172.236 58.0125C172.236 58.4331 171.895 58.7741 171.473 58.7741C171.053 58.7738 170.712 58.4329 170.712 58.0125C170.712 57.592 171.053 57.2512 171.473 57.2509Z" fill="#397EA3" fill-opacity="0.5"/>
<path d="M180.517 57.2509C180.938 57.2509 181.28 57.5919 181.28 58.0125C181.28 58.433 180.938 58.7741 180.517 58.7741C180.096 58.7741 179.755 58.433 179.755 58.0125C179.755 57.5919 180.096 57.2509 180.517 57.2509Z" fill="#397EA3" fill-opacity="0.5"/>
<path d="M8.11997 48.2182C8.54099 48.2182 8.88245 48.5592 8.88252 48.9798C8.88246 49.4004 8.54103 49.7414 8.11997 49.7414C7.69893 49.7414 7.35748 49.4004 7.35742 48.9798C7.35749 48.5592 7.69894 48.2183 8.11997 48.2182Z" fill="#397EA3" fill-opacity="0.5"/>
<path d="M17.2417 48.222C17.626 48.2612 17.9263 48.5856 17.9264 48.9798C17.9263 49.1902 17.8404 49.3808 17.7023 49.5186C17.5644 49.6564 17.3733 49.7414 17.1628 49.7414L17.085 49.7376C16.7007 49.6984 16.4004 49.374 16.4003 48.9798C16.4004 48.5593 16.742 48.2184 17.1628 48.2182L17.2417 48.222Z" fill="#397EA3" fill-opacity="0.5"/>
<path d="M26.2846 48.222C26.3793 48.2316 26.4678 48.2608 26.549 48.3018C26.6217 48.3385 26.6891 48.384 26.7461 48.441C26.8841 48.5788 26.9692 48.7695 26.9692 48.9798C26.9692 49.4004 26.6277 49.7413 26.2067 49.7414L26.1288 49.7376C26.0774 49.7323 26.0276 49.7217 25.9797 49.7068C25.6694 49.6103 25.4442 49.3215 25.4441 48.9798C25.4442 48.5592 25.7856 48.2182 26.2067 48.2182L26.2846 48.222Z" fill="#397EA3" fill-opacity="0.5"/>
<path d="M35.2505 48.2182C35.6713 48.2185 36.012 48.5594 36.0121 48.9798C36.012 49.4002 35.6713 49.7411 35.2505 49.7414C34.8295 49.7414 34.4871 49.4004 34.487 48.9798C34.4871 48.5592 34.8294 48.2182 35.2505 48.2182Z" fill="#397EA3" fill-opacity="0.5"/>
<path d="M44.2934 48.2182C44.7144 48.2183 45.0559 48.5592 45.0559 48.9798C45.0559 49.4004 44.7144 49.7414 44.2934 49.7414C43.8723 49.7414 43.5309 49.4004 43.5308 48.9798C43.5309 48.5592 43.8723 48.2182 44.2934 48.2182Z" fill="#397EA3" fill-opacity="0.5"/>
<path d="M53.3363 48.2182C53.7574 48.2182 54.0988 48.5592 54.0988 48.9798C54.0988 49.4004 53.7574 49.7414 53.3363 49.7414C52.9154 49.7412 52.5747 49.4003 52.5747 48.9798C52.5747 48.5593 52.9154 48.2184 53.3363 48.2182Z" fill="#397EA3" fill-opacity="0.5"/>
<path d="M62.3801 48.2182C62.8012 48.2182 63.1426 48.5592 63.1427 48.9798C63.1426 49.4004 62.8012 49.7414 62.3801 49.7414C61.959 49.7414 61.6176 49.4004 61.6176 48.9798C61.6176 48.5592 61.959 48.2182 62.3801 48.2182Z" fill="#397EA3" fill-opacity="0.5"/>
<path d="M71.423 48.2182C71.8441 48.2182 72.1855 48.5592 72.1855 48.9798C72.1855 49.4004 71.8441 49.7414 71.423 49.7414C71.0021 49.7412 70.6615 49.4003 70.6614 48.9798C70.6615 48.5593 71.0021 48.2184 71.423 48.2182Z" fill="#397EA3" fill-opacity="0.5"/>
<path d="M80.7534 48.2182C81.1744 48.2182 81.5159 48.5592 81.5159 48.9798C81.5159 49.4004 81.1744 49.7414 80.7534 49.7414C80.3324 49.7413 79.9909 49.4004 79.9908 48.9798C79.9909 48.5592 80.3324 48.2183 80.7534 48.2182Z" fill="#397EA3" fill-opacity="0.5"/>
<path d="M89.7972 48.2182C90.2181 48.2184 90.5597 48.5593 90.5598 48.9798C90.5597 49.4003 90.2181 49.7412 89.7972 49.7414C89.3762 49.7413 89.0347 49.4004 89.0347 48.9798C89.0347 48.5592 89.3762 48.2183 89.7972 48.2182Z" fill="#397EA3" fill-opacity="0.5"/>
<path d="M98.8401 48.2182C99.2611 48.2182 99.6026 48.5592 99.6026 48.9798C99.6026 49.4004 99.2611 49.7414 98.8401 49.7414C98.4191 49.7413 98.0776 49.4003 98.0775 48.9798C98.0776 48.5593 98.4191 48.2183 98.8401 48.2182Z" fill="#397EA3" fill-opacity="0.5"/>
<path d="M107.884 48.2182C108.305 48.2184 108.646 48.5593 108.646 48.9798C108.646 49.4003 108.305 49.7412 107.884 49.7414C107.463 49.7414 107.121 49.4004 107.121 48.9798C107.121 48.5592 107.463 48.2182 107.884 48.2182Z" fill="#397EA3" fill-opacity="0.5"/>
<path d="M116.927 48.2182C117.348 48.2183 117.689 48.5592 117.689 48.9798C117.689 49.4004 117.348 49.7413 116.927 49.7414C116.506 49.7412 116.164 49.4003 116.164 48.9798C116.164 48.5593 116.506 48.2184 116.927 48.2182Z" fill="#397EA3" fill-opacity="0.5"/>
<path d="M125.971 48.2182C126.392 48.2183 126.733 48.5593 126.733 48.9798C126.733 49.4003 126.392 49.7413 125.971 49.7414C125.55 49.7414 125.208 49.4004 125.208 48.9798C125.208 48.5592 125.55 48.2182 125.971 48.2182Z" fill="#397EA3" fill-opacity="0.5"/>
<path d="M135.014 48.2182C135.435 48.2182 135.776 48.5592 135.776 48.9798C135.776 49.4004 135.435 49.7414 135.014 49.7414C134.593 49.7413 134.251 49.4004 134.251 48.9798C134.251 48.5593 134.593 48.2183 135.014 48.2182Z" fill="#397EA3" fill-opacity="0.5"/>
<path d="M144.057 48.2182C144.478 48.2183 144.82 48.5593 144.82 48.9798C144.82 49.4003 144.478 49.7413 144.057 49.7414C143.636 49.7414 143.295 49.4004 143.295 48.9798C143.295 48.5592 143.636 48.2182 144.057 48.2182Z" fill="#397EA3" fill-opacity="0.5"/>
<path d="M153.1 48.2182C153.521 48.2182 153.863 48.5592 153.863 48.9798C153.863 49.4004 153.521 49.7414 153.1 49.7414C152.679 49.7413 152.338 49.4003 152.338 48.9798C152.338 48.5593 152.679 48.2183 153.1 48.2182Z" fill="#397EA3" fill-opacity="0.5"/>
<path d="M162.431 48.2182C162.852 48.2182 163.193 48.5592 163.193 48.9798C163.193 49.4004 162.852 49.7414 162.431 49.7414C162.01 49.7414 161.668 49.4004 161.668 48.9798C161.668 48.5592 162.01 48.2182 162.431 48.2182Z" fill="#397EA3" fill-opacity="0.5"/>
<path d="M171.473 48.2182C171.895 48.2182 172.236 48.5592 172.236 48.9798C172.236 49.4004 171.895 49.7414 171.473 49.7414C171.053 49.7411 170.712 49.4003 170.712 48.9798C170.712 48.5594 171.053 48.2185 171.473 48.2182Z" fill="#397EA3" fill-opacity="0.5"/>
<path d="M180.517 48.2182C180.938 48.2182 181.28 48.5592 181.28 48.9798C181.28 49.4004 180.938 49.7414 180.517 49.7414C180.096 49.7414 179.755 49.4004 179.755 48.9798C179.755 48.5592 180.096 48.2183 180.517 48.2182Z" fill="#397EA3" fill-opacity="0.5"/>
<path d="M189.56 48.2182C189.981 48.2182 190.324 48.5592 190.324 48.9798C190.324 49.4004 189.981 49.7414 189.56 49.7414C189.139 49.7411 188.798 49.4002 188.798 48.9798C188.798 48.5594 189.139 48.2185 189.56 48.2182Z" fill="#397EA3" fill-opacity="0.5"/>
<path d="M198.604 48.2182C199.025 48.2183 199.367 48.5592 199.367 48.9798C199.367 49.4004 199.025 49.7413 198.604 49.7414C198.183 49.7413 197.842 49.4004 197.841 48.9798C197.842 48.5593 198.183 48.2183 198.604 48.2182Z" fill="#397EA3" fill-opacity="0.5"/>
<path d="M8.11997 39.1855C8.5409 39.1855 8.88231 39.5267 8.88252 39.9471C8.88243 40.3677 8.541 40.7087 8.11997 40.7087C7.69896 40.7087 7.35751 40.3677 7.35742 39.9471C7.35763 39.5267 7.69903 39.1856 8.11997 39.1855Z" fill="#397EA3" fill-opacity="0.5"/>
<path d="M17.1628 39.1855C17.5838 39.1855 17.9261 39.5266 17.9264 39.9471C17.9263 40.3677 17.5839 40.7087 17.1628 40.7087C16.742 40.7084 16.4004 40.3675 16.4003 39.9471C16.4005 39.5268 16.7421 39.1858 17.1628 39.1855Z" fill="#397EA3" fill-opacity="0.5"/>
<path d="M26.2067 39.1855C26.6276 39.1856 26.969 39.5267 26.9692 39.9471C26.9691 40.3677 26.6277 40.7086 26.2067 40.7087C25.7857 40.7086 25.4442 40.3676 25.4441 39.9471C25.4443 39.5267 25.7858 39.1856 26.2067 39.1855Z" fill="#397EA3" fill-opacity="0.5"/>
<path d="M35.3284 39.1893C35.7126 39.2285 36.0129 39.553 36.0131 39.9471C36.0131 39.9996 36.0069 40.0512 35.9967 40.1008C35.9257 40.4477 35.6187 40.7084 35.2505 40.7087L35.1717 40.7049C34.7874 40.6656 34.4871 40.3412 34.487 39.9471C34.4872 39.5266 34.8295 39.1855 35.2505 39.1855L35.3284 39.1893Z" fill="#397EA3" fill-opacity="0.5"/>
<path d="M44.2934 39.1855C44.7143 39.1856 45.0557 39.5266 45.0559 39.9471C45.0559 40.3677 44.7144 40.7087 44.2934 40.7087C43.8723 40.7087 43.5309 40.3677 43.5308 39.9471C43.531 39.5266 43.8724 39.1855 44.2934 39.1855Z" fill="#397EA3" fill-opacity="0.5"/>
<path d="M53.3363 39.1855C53.7573 39.1855 54.0986 39.5266 54.0988 39.9471C54.0987 40.3677 53.7573 40.7087 53.3363 40.7087C52.9154 40.7085 52.5748 40.3676 52.5747 39.9471C52.5749 39.5267 52.9155 39.1857 53.3363 39.1855Z" fill="#397EA3" fill-opacity="0.5"/>
<path d="M62.3801 39.1855C62.8011 39.1855 63.1424 39.5266 63.1427 39.9471C63.1426 40.3677 62.8011 40.7087 62.3801 40.7087C61.959 40.7087 61.6176 40.3677 61.6176 39.9471C61.6178 39.5266 61.9591 39.1855 62.3801 39.1855Z" fill="#397EA3" fill-opacity="0.5"/>
<path d="M71.423 39.1855C71.844 39.1855 72.1853 39.5266 72.1855 39.9471C72.1854 40.3677 71.844 40.7087 71.423 40.7087C71.0021 40.7085 70.6615 40.3676 70.6614 39.9471C70.6616 39.5268 71.0022 39.1857 71.423 39.1855Z" fill="#397EA3" fill-opacity="0.5"/>
<path d="M80.7534 39.1855C81.1743 39.1855 81.5157 39.5266 81.5159 39.9471C81.5158 40.3677 81.1744 40.7087 80.7534 40.7087C80.3324 40.7086 79.9909 40.3676 79.9908 39.9471C79.991 39.5267 80.3325 39.1856 80.7534 39.1855Z" fill="#397EA3" fill-opacity="0.5"/>
<path d="M89.7972 39.1855C90.218 39.1857 90.5596 39.5268 90.5598 39.9471C90.5597 40.3675 90.2181 40.7085 89.7972 40.7087C89.3762 40.7086 89.0348 40.3677 89.0347 39.9471C89.0349 39.5267 89.3763 39.1856 89.7972 39.1855Z" fill="#397EA3" fill-opacity="0.5"/>
<path d="M98.8401 39.1855C99.261 39.1855 99.6024 39.5266 99.6026 39.9471C99.6025 40.3677 99.2611 40.7087 98.8401 40.7087C98.4191 40.7086 98.0776 40.3676 98.0775 39.9471C98.0777 39.5267 98.4192 39.1856 98.8401 39.1855Z" fill="#397EA3" fill-opacity="0.5"/>
<path d="M107.884 39.1855C108.305 39.1857 108.646 39.5267 108.646 39.9471C108.646 40.3676 108.305 40.7085 107.884 40.7087C107.463 40.7087 107.121 40.3677 107.121 39.9471C107.122 39.5266 107.463 39.1855 107.884 39.1855Z" fill="#397EA3" fill-opacity="0.5"/>
<path d="M116.927 39.1855C117.348 39.1856 117.689 39.5267 117.689 39.9471C117.689 40.3677 117.348 40.7086 116.927 40.7087C116.506 40.7085 116.164 40.3676 116.164 39.9471C116.164 39.5267 116.506 39.1857 116.927 39.1855Z" fill="#397EA3" fill-opacity="0.5"/>
<path d="M125.971 39.1855C126.392 39.1856 126.733 39.5267 126.733 39.9471C126.733 40.3676 126.392 40.7086 125.971 40.7087C125.55 40.7087 125.208 40.3677 125.208 39.9471C125.208 39.5266 125.55 39.1855 125.971 39.1855Z" fill="#397EA3" fill-opacity="0.5"/>
<path d="M135.014 39.1855C135.435 39.1855 135.776 39.5266 135.776 39.9471C135.776 40.3677 135.435 40.7087 135.014 40.7087C134.593 40.7086 134.251 40.3676 134.251 39.9471C134.251 39.5267 134.593 39.1856 135.014 39.1855Z" fill="#397EA3" fill-opacity="0.5"/>
<path d="M144.057 39.1855C144.478 39.1856 144.82 39.5267 144.82 39.9471C144.82 40.3676 144.478 40.7086 144.057 40.7087C143.636 40.7087 143.295 40.3677 143.295 39.9471C143.295 39.5266 143.636 39.1855 144.057 39.1855Z" fill="#397EA3" fill-opacity="0.5"/>
<path d="M153.1 39.1855C153.521 39.1855 153.863 39.5266 153.863 39.9471C153.863 40.3677 153.521 40.7087 153.1 40.7087C152.679 40.7086 152.338 40.3676 152.338 39.9471C152.338 39.5267 152.679 39.1856 153.1 39.1855Z" fill="#397EA3" fill-opacity="0.5"/>
<path d="M162.431 39.1855C162.852 39.1855 163.193 39.5266 163.193 39.9471C163.193 40.3677 162.852 40.7087 162.431 40.7087C162.01 40.7087 161.668 40.3677 161.668 39.9471C161.668 39.5266 162.01 39.1855 162.431 39.1855Z" fill="#397EA3" fill-opacity="0.5"/>
<path d="M171.473 39.1855C171.894 39.1855 172.236 39.5266 172.236 39.9471C172.236 40.3677 171.895 40.7087 171.473 40.7087C171.053 40.7084 170.712 40.3675 170.712 39.9471C170.712 39.5268 171.053 39.1858 171.473 39.1855Z" fill="#397EA3" fill-opacity="0.5"/>
<path d="M180.517 39.1855C180.938 39.1855 181.28 39.5267 181.28 39.9471C181.28 40.3677 180.938 40.7087 180.517 40.7087C180.096 40.7087 179.755 40.3677 179.755 39.9471C179.755 39.5267 180.096 39.1856 180.517 39.1855Z" fill="#397EA3" fill-opacity="0.5"/>
<path d="M189.56 39.1855C189.981 39.1855 190.324 39.5266 190.324 39.9471C190.324 40.3677 189.981 40.7087 189.56 40.7087C189.139 40.7084 188.798 40.3675 188.798 39.9471C188.798 39.5268 189.139 39.1858 189.56 39.1855Z" fill="#397EA3" fill-opacity="0.5"/>
<path d="M198.604 39.1855C199.025 39.1856 199.366 39.5267 199.367 39.9471C199.367 40.3677 199.025 40.7086 198.604 40.7087C198.183 40.7086 197.842 40.3676 197.841 39.9471C197.842 39.5267 198.183 39.1856 198.604 39.1855Z" fill="#397EA3" fill-opacity="0.5"/>
<path d="M207.648 39.1855C208.069 39.1857 208.41 39.5268 208.41 39.9471C208.41 40.3675 208.069 40.7085 207.648 40.7087C207.227 40.7087 206.885 40.3677 206.885 39.9471C206.886 39.5266 207.227 39.1855 207.648 39.1855Z" fill="#397EA3" fill-opacity="0.5"/>
<path d="M8.11997 30.1528C8.54089 30.1528 8.88228 30.494 8.88252 30.9144C8.88252 31.335 8.54103 31.676 8.11997 31.676C7.6989 31.676 7.35742 31.335 7.35742 30.9144C7.35766 30.494 7.69907 30.1529 8.11997 30.1528Z" fill="#397EA3" fill-opacity="0.5"/>
<path d="M17.1628 30.1528C17.5838 30.1528 17.9261 30.494 17.9264 30.9144C17.9264 31.3351 17.584 31.676 17.1628 31.676C16.742 31.6757 16.4003 31.3349 16.4003 30.9144C16.4005 30.4941 16.7421 30.1531 17.1628 30.1528Z" fill="#397EA3" fill-opacity="0.5"/>
<path d="M26.2067 30.1528C26.6276 30.1529 26.969 30.494 26.9692 30.9144C26.9692 31.335 26.6277 31.6759 26.2067 31.676C25.7857 31.6759 25.4441 31.335 25.4441 30.9144C25.4444 30.494 25.7858 30.1529 26.2067 30.1528Z" fill="#397EA3" fill-opacity="0.5"/>
<path d="M35.2505 30.1528C35.6713 30.153 36.0128 30.4941 36.0131 30.9144C36.0131 31.3349 35.6714 31.6758 35.2505 31.676C34.8294 31.676 34.488 31.3351 34.488 30.9144C34.4882 30.494 34.8296 30.1528 35.2505 30.1528Z" fill="#397EA3" fill-opacity="0.5"/>
<path d="M44.2934 30.1528L44.3713 30.1566C44.7556 30.1956 45.0557 30.5202 45.0559 30.9144C45.0559 31.1246 44.9707 31.3154 44.8329 31.4532C44.6948 31.5911 44.504 31.676 44.2934 31.676L44.2155 31.6722C43.8564 31.6358 43.571 31.3509 43.5347 30.9922L43.5308 30.9144C43.5309 30.8769 43.5342 30.84 43.5395 30.804C43.5404 30.7978 43.5413 30.7918 43.5424 30.7857C43.5535 30.7209 43.5737 30.6594 43.6001 30.6013C43.6136 30.5717 43.6292 30.5433 43.6462 30.5158C43.6536 30.5039 43.6604 30.4918 43.6684 30.4803C43.6697 30.4784 43.6709 30.4764 43.6722 30.4745L43.6741 30.4726C43.8124 30.2796 44.0377 30.1528 44.2934 30.1528Z" fill="#397EA3" fill-opacity="0.5"/>
<path d="M53.3372 30.1528C53.758 30.153 54.0995 30.4941 54.0998 30.9144C54.0998 31.3349 53.7582 31.6758 53.3372 31.676L53.3363 31.6751C52.9153 31.6748 52.5747 31.3349 52.5747 30.9144C52.5749 30.5203 52.8742 30.1958 53.2584 30.1566L53.3372 30.1528Z" fill="#397EA3" fill-opacity="0.5"/>
<path d="M62.3801 30.1528C62.8011 30.1528 63.1424 30.494 63.1427 30.9144C63.1427 31.335 62.8012 31.676 62.3801 31.676C61.959 31.676 61.6176 31.3351 61.6176 30.9144C61.6178 30.4939 61.9592 30.1528 62.3801 30.1528Z" fill="#397EA3" fill-opacity="0.5"/>
<path d="M71.423 30.1528C71.8439 30.1528 72.1853 30.4939 72.1855 30.9144C72.1855 31.3351 71.8441 31.676 71.423 31.676C71.0021 31.6758 70.6614 31.3349 70.6614 30.9144C70.6616 30.4941 71.0022 30.153 71.423 30.1528Z" fill="#397EA3" fill-opacity="0.5"/>
<path d="M80.7534 30.1528C81.1743 30.1528 81.5157 30.494 81.5159 30.9144C81.5159 31.3351 81.1745 31.676 80.7534 31.676C80.3323 31.6759 79.9908 31.335 79.9908 30.9144C79.9911 30.494 80.3325 30.1529 80.7534 30.1528Z" fill="#397EA3" fill-opacity="0.5"/>
<path d="M89.7972 30.1528C90.218 30.153 90.5595 30.4941 90.5598 30.9144C90.5598 31.3349 90.2181 31.6758 89.7972 31.676C89.3762 31.6759 89.0347 31.335 89.0347 30.9144C89.0349 30.494 89.3763 30.1529 89.7972 30.1528Z" fill="#397EA3" fill-opacity="0.5"/>
<path d="M98.8401 30.1528C99.261 30.1528 99.6024 30.494 99.6026 30.9144C99.6026 31.335 99.2611 31.676 98.8401 31.676C98.4191 31.6759 98.0775 31.335 98.0775 30.9144C98.0778 30.494 98.4193 30.1529 98.8401 30.1528Z" fill="#397EA3" fill-opacity="0.5"/>
<path d="M107.884 30.1528C108.305 30.153 108.646 30.4941 108.646 30.9144C108.646 31.335 108.305 31.6758 107.884 31.676C107.463 31.676 107.121 31.3351 107.121 30.9144C107.122 30.494 107.463 30.1528 107.884 30.1528Z" fill="#397EA3" fill-opacity="0.5"/>
<path d="M116.927 30.1528C117.348 30.1529 117.689 30.494 117.689 30.9144C117.689 31.335 117.348 31.6759 116.927 31.676C116.506 31.6758 116.164 31.335 116.164 30.9144C116.164 30.4941 116.506 30.153 116.927 30.1528Z" fill="#397EA3" fill-opacity="0.5"/>
<path d="M125.971 30.1528C126.391 30.1529 126.733 30.494 126.733 30.9144C126.733 31.335 126.392 31.6759 125.971 31.676C125.55 31.676 125.208 31.3351 125.208 30.9144C125.208 30.494 125.55 30.1528 125.971 30.1528Z" fill="#397EA3" fill-opacity="0.5"/>
<path d="M135.014 30.1528C135.434 30.1528 135.776 30.494 135.776 30.9144C135.776 31.3351 135.435 31.676 135.014 31.676C134.592 31.6759 134.251 31.335 134.251 30.9144C134.251 30.494 134.593 30.1529 135.014 30.1528Z" fill="#397EA3" fill-opacity="0.5"/>
<path d="M144.057 30.1528C144.478 30.1529 144.82 30.494 144.82 30.9144C144.82 31.335 144.478 31.6759 144.057 31.676C143.636 31.676 143.295 31.3351 143.295 30.9144C143.295 30.494 143.636 30.1528 144.057 30.1528Z" fill="#397EA3" fill-opacity="0.5"/>
<path d="M153.1 30.1528C153.521 30.1528 153.863 30.494 153.863 30.9144C153.863 31.3351 153.521 31.676 153.1 31.676C152.679 31.6759 152.338 31.335 152.338 30.9144C152.338 30.494 152.679 30.1529 153.1 30.1528Z" fill="#397EA3" fill-opacity="0.5"/>
<path d="M162.431 30.1528C162.852 30.1528 163.193 30.494 163.193 30.9144C163.193 31.3351 162.852 31.676 162.431 31.676C162.01 31.676 161.668 31.3351 161.668 30.9144C161.668 30.494 162.01 30.1528 162.431 30.1528Z" fill="#397EA3" fill-opacity="0.5"/>
<path d="M171.473 30.1528C171.894 30.1528 172.236 30.494 172.236 30.9144C172.236 31.3351 171.895 31.676 171.473 31.676C171.053 31.6757 170.712 31.3349 170.712 30.9144C170.712 30.4941 171.053 30.1531 171.473 30.1528Z" fill="#397EA3" fill-opacity="0.5"/>
<path d="M180.517 30.1528C180.938 30.1528 181.28 30.494 181.28 30.9144C181.28 31.335 180.938 31.676 180.517 31.676C180.096 31.676 179.755 31.335 179.755 30.9144C179.755 30.494 180.096 30.1529 180.517 30.1528Z" fill="#397EA3" fill-opacity="0.5"/>
<path d="M189.56 30.1528C189.981 30.1528 190.323 30.494 190.324 30.9144C190.324 31.3351 189.981 31.676 189.56 31.676C189.139 31.6757 188.798 31.3349 188.798 30.9144C188.798 30.4941 189.139 30.1531 189.56 30.1528Z" fill="#397EA3" fill-opacity="0.5"/>
<path d="M198.604 30.1528C199.025 30.1529 199.366 30.494 199.367 30.9144C199.367 31.335 199.025 31.6759 198.604 31.676C198.183 31.6759 197.841 31.335 197.841 30.9144C197.842 30.494 198.183 30.1529 198.604 30.1528Z" fill="#397EA3" fill-opacity="0.5"/>
<path d="M207.648 30.1528C208.069 30.153 208.41 30.4941 208.41 30.9144C208.41 31.3349 208.069 31.6758 207.648 31.676C207.227 31.676 206.885 31.3351 206.885 30.9144C206.886 30.494 207.227 30.1528 207.648 30.1528Z" fill="#397EA3" fill-opacity="0.5"/>
<path d="M216.691 30.1528C217.112 30.1528 217.453 30.494 217.453 30.9144C217.453 31.335 217.112 31.676 216.691 31.676C216.27 31.6759 215.928 31.335 215.928 30.9144C215.928 30.494 216.27 30.1529 216.691 30.1528Z" fill="#397EA3" fill-opacity="0.5"/>
<path d="M225.735 30.1528C226.155 30.153 226.497 30.4941 226.497 30.9144C226.497 31.3349 226.156 31.6758 225.735 31.676C225.313 31.676 224.972 31.3351 224.972 30.9144C224.972 30.494 225.314 30.1528 225.735 30.1528Z" fill="#397EA3" fill-opacity="0.5"/>
<path d="M8.11997 21.1211C8.54103 21.1211 8.88246 21.4621 8.88252 21.8827C8.88232 22.3031 8.54091 22.6442 8.11997 22.6443C7.69902 22.6442 7.35762 22.3031 7.35742 21.8827C7.35748 21.4621 7.69893 21.1211 8.11997 21.1211Z" fill="#397EA3" fill-opacity="0.5"/>
<path d="M17.1628 21.1211C17.5839 21.1211 17.9263 21.4621 17.9264 21.8827C17.9262 22.3032 17.5838 22.6443 17.1628 22.6443C16.7421 22.644 16.4005 22.303 16.4003 21.8827C16.4003 21.4622 16.742 21.1213 17.1628 21.1211Z" fill="#397EA3" fill-opacity="0.5"/>
<path d="M26.2067 21.1211C26.6277 21.1211 26.9692 21.4621 26.9692 21.8827C26.969 22.3031 26.6276 22.6442 26.2067 22.6443C25.7858 22.6442 25.4443 22.3031 25.4441 21.8827C25.4442 21.4621 25.7857 21.1212 26.2067 21.1211Z" fill="#397EA3" fill-opacity="0.5"/>
<path d="M35.2505 21.1211C35.6714 21.1213 36.013 21.4622 36.0131 21.8827C36.0129 22.303 35.6713 22.644 35.2505 22.6443C34.8295 22.6443 34.4882 22.3032 34.488 21.8827C34.488 21.4621 34.8294 21.1211 35.2505 21.1211Z" fill="#397EA3" fill-opacity="0.5"/>
<path d="M44.2934 21.1211C44.7145 21.1211 45.0559 21.4621 45.0559 21.8827C45.0557 22.3031 44.7144 22.6442 44.2934 22.6443C43.8725 22.6442 43.531 22.3031 43.5308 21.8827C43.5309 21.4621 43.8724 21.1211 44.2934 21.1211Z" fill="#397EA3" fill-opacity="0.5"/>
<path d="M53.3372 21.1211C53.7581 21.1213 54.0997 21.4622 54.0998 21.8827C54.0996 22.303 53.758 22.6441 53.3372 22.6443C52.9162 22.6443 52.5749 22.3032 52.5747 21.8827C52.5747 21.4621 52.9161 21.1211 53.3372 21.1211Z" fill="#397EA3" fill-opacity="0.5"/>
<path d="M62.458 21.1249C62.8425 21.1639 63.1426 21.4883 63.1427 21.8827C63.1425 22.3032 62.8011 22.6443 62.3801 22.6443L62.3022 22.6404C62.1226 22.6222 61.9614 22.5413 61.8406 22.4205C61.7029 22.2828 61.6177 22.0927 61.6176 21.8827C61.6176 21.4621 61.959 21.1211 62.3801 21.1211L62.458 21.1249Z" fill="#397EA3" fill-opacity="0.5"/>
<path d="M71.7105 21.1211C72.1315 21.1212 72.473 21.4621 72.473 21.8827C72.4729 22.3031 72.1314 22.6442 71.7105 22.6443C71.6612 22.6443 71.613 22.6388 71.5663 22.6299C71.5199 22.6387 71.4719 22.6443 71.423 22.6443C71.0022 22.644 70.6616 22.303 70.6614 21.8827C70.6615 21.4622 71.0021 21.1213 71.423 21.1211C71.4719 21.1211 71.5199 21.1257 71.5663 21.1345C71.6129 21.1256 71.6612 21.1211 71.7105 21.1211Z" fill="#397EA3" fill-opacity="0.5"/>
<path d="M80.7534 21.1211C81.1744 21.1211 81.5159 21.4621 81.5159 21.8827C81.5157 22.3031 81.1743 22.6442 80.7534 22.6443C80.3325 22.6442 79.991 22.3031 79.9908 21.8827C79.9909 21.4621 80.3324 21.1212 80.7534 21.1211Z" fill="#397EA3" fill-opacity="0.5"/>
<path d="M89.7972 21.1211C90.2181 21.1213 90.5597 21.4622 90.5598 21.8827C90.5596 22.303 90.218 22.644 89.7972 22.6443C89.3763 22.6442 89.0349 22.3031 89.0347 21.8827C89.0347 21.4621 89.3762 21.1211 89.7972 21.1211Z" fill="#397EA3" fill-opacity="0.5"/>
<path d="M98.8401 21.1211C99.2611 21.1211 99.6026 21.4621 99.6026 21.8827C99.6024 22.3031 99.261 22.6442 98.8401 22.6443C98.4192 22.6441 98.0777 22.3031 98.0775 21.8827C98.0776 21.4621 98.4191 21.1212 98.8401 21.1211Z" fill="#397EA3" fill-opacity="0.5"/>
<path d="M107.884 21.1211C108.305 21.1212 108.646 21.4622 108.646 21.8827C108.646 22.303 108.305 22.6441 107.884 22.6443C107.463 22.6442 107.122 22.3031 107.121 21.8827C107.121 21.4621 107.463 21.1211 107.884 21.1211Z" fill="#397EA3" fill-opacity="0.5"/>
<path d="M116.927 21.1211C117.348 21.1211 117.689 21.4621 117.689 21.8827C117.689 22.3031 117.348 22.6442 116.927 22.6443C116.506 22.6441 116.164 22.303 116.164 21.8827C116.164 21.4622 116.506 21.1212 116.927 21.1211Z" fill="#397EA3" fill-opacity="0.5"/>
<path d="M125.971 21.1211C126.392 21.1212 126.733 21.4621 126.733 21.8827C126.733 22.3031 126.392 22.6441 125.971 22.6443C125.55 22.6443 125.208 22.3032 125.208 21.8827C125.208 21.4621 125.55 21.1211 125.971 21.1211Z" fill="#397EA3" fill-opacity="0.5"/>
<path d="M135.014 21.1211C135.435 21.1211 135.776 21.4621 135.776 21.8827C135.776 22.3032 135.435 22.6443 135.014 22.6443C134.593 22.6442 134.251 22.3031 134.251 21.8827C134.251 21.4621 134.593 21.1212 135.014 21.1211Z" fill="#397EA3" fill-opacity="0.5"/>
<path d="M144.057 21.1211C144.478 21.1212 144.82 21.4621 144.82 21.8827C144.82 22.3031 144.478 22.6441 144.057 22.6443C143.636 22.6443 143.295 22.3032 143.295 21.8827C143.295 21.4621 143.636 21.1211 144.057 21.1211Z" fill="#397EA3" fill-opacity="0.5"/>
<path d="M153.1 21.1211C153.521 21.1211 153.863 21.4621 153.863 21.8827C153.863 22.3032 153.521 22.6443 153.1 22.6443C152.679 22.6441 152.338 22.3031 152.338 21.8827C152.338 21.4621 152.679 21.1212 153.1 21.1211Z" fill="#397EA3" fill-opacity="0.5"/>
<path d="M162.431 21.1211C162.852 21.1211 163.193 21.4621 163.193 21.8827C163.193 22.3031 162.852 22.6442 162.431 22.6443C162.01 22.6443 161.668 22.3032 161.668 21.8827C161.668 21.4621 162.01 21.1211 162.431 21.1211Z" fill="#397EA3" fill-opacity="0.5"/>
<path d="M171.473 21.1211C171.895 21.1211 172.236 21.4621 172.236 21.8827C172.236 22.3032 171.895 22.6443 171.473 22.6443C171.053 22.644 170.712 22.303 170.712 21.8827C170.712 21.4622 171.053 21.1213 171.473 21.1211Z" fill="#397EA3" fill-opacity="0.5"/>
<path d="M180.517 21.1211C180.938 21.1211 181.28 21.4621 181.28 21.8827C181.28 22.3031 180.938 22.6442 180.517 22.6443C180.096 22.6442 179.755 22.3031 179.755 21.8827C179.755 21.4621 180.096 21.1211 180.517 21.1211Z" fill="#397EA3" fill-opacity="0.5"/>
<path d="M189.56 21.1211C189.981 21.1211 190.324 21.4621 190.324 21.8827C190.324 22.3032 189.981 22.6443 189.56 22.6443C189.139 22.644 188.798 22.303 188.798 21.8827C188.798 21.4622 189.139 21.1213 189.56 21.1211Z" fill="#397EA3" fill-opacity="0.5"/>
<path d="M198.604 21.1211C199.025 21.1211 199.367 21.4621 199.367 21.8827C199.366 22.3031 199.025 22.6442 198.604 22.6443C198.183 22.6442 197.842 22.3031 197.841 21.8827C197.842 21.4621 198.183 21.1212 198.604 21.1211Z" fill="#397EA3" fill-opacity="0.5"/>
<path d="M207.648 21.1211C208.069 21.1213 208.41 21.4622 208.41 21.8827C208.41 22.303 208.069 22.644 207.648 22.6443C207.227 22.6443 206.886 22.3032 206.885 21.8827C206.885 21.4621 207.227 21.1211 207.648 21.1211Z" fill="#397EA3" fill-opacity="0.5"/>
<path d="M216.691 21.1211C217.112 21.1211 217.453 21.4621 217.453 21.8827C217.453 22.3031 217.112 22.6442 216.691 22.6443C216.27 22.6442 215.928 22.3031 215.928 21.8827C215.928 21.4621 216.27 21.1211 216.691 21.1211Z" fill="#397EA3" fill-opacity="0.5"/>
<path d="M225.735 21.1211C226.155 21.1213 226.497 21.4622 226.497 21.8827C226.497 22.303 226.155 22.6441 225.735 22.6443C225.314 22.6443 224.972 22.3032 224.972 21.8827C224.972 21.4621 225.313 21.1211 225.735 21.1211Z" fill="#397EA3" fill-opacity="0.5"/>
<path d="M234.777 21.1211C235.199 21.1211 235.54 21.4621 235.54 21.8827C235.54 22.3032 235.198 22.6443 234.777 22.6443C234.357 22.6442 234.015 22.3031 234.015 21.8827C234.015 21.4621 234.356 21.1211 234.777 21.1211Z" fill="#397EA3" fill-opacity="0.5"/>
<path d="M244.108 21.1211C244.529 21.1212 244.87 21.4621 244.87 21.8827C244.87 22.3031 244.529 22.6442 244.108 22.6443C243.687 22.6443 243.346 22.3032 243.345 21.8827C243.345 21.4621 243.687 21.1211 244.108 21.1211Z" fill="#397EA3" fill-opacity="0.5"/>
<path d="M8.11997 12.0884C8.54103 12.0884 8.88252 12.4294 8.88252 12.85C8.88247 13.2706 8.541 13.6115 8.11997 13.6116C7.69893 13.6115 7.35747 13.2706 7.35742 12.85C7.35742 12.4294 7.69893 12.0884 8.11997 12.0884Z" fill="#397EA3" fill-opacity="0.5"/>
<path d="M17.1628 12.0884C17.5839 12.0884 17.9264 12.4293 17.9264 12.85C17.9263 13.2706 17.5839 13.6116 17.1628 13.6116C16.742 13.6113 16.4003 13.2704 16.4003 12.85C16.4003 12.4295 16.742 12.0886 17.1628 12.0884Z" fill="#397EA3" fill-opacity="0.5"/>
<path d="M26.2067 12.0884C26.6277 12.0884 26.9692 12.4294 26.9692 12.85C26.9692 13.2705 26.6277 13.6115 26.2067 13.6116C25.7857 13.6115 25.4442 13.2705 25.4441 12.85C25.4441 12.4294 25.7857 12.0885 26.2067 12.0884Z" fill="#397EA3" fill-opacity="0.5"/>
<path d="M35.2505 12.0884C35.6714 12.0886 36.0131 12.4295 36.0131 12.85C36.013 13.2704 35.6714 13.6113 35.2505 13.6116C34.8294 13.6116 34.488 13.2706 34.488 12.85C34.488 12.4293 34.8294 12.0884 35.2505 12.0884Z" fill="#397EA3" fill-opacity="0.5"/>
<path d="M44.2934 12.0884C44.7145 12.0884 45.0559 12.4293 45.0559 12.85C45.0559 13.2706 44.7145 13.6115 44.2934 13.6116C43.8724 13.6115 43.5309 13.2705 43.5308 12.85C43.5308 12.4294 43.8724 12.0884 44.2934 12.0884Z" fill="#397EA3" fill-opacity="0.5"/>
<path d="M53.3372 12.0884C53.7582 12.0886 54.0998 12.4295 54.0998 12.85C54.0997 13.2705 53.7581 13.6114 53.3372 13.6116C52.9161 13.6116 52.5747 13.2706 52.5747 12.85C52.5747 12.4293 52.9161 12.0884 53.3372 12.0884Z" fill="#397EA3" fill-opacity="0.5"/>
<path d="M62.3801 12.0884C62.8012 12.0884 63.1427 12.4293 63.1427 12.85C63.1426 13.2706 62.8012 13.6116 62.3801 13.6116C61.9591 13.6115 61.6176 13.2706 61.6176 12.85C61.6176 12.4294 61.9591 12.0884 62.3801 12.0884Z" fill="#397EA3" fill-opacity="0.5"/>
<path d="M71.7105 12.0884C72.1315 12.0885 72.473 12.4294 72.473 12.85C72.473 13.2705 72.1315 13.6115 71.7105 13.6116C71.2894 13.6116 70.948 13.2706 70.948 12.85C70.948 12.4293 71.2894 12.0884 71.7105 12.0884Z" fill="#397EA3" fill-opacity="0.5"/>
<path d="M80.8313 12.0922C81.2159 12.1311 81.5159 12.4555 81.5159 12.85C81.5159 13.2706 81.1745 13.6116 80.7534 13.6116L80.6755 13.6077C80.5988 13.5999 80.5254 13.5808 80.4572 13.552C80.1833 13.4365 79.9909 13.1656 79.9908 12.85C79.9908 12.4294 80.3324 12.0885 80.7534 12.0884L80.8313 12.0922Z" fill="#397EA3" fill-opacity="0.5"/>
<path d="M89.8751 12.0922C90.2595 12.1312 90.5598 12.4556 90.5598 12.85C90.5597 13.0841 90.4511 13.2904 90.2847 13.4301C90.24 13.4676 90.1921 13.5005 90.1395 13.5271C90.0582 13.5682 89.9699 13.5981 89.8751 13.6077L89.7972 13.6116L89.7184 13.6077C89.6417 13.5999 89.5683 13.5808 89.5001 13.552C89.3177 13.475 89.1715 13.3288 89.0943 13.1467C89.0556 13.0556 89.0347 12.9552 89.0347 12.85C89.0347 12.4294 89.3762 12.0884 89.7972 12.0884L89.8751 12.0922Z" fill="#397EA3" fill-opacity="0.5"/>
<path d="M98.8401 12.0884C99.2611 12.0884 99.6026 12.4294 99.6026 12.85C99.6026 13.2706 99.2611 13.6115 98.8401 13.6116C98.4191 13.6114 98.0776 13.2705 98.0775 12.85C98.0775 12.4294 98.4191 12.0885 98.8401 12.0884Z" fill="#397EA3" fill-opacity="0.5"/>
<path d="M107.884 12.0884C108.305 12.0885 108.646 12.4294 108.646 12.85C108.646 13.2705 108.305 13.6114 107.884 13.6116C107.463 13.6115 107.121 13.2706 107.121 12.85C107.121 12.4293 107.463 12.0884 107.884 12.0884Z" fill="#397EA3" fill-opacity="0.5"/>
<path d="M116.927 12.0884C117.348 12.0884 117.689 12.4294 117.689 12.85C117.689 13.2705 117.348 13.6115 116.927 13.6116C116.506 13.6114 116.164 13.2705 116.164 12.85C116.164 12.4294 116.506 12.0886 116.927 12.0884Z" fill="#397EA3" fill-opacity="0.5"/>
<path d="M125.971 12.0884C126.392 12.0885 126.733 12.4294 126.733 12.85C126.733 13.2705 126.392 13.6114 125.971 13.6116C125.55 13.6116 125.208 13.2706 125.208 12.85C125.208 12.4293 125.55 12.0884 125.971 12.0884Z" fill="#397EA3" fill-opacity="0.5"/>
<path d="M135.014 12.0884C135.435 12.0884 135.776 12.4293 135.776 12.85C135.776 13.2706 135.435 13.6116 135.014 13.6116C134.593 13.6115 134.251 13.2705 134.251 12.85C134.251 12.4294 134.592 12.0885 135.014 12.0884Z" fill="#397EA3" fill-opacity="0.5"/>
<path d="M144.057 12.0884C144.478 12.0885 144.82 12.4294 144.82 12.85C144.82 13.2705 144.478 13.6114 144.057 13.6116C143.636 13.6116 143.295 13.2706 143.295 12.85C143.295 12.4293 143.636 12.0884 144.057 12.0884Z" fill="#397EA3" fill-opacity="0.5"/>
<path d="M153.1 12.0884C153.521 12.0884 153.863 12.4293 153.863 12.85C153.863 13.2706 153.521 13.6116 153.1 13.6116C152.679 13.6114 152.338 13.2705 152.338 12.85C152.338 12.4294 152.679 12.0885 153.1 12.0884Z" fill="#397EA3" fill-opacity="0.5"/>
<path d="M162.431 12.0884C162.852 12.0884 163.193 12.4293 163.193 12.85C163.193 13.2706 162.852 13.6116 162.431 13.6116C162.01 13.6116 161.668 13.2706 161.668 12.85C161.668 12.4293 162.01 12.0884 162.431 12.0884Z" fill="#397EA3" fill-opacity="0.5"/>
<path d="M171.473 12.0884C171.895 12.0884 172.236 12.4293 172.236 12.85C172.236 13.2706 171.895 13.6116 171.473 13.6116C171.053 13.6113 170.712 13.2704 170.712 12.85C170.712 12.4295 171.053 12.0886 171.473 12.0884Z" fill="#397EA3" fill-opacity="0.5"/>
<path d="M180.517 12.0884C180.938 12.0884 181.28 12.4294 181.28 12.85C181.28 13.2706 180.938 13.6115 180.517 13.6116C180.096 13.6115 179.755 13.2706 179.755 12.85C179.755 12.4294 180.096 12.0884 180.517 12.0884Z" fill="#397EA3" fill-opacity="0.5"/>
<path d="M189.56 12.0884C189.981 12.0884 190.324 12.4293 190.324 12.85C190.324 13.2706 189.981 13.6116 189.56 13.6116C189.139 13.6113 188.798 13.2704 188.798 12.85C188.798 12.4295 189.139 12.0886 189.56 12.0884Z" fill="#397EA3" fill-opacity="0.5"/>
<path d="M198.604 12.0884C199.025 12.0884 199.367 12.4294 199.367 12.85C199.367 13.2705 199.025 13.6115 198.604 13.6116C198.183 13.6115 197.842 13.2705 197.841 12.85C197.841 12.4294 198.183 12.0885 198.604 12.0884Z" fill="#397EA3" fill-opacity="0.5"/>
<path d="M207.648 12.0884C208.069 12.0886 208.41 12.4295 208.41 12.85C208.41 13.2704 208.069 13.6113 207.648 13.6116C207.227 13.6116 206.885 13.2706 206.885 12.85C206.885 12.4293 207.227 12.0884 207.648 12.0884Z" fill="#397EA3" fill-opacity="0.5"/>
<path d="M216.691 12.0884C217.112 12.0884 217.453 12.4293 217.453 12.85C217.453 13.2706 217.112 13.6115 216.691 13.6116C216.27 13.6115 215.928 13.2705 215.928 12.85C215.928 12.4294 216.27 12.0884 216.691 12.0884Z" fill="#397EA3" fill-opacity="0.5"/>
<path d="M225.735 12.0884C226.156 12.0886 226.497 12.4295 226.497 12.85C226.497 13.2705 226.155 13.6114 225.735 13.6116C225.313 13.6116 224.972 13.2706 224.972 12.85C224.972 12.4293 225.313 12.0884 225.735 12.0884Z" fill="#397EA3" fill-opacity="0.5"/>
<path d="M234.777 12.0884C235.199 12.0884 235.54 12.4293 235.54 12.85C235.54 13.2706 235.199 13.6116 234.777 13.6116C234.356 13.6115 234.015 13.2706 234.015 12.85C234.015 12.4294 234.356 12.0884 234.777 12.0884Z" fill="#397EA3" fill-opacity="0.5"/>
<path d="M244.108 12.0884C244.529 12.0885 244.87 12.4294 244.87 12.85C244.87 13.2705 244.529 13.6115 244.108 13.6116C243.687 13.6116 243.345 13.2706 243.345 12.85C243.345 12.4293 243.687 12.0884 244.108 12.0884Z" fill="#397EA3" fill-opacity="0.5"/>
<path d="M253.151 12.0884C253.572 12.0884 253.913 12.4293 253.913 12.85C253.913 13.2706 253.572 13.6116 253.151 13.6116C252.73 13.6114 252.389 13.2705 252.389 12.85C252.389 12.4294 252.73 12.0885 253.151 12.0884Z" fill="#397EA3" fill-opacity="0.5"/>
<path d="M262.195 12.0884C262.616 12.0884 262.957 12.4294 262.957 12.85C262.957 13.2705 262.616 13.6115 262.195 13.6116C261.773 13.6116 261.432 13.2706 261.432 12.85C261.432 12.4293 261.773 12.0884 262.195 12.0884Z" fill="#397EA3" fill-opacity="0.5"/>
<path d="M8.11997 3.05566C8.54097 3.05571 8.88242 3.39672 8.88252 3.81727C8.88252 4.23789 8.54103 4.57884 8.11997 4.57888C7.69893 4.57882 7.35742 4.23788 7.35742 3.81727C7.35752 3.39673 7.69896 3.05572 8.11997 3.05566Z" fill="#397EA3" fill-opacity="0.5"/>
<path d="M17.1628 3.05566C17.5839 3.05566 17.9263 3.39669 17.9264 3.81727C17.9264 4.23792 17.5839 4.57888 17.1628 4.57888C16.742 4.5786 16.4003 4.23775 16.4003 3.81727C16.4004 3.39687 16.742 3.05595 17.1628 3.05566Z" fill="#397EA3" fill-opacity="0.5"/>
<path d="M26.2067 3.05566C26.6277 3.05574 26.9691 3.39674 26.9692 3.81727C26.9692 4.23789 26.6277 4.57881 26.2067 4.57888C25.7857 4.57877 25.4441 4.23785 25.4441 3.81727C25.4442 3.39676 25.7857 3.05577 26.2067 3.05566Z" fill="#397EA3" fill-opacity="0.5"/>
<path d="M35.2505 3.05566C35.6714 3.0559 36.013 3.39684 36.0131 3.81727C36.0131 4.23778 35.6714 4.57865 35.2505 4.57888C34.8294 4.57888 34.488 4.23792 34.488 3.81727C34.4881 3.39669 34.8295 3.05566 35.2505 3.05566Z" fill="#397EA3" fill-opacity="0.5"/>
<path d="M44.2934 3.05566C44.7144 3.0557 45.0558 3.39672 45.0559 3.81727C45.0559 4.2379 44.7145 4.57884 44.2934 4.57888C43.8724 4.57881 43.5308 4.23787 43.5308 3.81727C43.5309 3.39674 43.8724 3.05574 44.2934 3.05566Z" fill="#397EA3" fill-opacity="0.5"/>
<path d="M53.3372 3.05566C53.7581 3.05588 54.0997 3.39682 54.0998 3.81727C54.0998 4.23779 53.7582 4.57867 53.3372 4.57888C52.9161 4.57888 52.5747 4.23792 52.5747 3.81727C52.5748 3.39669 52.9162 3.05566 53.3372 3.05566Z" fill="#397EA3" fill-opacity="0.5"/>
<path d="M62.3801 3.05566C62.8012 3.05566 63.1426 3.3967 63.1427 3.81727C63.1427 4.23792 62.8012 4.57888 62.3801 4.57888C61.9591 4.57881 61.6176 4.23788 61.6176 3.81727C61.6177 3.39673 61.9591 3.05574 62.3801 3.05566Z" fill="#397EA3" fill-opacity="0.5"/>
<path d="M71.7105 3.05566C72.1315 3.05576 72.4729 3.39675 72.473 3.81727C72.473 4.23786 72.1315 4.57878 71.7105 4.57888C71.2894 4.57888 70.948 4.23792 70.948 3.81727C70.9481 3.3967 71.2894 3.05566 71.7105 3.05566Z" fill="#397EA3" fill-opacity="0.5"/>
<path d="M80.7534 3.05566C81.1744 3.05566 81.5158 3.3967 81.5159 3.81727C81.5159 4.23792 81.1745 4.57888 80.7534 4.57888C80.3324 4.5787 79.9918 4.23781 79.9918 3.81727C79.9919 3.3968 80.3325 3.05585 80.7534 3.05566Z" fill="#397EA3" fill-opacity="0.5"/>
<path d="M89.7972 3.05566C90.2182 3.05573 90.5597 3.39674 90.5598 3.81727C90.5598 4.23788 90.2183 4.57882 89.7972 4.57888C89.3761 4.57888 89.0347 4.23792 89.0347 3.81727C89.0348 3.3967 89.3762 3.05566 89.7972 3.05566Z" fill="#397EA3" fill-opacity="0.5"/>
<path d="M98.918 3.05951C99.3026 3.09832 99.6025 3.42285 99.6026 3.81727C99.6026 3.92248 99.5816 4.02289 99.543 4.11404C99.4273 4.38739 99.1559 4.57885 98.8401 4.57888L98.7622 4.57504C98.3778 4.53594 98.0775 4.21156 98.0775 3.81727C98.0776 3.39678 98.4191 3.05581 98.8401 3.05566L98.918 3.05951Z" fill="#397EA3" fill-opacity="0.5"/>
<path d="M107.884 3.05566C108.305 3.05585 108.646 3.3968 108.646 3.81727C108.646 4.23781 108.305 4.5787 107.884 4.57888C107.463 4.57885 107.121 4.2379 107.121 3.81727C107.121 3.3967 107.463 3.05569 107.884 3.05566Z" fill="#397EA3" fill-opacity="0.5"/>
<path d="M116.927 3.05566C117.348 3.05574 117.689 3.39674 117.689 3.81727C117.689 4.23789 117.348 4.57881 116.927 4.57888C116.506 4.57869 116.164 4.2378 116.164 3.81727C116.164 3.39681 116.506 3.05585 116.927 3.05566Z" fill="#397EA3" fill-opacity="0.5"/>
<path d="M125.971 3.05566C126.392 3.0558 126.733 3.39677 126.733 3.81727C126.733 4.23784 126.392 4.57875 125.971 4.57888C125.55 4.57888 125.208 4.23792 125.208 3.81727C125.208 3.39669 125.55 3.05566 125.971 3.05566Z" fill="#397EA3" fill-opacity="0.5"/>
<path d="M135.014 3.05566C135.435 3.05566 135.776 3.39669 135.776 3.81727C135.776 4.23792 135.435 4.57888 135.014 4.57888C134.592 4.57876 134.251 4.23786 134.251 3.81727C134.251 3.39676 134.593 3.05578 135.014 3.05566Z" fill="#397EA3" fill-opacity="0.5"/>
<path d="M144.057 3.05566C144.478 3.0558 144.82 3.39677 144.82 3.81727C144.82 4.23784 144.478 4.57875 144.057 4.57888C143.636 4.57888 143.295 4.23792 143.295 3.81727C143.295 3.39669 143.636 3.05566 144.057 3.05566Z" fill="#397EA3" fill-opacity="0.5"/>
<path d="M153.1 3.05566C153.521 3.05566 153.863 3.39669 153.863 3.81727C153.863 4.23792 153.521 4.57888 153.1 4.57888C152.679 4.57874 152.338 4.23783 152.338 3.81727C152.338 3.39678 152.679 3.0558 153.1 3.05566Z" fill="#397EA3" fill-opacity="0.5"/>
<path d="M162.431 3.05566C162.852 3.05569 163.193 3.39671 163.193 3.81727C163.193 4.2379 162.852 4.57885 162.431 4.57888C162.01 4.57887 161.668 4.23791 161.668 3.81727C161.668 3.3967 162.01 3.05568 162.431 3.05566Z" fill="#397EA3" fill-opacity="0.5"/>
<path d="M171.473 3.05566C171.895 3.05566 172.236 3.39669 172.236 3.81727C172.236 4.23792 171.895 4.57888 171.473 4.57888C171.053 4.5786 170.712 4.23776 170.712 3.81727C170.712 3.39686 171.053 3.05595 171.473 3.05566Z" fill="#397EA3" fill-opacity="0.5"/>
<path d="M180.517 3.05566C180.938 3.05571 181.28 3.39672 181.28 3.81727C181.28 4.23789 180.938 4.57884 180.517 4.57888C180.096 4.57882 179.755 4.23788 179.755 3.81727C179.755 3.39673 180.096 3.05572 180.517 3.05566Z" fill="#397EA3" fill-opacity="0.5"/>
<path d="M189.56 3.05566C189.981 3.05566 190.324 3.39669 190.324 3.81727C190.324 4.23792 189.981 4.57888 189.56 4.57888C189.139 4.5786 188.798 4.23775 188.798 3.81727C188.798 3.39687 189.139 3.05595 189.56 3.05566Z" fill="#397EA3" fill-opacity="0.5"/>
<path d="M198.604 3.05566C199.025 3.05574 199.367 3.39674 199.367 3.81727C199.367 4.23789 199.025 4.57881 198.604 4.57888C198.183 4.57877 197.841 4.23785 197.841 3.81727C197.842 3.39676 198.183 3.05577 198.604 3.05566Z" fill="#397EA3" fill-opacity="0.5"/>
<path d="M207.648 3.05566C208.069 3.0559 208.41 3.39684 208.41 3.81727C208.41 4.23778 208.069 4.57865 207.648 4.57888C207.227 4.57888 206.885 4.23792 206.885 3.81727C206.885 3.39669 207.227 3.05566 207.648 3.05566Z" fill="#397EA3" fill-opacity="0.5"/>
<path d="M216.691 3.05566C217.112 3.0557 217.453 3.39672 217.453 3.81727C217.453 4.2379 217.112 4.57884 216.691 4.57888C216.27 4.57881 215.928 4.23787 215.928 3.81727C215.928 3.39674 216.27 3.05574 216.691 3.05566Z" fill="#397EA3" fill-opacity="0.5"/>
<path d="M225.735 3.05566C226.155 3.05588 226.497 3.39682 226.497 3.81727C226.497 4.23779 226.156 4.57867 225.735 4.57888C225.313 4.57888 224.972 4.23792 224.972 3.81727C224.972 3.39669 225.314 3.05566 225.735 3.05566Z" fill="#397EA3" fill-opacity="0.5"/>
<path d="M234.777 3.05566C235.199 3.05566 235.54 3.3967 235.54 3.81727C235.54 4.23792 235.199 4.57888 234.777 4.57888C234.356 4.57881 234.015 4.23788 234.015 3.81727C234.015 3.39673 234.356 3.05574 234.777 3.05566Z" fill="#397EA3" fill-opacity="0.5"/>
<path d="M244.108 3.05566C244.529 3.05576 244.87 3.39675 244.87 3.81727C244.87 4.23786 244.529 4.57878 244.108 4.57888C243.687 4.57888 243.345 4.23792 243.345 3.81727C243.345 3.3967 243.687 3.05566 244.108 3.05566Z" fill="#397EA3" fill-opacity="0.5"/>
<path d="M253.151 3.05566C253.572 3.05566 253.913 3.3967 253.913 3.81727C253.913 4.23792 253.572 4.57888 253.151 4.57888C252.73 4.5787 252.389 4.23781 252.389 3.81727C252.389 3.3968 252.73 3.05585 253.151 3.05566Z" fill="#397EA3" fill-opacity="0.5"/>
<path d="M262.195 3.05566C262.616 3.05573 262.957 3.39674 262.957 3.81727C262.957 4.23788 262.616 4.57882 262.195 4.57888C261.773 4.57888 261.432 4.23792 261.432 3.81727C261.432 3.3967 261.774 3.05566 262.195 3.05566Z" fill="#397EA3" fill-opacity="0.5"/>
<path d="M271.237 3.05566C271.659 3.05566 272 3.3967 272 3.81727C272 4.23792 271.659 4.57888 271.237 4.57888C270.816 4.57869 270.475 4.23781 270.475 3.81727C270.475 3.39681 270.817 3.05585 271.237 3.05566Z" fill="#397EA3" fill-opacity="0.5"/>
<g clip-path="url(#clip1_10101_12872)">
<mask id="mask0_10101_12872" style="mask-type:luminance" maskUnits="userSpaceOnUse" x="223" y="22" width="133" height="111">
<path d="M355.25 22.5H223.25V132.5H355.25V22.5Z" fill="white"/>
</mask>
<g mask="url(#mask0_10101_12872)">
<path d="M264.896 71.6938C260.25 74.4315 256.873 78.8935 255.5 84.1087C254.127 89.3238 254.87 94.8701 257.566 99.5404C260.263 104.211 264.695 107.627 269.897 109.046C275.1 110.465 280.653 109.771 285.347 107.116" stroke="white" stroke-width="1.012" stroke-miterlimit="10"/>
<path d="M261.447 65.7134C258.341 67.5197 255.622 69.9201 253.444 72.7774C251.266 75.6348 249.672 78.8931 248.753 82.3664C247.835 85.8397 247.609 89.46 248.089 93.0205C248.57 96.581 249.747 100.012 251.553 103.118C253.359 106.223 255.76 108.943 258.617 111.121C261.475 113.299 264.733 114.892 268.206 115.811C271.679 116.73 275.3 116.956 278.86 116.475C282.421 115.995 285.852 114.818 288.957 113.011" stroke="white" stroke-width="1.012" stroke-miterlimit="10"/>
<path d="M257.534 59.166C249.513 63.8308 243.675 71.4905 241.302 80.4601C238.929 89.4297 240.217 98.9745 244.882 106.995C249.546 115.015 257.206 120.854 266.176 123.226C275.145 125.599 284.69 124.311 292.71 119.647" stroke="white" stroke-width="1.012" stroke-miterlimit="10"/>
<path d="M253.801 52.4746C244.006 58.1295 236.859 67.4437 233.932 78.3682C231.004 89.2927 232.537 100.933 238.192 110.727C243.847 120.522 253.161 127.669 264.085 130.596C275.01 133.523 286.65 131.991 296.444 126.336" stroke="white" stroke-width="1.012" stroke-miterlimit="10"/>
<path d="M285.348 107.117C290.045 104.405 293.473 99.9383 294.877 94.6992C296.282 89.4601 295.547 83.8778 292.836 79.1802C290.124 74.4827 285.657 71.0547 280.418 69.6505C275.179 68.2462 269.597 68.9807 264.899 71.6923H264.896" stroke="white" stroke-width="1.012" stroke-miterlimit="10"/>
<path d="M288.797 113.102C294.994 109.416 299.485 103.433 301.294 96.4541C303.103 89.4749 302.085 82.0636 298.46 75.8312C294.835 69.5989 288.896 65.0494 281.935 63.1717C274.974 61.294 267.553 62.2399 261.285 65.8038" stroke="white" stroke-width="1.012" stroke-miterlimit="10"/>
<path d="M257.535 59.1631C265.553 54.5493 275.071 53.2988 284.008 55.6852C292.946 58.0715 300.574 63.9004 305.224 71.8967C309.875 79.893 311.169 89.4057 308.824 98.3537C306.478 107.302 300.685 114.957 292.71 119.644" stroke="white" stroke-width="1.012" stroke-miterlimit="10"/>
<path d="M253.803 52.4718C258.944 49.4954 264.652 47.6289 270.558 46.9927C276.464 46.3565 282.439 46.9645 288.096 48.7778" stroke="white" stroke-width="1.012" stroke-miterlimit="10"/>
<path d="M295.305 51.8384C297.907 53.2277 300.356 54.8877 302.611 56.7907C310.22 63.2218 315.349 72.1052 317.114 81.9108C317.635 84.8148 317.848 87.7656 317.75 90.7143C317.524 97.9742 315.449 105.056 311.72 111.29C307.992 117.523 302.734 122.702 296.445 126.335" stroke="white" stroke-width="1.012" stroke-miterlimit="10"/>
<path d="M253.807 54.9465L255.669 51.4292L251.693 51.5759L253.807 54.9465Z" fill="#204C62"/>
<path d="M262.029 66.8044C262.05 66.4436 261.963 66.0846 261.78 65.7729C261.597 65.4613 261.326 65.2109 261 65.0535C260.675 64.8961 260.31 64.8387 259.952 64.8886C259.594 64.9385 259.259 65.0935 258.989 65.3339C258.719 65.5743 258.527 65.8893 258.436 66.2392C258.345 66.5891 258.36 66.958 258.479 67.2994C258.597 67.6408 258.815 67.9393 259.103 68.1571C259.392 68.3749 259.738 68.5023 260.099 68.5231C260.339 68.537 260.579 68.5036 260.805 68.4247C261.032 68.3459 261.241 68.2231 261.42 68.0635C261.599 67.9039 261.745 67.7106 261.85 67.4945C261.954 67.2785 262.015 67.044 262.029 66.8044Z" fill="#62DE7F"/>
<path d="M278.483 123.956C278.51 123.495 278.399 123.037 278.166 122.638C277.932 122.24 277.585 121.92 277.17 121.718C276.754 121.517 276.288 121.444 275.83 121.507C275.373 121.571 274.945 121.768 274.6 122.075C274.254 122.382 274.008 122.785 273.892 123.232C273.775 123.679 273.794 124.15 273.946 124.586C274.097 125.023 274.375 125.404 274.743 125.683C275.112 125.961 275.554 126.124 276.015 126.151C276.322 126.169 276.628 126.126 276.918 126.026C277.208 125.925 277.474 125.769 277.704 125.565C277.933 125.361 278.119 125.114 278.253 124.838C278.387 124.562 278.465 124.263 278.483 123.956Z" fill="#34D5FF"/>
<path d="M261.258 129.194C261.665 129.194 262.055 129.356 262.343 129.644C262.63 129.932 262.792 130.322 262.792 130.729C262.792 131.136 262.63 131.526 262.342 131.814C262.054 132.101 261.664 132.263 261.257 132.263C260.85 132.263 260.46 132.101 260.172 131.814C259.885 131.526 259.723 131.136 259.723 130.729C259.723 130.322 259.884 129.932 260.172 129.644C260.459 129.356 260.849 129.194 261.256 129.194" fill="#FFAC1A"/>
<path d="M274.52 59.7733C274.56 59.5651 274.672 59.3774 274.835 59.242C274.999 59.1067 275.204 59.032 275.416 59.0307H278.581C278.779 59.0313 278.973 58.9671 279.132 58.848C279.291 58.7288 279.406 58.5611 279.462 58.3703C280.253 55.4793 281.406 52.6997 282.894 50.0971C282.991 49.9232 283.03 49.7223 283.004 49.5246C282.978 49.3268 282.889 49.1426 282.75 48.9995L280.51 46.7562C280.36 46.6075 280.266 46.4116 280.244 46.2016C280.222 45.9917 280.273 45.7805 280.388 45.6037C283.402 41.0407 287.305 37.1319 291.863 34.1109C292.04 33.9975 292.25 33.9479 292.459 33.9703C292.668 33.9928 292.864 34.086 293.012 34.2344L295.255 36.473C295.397 36.613 295.582 36.7027 295.78 36.7286C295.978 36.7544 296.179 36.715 296.353 36.6162C298.95 35.1309 301.724 33.9785 304.61 33.1861C304.802 33.1317 304.971 33.016 305.091 32.8566C305.211 32.6972 305.275 32.5029 305.274 32.3034V29.12C305.277 28.9048 305.355 28.6975 305.495 28.5338C305.634 28.3702 305.827 28.2605 306.039 28.2237C311.385 27.137 316.895 27.137 322.241 28.2237C322.449 28.2647 322.636 28.3763 322.771 28.5396C322.906 28.703 322.981 28.908 322.982 29.12V32.2995C322.982 32.498 323.046 32.6912 323.165 32.8499C323.284 33.0086 323.452 33.1242 323.643 33.1792C326.528 33.9711 329.302 35.1209 331.902 36.6015C332.076 36.7002 332.277 36.7395 332.475 36.7136C332.673 36.6876 332.858 36.5977 333 36.4575L335.255 34.217C335.403 34.0678 335.598 33.9741 335.807 33.9516C336.015 33.9291 336.226 33.9792 336.402 34.0935C340.968 37.1109 344.877 41.019 347.895 45.5837C348.011 45.7603 348.062 45.9715 348.04 46.1814C348.018 46.3914 347.924 46.5873 347.775 46.7362L345.545 48.9775C345.406 49.1203 345.316 49.3045 345.29 49.5025C345.265 49.7004 345.304 49.9013 345.402 50.0751C346.883 52.6784 348.034 55.4563 348.828 58.3444C348.882 58.5357 348.997 58.704 349.156 58.8233C349.315 58.9426 349.509 59.0064 349.708 59.0048H352.869C353.081 59.0062 353.285 59.0807 353.449 59.2156C353.612 59.3505 353.724 59.5377 353.766 59.7455C354.852 65.0955 354.852 70.6091 353.766 75.9591C353.725 76.1674 353.613 76.3552 353.45 76.4907C353.286 76.6261 353.081 76.7009 352.869 76.7025H349.698C349.499 76.7017 349.305 76.7657 349.146 76.8849C348.987 77.0041 348.871 77.1719 348.816 77.3629C348.028 80.2615 346.878 83.0495 345.394 85.6611C345.296 85.8352 345.258 86.0361 345.284 86.2338C345.31 86.4316 345.399 86.6157 345.538 86.7588L347.776 89.0109C347.924 89.1595 348.017 89.3542 348.04 89.5629C348.062 89.7715 348.013 89.9816 347.9 90.1584C344.885 94.7217 340.98 98.6298 336.42 101.649C336.244 101.765 336.034 101.816 335.825 101.794C335.617 101.772 335.422 101.678 335.275 101.528L333.032 99.2861C332.89 99.1453 332.705 99.055 332.507 99.0287C332.309 99.0025 332.108 99.042 331.934 99.1409C329.335 100.625 326.56 101.777 323.674 102.57C323.481 102.625 323.312 102.741 323.192 102.902C323.071 103.062 323.007 103.258 323.008 103.458V106.63C323.007 106.842 322.932 107.047 322.797 107.21C322.662 107.374 322.475 107.486 322.267 107.527C316.921 108.615 311.41 108.615 306.065 107.527C305.856 107.486 305.669 107.374 305.534 107.211C305.398 107.047 305.323 106.842 305.322 106.63V103.459C305.322 103.26 305.257 103.067 305.138 102.909C305.019 102.75 304.852 102.634 304.662 102.578C301.776 101.789 299.001 100.639 296.402 99.1556C296.227 99.0548 296.023 99.0142 295.822 99.0402C295.621 99.0662 295.435 99.1573 295.29 99.2996L293.052 101.545C292.904 101.695 292.708 101.789 292.498 101.811C292.288 101.833 292.077 101.781 291.901 101.665C287.33 98.654 283.414 94.7506 280.388 90.1889C280.271 90.013 280.22 89.802 280.242 89.592C280.263 89.3821 280.358 89.1863 280.508 89.0383L282.754 86.7932C282.896 86.6484 282.986 86.4616 283.011 86.261C283.037 86.0603 282.997 85.8568 282.896 85.6812C281.41 83.0789 280.257 80.3 279.465 77.41C279.409 77.2195 279.293 77.0523 279.134 76.9333C278.975 76.8143 278.782 76.7498 278.583 76.7496H275.406C275.193 76.7493 274.988 76.675 274.824 76.5395C274.66 76.404 274.549 76.2157 274.509 76.007C273.422 70.657 273.422 65.1429 274.509 59.793" fill="#204C62"/>
</g>
<mask id="mask1_10101_12872" style="mask-type:luminance" maskUnits="userSpaceOnUse" x="273" y="27" width="82" height="82">
<path d="M306.039 28.2231H306.036C305.824 28.2602 305.632 28.3701 305.492 28.5338C305.353 28.6976 305.275 28.9049 305.272 29.1201V32.3027C305.273 32.5015 305.209 32.6952 305.089 32.8543C304.97 33.0134 304.802 33.1292 304.611 33.1843C301.725 33.9758 298.95 35.1283 296.352 36.6143C296.178 36.7134 295.977 36.7529 295.779 36.7269C295.581 36.7009 295.396 36.6108 295.254 36.4704L293.006 34.2349C292.857 34.0863 292.662 33.993 292.453 33.9705C292.244 33.948 292.034 33.9975 291.857 34.111C287.299 37.1322 283.396 41.0411 280.382 45.6042C280.267 45.781 280.216 45.9922 280.238 46.2021C280.261 46.412 280.354 46.6079 280.504 46.7567L282.745 48.9992C282.883 49.1424 282.972 49.3265 282.998 49.5243C283.024 49.7221 282.985 49.9229 282.888 50.0969C281.4 52.6992 280.247 55.4789 279.456 58.37C279.4 58.5608 279.285 58.7283 279.126 58.8475C278.967 58.9666 278.774 59.0308 278.575 59.0304H275.41C275.198 59.0315 274.993 59.1062 274.83 59.2416C274.666 59.377 274.555 59.5648 274.515 59.773L274.503 59.7989C273.416 65.1487 273.416 70.6626 274.503 76.0125C274.543 76.2212 274.654 76.4095 274.818 76.545C274.982 76.6806 275.188 76.7548 275.4 76.7551H278.574C278.773 76.7554 278.966 76.8198 279.124 76.9389C279.283 77.0579 279.399 77.2251 279.455 77.4155C280.247 80.3049 281.399 83.0832 282.885 85.6848C282.986 85.8605 283.026 86.064 283 86.2647C282.975 86.4653 282.884 86.6522 282.743 86.7971L280.506 89.0427C280.355 89.1905 280.261 89.3862 280.239 89.596C280.216 89.8059 280.268 90.0169 280.385 90.1928C283.41 94.7546 287.326 98.6582 291.897 101.669C292.073 101.785 292.284 101.837 292.494 101.815C292.703 101.793 292.899 101.699 293.047 101.549L295.286 99.3039C295.43 99.1616 295.617 99.0706 295.818 99.0447C296.019 99.0188 296.223 99.0596 296.399 99.1607C298.997 100.644 301.772 101.794 304.658 102.583C304.849 102.639 305.016 102.755 305.135 102.914C305.253 103.073 305.318 103.266 305.318 103.464V106.636C305.32 106.848 305.395 107.053 305.53 107.217C305.665 107.38 305.853 107.492 306.061 107.533C311.407 108.62 316.917 108.62 322.262 107.533C322.471 107.492 322.658 107.38 322.794 107.217C322.929 107.053 323.004 106.848 323.006 106.636V103.462C323.004 103.262 323.068 103.067 323.188 102.906C323.308 102.746 323.477 102.63 323.67 102.575C326.556 101.782 329.331 100.63 331.93 99.1453C332.103 99.0464 332.305 99.0071 332.503 99.0335C332.701 99.0598 332.885 99.1503 333.027 99.2912L335.271 101.532C335.417 101.683 335.612 101.777 335.821 101.799C336.03 101.821 336.24 101.769 336.415 101.653C340.976 98.6361 344.881 94.7293 347.897 90.167C348.01 89.9903 348.059 89.7801 348.037 89.5714C348.014 89.3627 347.921 89.1679 347.773 89.0195L345.534 86.7666C345.395 86.6234 345.306 86.4394 345.28 86.2417C345.254 86.044 345.292 85.8432 345.389 85.6689C346.874 83.0575 348.024 80.2695 348.812 77.3707C348.867 77.1797 348.983 77.012 349.142 76.8928C349.301 76.7737 349.495 76.7096 349.694 76.7103H352.87C353.082 76.7089 353.287 76.6341 353.451 76.4987C353.614 76.3632 353.726 76.1753 353.767 75.9669C354.853 70.617 354.853 65.1033 353.767 59.7533C353.725 59.5454 353.614 59.3582 353.45 59.2233C353.287 59.0883 353.082 59.0139 352.87 59.0127H349.712C349.513 59.0143 349.319 58.9505 349.16 58.8312C349.001 58.7119 348.886 58.5436 348.831 58.3523C348.038 55.4639 346.887 52.686 345.405 50.083C345.307 49.9092 345.268 49.7081 345.294 49.5101C345.32 49.312 345.409 49.1278 345.549 48.9853L347.779 46.7436C347.928 46.5946 348.022 46.3986 348.044 46.1887C348.066 45.9788 348.014 45.7677 347.899 45.5911C344.88 41.0253 340.969 37.1168 336.401 34.1002C336.225 33.9858 336.015 33.9356 335.806 33.9581C335.597 33.9806 335.402 34.0744 335.254 34.2237L332.999 36.465C332.856 36.6048 332.672 36.6945 332.474 36.7203C332.276 36.7461 332.075 36.7068 331.901 36.6082C329.301 35.1273 326.527 33.9775 323.641 33.1858C323.451 33.1307 323.283 33.0151 323.164 32.8564C323.045 32.6978 322.98 32.5047 322.98 32.3062V29.1193C322.979 28.9074 322.905 28.7023 322.77 28.5389C322.635 28.3756 322.448 28.264 322.24 28.2231C316.894 27.1366 311.384 27.1366 306.038 28.2231" fill="white"/>
</mask>
<g mask="url(#mask1_10101_12872)">
<mask id="mask2_10101_12872" style="mask-type:luminance" maskUnits="userSpaceOnUse" x="272" y="78" width="3" height="4">
<path d="M274.661 78.8662H272.164V81.363H274.661V78.8662Z" fill="white"/>
</mask>
<g mask="url(#mask2_10101_12872)">
<path d="M275.137 81.9023H272.264V79.0308H275.137V81.9023ZM272.443 81.7236H274.96V79.2056H272.441L272.443 81.7236Z" fill="#0357FF"/>
<path d="M275.137 79.4045H272.264V76.5317H275.137V79.4045ZM272.443 79.2258H274.96V76.7077H272.441L272.443 79.2258Z" fill="#0357FF"/>
</g>
<mask id="mask3_10101_12872" style="mask-type:luminance" maskUnits="userSpaceOnUse" x="272" y="81" width="3" height="3">
<path d="M274.661 81.3633H272.164V83.8601H274.661V81.3633Z" fill="white"/>
</mask>
<g mask="url(#mask3_10101_12872)">
<path d="M275.137 84.3991H272.264V81.5264H275.137V84.3991ZM272.443 84.2204H274.96V81.7024H272.441L272.443 84.2204Z" fill="#0357FF"/>
<path d="M275.137 81.9023H272.264V79.0308H275.137V81.9023ZM272.443 81.7236H274.96V79.2056H272.441L272.443 81.7236Z" fill="#0357FF"/>
</g>
<mask id="mask4_10101_12872" style="mask-type:luminance" maskUnits="userSpaceOnUse" x="272" y="83" width="3" height="4">
<path d="M274.661 83.8604H272.164V86.3572H274.661V83.8604Z" fill="white"/>
</mask>
<g mask="url(#mask4_10101_12872)">
<path d="M275.137 86.8957H272.264V84.0229H275.137V86.8957ZM272.443 86.717H274.96V84.199H272.441L272.443 86.717Z" fill="#0357FF"/>
<path d="M275.137 84.3986H272.264V81.5259H275.137V84.3986ZM272.443 84.2199H274.96V81.7019H272.441L272.443 84.2199Z" fill="#0357FF"/>
</g>
<mask id="mask5_10101_12872" style="mask-type:luminance" maskUnits="userSpaceOnUse" x="272" y="86" width="3" height="3">
<path d="M274.661 86.3579H272.164V88.8547H274.661V86.3579Z" fill="white"/>
</mask>
<g mask="url(#mask5_10101_12872)">
<path d="M275.137 89.3938H272.264V86.5215H275.137V89.3938ZM272.443 89.2151H274.96V86.6971H272.441L272.443 89.2151Z" fill="#0357FF"/>
<path d="M275.137 86.8967H272.264V84.0239H275.137V86.8967ZM272.443 86.718H274.96V84.1999H272.441L272.443 86.718Z" fill="#0357FF"/>
</g>
<mask id="mask6_10101_12872" style="mask-type:luminance" maskUnits="userSpaceOnUse" x="272" y="88" width="3" height="4">
<path d="M274.661 88.8555H272.164V91.3523H274.661V88.8555Z" fill="white"/>
</mask>
<g mask="url(#mask6_10101_12872)">
<path d="M275.137 91.8903H272.264V89.0176H275.137V91.8903ZM272.443 91.7116H274.96V89.1932H272.441L272.443 91.7116Z" fill="#0357FF"/>
<path d="M275.137 89.3938H272.264V86.5215H275.137V89.3938ZM272.443 89.2151H274.96V86.6971H272.441L272.443 89.2151Z" fill="#0357FF"/>
</g>
<mask id="mask7_10101_12872" style="mask-type:luminance" maskUnits="userSpaceOnUse" x="272" y="91" width="3" height="3">
<path d="M274.661 91.3525H272.164V93.8493H274.661V91.3525Z" fill="white"/>
</mask>
<g mask="url(#mask7_10101_12872)">
<path d="M275.137 94.3884H272.264V91.5156H275.137V94.3884ZM272.443 94.2097H274.96V91.6916H272.441L272.443 94.2097Z" fill="#0357FF"/>
<path d="M275.137 91.8908H272.264V89.0181H275.137V91.8908ZM272.443 91.7121H274.96V89.1937H272.441L272.443 91.7121Z" fill="#0357FF"/>
</g>
<mask id="mask8_10101_12872" style="mask-type:luminance" maskUnits="userSpaceOnUse" x="272" y="93" width="3" height="4">
<path d="M274.661 93.8486H272.164V96.3454H274.661V93.8486Z" fill="white"/>
</mask>
<g mask="url(#mask8_10101_12872)">
<path d="M275.137 96.8849H272.264V94.0122H275.137V96.8849ZM272.443 96.7062H274.96V94.1882H272.441L272.443 96.7062Z" fill="#0357FF"/>
<path d="M275.137 94.3874H272.264V91.5146H275.137V94.3874ZM272.443 94.2087H274.96V91.6907H272.441L272.443 94.2087Z" fill="#0357FF"/>
</g>
<mask id="mask9_10101_12872" style="mask-type:luminance" maskUnits="userSpaceOnUse" x="272" y="96" width="3" height="3">
<path d="M274.661 96.3457H272.164V98.8425H274.661V96.3457Z" fill="white"/>
</mask>
<g mask="url(#mask9_10101_12872)">
<path d="M275.137 99.3815H272.264V96.5088H275.137V99.3815ZM272.443 99.2028H274.96V96.6844H272.441L272.443 99.2028Z" fill="#0357FF"/>
<path d="M275.137 96.8845H272.264V94.0117H275.137V96.8845ZM272.443 96.7058H274.96V94.1877H272.441L272.443 96.7058Z" fill="#0357FF"/>
</g>
<mask id="mask10_10101_12872" style="mask-type:luminance" maskUnits="userSpaceOnUse" x="272" y="98" width="3" height="4">
<path d="M274.661 98.8428H272.164V101.34H274.661V98.8428Z" fill="white"/>
</mask>
<g mask="url(#mask10_10101_12872)">
<path d="M275.137 101.879H272.264V99.0059H275.137V101.879ZM272.443 101.7H274.96V99.1819H272.441L272.443 101.7Z" fill="#0357FF"/>
<path d="M275.137 99.381H272.264V96.5083H275.137V99.381ZM272.443 99.2023H274.96V96.6839H272.441L272.443 99.2023Z" fill="#0357FF"/>
</g>
<mask id="mask11_10101_12872" style="mask-type:luminance" maskUnits="userSpaceOnUse" x="272" y="101" width="3" height="3">
<path d="M274.661 101.339H272.164V103.836H274.661V101.339Z" fill="white"/>
</mask>
<g mask="url(#mask11_10101_12872)">
<path d="M275.137 104.375H272.264V101.502H275.137V104.375ZM272.443 104.196H274.96V101.678H272.441L272.443 104.196Z" fill="#0357FF"/>
<path d="M275.137 101.878H272.264V99.0049H275.137V101.878ZM272.443 101.699H274.96V99.1809H272.441L272.443 101.699Z" fill="#0357FF"/>
</g>
<mask id="mask12_10101_12872" style="mask-type:luminance" maskUnits="userSpaceOnUse" x="272" y="103" width="3" height="4">
<path d="M274.661 103.835H272.164V106.332H274.661V103.835Z" fill="white"/>
</mask>
<g mask="url(#mask12_10101_12872)">
<path d="M275.137 106.872H272.264V103.999H275.137V106.872ZM272.443 106.693H274.96V104.175H272.441L272.443 106.693Z" fill="#0357FF"/>
<path d="M275.137 104.375H272.264V101.501H275.137V104.375ZM272.443 104.196H274.96V101.678H272.441L272.443 104.196Z" fill="#0357FF"/>
</g>
<mask id="mask13_10101_12872" style="mask-type:luminance" maskUnits="userSpaceOnUse" x="272" y="106" width="3" height="3">
<path d="M274.661 106.333H272.164V108.829H274.661V106.333Z" fill="white"/>
</mask>
<g mask="url(#mask13_10101_12872)">
<path d="M275.137 109.368H272.264V106.496H275.137V109.368ZM272.443 109.19H274.96V106.671H272.441L272.443 109.19Z" fill="#0357FF"/>
<path d="M275.137 106.871H272.264V103.999H275.137V106.871ZM272.443 106.693H274.96V104.174H272.441L272.443 106.693Z" fill="#0357FF"/>
</g>
</g>
<path d="M314.35 48.355C318.272 48.355 322.106 49.518 325.367 51.697C328.628 53.876 331.17 56.9731 332.671 60.5967C334.172 64.2202 334.565 68.2075 333.799 72.0542C333.034 75.9009 331.146 79.4344 328.372 82.2077C325.599 84.9811 322.065 86.8698 318.219 87.6349C314.372 88.4001 310.385 88.0074 306.761 86.5065C303.138 85.0055 300.041 82.4638 297.862 79.2027C295.683 75.9416 294.52 72.1076 294.52 68.1855C294.52 62.9261 296.609 57.8821 300.328 54.1632C304.047 50.4443 309.091 48.355 314.35 48.355Z" fill="#204C62"/>
<path d="M314.136 38.6182C319.941 38.6176 325.615 40.3384 330.442 43.563C335.269 46.7875 339.031 51.3709 341.253 56.7336C343.475 62.0964 344.057 67.9975 342.925 73.6909C341.793 79.3842 338.998 84.6141 334.894 88.7191C330.79 92.824 325.56 95.6198 319.867 96.7528C314.174 97.8858 308.273 97.3051 302.91 95.0842C297.546 92.8633 292.962 89.1019 289.737 84.2757C286.511 79.4495 284.79 73.7752 284.789 67.9704V67.9677C284.789 60.1842 287.881 52.7194 293.384 47.2154C298.888 41.7114 306.352 38.6189 314.136 38.6182Z" fill="#5598B5"/>
<path d="M337.871 67.0681L321.588 57.6583C321.515 57.6154 321.431 57.5928 321.345 57.5928C321.26 57.5927 321.176 57.6152 321.102 57.6579C321.028 57.7006 320.967 57.762 320.924 57.836C320.882 57.91 320.859 57.994 320.859 58.0794V62.4334C320.859 62.5935 320.901 62.7508 320.981 62.8894C321.061 63.028 321.177 63.1431 321.315 63.2231L328.253 67.2263L321.315 71.2296C321.177 71.3096 321.061 71.4247 320.981 71.5633C320.901 71.7019 320.859 71.8592 320.859 72.0193V76.3726C320.859 76.4363 320.872 76.4994 320.896 76.5584C320.92 76.6173 320.956 76.6709 321.001 76.7161C321.046 76.7612 321.099 76.7971 321.158 76.8216C321.217 76.8461 321.28 76.8588 321.344 76.8589C321.43 76.8597 321.514 76.8375 321.588 76.7944L333.238 70.0748L337.874 67.3977C337.917 67.3724 337.949 67.3311 337.962 67.2828C337.975 67.2345 337.968 67.183 337.943 67.1395C337.927 67.1104 337.903 67.0862 337.874 67.0696" fill="#34D5FF"/>
<path d="M290.4 67.3882L306.683 76.7945C306.756 76.8374 306.84 76.86 306.926 76.8601C307.011 76.8601 307.095 76.8377 307.169 76.795C307.243 76.7523 307.304 76.6908 307.347 76.6168C307.39 76.5428 307.412 76.4589 307.412 76.3735V72.0198C307.412 71.8597 307.37 71.7025 307.29 71.5638C307.21 71.4252 307.095 71.3101 306.956 71.2301L300.019 67.2269L306.956 63.2236C307.095 63.1436 307.21 63.0285 307.29 62.8899C307.37 62.7513 307.412 62.594 307.412 62.434V58.0791C307.412 58.0154 307.399 57.9522 307.375 57.8933C307.351 57.8343 307.315 57.7807 307.27 57.7356C307.225 57.6904 307.172 57.6546 307.113 57.6301C307.054 57.6056 306.991 57.5929 306.927 57.5928C306.841 57.5919 306.757 57.6142 306.683 57.6573L295.036 64.3808L290.4 67.0582C290.371 67.0748 290.347 67.0988 290.33 67.1277C290.313 67.1566 290.305 67.1894 290.305 67.2228C290.305 67.2562 290.313 67.289 290.33 67.3179C290.347 67.3468 290.371 67.3708 290.4 67.3874" fill="#62DE7E"/>
<path d="M308.75 81.284L318.572 54.6528" stroke="white" stroke-width="1.012" stroke-miterlimit="10"/>
<path d="M349.944 39.5883C350.908 37.5913 351.258 35.3533 350.95 33.1572C350.642 30.9612 349.69 28.9058 348.214 27.2509C346.738 25.596 344.804 24.416 342.658 23.86C340.511 23.3041 338.248 23.3972 336.154 24.1276C334.06 24.858 332.23 26.1928 330.895 27.9633C329.56 29.7339 328.779 31.8606 328.653 34.0745C328.527 36.2884 329.059 38.49 330.184 40.4011C331.309 42.3121 332.975 43.8467 334.972 44.8108H334.975C337.653 46.1028 340.734 46.2783 343.541 45.2987C346.348 44.3191 348.651 42.2646 349.944 39.5871" fill="#A6CBDB"/>
<path d="M331.115 31.8657L339.194 39.0103L352.043 23.3081" stroke="#204C62" stroke-width="0.606351" stroke-miterlimit="10"/>
<path d="M223.637 105.503V114.2C223.637 117.136 232.885 119.515 244.294 119.515C255.703 119.515 264.952 117.136 264.952 114.2V105.503" fill="#7CB2C7"/>
<path d="M244.294 100.186C255.703 100.186 264.951 102.565 264.951 105.5C264.951 108.435 255.703 110.814 244.294 110.814C232.885 110.814 223.637 108.436 223.637 105.502C223.637 102.568 232.885 100.187 244.294 100.187" fill="#204C62"/>
<path d="M223.637 93.6621V102.359C223.637 105.294 232.885 107.674 244.294 107.674C255.703 107.674 264.952 105.295 264.952 102.359V93.6621" fill="#7CB2C7"/>
<path d="M244.294 88.3477C255.703 88.3477 264.951 90.7275 264.951 93.6624C264.951 96.5973 255.703 98.9779 244.294 98.9779C232.885 98.9779 223.637 96.5965 223.637 93.6632C223.637 90.7298 232.882 88.3484 244.294 88.3484" fill="#204C62"/>
<path d="M223.637 81.8232V90.5202C223.637 93.4555 232.885 95.8349 244.294 95.8349C255.703 95.8349 264.952 93.4562 264.952 90.5202V81.8232" fill="#7CB2C7"/>
<path d="M244.294 76.5088C255.703 76.5088 264.951 78.8886 264.951 81.8235C264.951 84.7584 255.703 87.1402 244.294 87.1402C232.885 87.1402 223.637 84.7596 223.637 81.8235C223.637 78.8875 232.882 76.5088 244.294 76.5088Z" fill="#204C62"/>
<path d="M261.875 89.3291C262.071 89.3291 262.263 89.3872 262.425 89.496C262.588 89.6049 262.715 89.7596 262.79 89.9406C262.865 90.1216 262.885 90.3207 262.846 90.5128C262.808 90.705 262.714 90.8814 262.575 91.0199C262.437 91.1584 262.26 91.2527 262.068 91.2909C261.876 91.3291 261.677 91.3094 261.496 91.2344C261.315 91.1594 261.16 91.0324 261.051 90.8694C260.943 90.7065 260.885 90.515 260.885 90.3191C260.885 90.1891 260.91 90.0603 260.96 89.9402C261.01 89.82 261.083 89.7109 261.175 89.6189C261.267 89.527 261.376 89.4541 261.496 89.4043C261.616 89.3546 261.745 89.3291 261.875 89.3291Z" fill="#34D5FF"/>
<path d="M261.875 101.225C262.071 101.225 262.263 101.283 262.425 101.392C262.588 101.5 262.715 101.655 262.79 101.836C262.865 102.017 262.885 102.216 262.847 102.408C262.808 102.6 262.714 102.777 262.575 102.915C262.437 103.054 262.26 103.148 262.068 103.186C261.876 103.225 261.677 103.205 261.496 103.13C261.315 103.055 261.161 102.928 261.052 102.765C260.943 102.602 260.885 102.411 260.885 102.215C260.885 101.952 260.989 101.701 261.175 101.515C261.361 101.329 261.613 101.225 261.875 101.225Z" fill="#FFAC1A"/>
<path d="M261.875 112.961C262.071 112.961 262.263 113.019 262.425 113.128C262.588 113.237 262.715 113.391 262.79 113.572C262.865 113.753 262.885 113.952 262.847 114.145C262.808 114.337 262.714 114.513 262.575 114.652C262.437 114.79 262.26 114.884 262.068 114.923C261.876 114.961 261.677 114.941 261.496 114.866C261.315 114.791 261.161 114.664 261.052 114.502C260.943 114.339 260.885 114.147 260.885 113.951C260.885 113.689 260.989 113.437 261.175 113.251C261.361 113.065 261.613 112.961 261.875 112.961Z" fill="#62DE7F"/>
</g>
</g>
<defs>
<clipPath id="clip0_10101_12872">
<rect width="580" height="153" fill="white"/>
</clipPath>
<clipPath id="clip1_10101_12872">
<rect width="132" height="110" fill="white" transform="translate(223.25 22.5)"/>
</clipPath>
</defs>
</svg>
