<svg width="20" height="21" viewBox="0 0 20 21" fill="none" xmlns="http://www.w3.org/2000/svg">
<path fill-rule="evenodd" clip-rule="evenodd" d="M10 0.400391C4.47514 0.400391 0 4.98811 0 10.652C0 15.183 2.86679 19.0219 6.83855 20.3812C7.33579 20.4756 7.51995 20.1609 7.51995 19.884C7.51995 19.6386 7.51381 18.9967 7.50767 18.1408C4.72683 18.7575 4.13751 16.7689 4.13751 16.7689C3.68324 15.5858 3.0264 15.2711 3.0264 15.2711C2.11786 14.6355 3.09392 14.6481 3.09392 14.6481C4.09454 14.7236 4.62861 15.7054 4.62861 15.7054C5.51872 17.2724 6.96746 16.8193 7.53837 16.5549C7.63045 15.8942 7.88827 15.4411 8.17066 15.183C5.94843 14.925 3.61571 14.044 3.61571 10.117C3.61571 8.99685 4.00246 8.08434 4.64702 7.36692C4.54266 7.1089 4.19889 6.06424 4.74524 4.65457C4.74524 4.65457 5.58625 4.37767 7.4954 5.70553C8.29343 5.47897 9.14672 5.3657 10 5.3594C10.8471 5.3594 11.7066 5.47897 12.5046 5.70553C14.4137 4.37767 15.2548 4.65457 15.2548 4.65457C15.8011 6.06424 15.4573 7.1089 15.353 7.36692C15.9914 8.08434 16.3781 8.99685 16.3781 10.117C16.3781 14.0566 14.0393 14.9187 11.8109 15.1767C12.167 15.4914 12.4923 16.1207 12.4923 17.0773C12.4923 18.4492 12.48 19.5505 12.48 19.8903C12.48 20.1672 12.6581 20.4819 13.1676 20.3812C17.1393 19.0219 20 15.183 20 10.6582C20 4.98811 15.5249 0.400391 10 0.400391Z" fill="#E0E0E0"/>
</svg>
